<svg xmlns="http://www.w3.org/2000/svg" width="120" height="100" viewBox="0 0 120 100"><defs><linearGradient id="b" x1="0%" x2="100%" y1="0%" y2="100%"><stop offset="0%" stop-color="#100028"/><stop offset="100%" stop-color="#200040"/></linearGradient><linearGradient id="d" x1="0%" x2="100%" y1="0%" y2="0%"><stop offset="0%" stop-color="#080014"/><stop offset="100%" stop-color="#0c0020"/></linearGradient><linearGradient id="e" x1="0%" x2="100%" y1="0%" y2="0%"><stop offset="0%" stop-color="#180030"/><stop offset="100%" stop-color="#100020"/></linearGradient><filter id="c" width="110%" height="110%" x="-5%" y="-5%"><feTurbulence baseFrequency="0.05 0.04" numOctaves="5" result="turb" seed="42"/><feColorMatrix in="turb" result="nebula" values="0.2 0 0 0 0.04 0 0 0 0 0 0.3 0.1 0 0 0.1 0 0 0 3 -1"/><feBlend in="SourceGraphic" in2="nebula" mode="screen" result="blended"/><feComposite in="blended" in2="SourceGraphic" operator="in"/></filter><filter id="a" width="150%" height="150%" x="-25%" y="-25%"><feDropShadow dx="0" dy="2" flood-color="#8020ff" flood-opacity=".7" stdDeviation="6"/></filter><radialGradient id="f" cx="55%" cy="45%" r="50%"><stop offset="0%" stop-color="#6010c0" stop-opacity=".5"/><stop offset="50%" stop-color="#400080" stop-opacity=".2"/><stop offset="100%" stop-color="#200040" stop-opacity="0"/></radialGradient><clipPath id="g"><path d="m60 24 45.2 26L60 76 14.8 50z"/></clipPath></defs><g stroke-width=".8" filter="url(#a)"><path fill="url(#b)" stroke="#6020c0" d="m60 24 45.2 26L60 76 14.8 50z" filter="url(#c)"/><path fill="url(#d)" stroke="#5018a0" d="M14.8 50 60 76v26L14.8 76z"/><path fill="url(#e)" stroke="#5018a0" d="M105.2 50 60 76v26l45.2-26z"/></g><path fill="url(#f)" d="m60 24 45.2 26L60 76 14.8 50z"/><g clip-path="url(#g)"><circle cx="35" cy="45" r=".9" fill="#fff" opacity=".95"/><circle cx="52" cy="35" r="1.1" fill="#ffffd0" opacity=".9"/><circle cx="68" cy="38" r=".8" fill="#fff" opacity=".85"/><circle cx="82" cy="44" r="1" fill="#ffe0a0" opacity=".9"/><circle cx="92" cy="52" r=".7" fill="#fff" opacity=".8"/><circle cx="78" cy="62" r=".9" fill="#fff" opacity=".85"/><circle cx="60" cy="67" r="1" fill="#ffe8b0" opacity=".8"/><circle cx="42" cy="64" r=".8" fill="#fff" opacity=".8"/><circle cx="25" cy="54" r=".9" fill="#ffffc0" opacity=".85"/><circle cx="44" cy="50" r=".6" fill="#fff" opacity=".7"/><circle cx="62" cy="46" r=".7" fill="#ffd890" opacity=".8"/><circle cx="75" cy="55" r=".8" fill="#fff" opacity=".75"/><circle cx="55" cy="58" r=".6" fill="#fff" opacity=".7"/><circle cx="38" cy="38" r=".7" fill="#ffe0c0" opacity=".8"/><circle cx="88" cy="60" r=".8" fill="#fff" opacity=".75"/><path stroke="#ffffd0" d="M42 40v6m-3-3h6" opacity=".85"/><path stroke="#ffe0a0" stroke-width="1.2" d="M62 51v8m-4-4h8" opacity=".9"/><circle cx="62" cy="55" r="1.2" fill="#ffe8b0" opacity=".7"/><path stroke="#fff" d="M84 46v6m-3-3h6" opacity=".8"/></g><path stroke="#9040ff" stroke-width="1.2" d="M14.8 50 60 24m0 0 45.2 26" opacity=".8"/></svg>