<svg xmlns="http://www.w3.org/2000/svg" viewBox="0 0 200 140"><defs><linearGradient id="a" x1="0%" x2="100%" y1="0%" y2="100%"><stop offset="0%" stop-color="#0a0018"/><stop offset="100%" stop-color="#200040"/></linearGradient><linearGradient id="i" x1="0%" x2="60%" y1="0%" y2="100%"><stop offset="0%" stop-color="#c080ff" stop-opacity=".14"/><stop offset="50%" stop-color="#c080ff" stop-opacity=".04"/><stop offset="100%" stop-color="#c080ff" stop-opacity="0"/></linearGradient><linearGradient id="d" x1="0%" x2="100%" y1="0%" y2="100%"><stop offset="0%" stop-color="#6030c0"/><stop offset="50%" stop-color="#3a1880"/><stop offset="100%" stop-color="#180838"/></linearGradient><linearGradient id="f" x1="0%" x2="100%" y1="0%" y2="0%"><stop offset="0%" stop-color="#0c0420"/><stop offset="100%" stop-color="#180838"/></linearGradient><linearGradient id="g" x1="0%" x2="100%" y1="0%" y2="0%"><stop offset="0%" stop-color="#280858"/><stop offset="100%" stop-color="#1c0640"/></linearGradient><filter id="e" width="110%" height="110%" x="-5%" y="-5%"><feTurbulence baseFrequency=".05" numOctaves="4" result="noise" seed="17"/><feColorMatrix in="noise" result="cn" values="0.4 0 0.6 0 0.1 0 0.1 0.4 0 0.0 0.5 0 0.8 0 0.2 0 0 0 0.6 0"/><feBlend in="SourceGraphic" in2="cn" mode="screen" result="t"/><feComposite in="t" in2="SourceGraphic" operator="in"/></filter><filter id="h" width="180%" height="180%" x="-40%" y="-40%"><feGaussianBlur result="blur" stdDeviation="5"/><feComposite in="SourceGraphic" in2="blur"/></filter><filter id="b" width="220%" height="220%" x="-60%" y="-60%"><feGaussianBlur result="blur" stdDeviation="8"/><feComposite in="SourceGraphic" in2="blur"/></filter><filter id="c" width="150%" height="150%" x="-20%" y="-20%"><feDropShadow dx="0" dy="0" flood-color="#8020ff" flood-opacity=".5" stdDeviation="6"/></filter></defs><rect width="200" height="140" fill="url(#a)" rx="10"/><circle cx="18" cy="12" r=".8" fill="#fff" opacity=".75"/><circle cx="47" cy="8" r=".6" fill="#fff" opacity=".6"/><circle cx="72" cy="18" r="1" fill="#fff" opacity=".8"/><circle cx="130" cy="11" r=".7" fill="#fff" opacity=".65"/><circle cx="158" cy="7" r=".9" fill="#fff" opacity=".7"/><circle cx="185" cy="15" r=".6" fill="#fff" opacity=".55"/><circle cx="25" cy="30" r=".5" fill="#fff" opacity=".5"/><circle cx="165" cy="25" r=".8" fill="#fff" opacity=".6"/><circle cx="12" cy="95" r=".7" fill="#fff" opacity=".55"/><circle cx="38" cy="110" r=".6" fill="#fff" opacity=".45"/><circle cx="175" cy="100" r=".9" fill="#fff" opacity=".65"/><circle cx="188" cy="120" r=".7" fill="#fff" opacity=".55"/><circle cx="145" cy="130" r=".6" fill="#fff" opacity=".5"/><circle cx="55" cy="125" r=".8" fill="#fff" opacity=".6"/><circle cx="30" cy="50" r="1" fill="#e0a0ff" opacity=".6"/><circle cx="170" cy="55" r=".8" fill="#c080ff" opacity=".5"/><circle cx="60" cy="105" r=".7" fill="#ff80c0" opacity=".45"/><circle cx="140" cy="115" r=".9" fill="#a060ff" opacity=".55"/><ellipse cx="100" cy="60" fill="#6020c0" filter="url(#b)" opacity=".18" rx="52" ry="30"/><ellipse cx="100" cy="60" fill="#9040e0" filter="url(#b)" opacity=".15" rx="34" ry="19"/><g stroke-width=".9" filter="url(#c)"><path fill="url(#d)" stroke="#9040e0" d="m100 30 27.7 16L100 62 72.3 46z" filter="url(#e)"/><path fill="url(#f)" stroke="#4010a0" d="M72.3 46 100 62v16L72.3 62z"/><path fill="url(#g)" stroke="#6020c0" d="M127.7 46 100 62v16l27.7-16z"/></g><circle cx="88" cy="42" r="1.5" fill="#c080ff" filter="url(#h)" opacity=".8"/><circle cx="106" cy="36" r="1" fill="#e0a0ff" filter="url(#h)" opacity=".7"/><circle cx="114" cy="48" r=".8" fill="#ff80c0" filter="url(#h)" opacity=".6"/><circle cx="92" cy="54" r="1.2" fill="#8040e0" filter="url(#h)" opacity=".65"/><path fill="none" stroke="#c080ff" stroke-width=".7" d="M80 52q14-12 32-8" opacity=".35"/><path fill="none" stroke="#e0b0ff" stroke-width=".5" d="M84 46q12-10 26-6" opacity=".25"/><path stroke="#c080ff" stroke-width="1.5" d="M72.3 46 100 30" filter="url(#h)" opacity=".8"/><path stroke="#9050e0" stroke-width="1.2" d="m100 30 27.7 16" filter="url(#h)" opacity=".7"/><circle cx="100" cy="30" r="2.5" fill="#d090ff" filter="url(#h)" opacity=".85"/><circle cx="72.3" cy="46" r="1.8" fill="#a060e0" filter="url(#h)" opacity=".65"/><circle cx="127.7" cy="46" r="1.8" fill="#a060e0" filter="url(#h)" opacity=".65"/><rect width="200" height="140" fill="url(#i)" rx="10"/><text x="100" y="115" fill="#c080ff" stroke="#050010" stroke-width="2" filter="url(#h)" font-family="Arial Black, Arial, sans-serif" font-size="14" font-weight="900" letter-spacing="2" paint-order="stroke" text-anchor="middle">GALAXIE</text><rect width="198" height="138" x="1" y="1" fill="none" stroke="#8040c0" stroke-width="1.5" filter="url(#h)" opacity=".65" rx="9.5"/></svg>