<svg xmlns="http://www.w3.org/2000/svg" width="120" height="100" viewBox="0 0 120 100"><defs><linearGradient id="b" x1="0%" x2="100%" y1="0%" y2="100%"><stop offset="0%" stop-color="#f8f4ee"/><stop offset="100%" stop-color="#e8e0d0"/></linearGradient><linearGradient id="d" x1="0%" x2="100%" y1="0%" y2="0%"><stop offset="0%" stop-color="#c0b8a8"/><stop offset="100%" stop-color="#d0c8b8"/></linearGradient><linearGradient id="e" x1="0%" x2="100%" y1="0%" y2="0%"><stop offset="0%" stop-color="#e0d8c8"/><stop offset="100%" stop-color="#d8d0c0"/></linearGradient><filter id="c" width="110%" height="110%" x="-5%" y="-5%"><feTurbulence baseFrequency="0.025 0.04" numOctaves="5" result="turb" seed="12"/><feColorMatrix in="turb" result="marbreNoise" values="0.5 0.3 0 0 0.2 0.4 0.2 0 0 0.15 0 0 0 0 0 0 0 0 4 -2"/><feBlend in="SourceGraphic" in2="marbreNoise" mode="multiply" result="blended"/><feComposite in="blended" in2="SourceGraphic" operator="in"/></filter><filter id="a" width="140%" height="140%" x="-15%" y="-15%"><feDropShadow dx="2" dy="3" flood-color="#402800" flood-opacity=".3" stdDeviation="3"/></filter><clipPath id="f"><path d="m60 24 45.2 26L60 76 14.8 50z"/></clipPath></defs><g stroke-width=".7" filter="url(#a)"><path fill="url(#b)" stroke="#b0a890" d="m60 24 45.2 26L60 76 14.8 50z" filter="url(#c)"/><path fill="url(#d)" stroke="#a09880" d="M14.8 50 60 76v26L14.8 76z"/><path fill="url(#e)" stroke="#a09880" d="M105.2 50 60 76v26l45.2-26z"/></g><g fill="none" clip-path="url(#f)" opacity=".55"><path stroke="#c8a030" stroke-width=".9" d="M20 52c10-8 22 6 35-4 10-8 23 6 40-2"/><path stroke="#c8a030" stroke-width=".7" d="M30 62c14-8 28 4 40-4 10-6 20 4 34-2"/><path stroke="#d4b040" stroke-width=".5" d="M16 48c12-8 20 4 32-4s24 6 37-2" opacity=".7"/></g><path stroke="#fff" d="M14.8 50 60 24m0 0 45.2 26" opacity=".5"/></svg>