<svg xmlns="http://www.w3.org/2000/svg" viewBox="0 0 200 140"><defs><linearGradient id="a" x1="0%" x2="100%" y1="0%" y2="100%"><stop offset="0%" stop-color="#d8d0c8"/><stop offset="100%" stop-color="#a8a098"/></linearGradient><linearGradient id="g" x1="0%" x2="60%" y1="0%" y2="100%"><stop offset="0%" stop-color="#fff" stop-opacity=".3"/><stop offset="45%" stop-color="#fff" stop-opacity=".08"/><stop offset="100%" stop-color="#fff" stop-opacity="0"/></linearGradient><linearGradient id="c" x1="0%" x2="100%" y1="0%" y2="100%"><stop offset="0%" stop-color="#f4f0e8"/><stop offset="40%" stop-color="#d8ceb8"/><stop offset="100%" stop-color="#c8b898"/></linearGradient><linearGradient id="e" x1="0%" x2="100%" y1="0%" y2="0%"><stop offset="0%" stop-color="#908068"/><stop offset="100%" stop-color="#b09880"/></linearGradient><linearGradient id="f" x1="0%" x2="100%" y1="0%" y2="0%"><stop offset="0%" stop-color="#c0a880"/><stop offset="100%" stop-color="#a89070"/></linearGradient><filter id="d" width="110%" height="110%" x="-5%" y="-5%"><feTurbulence baseFrequency="0.025 0.08" numOctaves="4" result="noise" seed="11"/><feColorMatrix in="noise" result="cn" values="0.2 0.15 0.1 0 0.7 0.15 0.1 0.08 0 0.6 0.1 0.08 0.05 0 0.5 0 0 0 1 0"/><feBlend in="SourceGraphic" in2="cn" mode="screen" result="t"/><feComposite in="t" in2="SourceGraphic" operator="in"/></filter><filter id="b" width="150%" height="150%" x="-20%" y="-20%"><feDropShadow dx="2" dy="3" flood-color="#504030" flood-opacity=".5" stdDeviation="3"/></filter></defs><rect width="200" height="140" fill="url(#a)" rx="10"/><g stroke-width=".8" filter="url(#b)"><path fill="url(#c)" stroke="#90805a" d="m100 30 27.7 16L100 62 72.3 46z" filter="url(#d)"/><path fill="url(#e)" stroke="#706040" d="M72.3 46 100 62v16L72.3 62z"/><path fill="url(#f)" stroke="#a08858" d="M127.7 46 100 62v16l27.7-16z"/></g><path fill="none" stroke="#c8a850" stroke-width=".8" d="M78 56q12-12 24-6 10 4 18-8" opacity=".55"/><path fill="none" stroke="#d0b860" stroke-width=".5" d="M82 48q12-10 26-2" opacity=".4"/><path fill="none" stroke="#b89848" stroke-width=".6" d="M85 60q11-8 25-6" opacity=".35"/><path fill="none" stroke="#c0a040" stroke-width=".5" d="m115 52-9 18" opacity=".4"/><path fill="#fff" d="m100 30 15 8-15 8-15-8z" opacity=".18"/><rect width="200" height="140" fill="url(#g)" rx="10"/><text x="100" y="115" fill="#806040" stroke="#f0ead8" stroke-width="2.5" font-family="Arial Black, Arial, sans-serif" font-size="14" font-weight="900" letter-spacing="2" paint-order="stroke" text-anchor="middle">MARBRE</text><rect width="198" height="138" x="1" y="1" fill="none" stroke="#c8b890" stroke-width="1.5" opacity=".8" rx="9.5"/></svg>