<svg xmlns="http://www.w3.org/2000/svg" preserveAspectRatio="xMidYMid slice" viewBox="0 0 3840 2160"><defs><radialGradient id="b" cx="50%" cy="15%" r="60%" gradientUnits="userSpaceOnUse"><stop offset="0%" stop-color="#50c8f0" stop-opacity=".45"/><stop offset="50%" stop-color="#2868a8" stop-opacity=".2"/><stop offset="100%" stop-color="#040c28" stop-opacity="0"/></radialGradient><radialGradient id="d" cx="25%" cy="50%" r="50%" gradientUnits="userSpaceOnUse"><stop offset="0%" stop-color="#28aaa0" stop-opacity=".35"/><stop offset="100%" stop-color="#040c28" stop-opacity="0"/></radialGradient><radialGradient id="f" cx="75%" cy="65%" r="45%" gradientUnits="userSpaceOnUse"><stop offset="0%" stop-color="#0c4888" stop-opacity=".4"/><stop offset="100%" stop-color="#030820" stop-opacity="0"/></radialGradient><radialGradient id="l" cx="40%" cy="20%" r="35%" gradientUnits="userSpaceOnUse"><stop offset="0%" stop-color="#a0f0ff" stop-opacity=".5"/><stop offset="60%" stop-color="#50c8f0" stop-opacity=".15"/><stop offset="100%" stop-color="#040c28" stop-opacity="0"/></radialGradient><radialGradient id="m" cx="70%" cy="30%" r="30%" gradientUnits="userSpaceOnUse"><stop offset="0%" stop-color="#a0f0ff" stop-opacity=".4"/><stop offset="100%" stop-color="#040c28" stop-opacity="0"/></radialGradient><radialGradient id="j" cx="30%" cy="70%" r="20%" gradientUnits="userSpaceOnUse"><stop offset="0%" stop-color="#50c8f0" stop-opacity=".55"/><stop offset="100%" stop-color="#040c28" stop-opacity="0"/></radialGradient><radialGradient id="k" cx="70%" cy="75%" r="18%" gradientUnits="userSpaceOnUse"><stop offset="0%" stop-color="#28aaa0" stop-opacity=".5"/><stop offset="100%" stop-color="#040c28" stop-opacity="0"/></radialGradient><radialGradient id="r" cx="50%" cy="50%" r="72%" gradientUnits="userSpaceOnUse"><stop offset="35%" stop-opacity="0"/><stop offset="100%" stop-opacity=".9"/></radialGradient><radialGradient id="p" cx="22%" cy="5%" r="30%" gradientUnits="userSpaceOnUse"><stop offset="0%" stop-color="#a0f0ff" stop-opacity=".55"/><stop offset="50%" stop-color="#50c8f0" stop-opacity=".2"/><stop offset="100%" stop-color="#040c28" stop-opacity="0"/></radialGradient><filter id="n" width="220%" height="220%" x="-60%" y="-60%"><feGaussianBlur in="SourceGraphic" result="b1" stdDeviation="10"/><feGaussianBlur in="SourceGraphic" result="b2" stdDeviation="25"/><feColorMatrix in="b1" result="c1" values="0 0 0 0 0.31 0 0 0 0 0.78 0 0 0 0 0.94 0 0 0 2 0"/><feColorMatrix in="b2" result="c2" values="0 0 0 0 0.31 0 0 0 0 0.78 0 0 0 0 0.94 0 0 0 0.9 0"/><feMerge><feMergeNode in="c2"/><feMergeNode in="c1"/><feMergeNode in="SourceGraphic"/></feMerge></filter><filter id="o" width="220%" height="220%" x="-60%" y="-60%"><feGaussianBlur in="SourceGraphic" result="b1" stdDeviation="8"/><feColorMatrix in="b1" result="c1" values="0 0 0 0 0.16 0 0 0 0 0.67 0 0 0 0 0.63 0 0 0 2.5 0"/><feMerge><feMergeNode in="c1"/><feMergeNode in="SourceGraphic"/></feMerge></filter><filter id="s" width="100%" height="100%" x="0%" y="0%"><feTurbulence baseFrequency=".65" numOctaves="4" result="n" stitchTiles="stitch" type="fractalNoise"/><feColorMatrix in="n" result="gn" type="saturate" values="0"/><feBlend in="SourceGraphic" in2="gn" mode="overlay" result="bl"/><feComposite in="bl" in2="SourceGraphic" operator="in"/></filter><filter id="q" width="130%" height="130%" x="-15%" y="-15%"><feGaussianBlur stdDeviation="5"/></filter><filter id="c" width="160%" height="160%" x="-30%" y="-30%"><feGaussianBlur stdDeviation="18"/></filter><filter id="e" width="140%" height="140%" x="-20%" y="-20%"><feGaussianBlur stdDeviation="9"/></filter><filter id="g"><feTurbulence baseFrequency="0.025 0.02" numOctaves="5" result="t" seed="8"/><feDisplacementMap in="SourceGraphic" in2="t" scale="30" xChannelSelector="R" yChannelSelector="G"/></filter><linearGradient id="a" x1="0%" x2="0%" y1="0%" y2="100%"><stop offset="0%" stop-color="#030820"/><stop offset="15%" stop-color="#040c28"/><stop offset="50%" stop-color="#070f38"/><stop offset="80%" stop-color="#0c4888"/><stop offset="100%" stop-color="#030820"/></linearGradient><linearGradient id="i" x1="0%" x2="0%" y1="100%" y2="0%"><stop offset="0%" stop-color="#50c8f0" stop-opacity=".25"/><stop offset="100%" stop-color="#a0f0ff" stop-opacity="0"/></linearGradient><linearGradient id="h" x1="50%" x2="50%" y1="0%" y2="100%"><stop offset="0%" stop-color="#a0f0ff" stop-opacity=".3"/><stop offset="70%" stop-color="#50c8f0" stop-opacity=".05"/><stop offset="100%" stop-color="#50c8f0" stop-opacity="0"/></linearGradient></defs><path fill="url(#a)" d="M0 0h3840v2160H0z"/><path fill="url(#b)" d="M0 0h3840v2160H0z" filter="url(#c)" opacity=".85"/><path fill="url(#d)" d="M0 0h3840v2160H0z" filter="url(#e)" opacity=".7"/><path fill="url(#f)" d="M0 0h3840v2160H0z" filter="url(#e)" opacity=".6"/><g filter="url(#g)" opacity=".45"><ellipse cx="800" cy="400" fill="#a0f0ff" opacity=".25" rx="600" ry="200"/><ellipse cx="1800" cy="350" fill="#50c8f0" opacity=".22" rx="550" ry="180"/><ellipse cx="2900" cy="420" fill="#a0f0ff" opacity=".25" rx="580" ry="195"/><ellipse cx="1300" cy="600" fill="#50c8f0" opacity=".2" rx="500" ry="160"/><ellipse cx="2400" cy="580" fill="#a0f0ff" opacity=".22" rx="520" ry="170"/></g><path fill="url(#h)" d="M0 0h3840v800H0z" filter="url(#e)" opacity=".55"/><g filter="url(#c)" opacity=".35"><path fill="#50c8f0" d="M1840 0h80l280 2160h-500z"/><path fill="#a0f0ff" d="M1700 0h80l170 2160h-370z"/><path fill="#50c8f0" d="M1960 0h80l310 2160h-250z"/><path fill="#a0f0ff" d="M1560 0h80l120 2160h-340z"/><path fill="#50c8f0" d="M2080 0h80l390 2160h-250z"/><path fill="#a0f0ff" d="M1420 0h90l70 2160h-330z"/><path fill="#50c8f0" d="M2200 0h90l460 2160h-250z"/><path fill="#a0f0ff" d="M2320 0h80l550 2160h-250z"/></g><path fill="url(#i)" d="M0 0h3840v600H0z" filter="url(#c)" opacity=".6"/><path fill="#a0f0ff" d="M0 0h3840v280H0z" filter="url(#c)" opacity=".08"/><g filter="url(#e)" opacity=".55"><circle cx="380" cy="2100" r="8" fill="#a0f0ff" opacity=".6"/><circle cx="370" cy="1950" r="6" fill="#50c8f0" opacity=".55"/><circle cx="390" cy="1780" r="9" fill="#a0f0ff" opacity=".5"/><circle cx="375" cy="1600" r="7" fill="#50c8f0" opacity=".45"/><circle cx="385" cy="1400" r="5" fill="#a0f0ff" opacity=".4"/><circle cx="372" cy="1200" r="8" fill="#50c8f0" opacity=".38"/><circle cx="382" cy="980" r="6" fill="#a0f0ff" opacity=".32"/><circle cx="368" cy="760" r="4" fill="#50c8f0" opacity=".28"/><circle cx="1120" cy="2100" r="7" fill="#a0f0ff" opacity=".6"/><circle cx="1115" cy="1920" r="9" fill="#50c8f0" opacity=".55"/><circle cx="1125" cy="1740" r="6" fill="#a0f0ff" opacity=".5"/><circle cx="1112" cy="1550" r="8" fill="#50c8f0" opacity=".45"/><circle cx="1118" cy="1360" r="5" fill="#a0f0ff" opacity=".4"/><circle cx="1108" cy="1160" r="7" fill="#50c8f0" opacity=".35"/><circle cx="1122" cy="940" r="4" fill="#a0f0ff" opacity=".3"/><circle cx="1960" cy="2100" r="9" fill="#a0f0ff" opacity=".6"/><circle cx="1952" cy="1900" r="6" fill="#50c8f0" opacity=".55"/><circle cx="1965" cy="1700" r="8" fill="#a0f0ff" opacity=".5"/><circle cx="1958" cy="1500" r="7" fill="#50c8f0" opacity=".45"/><circle cx="1950" cy="1280" r="5" fill="#a0f0ff" opacity=".4"/><circle cx="1962" cy="1060" r="8" fill="#50c8f0" opacity=".35"/><circle cx="1955" cy="840" r="4" fill="#a0f0ff" opacity=".28"/><circle cx="2800" cy="2100" r="8" fill="#a0f0ff" opacity=".6"/><circle cx="2790" cy="1930" r="6" fill="#50c8f0" opacity=".55"/><circle cx="2808" cy="1760" r="9" fill="#a0f0ff" opacity=".5"/><circle cx="2795" cy="1580" r="7" fill="#50c8f0" opacity=".45"/><circle cx="2802" cy="1380" r="5" fill="#a0f0ff" opacity=".4"/><circle cx="2788" cy="1180" r="8" fill="#50c8f0" opacity=".35"/><circle cx="2798" cy="960" r="4" fill="#a0f0ff" opacity=".3"/><circle cx="3500" cy="2100" r="7" fill="#a0f0ff" opacity=".6"/><circle cx="3494" cy="1920" r="9" fill="#50c8f0" opacity=".55"/><circle cx="3506" cy="1740" r="6" fill="#a0f0ff" opacity=".5"/><circle cx="3498" cy="1550" r="8" fill="#50c8f0" opacity=".45"/><circle cx="3503" cy="1360" r="5" fill="#a0f0ff" opacity=".4"/><circle cx="3492" cy="1150" r="7" fill="#50c8f0" opacity=".35"/><circle cx="3501" cy="940" r="4" fill="#a0f0ff" opacity=".28"/></g><ellipse cx="640" cy="1500" fill="url(#j)" filter="url(#c)" opacity=".7" rx="120" ry="80"/><ellipse cx="1400" cy="1650" fill="url(#k)" filter="url(#c)" opacity=".65" rx="100" ry="65"/><ellipse cx="2200" cy="1400" fill="url(#j)" filter="url(#c)" opacity=".7" rx="130" ry="85"/><ellipse cx="3000" cy="1580" fill="url(#k)" filter="url(#c)" opacity=".65" rx="110" ry="72"/><ellipse cx="3700" cy="1450" fill="url(#j)" filter="url(#c)" opacity=".6" rx="95" ry="62"/><path fill="url(#l)" d="M0 0h3840v2160H0z" filter="url(#c)" opacity=".6"/><path fill="url(#m)" d="M0 0h3840v2160H0z" filter="url(#c)" opacity=".5"/><g filter="url(#n)"><circle cx="420" cy="1050" r="4" fill="#50c8f0" opacity=".88"/><circle cx="680" cy="900" r="3" fill="#a0f0ff" opacity=".82"/><circle cx="940" cy="1180" r="5" fill="#50c8f0" opacity=".92"/><circle cx="1200" cy="820" r="3" fill="#a0f0ff" opacity=".78"/><circle cx="1440" cy="1080" r="4" fill="#50c8f0" opacity=".85"/><circle cx="1720" cy="760" r="3" fill="#50c8f0" opacity=".8"/><circle cx="1960" cy="1260" r="5" fill="#50c8f0" opacity=".9"/><circle cx="2200" cy="940" r="3" fill="#a0f0ff" opacity=".75"/><circle cx="2440" cy="1140" r="4" fill="#50c8f0" opacity=".85"/><circle cx="2700" cy="860" r="3" fill="#50c8f0" opacity=".8"/><circle cx="2960" cy="1200" r="5" fill="#50c8f0" opacity=".9"/><circle cx="3220" cy="990" r="3" fill="#a0f0ff" opacity=".75"/><circle cx="3460" cy="1110" r="4" fill="#50c8f0" opacity=".85"/><circle cx="310" cy="1380" r="3" fill="#28aaa0" opacity=".72"/><circle cx="580" cy="1540" r="4" fill="#50c8f0" opacity=".78"/><circle cx="860" cy="1460" r="3" fill="#a0f0ff" opacity=".68"/><circle cx="1140" cy="1550" r="4" fill="#50c8f0" opacity=".75"/><circle cx="1480" cy="1400" r="3" fill="#28aaa0" opacity=".7"/><circle cx="1760" cy="1620" r="4" fill="#50c8f0" opacity=".75"/><circle cx="2040" cy="1480" r="3" fill="#a0f0ff" opacity=".68"/><circle cx="2320" cy="1580" r="4" fill="#50c8f0" opacity=".78"/><circle cx="2600" cy="1440" r="3" fill="#28aaa0" opacity=".7"/><circle cx="2880" cy="1560" r="4" fill="#50c8f0" opacity=".75"/><circle cx="3160" cy="1480" r="3" fill="#a0f0ff" opacity=".68"/><circle cx="3440" cy="1560" r="4" fill="#50c8f0" opacity=".78"/><circle cx="460" cy="680" r="3" fill="#a0f0ff" opacity=".6"/><circle cx="760" cy="620" r="2" fill="#50c8f0" opacity=".55"/><circle cx="1100" cy="660" r="3" fill="#a0f0ff" opacity=".58"/><circle cx="1500" cy="640" r="2" fill="#50c8f0" opacity=".55"/><circle cx="1900" cy="655" r="3" fill="#a0f0ff" opacity=".58"/><circle cx="2300" cy="635" r="2" fill="#50c8f0" opacity=".55"/><circle cx="2700" cy="648" r="3" fill="#a0f0ff" opacity=".58"/><circle cx="3100" cy="638" r="2" fill="#50c8f0" opacity=".55"/><circle cx="3500" cy="658" r="3" fill="#a0f0ff" opacity=".58"/><circle cx="580" cy="1780" r="4" fill="#28aaa0" opacity=".52"/><circle cx="1180" cy="1800" r="4" fill="#50c8f0" opacity=".48"/><circle cx="1780" cy="1790" r="4" fill="#28aaa0" opacity=".52"/><circle cx="2380" cy="1770" r="4" fill="#50c8f0" opacity=".48"/><circle cx="2980" cy="1780" r="4" fill="#28aaa0" opacity=".52"/><circle cx="3580" cy="1760" r="4" fill="#50c8f0" opacity=".48"/></g><g filter="url(#o)"><circle cx="520" cy="1100" r="3" fill="#28aaa0" opacity=".82"/><circle cx="1020" cy="1200" r="4" fill="#50c8f0" opacity=".78"/><circle cx="1620" cy="1050" r="3" fill="#28aaa0" opacity=".85"/><circle cx="2120" cy="1180" r="4" fill="#50c8f0" opacity=".78"/><circle cx="2720" cy="1080" r="3" fill="#28aaa0" opacity=".82"/><circle cx="3220" cy="1220" r="4" fill="#50c8f0" opacity=".78"/><circle cx="760" cy="1350" r="3" fill="#28aaa0" opacity=".72"/><circle cx="1460" cy="1420" r="4" fill="#50c8f0" opacity=".68"/><circle cx="2160" cy="1380" r="3" fill="#28aaa0" opacity=".75"/><circle cx="2860" cy="1450" r="4" fill="#50c8f0" opacity=".72"/><circle cx="3460" cy="1400" r="3" fill="#28aaa0" opacity=".68"/></g><ellipse cx="850" cy="160" fill="url(#p)" filter="url(#c)" opacity=".8" rx="900" ry="300"/><ellipse cx="1920" cy="80" fill="#a0f0ff" filter="url(#c)" opacity=".07" rx="500" ry="180"/><path fill="#030820" d="M0 1750h3840v410H0z" filter="url(#q)" opacity=".7"/><path fill="#020614" d="M0 1950h3840v210H0z" opacity=".95"/><path fill="#040c28" d="M0 0h3840v320H0z" filter="url(#e)" opacity=".5"/><path fill="#030820" d="M0 0h3840v160H0z" opacity=".75"/><path fill="url(#r)" d="M0 0h3840v2160H0z"/><path fill="#2868a8" d="M0 0h3840v2160H0z" filter="url(#s)" opacity=".03"/></svg>