<svg xmlns="http://www.w3.org/2000/svg" height="20" opacity=".9" viewBox="0 0 400 20"><defs><linearGradient id="a" x1="0" x2="0" y1="0" y2="1"><stop offset="0%" stop-color="#0af" stop-opacity=".9"/><stop offset="100%" stop-color="#003a7a"/></linearGradient><filter id="b" width="140%" height="140%" x="-20%" y="-20%"><feDropShadow dx="0" dy="0" flood-color="#00d4ff" flood-opacity=".8" stdDeviation="2"/></filter></defs><path fill="#005ea0" d="M0 13c16-5 32 2 48-3s32 3 48-1 32 4 48 0 32 4 48 0 32 4 48 0 32 4 48 0 32 4 48 0 32 4 48 0c8-2 16 1 16 1v10H0Z" opacity=".55"/><path fill="url(#a)" d="M0 15c20-6 40 2 60-3s40 3 60-1 40 4 60 0 40 4 60 0 40 4 60 0 40 4 60 0 40 4 40 2v7H0Z" filter="url(#b)"/><circle cx="30" cy="7" r="2" fill="none" stroke="#7ef5ff" stroke-width=".7" opacity=".8"/><circle cx="30" cy="7" r=".7" fill="#fff" opacity=".6"/><circle cx="75" cy="5" r="1.4" fill="none" stroke="#7ef5ff" stroke-width=".6" opacity=".75"/><circle cx="75" cy="5" r=".5" fill="#fff" opacity=".5"/><circle cx="130" cy="6" r="2.2" fill="none" stroke="#00d4ff" stroke-width=".7" opacity=".8"/><circle cx="130" cy="6" r=".8" fill="#fff" opacity=".55"/><circle cx="190" cy="4" r="1.6" fill="none" stroke="#7ef5ff" stroke-width=".6" opacity=".7"/><circle cx="190" cy="4" r=".6" fill="#fff" opacity=".5"/><circle cx="250" cy="6" r="2" fill="none" stroke="#00d4ff" stroke-width=".7" opacity=".8"/><circle cx="250" cy="6" r=".7" fill="#fff" opacity=".55"/><circle cx="305" cy="5" r="1.3" fill="none" stroke="#7ef5ff" stroke-width=".55" opacity=".7"/><circle cx="305" cy="5" r=".5" fill="#fff" opacity=".45"/><circle cx="360" cy="7" r="1.8" fill="none" stroke="#00d4ff" stroke-width=".65" opacity=".75"/><circle cx="360" cy="7" r=".65" fill="#fff" opacity=".5"/></svg>