<svg xmlns="http://www.w3.org/2000/svg" viewBox="0 0 80 56"><defs><linearGradient id="a" x1="0" x2="0" y1="0" y2="1"><stop offset="0%" stop-color="#0a2860"/><stop offset="100%" stop-color="#040c28"/></linearGradient><linearGradient id="b" x1="0" x2="0" y1="0" y2="1"><stop offset="0%" stop-color="#1888cc"/><stop offset="100%" stop-color="#0a4a88"/></linearGradient><linearGradient id="c" x1="0" x2="0" y1="0" y2="1"><stop offset="0%" stop-color="#40a8e8"/><stop offset="100%" stop-color="#1868a8"/></linearGradient></defs><rect width="80" height="56" fill="url(#a)" rx="6"/><ellipse cx="40" cy="38" fill="#0840a0" opacity=".3" rx="30" ry="14"/><circle cx="12" cy="20" r="1.5" fill="#80d0ff" opacity=".4"/><circle cx="68" cy="16" r="1" fill="#80d0ff" opacity=".4"/><circle cx="58" cy="28" r="1.2" fill="#80d0ff" opacity=".3"/><path fill="url(#b)" d="M-5 34c10-6 20 2 30-3s20 3 30-2 17 3 30-2v29H-5Z" opacity=".7"/><path fill="url(#c)" d="M-5 40c13-7 23 1 35-4s22 3 35-2c7-3 13 2 20-1v23H-5Z"/><path fill="none" stroke="#88e0ff" d="M-2 36c6-4 12 1 20-2m12-2c8-4 14 1 22-2" opacity=".6"/><ellipse cx="32" cy="22" fill="#50c8f0" rx="9" ry="5"/><path fill="#38a0cc" d="m41 22 7-5v10Z"/><circle cx="25" cy="21" r="1.5" fill="#fff"/><circle cx="25" cy="21" r=".8" fill="#0a2860"/><path fill="none" stroke="#38a8d8" stroke-width=".8" d="M30 17.5q2 4.5 0 9" opacity=".5"/><path fill="none" stroke="#38a0cc" stroke-width="1.2" d="M28 18q4-4 8 0"/><text x="40" y="52" fill="#50c8f0" dominant-baseline="middle" font-family="Arial, sans-serif" font-size="8" font-weight="bold" text-anchor="middle">OCEAN</text><rect width="80" height="20" fill="#fff" opacity=".07" rx="6"/><rect width="80" height="8" fill="#fff" opacity=".08" rx="6"/></svg>