<svg xmlns="http://www.w3.org/2000/svg" preserveAspectRatio="xMidYMid slice" viewBox="0 0 3840 2160"><defs><radialGradient id="b" cx="50%" cy="25%" r="60%" gradientUnits="userSpaceOnUse"><stop offset="0%" stop-color="#88e0f8" stop-opacity=".45"/><stop offset="55%" stop-color="#3878a8" stop-opacity=".2"/><stop offset="100%" stop-color="#08121e" stop-opacity="0"/></radialGradient><radialGradient id="d" cx="25%" cy="55%" r="50%" gradientUnits="userSpaceOnUse"><stop offset="0%" stop-color="#60c0f0" stop-opacity=".35"/><stop offset="100%" stop-color="#040c16" stop-opacity="0"/></radialGradient><radialGradient id="f" cx="75%" cy="65%" r="45%" gradientUnits="userSpaceOnUse"><stop offset="0%" stop-color="#204c78" stop-opacity=".4"/><stop offset="100%" stop-color="#04081a" stop-opacity="0"/></radialGradient><radialGradient id="g" cx="50%" cy="40%" r="45%" gradientUnits="userSpaceOnUse"><stop offset="0%" stop-color="#c0f8ff" stop-opacity=".5"/><stop offset="60%" stop-color="#88e0f8" stop-opacity=".2"/><stop offset="100%" stop-color="#08121e" stop-opacity="0"/></radialGradient><radialGradient id="q" cx="40%" cy="30%" r="35%" gradientUnits="userSpaceOnUse"><stop offset="0%" stop-color="#c0f8ff" stop-opacity=".55"/><stop offset="100%" stop-color="#08121e" stop-opacity="0"/></radialGradient><radialGradient id="r" cx="50%" cy="50%" r="72%" gradientUnits="userSpaceOnUse"><stop offset="35%" stop-opacity="0"/><stop offset="100%" stop-opacity=".88"/></radialGradient><radialGradient id="o" cx="22%" cy="6%" r="30%" gradientUnits="userSpaceOnUse"><stop offset="0%" stop-color="#c0f8ff" stop-opacity=".55"/><stop offset="55%" stop-color="#88e0f8" stop-opacity=".18"/><stop offset="100%" stop-color="#08121e" stop-opacity="0"/></radialGradient><filter id="n" width="220%" height="220%" x="-60%" y="-60%"><feGaussianBlur in="SourceGraphic" result="b1" stdDeviation="10"/><feGaussianBlur in="SourceGraphic" result="b2" stdDeviation="28"/><feColorMatrix in="b1" result="c1" values="0 0 0 0 0.53 0 0 0 0 0.88 0 0 0 0 0.97 0 0 0 2.2 0"/><feColorMatrix in="b2" result="c2" values="0 0 0 0 0.53 0 0 0 0 0.88 0 0 0 0 0.97 0 0 0 0.9 0"/><feMerge><feMergeNode in="c2"/><feMergeNode in="c1"/><feMergeNode in="SourceGraphic"/></feMerge></filter><filter id="s" width="100%" height="100%" x="0%" y="0%"><feTurbulence baseFrequency=".65" numOctaves="4" result="n" stitchTiles="stitch" type="fractalNoise"/><feColorMatrix in="n" result="gn" type="saturate" values="0"/><feBlend in="SourceGraphic" in2="gn" mode="overlay" result="bl"/><feComposite in="bl" in2="SourceGraphic" operator="in"/></filter><filter id="m" width="130%" height="130%" x="-15%" y="-15%"><feGaussianBlur stdDeviation="5"/></filter><filter id="c" width="160%" height="160%" x="-30%" y="-30%"><feGaussianBlur stdDeviation="18"/></filter><filter id="e" width="140%" height="140%" x="-20%" y="-20%"><feGaussianBlur stdDeviation="9"/></filter><filter id="l"><feTurbulence baseFrequency="0.02 0.015" numOctaves="4" result="t" seed="11"/><feDisplacementMap in="SourceGraphic" in2="t" scale="22" xChannelSelector="R" yChannelSelector="G"/></filter><filter id="p"><feTurbulence baseFrequency="0.08 0.06" numOctaves="5" result="n" seed="4" type="fractalNoise"/><feColorMatrix in="n" result="colored" values="0.5 0 0 0 0.5 0 0.8 0 0 0.85 0 0 1 0 1 0 0 0 0.6 0"/><feBlend in="SourceGraphic" in2="colored" mode="overlay"/></filter><linearGradient id="a" x1="0%" x2="0%" y1="0%" y2="100%"><stop offset="0%" stop-color="#040c16"/><stop offset="20%" stop-color="#08121e"/><stop offset="50%" stop-color="#0e1c2e"/><stop offset="80%" stop-color="#3878a8"/><stop offset="100%" stop-color="#204c78"/></linearGradient><linearGradient id="k" x1="0%" x2="0%" y1="0%" y2="100%"><stop offset="0%" stop-color="#c0f8ff" stop-opacity=".25"/><stop offset="100%" stop-color="#88e0f8" stop-opacity=".6"/></linearGradient><linearGradient id="h" x1="0%" x2="100%" y1="50%" y2="50%"><stop offset="0%" stop-color="#88e0f8" stop-opacity="0"/><stop offset="20%" stop-color="#60c0f0" stop-opacity=".55"/><stop offset="50%" stop-color="#c0f8ff" stop-opacity=".7"/><stop offset="80%" stop-color="#88e0f8" stop-opacity=".55"/><stop offset="100%" stop-color="#88e0f8" stop-opacity="0"/></linearGradient><linearGradient id="i" x1="0%" x2="100%" y1="50%" y2="50%"><stop offset="0%" stop-color="#4888a8" stop-opacity="0"/><stop offset="25%" stop-color="#60c0f0" stop-opacity=".4"/><stop offset="60%" stop-color="#88e0f8" stop-opacity=".55"/><stop offset="85%" stop-color="#4888a8" stop-opacity=".4"/><stop offset="100%" stop-color="#4888a8" stop-opacity="0"/></linearGradient><linearGradient id="j" x1="0%" x2="100%" y1="50%" y2="50%"><stop offset="0%" stop-color="#c0f8ff" stop-opacity="0"/><stop offset="30%" stop-color="#88e0f8" stop-opacity=".35"/><stop offset="70%" stop-color="#60c0f0" stop-opacity=".45"/><stop offset="100%" stop-color="#c0f8ff" stop-opacity="0"/></linearGradient></defs><path fill="url(#a)" d="M0 0h3840v2160H0z"/><path fill="url(#b)" d="M0 0h3840v2160H0z" filter="url(#c)" opacity=".85"/><path fill="url(#d)" d="M0 0h3840v2160H0z" filter="url(#e)" opacity=".65"/><path fill="url(#f)" d="M0 0h3840v2160H0z" filter="url(#e)" opacity=".55"/><path fill="url(#g)" d="M0 0h3840v2160H0z" filter="url(#c)" opacity=".6"/><g filter="url(#c)"><path fill="url(#h)" d="M0 180h3840v140H0z" opacity=".85"/><path fill="url(#i)" d="M0 280h3840v110H0z" opacity=".75"/><path fill="url(#j)" d="M0 360h3840v90H0z" opacity=".65"/><path fill="url(#h)" d="M0 420h3840v120H0z" opacity=".6"/><path fill="url(#i)" d="M0 500h3840v100H0z" opacity=".5"/><path fill="url(#j)" d="M0 100h3840v120H0z" opacity=".55"/><path fill="#60c0f0" d="M0 220q480-40 960 20t960-20 960-20 960 20v100q-480 40-960-20t-960 20-960 20T0 320Z" opacity=".4"/><path fill="#88e0f8" d="M0 300q600-50 1200 20t1200-20 1440-10v100q-840-80-1440 10t-1200 20T0 390Z" opacity=".35"/><path fill="#c0f8ff" d="M0 380q500-40 1000 20t1000-10 1000-10q400 50 840 0v80q-440 50-840 0-500-50-1000 10-500 70-1000 10T0 460Z" opacity=".28"/></g><path fill="url(#k)" d="M0 1300h3840v860H0z" filter="url(#l)" opacity=".55"/><path fill="#88e0f8" d="M0 1400h3840v760H0z" filter="url(#e)" opacity=".06"/><g stroke-width="1.5" filter="url(#m)" opacity=".65"><path fill="#c0f8ff" fill-opacity=".12" stroke="#88e0f8" stroke-opacity=".6" d="m200 1350 320-70 160 140-240 100z"/><path fill="#88e0f8" fill-opacity=".1" stroke="#60c0f0" stroke-opacity=".55" d="m520 1280 360-30 140 130-340 40z"/><path fill="#c0f8ff" fill-opacity=".12" stroke="#88e0f8" stroke-opacity=".6" d="m880 1250 320 40 140 140-320-50z"/><path fill="#88e0f8" fill-opacity=".1" stroke="#60c0f0" stroke-opacity=".55" d="m1200 1290 360-30 140 150-360 20z"/><path fill="#c0f8ff" fill-opacity=".12" stroke="#88e0f8" stroke-opacity=".6" d="m1560 1260 340 40 140 150-340-40z"/><path fill="#88e0f8" fill-opacity=".1" stroke="#60c0f0" stroke-opacity=".55" d="m1900 1300 360-30 140 150-360 30z"/><path fill="#c0f8ff" fill-opacity=".12" stroke="#88e0f8" stroke-opacity=".6" d="m2260 1270 340 30 140 140-340-20z"/><path fill="#88e0f8" fill-opacity=".1" stroke="#60c0f0" stroke-opacity=".55" d="m2600 1300 360-20 140 140-360 20z"/><path fill="#c0f8ff" fill-opacity=".12" stroke="#88e0f8" stroke-opacity=".6" d="m2960 1280 340 30 140 150-340-40z"/><path fill="#88e0f8" fill-opacity=".1" stroke="#60c0f0" stroke-opacity=".55" d="m3300 1310 320-20 220 110-400 60z"/><path fill="none" stroke="#c0f8ff" stroke-width="2" d="M400 1380q50 40 20 100t20 120 20 120" opacity=".7"/><path fill="none" stroke="#88e0f8" stroke-width="2" d="M900 1320q60 50 40 120t30 140" opacity=".65"/><path fill="none" stroke="#c0f8ff" stroke-width="2" d="M1400 1360q40 60 10 140t20 150 20 150" opacity=".7"/><path fill="none" stroke="#88e0f8" stroke-width="2" d="M1900 1340q50 60 20 140t20 160" opacity=".65"/><path fill="none" stroke="#c0f8ff" stroke-width="2" d="M2400 1380q40 70 10 150t20 160 20 160" opacity=".7"/><path fill="none" stroke="#88e0f8" stroke-width="2" d="M2900 1360q50 60 30 140t30 160" opacity=".65"/><path fill="none" stroke="#c0f8ff" stroke-width="2" d="M3400 1390q40 70 10 150t20 160" opacity=".7"/><path fill="none" stroke="#88e0f8" d="M200 1500q400-40 800 20t800-20 800-10 800 10q300-50 440-20" opacity=".5"/><path fill="none" stroke="#60c0f0" d="M0 1620q400-40 800 20t800-20 800-20 800 0 640-20" opacity=".45"/></g><g filter="url(#c)" opacity=".4"><path fill="#c0f8ff" d="M1840 0h80l180 1500h-280z"/><path fill="#88e0f8" d="M1720 0h80l140 1500h-260z"/><path fill="#c0f8ff" d="M1960 0h80l220 1500h-280z"/><path fill="#88e0f8" d="M1580 0h80l120 1500h-240z"/><path fill="#c0f8ff" d="M2080 0h80l260 1500h-280z"/><path fill="#88e0f8" d="M1440 0h80l100 1500h-220z"/><path fill="#c0f8ff" d="M2200 0h80l300 1500h-280z"/></g><g filter="url(#n)"><circle cx="380" cy="950" r="3" fill="#c0f8ff" opacity=".85"/><circle cx="620" cy="820" r="2" fill="#88e0f8" opacity=".8"/><circle cx="880" cy="1050" r="4" fill="#c0f8ff" opacity=".9"/><circle cx="1140" cy="750" r="2" fill="#88e0f8" opacity=".78"/><circle cx="1380" cy="980" r="3" fill="#c0f8ff" opacity=".85"/><circle cx="1640" cy="720" r="2" fill="#88e0f8" opacity=".8"/><circle cx="1900" cy="1080" r="4" fill="#c0f8ff" opacity=".9"/><circle cx="2160" cy="780" r="2" fill="#88e0f8" opacity=".78"/><circle cx="2400" cy="1010" r="3" fill="#c0f8ff" opacity=".85"/><circle cx="2660" cy="760" r="2" fill="#88e0f8" opacity=".8"/><circle cx="2920" cy="1050" r="4" fill="#c0f8ff" opacity=".9"/><circle cx="3180" cy="810" r="2" fill="#88e0f8" opacity=".78"/><circle cx="3440" cy="980" r="3" fill="#c0f8ff" opacity=".85"/><circle cx="280" cy="1200" r="3" fill="#60c0f0" opacity=".72"/><circle cx="540" cy="1350" r="2" fill="#c0f8ff" opacity=".68"/><circle cx="800" cy="1270" r="4" fill="#88e0f8" opacity=".75"/><circle cx="1060" cy="1340" r="2" fill="#c0f8ff" opacity=".65"/><circle cx="1320" cy="1210" r="3" fill="#60c0f0" opacity=".72"/><circle cx="1580" cy="1360" r="2" fill="#c0f8ff" opacity=".68"/><circle cx="1840" cy="1230" r="4" fill="#88e0f8" opacity=".75"/><circle cx="2100" cy="1350" r="2" fill="#c0f8ff" opacity=".65"/><circle cx="2360" cy="1220" r="3" fill="#60c0f0" opacity=".72"/><circle cx="2620" cy="1360" r="2" fill="#c0f8ff" opacity=".68"/><circle cx="2880" cy="1240" r="4" fill="#88e0f8" opacity=".75"/><circle cx="3140" cy="1350" r="2" fill="#c0f8ff" opacity=".65"/><circle cx="3400" cy="1220" r="3" fill="#60c0f0" opacity=".72"/><circle cx="3660" cy="1360" r="2" fill="#c0f8ff" opacity=".68"/><circle cx="460" cy="580" r="2" fill="#c0f8ff" opacity=".62"/><circle cx="760" cy="510" r="1.5" fill="#88e0f8" opacity=".58"/><circle cx="1060" cy="550" r="2" fill="#c0f8ff" opacity=".62"/><circle cx="1360" cy="530" r="1.5" fill="#88e0f8" opacity=".58"/><circle cx="1660" cy="560" r="2" fill="#c0f8ff" opacity=".62"/><circle cx="1960" cy="540" r="1.5" fill="#88e0f8" opacity=".58"/><circle cx="2260" cy="555" r="2" fill="#c0f8ff" opacity=".62"/><circle cx="2560" cy="535" r="1.5" fill="#88e0f8" opacity=".58"/><circle cx="2860" cy="560" r="2" fill="#c0f8ff" opacity=".62"/><circle cx="3160" cy="545" r="1.5" fill="#88e0f8" opacity=".58"/><circle cx="3460" cy="565" r="2" fill="#c0f8ff" opacity=".62"/><circle cx="3760" cy="540" r="1.5" fill="#88e0f8" opacity=".58"/><circle cx="580" cy="1750" r="3" fill="#60c0f0" opacity=".5"/><circle cx="1180" cy="1780" r="3" fill="#c0f8ff" opacity=".45"/><circle cx="1780" cy="1760" r="3" fill="#60c0f0" opacity=".5"/><circle cx="2380" cy="1740" r="3" fill="#c0f8ff" opacity=".45"/><circle cx="2980" cy="1755" r="3" fill="#60c0f0" opacity=".5"/><circle cx="3580" cy="1765" r="3" fill="#c0f8ff" opacity=".45"/></g><ellipse cx="850" cy="160" fill="url(#o)" filter="url(#c)" opacity=".8" rx="900" ry="300"/><ellipse cx="1920" cy="80" fill="#c0f8ff" filter="url(#c)" opacity=".07" rx="500" ry="180"/><path fill="#c0f8ff" d="M0 1280h3840v880H0z" filter="url(#p)" opacity=".04"/><path fill="url(#q)" d="M0 0h3840v2160H0z" filter="url(#c)" opacity=".55"/><path fill="#040c16" d="M0 0h3840v350H0z" filter="url(#e)" opacity=".6"/><path fill="#030a12" d="M0 0h3840v180H0z" opacity=".8"/><path fill="#08121e" d="M0 1800h3840v360H0z" filter="url(#m)" opacity=".5"/><path fill="#040c16" d="M0 2000h3840v160H0z" opacity=".85"/><path fill="url(#r)" d="M0 0h3840v2160H0z"/><path fill="#88e0f8" d="M0 0h3840v2160H0z" filter="url(#s)" opacity=".03"/></svg>