<svg xmlns="http://www.w3.org/2000/svg" width="80" height="80" opacity=".85" viewBox="0 0 80 80"><defs><filter id="a" width="140%" height="140%" x="-20%" y="-20%"><feDropShadow dx="1" dy="1" flood-color="#0077a8" flood-opacity=".5" stdDeviation="2"/></filter><filter id="d"><feDropShadow dx="0" dy="0" flood-color="#4dd0e1" flood-opacity=".7" stdDeviation="3"/></filter><radialGradient id="c" cx="30%" cy="30%" r="60%"><stop offset="0%" stop-color="#fff" stop-opacity=".95"/><stop offset="100%" stop-color="#b2ebf2" stop-opacity=".2"/></radialGradient><linearGradient id="b" x1="0%" x2="100%" y1="0%" y2="100%"><stop offset="0%" stop-color="#e0f7fa"/><stop offset="50%" stop-color="#4dd0e1"/><stop offset="100%" stop-color="#0097a7"/></linearGradient></defs><g filter="url(#a)" transform="translate(14 14)"><path fill="url(#b)" stroke="#b2ebf2" stroke-width="1.2" d="m0-14 12.1 7V7L0 14l-12.1-7V-7z" opacity=".92"/><path fill="url(#c)" stroke="#e0f7fa" stroke-width=".8" d="m0-8 6.9 4v8L0 8l-6.9-4v-8z"/><path stroke="#e0f7fa" stroke-width=".8" d="M0-14v28M-12.1-7 12.1 7m-24.2 0L12.1-7" opacity=".7"/><path fill="#fff" d="m-4-12 4-2 4 2-2 6h-4z" opacity=".5"/></g><g fill="none" stroke="#80deea" stroke-linecap="round" filter="url(#d)"><path stroke-width="1.8" d="M26 14h32"/><path stroke-width="1.2" d="m38 14-4-4m4 4-4 4m16-4-4-4m4 4-4 4"/><path stroke-width="1.8" d="M14 26v32"/><path stroke-width="1.2" d="m14 38-4-4m4 4 4-4m-4 16-4-4m4 4 4-4"/><path stroke-width="1.5" d="m24 24 28 28"/><path stroke-width="1.1" d="m36 36-5-1m5 1-1-5m11 15-5-1m5 1-1-5"/></g><g filter="url(#a)"><path fill="#b2ebf2" stroke="#4dd0e1" stroke-width=".8" d="m62 6 6 4v8l-6 4-6-4v-8z" opacity=".8"/><path stroke="#e0f7fa" stroke-width=".6" d="M62 6v16m-6-12 12 8" opacity=".6"/><path fill="#b2ebf2" stroke="#4dd0e1" stroke-width=".8" d="m6 56 4 4v8l-4 4-4-4v-8z" opacity=".8"/><path stroke="#e0f7fa" stroke-width=".6" d="M6 56v16" opacity=".6"/></g><path fill="#e0f7fa" d="m4 2 2.203 10.543L2.61 9.878l-4.287 1.275Z" opacity=".7"/><g fill="#cef" opacity=".8"><circle cx="64" cy="36" r="1.8"/><circle cx="72" cy="28" r="1.4"/><circle cx="34" cy="68" r="1.6"/><circle cx="22" cy="74" r="1.2"/></g></svg>