<svg xmlns="http://www.w3.org/2000/svg" height="20" opacity=".9" viewBox="0 0 400 20"><defs><g id="d"><path fill="url(#a)" stroke="#aef" stroke-width=".6" d="m0 0-5 14H5z" filter="url(#b)" opacity=".92"/><path stroke="#fff" stroke-width=".4" d="M0 1v11" opacity=".6"/><path stroke="#fff" stroke-width=".3" d="m0 4-3 6m3-6 3 6" opacity=".45"/></g><g id="e"><path fill="url(#a)" stroke="#aef" stroke-width=".5" d="m0 0-3 9h6z" filter="url(#b)" opacity=".85"/><path stroke="#fff" stroke-width=".3" d="M0 1v6" opacity=".5"/></g><g id="f" stroke="#dff7ff"><path stroke-width=".7" d="M-3 0h6" filter="url(#c)"/><path stroke-width=".7" d="M0-3v6" filter="url(#c)"/><path stroke-width=".5" d="m-2-2 4 4" filter="url(#c)"/><path stroke-width=".5" d="m2-2-4 4" filter="url(#c)"/></g><filter id="b" width="140%" height="140%" x="-20%" y="-20%"><feDropShadow dx="0" dy="0" flood-color="#aef" flood-opacity=".9" stdDeviation="2"/></filter><filter id="c" width="200%" height="200%" x="-50%" y="-50%"><feDropShadow dx="0" dy="0" flood-color="#fff" flood-opacity=".8" stdDeviation="1"/></filter><linearGradient id="a" x1="0" x2="0" y1="0" y2="1"><stop offset="0%" stop-color="#dff7ff"/><stop offset="60%" stop-color="#7cd4f0"/><stop offset="100%" stop-color="#1a6a99"/></linearGradient></defs><path fill="#1a6a99" d="M0 14h400v6H0z" opacity=".6"/><path fill="#7cd4f0" d="M0 13h400v2H0z" opacity=".4"/><use href="#d" transform="translate(14 6)"/><use href="#e" transform="translate(32 8)"/><use href="#d" transform="translate(50 5)"/><use href="#e" transform="translate(68 7)"/><use href="#d" transform="translate(86 6)"/><use href="#e" transform="translate(104 8)"/><use href="#d" transform="translate(122 5)"/><use href="#e" transform="translate(140 7)"/><use href="#d" transform="translate(158 6)"/><use href="#e" transform="translate(176 8)"/><use href="#d" transform="translate(194 5)"/><use href="#e" transform="translate(212 7)"/><use href="#d" transform="translate(230 6)"/><use href="#e" transform="translate(248 8)"/><use href="#d" transform="translate(266 5)"/><use href="#e" transform="translate(284 7)"/><use href="#d" transform="translate(302 6)"/><use href="#e" transform="translate(320 8)"/><use href="#d" transform="translate(338 5)"/><use href="#e" transform="translate(356 7)"/><use href="#d" transform="translate(374 6)"/><use href="#e" transform="translate(392 8)"/><use href="#f" transform="translate(23 3)"/><use href="#f" transform="translate(59 2)"/><use href="#f" transform="translate(95 3)"/><use href="#f" transform="translate(131 2)"/><use href="#f" transform="translate(167 3)"/><use href="#f" transform="translate(203 2)"/><use href="#f" transform="translate(239 3)"/><use href="#f" transform="translate(275 2)"/><use href="#f" transform="translate(311 3)"/><use href="#f" transform="translate(347 2)"/><use href="#f" transform="translate(383 3)"/></svg>