<svg xmlns="http://www.w3.org/2000/svg" viewBox="0 0 80 56"><defs><linearGradient id="a" x1="0" x2="0" y1="0" y2="1"><stop offset="0%" stop-color="#142840"/><stop offset="100%" stop-color="#08121e"/></linearGradient><linearGradient id="c" x1="0" x2="0" y1="0" y2="1"><stop offset="0%" stop-color="#c8f0ff"/><stop offset="100%" stop-color="#88c8e8"/></linearGradient><radialGradient id="b" cx="50%" cy="50%" r="50%"><stop offset="0%" stop-color="#60c8f0" stop-opacity=".3"/><stop offset="100%" stop-color="#60c8f0" stop-opacity="0"/></radialGradient></defs><rect width="80" height="56" fill="url(#a)" rx="6"/><path fill="none" stroke="#40d0c0" stroke-width="3" d="M0 16q20-6 40 2t40-4" opacity=".25"/><path fill="none" stroke="#40a8f0" stroke-width="2" d="M0 20q20-6 40 2t40-4" opacity=".2"/><circle cx="40" cy="26" r="16" fill="url(#b)"/><g stroke="url(#c)" stroke-linecap="round"><path stroke-width="1.8" d="M40 12v28"/><path stroke-width="1.8" d="m27.2 19 25.6 14"/><path stroke-width="1.8" d="M52.8 19 27.2 33"/><path stroke-width="1.1" d="m40 16-4-4"/><path stroke-width="1.1" d="m40 16 4-4"/><path d="m40 20-4-4"/><path d="m40 20 4-4"/><path stroke-width="1.1" d="m40 36-4 4"/><path stroke-width="1.1" d="m40 36 4 4"/><path d="m40 32-4 4"/><path d="m40 32 4 4"/><path stroke-width="1.1" d="m30.6 20.8-2-3.8"/><path stroke-width="1.1" d="m30.6 20.8-3.6 2"/><path stroke-width="1.1" d="m49.4 31.2 2 3.8"/><path stroke-width="1.1" d="m49.4 31.2 3.6-2"/><path stroke-width="1.1" d="m49.4 20.8 2-3.8"/><path stroke-width="1.1" d="m49.4 20.8 3.6 2"/><path stroke-width="1.1" d="m30.6 31.2-2 3.8"/><path stroke-width="1.1" d="m30.6 31.2-3.6-2"/></g><path fill="#88e0f8" d="m40 22.5 3.5 2.25v4.5L40 31.5l-3.5-2.25v-4.5z" opacity=".8"/><circle cx="40" cy="26" r="2" fill="#fff" opacity=".9"/><rect width="80" height="12" y="44" fill="#0a1e30" opacity=".8" rx="0"/><path fill="#1a4060" d="M0 44q10-3 20 0t20-1q12-4 25 0 7 2 15-1v2z" opacity=".6"/><text x="40" y="52" fill="#88e0f8" dominant-baseline="middle" font-family="Arial, sans-serif" font-size="8" font-weight="bold" text-anchor="middle">ARCTIQUE</text><rect width="80" height="20" fill="#fff" opacity=".08" rx="6"/><rect width="80" height="8" fill="#fff" opacity=".1" rx="6"/></svg>