<svg xmlns="http://www.w3.org/2000/svg" preserveAspectRatio="xMidYMid slice" viewBox="0 0 3840 2160"><defs><radialGradient id="d" cx="50%" cy="45%" r="65%" gradientUnits="userSpaceOnUse"><stop offset="0%" stop-color="#380880" stop-opacity=".55"/><stop offset="55%" stop-color="#200060" stop-opacity=".25"/><stop offset="100%" stop-color="#020008" stop-opacity="0"/></radialGradient><radialGradient id="e" cx="30%" cy="35%" r="50%" gradientUnits="userSpaceOnUse"><stop offset="0%" stop-color="#b040f0" stop-opacity=".4"/><stop offset="100%" stop-color="#020008" stop-opacity="0"/></radialGradient><radialGradient id="f" cx="70%" cy="60%" r="45%" gradientUnits="userSpaceOnUse"><stop offset="0%" stop-color="#6080f0" stop-opacity=".35"/><stop offset="100%" stop-color="#010004" stop-opacity="0"/></radialGradient><radialGradient id="j" cx="50%" cy="45%" r="40%" gradientUnits="userSpaceOnUse"><stop offset="0%" stop-color="#e0a0ff" stop-opacity=".8"/><stop offset="20%" stop-color="#b040f0" stop-opacity=".55"/><stop offset="50%" stop-color="#380880" stop-opacity=".25"/><stop offset="100%" stop-color="#020008" stop-opacity="0"/></radialGradient><radialGradient id="g" cx="35%" cy="40%" r="35%" gradientUnits="userSpaceOnUse"><stop offset="0%" stop-color="#b040f0" stop-opacity=".45"/><stop offset="60%" stop-color="#380880" stop-opacity=".2"/><stop offset="100%" stop-color="#020008" stop-opacity="0"/></radialGradient><radialGradient id="h" cx="68%" cy="55%" r="30%" gradientUnits="userSpaceOnUse"><stop offset="0%" stop-color="#6080f0" stop-opacity=".4"/><stop offset="100%" stop-color="#010004" stop-opacity="0"/></radialGradient><radialGradient id="q" cx="50%" cy="50%" r="72%" gradientUnits="userSpaceOnUse"><stop offset="30%" stop-opacity="0"/><stop offset="100%" stop-opacity=".92"/></radialGradient><radialGradient id="n" cx="22%" cy="6%" r="28%" gradientUnits="userSpaceOnUse"><stop offset="0%" stop-color="#e0a0ff" stop-opacity=".4"/><stop offset="55%" stop-color="#b040f0" stop-opacity=".12"/><stop offset="100%" stop-color="#020008" stop-opacity="0"/></radialGradient><filter id="k" width="220%" height="220%" x="-60%" y="-60%"><feGaussianBlur in="SourceGraphic" result="b1" stdDeviation="10"/><feGaussianBlur in="SourceGraphic" result="b2" stdDeviation="30"/><feColorMatrix in="b1" result="c1" values="0 0 0 0 0.69 0 0 0 0 0.25 0 0 0 0 0.94 0 0 0 2.2 0"/><feColorMatrix in="b2" result="c2" values="0 0 0 0 0.69 0 0 0 0 0.25 0 0 0 0 0.94 0 0 0 1 0"/><feMerge><feMergeNode in="c2"/><feMergeNode in="c1"/><feMergeNode in="SourceGraphic"/></feMerge></filter><filter id="l" width="220%" height="220%" x="-60%" y="-60%"><feGaussianBlur in="SourceGraphic" result="b1" stdDeviation="8"/><feColorMatrix in="b1" result="c1" values="0 0 0 0 0.38 0 0 0 0 0.50 0 0 0 0 0.94 0 0 0 2.5 0"/><feMerge><feMergeNode in="c1"/><feMergeNode in="SourceGraphic"/></feMerge></filter><filter id="r" width="100%" height="100%" x="0%" y="0%"><feTurbulence baseFrequency=".65" numOctaves="4" result="n" stitchTiles="stitch" type="fractalNoise"/><feColorMatrix in="n" result="gn" type="saturate" values="0"/><feBlend in="SourceGraphic" in2="gn" mode="overlay" result="bl"/><feComposite in="bl" in2="SourceGraphic" operator="in"/></filter><filter id="p" width="130%" height="130%" x="-15%" y="-15%"><feGaussianBlur stdDeviation="5"/></filter><filter id="c" width="160%" height="160%" x="-30%" y="-30%"><feGaussianBlur stdDeviation="18"/></filter><filter id="o" width="140%" height="140%" x="-20%" y="-20%"><feGaussianBlur stdDeviation="9"/></filter><filter id="b"><feTurbulence baseFrequency="0.008 0.006" numOctaves="5" result="t" seed="13"/><feDisplacementMap in="SourceGraphic" in2="t" scale="40" xChannelSelector="R" yChannelSelector="G"/></filter><filter id="m"><feTurbulence baseFrequency="0.02 0.015" numOctaves="4" result="n" seed="7" type="fractalNoise"/><feColorMatrix in="n" result="colored" values="0.4 0 0 0 0.4 0 0.1 0 0 0.1 0 0 0.5 0 0.5 0 0 0 0.35 0"/><feBlend in="SourceGraphic" in2="colored" mode="screen"/></filter><linearGradient id="a" x1="0%" x2="0%" y1="0%" y2="100%"><stop offset="0%" stop-color="#010004"/><stop offset="30%" stop-color="#020008"/><stop offset="70%" stop-color="#060012"/><stop offset="100%" stop-color="#020008"/></linearGradient><linearGradient id="i" x1="0%" x2="100%" y1="100%" y2="0%"><stop offset="0%" stop-color="#b040f0" stop-opacity="0"/><stop offset="20%" stop-color="#6080f0" stop-opacity=".2"/><stop offset="50%" stop-color="#e0a0ff" stop-opacity=".35"/><stop offset="80%" stop-color="#b040f0" stop-opacity=".2"/><stop offset="100%" stop-color="#380880" stop-opacity="0"/></linearGradient></defs><path fill="url(#a)" d="M0 0h3840v2160H0z"/><g filter="url(#b)" opacity=".5"><ellipse cx="1300" cy="900" fill="#b040f0" rx="900" ry="600"/><ellipse cx="2500" cy="1100" fill="#6080f0" rx="800" ry="500"/><ellipse cx="800" cy="1400" fill="#b040f0" rx="700" ry="450"/><ellipse cx="3100" cy="700" fill="#380880" rx="750" ry="480"/><ellipse cx="1800" cy="1600" fill="#6080f0" rx="850" ry="520"/><ellipse cx="600" cy="500" fill="#b040f0" rx="600" ry="380"/><ellipse cx="3400" cy="1500" fill="#380880" rx="650" ry="420"/></g><g filter="url(#c)"><path fill="url(#d)" d="M0 0h3840v2160H0z" opacity=".85"/><path fill="url(#e)" d="M0 0h3840v2160H0z" opacity=".65"/><path fill="url(#f)" d="M0 0h3840v2160H0z" opacity=".55"/><path fill="url(#g)" d="M0 0h3840v2160H0z" opacity=".75"/><path fill="url(#h)" d="M0 0h3840v2160H0z" opacity=".65"/></g><path fill="url(#i)" d="M0 0h3840v2160H0z" filter="url(#c)" opacity=".75"/><g filter="url(#c)" opacity=".4"><ellipse cx="1920" cy="1080" fill="#b040f0" rx="2200" ry="350" transform="rotate(-25 1920 1080)"/><ellipse cx="1920" cy="1080" fill="#e0a0ff" rx="1800" ry="220" transform="rotate(-25 1920 1080)"/><ellipse cx="1920" cy="1080" fill="#e0a0ff" rx="1400" ry="150" transform="rotate(-25 1920 1080)"/></g><path fill="url(#j)" d="M0 0h3840v2160H0z" filter="url(#c)" opacity=".85"/><circle cx="96" cy="44" r="1" fill="#fff" opacity=".8"/><circle cx="213" cy="127" r="1" fill="#e0a0ff" opacity=".75"/><circle cx="348" cy="58" r="1" fill="#fff" opacity=".8"/><circle cx="487" cy="191" r="1" fill="#6080f0" opacity=".7"/><circle cx="612" cy="82" r="1" fill="#fff" opacity=".8"/><circle cx="743" cy="153" r="1" fill="#e0a0ff" opacity=".75"/><circle cx="878" cy="48" r="1" fill="#fff" opacity=".8"/><circle cx="1014" cy="218" r="1" fill="#b040f0" opacity=".7"/><circle cx="1147" cy="77" r="1" fill="#fff" opacity=".8"/><circle cx="1283" cy="142" r="1" fill="#e0a0ff" opacity=".75"/><circle cx="1418" cy="55" r="1" fill="#fff" opacity=".8"/><circle cx="1553" cy="198" r="1" fill="#6080f0" opacity=".7"/><circle cx="1688" cy="72" r="1" fill="#fff" opacity=".8"/><circle cx="1823" cy="163" r="1" fill="#e0a0ff" opacity=".75"/><circle cx="1958" cy="48" r="1" fill="#fff" opacity=".8"/><circle cx="2094" cy="227" r="1" fill="#b040f0" opacity=".7"/><circle cx="2229" cy="82" r="1" fill="#fff" opacity=".8"/><circle cx="2364" cy="148" r="1" fill="#e0a0ff" opacity=".75"/><circle cx="2499" cy="52" r="1" fill="#fff" opacity=".8"/><circle cx="2634" cy="185" r="1" fill="#6080f0" opacity=".7"/><circle cx="2769" cy="71" r="1" fill="#fff" opacity=".8"/><circle cx="2904" cy="163" r="1" fill="#e0a0ff" opacity=".75"/><circle cx="3039" cy="50" r="1" fill="#fff" opacity=".8"/><circle cx="3175" cy="219" r="1" fill="#b040f0" opacity=".7"/><circle cx="3310" cy="78" r="1" fill="#fff" opacity=".8"/><circle cx="3445" cy="145" r="1" fill="#e0a0ff" opacity=".75"/><circle cx="3580" cy="55" r="1" fill="#fff" opacity=".8"/><circle cx="3715" cy="188" r="1" fill="#6080f0" opacity=".7"/><circle cx="3820" cy="72" r="1" fill="#fff" opacity=".8"/><circle cx="148" cy="295" r="1" fill="#fff" opacity=".75"/><circle cx="285" cy="362" r="1" fill="#e0a0ff" opacity=".7"/><circle cx="422" cy="298" r="1" fill="#fff" opacity=".75"/><circle cx="559" cy="378" r="1" fill="#6080f0" opacity=".65"/><circle cx="696" cy="305" r="1" fill="#fff" opacity=".75"/><circle cx="833" cy="355" r="1" fill="#e0a0ff" opacity=".7"/><circle cx="970" cy="290" r="1" fill="#fff" opacity=".75"/><circle cx="1107" cy="388" r="1" fill="#b040f0" opacity=".65"/><circle cx="1244" cy="315" r="1" fill="#fff" opacity=".75"/><circle cx="1381" cy="362" r="1" fill="#e0a0ff" opacity=".7"/><circle cx="1518" cy="295" r="1" fill="#fff" opacity=".75"/><circle cx="1655" cy="375" r="1" fill="#6080f0" opacity=".65"/><circle cx="1792" cy="310" r="1" fill="#fff" opacity=".75"/><circle cx="1929" cy="368" r="1" fill="#e0a0ff" opacity=".7"/><circle cx="2066" cy="295" r="1" fill="#fff" opacity=".75"/><circle cx="2203" cy="385" r="1" fill="#b040f0" opacity=".65"/><circle cx="2340" cy="320" r="1" fill="#fff" opacity=".75"/><circle cx="2477" cy="360" r="1" fill="#e0a0ff" opacity=".7"/><circle cx="2614" cy="300" r="1" fill="#fff" opacity=".75"/><circle cx="2751" cy="372" r="1" fill="#6080f0" opacity=".65"/><circle cx="2888" cy="318" r="1" fill="#fff" opacity=".75"/><circle cx="3025" cy="365" r="1" fill="#e0a0ff" opacity=".7"/><circle cx="3162" cy="298" r="1" fill="#fff" opacity=".75"/><circle cx="3299" cy="385" r="1" fill="#b040f0" opacity=".65"/><circle cx="3436" cy="325" r="1" fill="#fff" opacity=".75"/><circle cx="3573" cy="360" r="1" fill="#e0a0ff" opacity=".7"/><circle cx="3710" cy="302" r="1" fill="#fff" opacity=".75"/><circle cx="3820" cy="388" r="1" fill="#6080f0" opacity=".65"/><circle cx="175" cy="480" r="1.5" fill="#fff" opacity=".85"/><circle cx="490" cy="520" r="1.5" fill="#e0a0ff" opacity=".8"/><circle cx="810" cy="465" r="1.5" fill="#fff" opacity=".85"/><circle cx="1125" cy="510" r="1.5" fill="#6080f0" opacity=".75"/><circle cx="1445" cy="480" r="1.5" fill="#fff" opacity=".85"/><circle cx="1765" cy="515" r="1.5" fill="#e0a0ff" opacity=".8"/><circle cx="2085" cy="470" r="1.5" fill="#fff" opacity=".85"/><circle cx="2400" cy="505" r="1.5" fill="#b040f0" opacity=".75"/><circle cx="2720" cy="478" r="1.5" fill="#fff" opacity=".85"/><circle cx="3040" cy="512" r="1.5" fill="#e0a0ff" opacity=".8"/><circle cx="3360" cy="475" r="1.5" fill="#fff" opacity=".85"/><circle cx="3680" cy="508" r="1.5" fill="#6080f0" opacity=".75"/><circle cx="320" cy="620" r="1.5" fill="#fff" opacity=".8"/><circle cx="640" cy="655" r="1.5" fill="#e0a0ff" opacity=".75"/><circle cx="960" cy="615" r="1.5" fill="#fff" opacity=".8"/><circle cx="1280" cy="648" r="1.5" fill="#b040f0" opacity=".7"/><circle cx="1600" cy="620" r="1.5" fill="#fff" opacity=".8"/><circle cx="1920" cy="652" r="1.5" fill="#e0a0ff" opacity=".75"/><circle cx="2240" cy="618" r="1.5" fill="#fff" opacity=".8"/><circle cx="2560" cy="645" r="1.5" fill="#6080f0" opacity=".7"/><circle cx="2880" cy="622" r="1.5" fill="#fff" opacity=".8"/><circle cx="3200" cy="650" r="1.5" fill="#e0a0ff" opacity=".75"/><circle cx="3520" cy="618" r="1.5" fill="#fff" opacity=".8"/><circle cx="3780" cy="648" r="1.5" fill="#b040f0" opacity=".7"/><circle cx="220" cy="740" r="1" fill="#fff" opacity=".7"/><circle cx="550" cy="770" r="1" fill="#e0a0ff" opacity=".65"/><circle cx="880" cy="745" r="1" fill="#fff" opacity=".7"/><circle cx="1210" cy="775" r="1" fill="#6080f0" opacity=".62"/><circle cx="1540" cy="748" r="1" fill="#fff" opacity=".7"/><circle cx="1870" cy="772" r="1" fill="#e0a0ff" opacity=".65"/><circle cx="2200" cy="742" r="1" fill="#fff" opacity=".7"/><circle cx="2530" cy="768" r="1" fill="#b040f0" opacity=".62"/><circle cx="2860" cy="745" r="1" fill="#fff" opacity=".7"/><circle cx="3190" cy="772" r="1" fill="#e0a0ff" opacity=".65"/><circle cx="3520" cy="748" r="1" fill="#fff" opacity=".7"/><circle cx="3800" cy="770" r="1" fill="#6080f0" opacity=".62"/><circle cx="380" cy="850" r="1" fill="#fff" opacity=".68"/><circle cx="710" cy="880" r="1" fill="#e0a0ff" opacity=".62"/><circle cx="1040" cy="855" r="1" fill="#fff" opacity=".68"/><circle cx="1370" cy="882" r="1" fill="#b040f0" opacity=".6"/><circle cx="1700" cy="858" r="1" fill="#fff" opacity=".68"/><circle cx="2030" cy="878" r="1" fill="#e0a0ff" opacity=".62"/><circle cx="2360" cy="852" r="1" fill="#fff" opacity=".68"/><circle cx="2690" cy="880" r="1" fill="#6080f0" opacity=".6"/><circle cx="3020" cy="858" r="1" fill="#fff" opacity=".68"/><circle cx="3350" cy="878" r="1" fill="#e0a0ff" opacity=".62"/><circle cx="3680" cy="855" r="1" fill="#fff" opacity=".68"/><circle cx="140" cy="960" r="1" fill="#fff" opacity=".65"/><circle cx="470" cy="985" r="1" fill="#e0a0ff" opacity=".6"/><circle cx="800" cy="962" r="1" fill="#fff" opacity=".65"/><circle cx="1130" cy="988" r="1" fill="#b040f0" opacity=".58"/><circle cx="1460" cy="965" r="1" fill="#fff" opacity=".65"/><circle cx="1790" cy="985" r="1" fill="#e0a0ff" opacity=".6"/><circle cx="2120" cy="962" r="1" fill="#fff" opacity=".65"/><circle cx="2450" cy="988" r="1" fill="#6080f0" opacity=".58"/><circle cx="2780" cy="965" r="1" fill="#fff" opacity=".65"/><circle cx="3110" cy="985" r="1" fill="#e0a0ff" opacity=".6"/><circle cx="3440" cy="962" r="1" fill="#fff" opacity=".65"/><circle cx="3770" cy="988" r="1" fill="#b040f0" opacity=".58"/><circle cx="260" cy="1100" r="1" fill="#fff" opacity=".55"/><circle cx="680" cy="1150" r="1" fill="#e0a0ff" opacity=".5"/><circle cx="1100" cy="1120" r="1" fill="#fff" opacity=".55"/><circle cx="1520" cy="1155" r="1" fill="#6080f0" opacity=".48"/><circle cx="1940" cy="1125" r="1" fill="#fff" opacity=".55"/><circle cx="2360" cy="1148" r="1" fill="#e0a0ff" opacity=".5"/><circle cx="2780" cy="1118" r="1" fill="#fff" opacity=".55"/><circle cx="3200" cy="1152" r="1" fill="#b040f0" opacity=".48"/><circle cx="3620" cy="1128" r="1" fill="#fff" opacity=".55"/><circle cx="440" cy="1250" r="1" fill="#fff" opacity=".5"/><circle cx="860" cy="1280" r="1" fill="#e0a0ff" opacity=".45"/><circle cx="1280" cy="1258" r="1" fill="#fff" opacity=".5"/><circle cx="1700" cy="1282" r="1" fill="#6080f0" opacity=".42"/><circle cx="2120" cy="1262" r="1" fill="#fff" opacity=".5"/><circle cx="2540" cy="1278" r="1" fill="#e0a0ff" opacity=".45"/><circle cx="2960" cy="1258" r="1" fill="#fff" opacity=".5"/><circle cx="3380" cy="1280" r="1" fill="#b040f0" opacity=".42"/><circle cx="3750" cy="1265" r="1" fill="#fff" opacity=".5"/><g filter="url(#k)"><circle cx="480" cy="120" r="3" fill="#e0a0ff" opacity=".95"/><circle cx="1120" cy="180" r="2.5" fill="#b040f0" opacity=".9"/><circle cx="1760" cy="100" r="3.5" fill="#e0a0ff" opacity=".95"/><circle cx="2400" cy="155" r="2.5" fill="#6080f0" opacity=".9"/><circle cx="3040" cy="120" r="3" fill="#e0a0ff" opacity=".95"/><circle cx="3680" cy="170" r="2.5" fill="#b040f0" opacity=".9"/><circle cx="800" cy="340" r="3" fill="#e0a0ff" opacity=".9"/><circle cx="1440" cy="380" r="2.5" fill="#6080f0" opacity=".85"/><circle cx="2080" cy="350" r="3.5" fill="#e0a0ff" opacity=".9"/><circle cx="2720" cy="375" r="2.5" fill="#b040f0" opacity=".85"/><circle cx="3360" cy="340" r="3" fill="#e0a0ff" opacity=".9"/><circle cx="320" cy="560" r="2.5" fill="#b040f0" opacity=".85"/><circle cx="960" cy="580" r="3" fill="#e0a0ff" opacity=".9"/><circle cx="1600" cy="555" r="2.5" fill="#6080f0" opacity=".85"/><circle cx="2240" cy="578" r="3" fill="#e0a0ff" opacity=".9"/><circle cx="2880" cy="562" r="2.5" fill="#b040f0" opacity=".85"/><circle cx="3520" cy="575" r="3" fill="#e0a0ff" opacity=".9"/></g><g filter="url(#l)"><circle cx="640" cy="720" r="2.5" fill="#6080f0" opacity=".85"/><circle cx="1280" cy="760" r="2" fill="#e0a0ff" opacity=".8"/><circle cx="1920" cy="735" r="2.5" fill="#6080f0" opacity=".85"/><circle cx="2560" cy="758" r="2" fill="#e0a0ff" opacity=".8"/><circle cx="3200" cy="728" r="2.5" fill="#6080f0" opacity=".85"/><circle cx="480" cy="920" r="2" fill="#e0a0ff" opacity=".75"/><circle cx="1120" cy="945" r="2.5" fill="#b040f0" opacity=".8"/><circle cx="1760" cy="925" r="2" fill="#e0a0ff" opacity=".75"/><circle cx="2400" cy="948" r="2.5" fill="#6080f0" opacity=".8"/><circle cx="3040" cy="928" r="2" fill="#e0a0ff" opacity=".75"/><circle cx="3680" cy="942" r="2.5" fill="#b040f0" opacity=".8"/></g><path fill="#b040f0" d="M0 0h3840v2160H0z" filter="url(#m)" opacity=".04"/><ellipse cx="850" cy="160" fill="url(#n)" filter="url(#c)" opacity=".75" rx="800" ry="280"/><path fill="#010004" d="M0 0h3840v200H0z" filter="url(#o)" opacity=".5"/><path fill="#010004" d="M0 0h3840v100H0z" opacity=".7"/><path fill="#010004" d="M0 1900h3840v260H0z" filter="url(#p)" opacity=".6"/><path fill="#010004" d="M0 2060h3840v100H0z" opacity=".8"/><path fill="url(#q)" d="M0 0h3840v2160H0z"/><path fill="#b040f0" d="M0 0h3840v2160H0z" filter="url(#r)" opacity=".025"/></svg>