<svg xmlns="http://www.w3.org/2000/svg" height="20" opacity=".9" viewBox="0 0 400 20"><defs><linearGradient id="b" x1="0" x2="1" y1="0" y2="0"><stop offset="0%" stop-color="#0a001a"/><stop offset="25%" stop-color="#1a0040"/><stop offset="50%" stop-color="#0d0030"/><stop offset="75%" stop-color="#200050"/><stop offset="100%" stop-color="#0a001a"/></linearGradient><filter id="a" width="200%" height="200%" x="-50%" y="-50%"><feDropShadow dx="0" dy="0" flood-color="#fff" flood-opacity="1" stdDeviation="1.5"/></filter><g id="c"><circle r="1.5" fill="#fff" filter="url(#a)"/><path stroke="#c8f" stroke-linecap="round" d="M0 0h-12" opacity=".6"/><path stroke="#fff" stroke-linecap="round" stroke-width=".5" d="m0 0-9-1" opacity=".35"/></g></defs><path fill="url(#b)" d="M0 0h400v20H0z"/><ellipse cx="100" cy="10" fill="#30a" opacity=".18" rx="80" ry="7"/><ellipse cx="280" cy="10" fill="#506" opacity=".16" rx="90" ry="8"/><path fill="#0d0030" d="M0 17h400v3H0z" opacity=".9"/><circle cx="5" cy="9" r="1.8" fill="#fff" filter="url(#a)"/><circle cx="18" cy="5" r=".8" fill="#dbf"/><circle cx="30" cy="12" r="1.2" fill="#fff" filter="url(#a)"/><circle cx="45" cy="4" r=".7" fill="#edf"/><circle cx="58" cy="8" r="2" fill="#fff" filter="url(#a)"/><circle cx="72" cy="14" r=".9" fill="#caf"/><circle cx="88" cy="6" r="1.5" fill="#fff" filter="url(#a)"/><circle cx="102" cy="11" r=".7" fill="#dbf"/><circle cx="118" cy="3" r="1" fill="#fff" filter="url(#a)"/><circle cx="133" cy="9" r="1.8" fill="#fff" filter="url(#a)"/><circle cx="148" cy="5" r=".7" fill="#edf"/><circle cx="162" cy="13" r="1.3" fill="#fff" filter="url(#a)"/><circle cx="175" cy="7" r=".9" fill="#caf"/><circle cx="190" cy="2" r="1.6" fill="#fff" filter="url(#a)"/><circle cx="205" cy="11" r=".8" fill="#dbf"/><circle cx="220" cy="6" r="2.1" fill="#fff" filter="url(#a)"/><circle cx="235" cy="14" r=".7" fill="#edf"/><circle cx="250" cy="4" r="1.1" fill="#fff" filter="url(#a)"/><circle cx="265" cy="9" r="1.7" fill="#fff" filter="url(#a)"/><circle cx="280" cy="5" r=".8" fill="#caf"/><circle cx="295" cy="12" r="1.4" fill="#fff" filter="url(#a)"/><circle cx="310" cy="3" r=".7" fill="#dbf"/><circle cx="325" cy="8" r="1.9" fill="#fff" filter="url(#a)"/><circle cx="340" cy="14" r=".9" fill="#edf"/><circle cx="355" cy="6" r="1.2" fill="#fff" filter="url(#a)"/><circle cx="370" cy="10" r=".7" fill="#caf"/><circle cx="385" cy="4" r="1.6" fill="#fff" filter="url(#a)"/><circle cx="396" cy="11" r=".8" fill="#dbf"/><use href="#c" transform="rotate(8 -15.052 504.023)"/><use href="#c" transform="rotate(12 76.214 953.936)"/><use href="#c" transform="rotate(6 88.675 3152.388)"/></svg>