<svg xmlns="http://www.w3.org/2000/svg" viewBox="0 0 80 56"><defs><linearGradient id="a" x1="0" x2="0" y1="0" y2="1"><stop offset="0%" stop-color="#0c0020"/><stop offset="100%" stop-color="#020008"/></linearGradient><linearGradient id="d" x1=".3" x2=".8" y1=".2" y2=".9" gradientUnits="objectBoundingBox"><stop offset="0%" stop-color="#8858e8"/><stop offset="100%" stop-color="#4020a8"/></linearGradient><linearGradient id="c" x1="0" x2="1" y1="0" y2="0"><stop offset="0%" stop-color="#c080ff" stop-opacity=".2"/><stop offset="40%" stop-color="#c080ff" stop-opacity=".8"/><stop offset="60%" stop-color="#c080ff" stop-opacity=".8"/><stop offset="100%" stop-color="#c080ff" stop-opacity=".2"/></linearGradient><radialGradient id="b" cx="50%" cy="50%" r="50%"><stop offset="0%" stop-color="#8020c0" stop-opacity=".5"/><stop offset="40%" stop-color="#5010a0" stop-opacity=".3"/><stop offset="100%" stop-color="#300880" stop-opacity="0"/></radialGradient></defs><rect width="80" height="56" fill="url(#a)" rx="6"/><ellipse cx="40" cy="24" fill="url(#b)" rx="28" ry="18"/><ellipse cx="55" cy="18" fill="#6010a0" opacity=".2" rx="14" ry="10"/><circle cx="8" cy="6" r=".8" fill="#fff" opacity=".9"/><circle cx="16" cy="12" r=".6" fill="#e0c0ff" opacity=".8"/><circle cx="72" cy="8" r=".9" fill="#fff" opacity=".9"/><circle cx="65" cy="4" r=".7" fill="#c0a0ff" opacity=".7"/><circle cx="12" cy="32" r=".6" fill="#fff" opacity=".6"/><circle cx="74" cy="30" r=".8" fill="#e0d0ff" opacity=".8"/><circle cx="60" cy="40" r=".5" fill="#fff" opacity=".5"/><circle cx="25" cy="8" r=".5" fill="#b090ff" opacity=".6"/><path fill="#c880ff" d="m67.95 12.6.45 1.35h1.35l-1.08.81.45 1.35-1.17-.81-1.17.81.45-1.35-1.08-.81h1.35Z" opacity=".8"/><ellipse cx="40" cy="26" fill="none" stroke="url(#c)" stroke-width="2.5" opacity=".6" rx="21" ry="5" transform="rotate(-18 40 26)"/><circle cx="40" cy="26" r="11" fill="url(#d)"/><path fill="none" stroke="#c080ff" stroke-width=".8" d="M32 20q8 3 16 0" opacity=".4"/><path fill="none" stroke="#9060d0" stroke-width=".8" d="M30 26q10 4 20 0" opacity=".3"/><ellipse cx="37" cy="22" fill="#a060e0" opacity=".25" rx="4" ry="2.5"/><path fill="none" stroke="url(#c)" stroke-width="2.5" d="M29 24.5Q21 26 22 26q-1 0 6 1.8" opacity=".6" transform="rotate(-18 40 26)"/><ellipse cx="36" cy="21" fill="#fff" opacity=".12" rx="4" ry="2.5"/><text x="40" y="52" fill="#b040f0" dominant-baseline="middle" font-family="Arial, sans-serif" font-size="8" font-weight="bold" text-anchor="middle">COSMOS</text><rect width="80" height="20" fill="#fff" opacity=".06" rx="6"/><rect width="80" height="8" fill="#fff" opacity=".07" rx="6"/></svg>