<svg xmlns="http://www.w3.org/2000/svg" viewBox="0 0 200 140"><defs><linearGradient id="a" x1="0%" x2="100%" y1="0%" y2="100%"><stop offset="0%" stop-color="gray"/><stop offset="100%" stop-color="#505050"/></linearGradient><linearGradient id="g" x1="0%" x2="60%" y1="0%" y2="100%"><stop offset="0%" stop-color="#fff" stop-opacity=".18"/><stop offset="50%" stop-color="#fff" stop-opacity=".06"/><stop offset="100%" stop-color="#fff" stop-opacity="0"/></linearGradient><linearGradient id="c" x1="0%" x2="100%" y1="0%" y2="100%"><stop offset="0%" stop-color="#c8c8c8"/><stop offset="100%" stop-color="#888"/></linearGradient><linearGradient id="e" x1="0%" x2="100%" y1="0%" y2="0%"><stop offset="0%" stop-color="#606060"/><stop offset="100%" stop-color="#787878"/></linearGradient><linearGradient id="f" x1="0%" x2="100%" y1="0%" y2="0%"><stop offset="0%" stop-color="#a0a0a0"/><stop offset="100%" stop-color="#888"/></linearGradient><filter id="d" width="110%" height="110%" x="-5%" y="-5%"><feTurbulence baseFrequency=".9" numOctaves="3" result="noise" seed="7" type="fractalNoise"/><feColorMatrix in="noise" result="gn" type="saturate" values="0"/><feBlend in="SourceGraphic" in2="gn" mode="multiply" result="t"/><feComposite in="t" in2="SourceGraphic" operator="in"/></filter><filter id="b" width="150%" height="150%" x="-20%" y="-20%"><feDropShadow dx="2" dy="3" flood-color="#181818" flood-opacity=".6" stdDeviation="3"/></filter></defs><rect width="200" height="140" fill="url(#a)" rx="10"/><g stroke="#404040" stroke-width=".8" filter="url(#b)"><path fill="url(#c)" d="m100 30 27.7 16L100 62 72.3 46z" filter="url(#d)"/><path fill="url(#e)" d="M72.3 46 100 62v16L72.3 62z"/><path fill="url(#f)" d="M127.7 46 100 62v16l27.7-16z"/></g><path stroke="#909090" stroke-width=".5" d="m82 42 14 8" opacity=".5"/><path stroke="#888" stroke-width=".4" d="m106 36 14 16" opacity=".4"/><rect width="200" height="140" fill="url(#g)" rx="10"/><text x="100" y="115" fill="#fff" stroke="#303030" stroke-width="2" font-family="Arial Black, Arial, sans-serif" font-size="14" font-weight="900" letter-spacing="2" paint-order="stroke" text-anchor="middle">PIERRE</text><rect width="198" height="138" x="1" y="1" fill="none" stroke="#a0a0a0" stroke-width="1.5" opacity=".7" rx="9.5"/></svg>