<?xml version="1.0" encoding="UTF-8"?>
<svg xmlns="http://www.w3.org/2000/svg" xmlns:xlink="http://www.w3.org/1999/xlink"
     viewBox="0 0 3840 2160" width="100%" height="100%"
     preserveAspectRatio="xMidYMid slice">
  <defs>
    <radialGradient id="eAtm1" cx="50%" cy="40%" r="60%" gradientUnits="userSpaceOnUse">
      <stop offset="0%" stop-color="#40F060" stop-opacity="0.45"/>
      <stop offset="55%" stop-color="#148040" stop-opacity="0.2"/>
      <stop offset="100%" stop-color="#030A06" stop-opacity="0"/>
    </radialGradient>
    <radialGradient id="eAtm2" cx="30%" cy="55%" r="50%" gradientUnits="userSpaceOnUse">
      <stop offset="0%" stop-color="#80F040" stop-opacity="0.35"/>
      <stop offset="100%" stop-color="#020604" stop-opacity="0"/>
    </radialGradient>
    <radialGradient id="eAtm3" cx="70%" cy="60%" r="45%" gradientUnits="userSpaceOnUse">
      <stop offset="0%" stop-color="#307048" stop-opacity="0.4"/>
      <stop offset="100%" stop-color="#030A06" stop-opacity="0"/>
    </radialGradient>
    <radialGradient id="eMagicCore" cx="50%" cy="45%" r="40%" gradientUnits="userSpaceOnUse">
      <stop offset="0%" stop-color="#A0FFC0" stop-opacity="0.7"/>
      <stop offset="25%" stop-color="#40F060" stop-opacity="0.45"/>
      <stop offset="60%" stop-color="#148040" stop-opacity="0.2"/>
      <stop offset="100%" stop-color="#030A06" stop-opacity="0"/>
    </radialGradient>
    <radialGradient id="eFairyLight1" cx="40%" cy="50%" r="25%" gradientUnits="userSpaceOnUse">
      <stop offset="0%" stop-color="#A0FFC0" stop-opacity="0.6"/>
      <stop offset="100%" stop-color="#030A06" stop-opacity="0"/>
    </radialGradient>
    <radialGradient id="eFairyLight2" cx="65%" cy="55%" r="20%" gradientUnits="userSpaceOnUse">
      <stop offset="0%" stop-color="#80F040" stop-opacity="0.55"/>
      <stop offset="100%" stop-color="#030A06" stop-opacity="0"/>
    </radialGradient>
    <radialGradient id="eVignette" cx="50%" cy="50%" r="72%" gradientUnits="userSpaceOnUse">
      <stop offset="35%" stop-color="#000000" stop-opacity="0"/>
      <stop offset="100%" stop-color="#000000" stop-opacity="0.9"/>
    </radialGradient>
    <radialGradient id="eSpecular" cx="22%" cy="6%" r="28%" gradientUnits="userSpaceOnUse">
      <stop offset="0%" stop-color="#A0FFC0" stop-opacity="0.5"/>
      <stop offset="55%" stop-color="#40F060" stop-opacity="0.15"/>
      <stop offset="100%" stop-color="#030A06" stop-opacity="0"/>
    </radialGradient>
    <linearGradient id="eSky" x1="0%" y1="0%" x2="0%" y2="100%">
      <stop offset="0%" stop-color="#020604"/>
      <stop offset="20%" stop-color="#030A06"/>
      <stop offset="55%" stop-color="#051008"/>
      <stop offset="80%" stop-color="#148040"/>
      <stop offset="100%" stop-color="#0C3020"/>
    </linearGradient>
    <linearGradient id="eGroundGlow" x1="0%" y1="0%" x2="0%" y2="100%">
      <stop offset="0%" stop-color="#40F060" stop-opacity="0.2"/>
      <stop offset="100%" stop-color="#30F050" stop-opacity="0.4"/>
    </linearGradient>
    <filter id="glow" x="-60%" y="-60%" width="220%" height="220%">
      <feGaussianBlur in="SourceGraphic" stdDeviation="10" result="b1"/>
      <feGaussianBlur in="SourceGraphic" stdDeviation="28" result="b2"/>
      <feColorMatrix in="b1" type="matrix"
        values="0 0 0 0 0.25  0 0 0 0 0.94  0 0 0 0 0.38  0 0 0 2.2 0" result="c1"/>
      <feColorMatrix in="b2" type="matrix"
        values="0 0 0 0 0.25  0 0 0 0 0.94  0 0 0 0 0.38  0 0 0 1 0" result="c2"/>
      <feMerge><feMergeNode in="c2"/><feMergeNode in="c1"/><feMergeNode in="SourceGraphic"/></feMerge>
    </filter>
    <filter id="glowLime" x="-60%" y="-60%" width="220%" height="220%">
      <feGaussianBlur in="SourceGraphic" stdDeviation="8" result="b1"/>
      <feColorMatrix in="b1" type="matrix"
        values="0 0 0 0 0.50  0 0 0 0 0.94  0 0 0 0 0.25  0 0 0 2.5 0" result="c1"/>
      <feMerge><feMergeNode in="c1"/><feMergeNode in="SourceGraphic"/></feMerge>
    </filter>
    <filter id="shadow" x="-25%" y="-25%" width="150%" height="150%">
      <feDropShadow dx="0" dy="6" stdDeviation="18" flood-color="#020604" flood-opacity="0.95"/>
    </filter>
    <filter id="noise" x="0%" y="0%" width="100%" height="100%">
      <feTurbulence type="fractalNoise" baseFrequency="0.65" numOctaves="4" stitchTiles="stitch" result="n"/>
      <feColorMatrix in="n" type="saturate" values="0" result="gn"/>
      <feBlend in="SourceGraphic" in2="gn" mode="overlay" result="bl"/>
      <feComposite in="bl" in2="SourceGraphic" operator="in"/>
    </filter>
    <filter id="blur" x="-15%" y="-15%" width="130%" height="130%">
      <feGaussianBlur stdDeviation="5"/>
    </filter>
    <filter id="blurHeavy" x="-30%" y="-30%" width="160%" height="160%">
      <feGaussianBlur stdDeviation="18"/>
    </filter>
    <filter id="blurMid" x="-20%" y="-20%" width="140%" height="140%">
      <feGaussianBlur stdDeviation="9"/>
    </filter>
    <filter id="bokeh" x="-50%" y="-50%" width="200%" height="200%">
      <feGaussianBlur stdDeviation="16"/>
    </filter>
    <filter id="magicSwirl">
      <feTurbulence type="turbulence" baseFrequency="0.015 0.01" numOctaves="4" seed="9" result="t"/>
      <feDisplacementMap in="SourceGraphic" in2="t" scale="30" xChannelSelector="R" yChannelSelector="G"/>
    </filter>
  </defs>

  <!-- LAYER 1: Enchanted sky -->
  <rect width="3840" height="2160" fill="url(#eSky)"/>

  <!-- LAYER 2: Magical atmosphere -->
  <rect width="3840" height="2160" fill="url(#eAtm1)" filter="url(#blurHeavy)" opacity="0.85"/>
  <rect width="3840" height="2160" fill="url(#eAtm2)" filter="url(#blurMid)" opacity="0.65"/>
  <rect width="3840" height="2160" fill="url(#eAtm3)" filter="url(#blurMid)" opacity="0.55"/>
  <rect width="3840" height="2160" fill="url(#eMagicCore)" filter="url(#blurHeavy)" opacity="0.75"/>

  <!-- LAYER 3: Far background forest silhouettes -->
  <g filter="url(#blurHeavy)" opacity="0.55">
    <ellipse cx="300" cy="1000" rx="380" ry="650" fill="#051008"/>
    <ellipse cx="800" cy="940" rx="420" ry="700" fill="#040C07"/>
    <ellipse cx="1400" cy="970" rx="360" ry="660" fill="#051008"/>
    <ellipse cx="2000" cy="950" rx="400" ry="680" fill="#040C07"/>
    <ellipse cx="2600" cy="960" rx="375" ry="665" fill="#051008"/>
    <ellipse cx="3200" cy="945" rx="415" ry="685" fill="#040C07"/>
    <ellipse cx="3700" cy="975" rx="380" ry="655" fill="#051008"/>
  </g>

  <!-- LAYER 4: Mushroom cap silhouettes at base -->
  <g filter="url(#shadow)" opacity="0.85">
    <!-- Mushroom 1 -->
    <ellipse cx="300" cy="2050" rx="200" ry="80" fill="#041508"/>
    <rect x="280" y="1980" width="40" height="170" fill="#03100A"/>
    <ellipse cx="300" cy="1980" rx="180" ry="90" fill="#051A0A"/>
    <!-- Mushroom 2 -->
    <ellipse cx="750" cy="2080" rx="150" ry="65" fill="#041508"/>
    <rect x="735" y="2015" width="30" height="140" fill="#03100A"/>
    <ellipse cx="750" cy="2015" rx="140" ry="72" fill="#051A0A"/>
    <!-- Mushroom 3 large -->
    <ellipse cx="1300" cy="2010" rx="260" ry="100" fill="#041508"/>
    <rect x="1275" y="1920" width="50" height="200" fill="#03100A"/>
    <ellipse cx="1300" cy="1920" rx="240" ry="115" fill="#051A0A"/>
    <!-- Mushroom 4 -->
    <ellipse cx="1950" cy="2060" rx="180" ry="75" fill="#041508"/>
    <rect x="1935" y="1990" width="35" height="155" fill="#03100A"/>
    <ellipse cx="1950" cy="1990" rx="165" ry="82" fill="#051A0A"/>
    <!-- Mushroom 5 -->
    <ellipse cx="2550" cy="2030" rx="220" ry="88" fill="#041508"/>
    <rect x="2528" y="1950" width="44" height="185" fill="#03100A"/>
    <ellipse cx="2550" cy="1950" rx="200" ry="98" fill="#051A0A"/>
    <!-- Mushroom 6 -->
    <ellipse cx="3100" cy="2070" rx="160" ry="68" fill="#041508"/>
    <rect x="3086" y="2005" width="32" height="145" fill="#03100A"/>
    <ellipse cx="3100" cy="2005" rx="148" ry="75" fill="#051A0A"/>
    <!-- Mushroom 7 large -->
    <ellipse cx="3600" cy="2020" rx="240" ry="95" fill="#041508"/>
    <rect x="3578" y="1935" width="46" height="195" fill="#03100A"/>
    <ellipse cx="3600" cy="1935" rx="225" ry="108" fill="#051A0A"/>
  </g>
  <!-- Glowing mushroom tops -->
  <g filter="url(#glow)" opacity="0.7">
    <ellipse cx="300" cy="1980" rx="170" ry="82" fill="#40F060" opacity="0.35"/>
    <ellipse cx="750" cy="2015" rx="130" ry="65" fill="#80F040" opacity="0.3"/>
    <ellipse cx="1300" cy="1920" rx="220" ry="105" fill="#40F060" opacity="0.4"/>
    <ellipse cx="1950" cy="1990" rx="155" ry="75" fill="#80F040" opacity="0.32"/>
    <ellipse cx="2550" cy="1950" rx="190" ry="90" fill="#40F060" opacity="0.38"/>
    <ellipse cx="3100" cy="2005" rx="140" ry="68" fill="#80F040" opacity="0.3"/>
    <ellipse cx="3600" cy="1935" rx="210" ry="100" fill="#40F060" opacity="0.38"/>
  </g>

  <!-- LAYER 5: Magic circle runic pattern at center -->
  <g filter="url(#glow)" opacity="0.6" transform="translate(1920,1100)">
    <!-- Outer ring -->
    <circle cx="0" cy="0" r="380" fill="none" stroke="#40F060" stroke-width="3" opacity="0.55"/>
    <circle cx="0" cy="0" r="360" fill="none" stroke="#A0FFC0" stroke-width="1.5" opacity="0.4"/>
    <!-- Hexagon inscribed in circle -->
    <polygon points="380,0 190,329 -190,329 -380,0 -190,-329 190,-329" fill="none" stroke="#40F060" stroke-width="2" opacity="0.5"/>
    <!-- Inner triangle -->
    <polygon points="0,-260 225,130 -225,130" fill="none" stroke="#80F040" stroke-width="2" opacity="0.45"/>
    <!-- Inverted triangle -->
    <polygon points="0,260 225,-130 -225,-130" fill="none" stroke="#80F040" stroke-width="2" opacity="0.45"/>
    <!-- Middle ring -->
    <circle cx="0" cy="0" r="240" fill="none" stroke="#40F060" stroke-width="2" opacity="0.5"/>
    <!-- Inner ring -->
    <circle cx="0" cy="0" r="140" fill="none" stroke="#A0FFC0" stroke-width="2" opacity="0.55"/>
    <!-- Core glow -->
    <circle cx="0" cy="0" r="80" fill="#40F060" opacity="0.15"/>
    <circle cx="0" cy="0" r="50" fill="#A0FFC0" opacity="0.12"/>
    <!-- Rune tick marks on outer ring -->
    <line x1="380" y1="-15" x2="380" y2="15" stroke="#40F060" stroke-width="3" opacity="0.7"/>
    <line x1="-380" y1="-15" x2="-380" y2="15" stroke="#40F060" stroke-width="3" opacity="0.7"/>
    <line x1="-15" y1="380" x2="15" y2="380" stroke="#40F060" stroke-width="3" opacity="0.7"/>
    <line x1="-15" y1="-380" x2="15" y2="-380" stroke="#40F060" stroke-width="3" opacity="0.7"/>
    <line x1="269" y1="-269" x2="280" y2="-258" stroke="#40F060" stroke-width="3" opacity="0.65"/>
    <line x1="-269" y1="-269" x2="-280" y2="-258" stroke="#40F060" stroke-width="3" opacity="0.65"/>
    <line x1="269" y1="269" x2="280" y2="258" stroke="#40F060" stroke-width="3" opacity="0.65"/>
    <line x1="-269" y1="269" x2="-280" y2="258" stroke="#40F060" stroke-width="3" opacity="0.65"/>
  </g>

  <!-- LAYER 6: Magical depth haze layers -->
  <rect x="0" y="500" width="3840" height="350" fill="#148040" opacity="0.2" filter="url(#blurHeavy)"/>
  <rect x="0" y="900" width="3840" height="280" fill="#40F060" opacity="0.12" filter="url(#blurHeavy)"/>
  <rect x="0" y="1200" width="3840" height="240" fill="#148040" opacity="0.18" filter="url(#blurHeavy)"/>

  <!-- LAYER 7: Fairy light bokeh (defocused circles) -->
  <g filter="url(#bokeh)" opacity="0.55">
    <circle cx="320" cy="800" r="60" fill="#A0FFC0"/>
    <circle cx="720" cy="650" r="45" fill="#40F060"/>
    <circle cx="1100" cy="780" r="70" fill="#80F040"/>
    <circle cx="1480" cy="600" r="50" fill="#A0FFC0"/>
    <circle cx="1880" cy="750" r="65" fill="#40F060"/>
    <circle cx="2260" cy="620" r="48" fill="#80F040"/>
    <circle cx="2660" cy="790" r="72" fill="#A0FFC0"/>
    <circle cx="3040" cy="650" r="55" fill="#40F060"/>
    <circle cx="3420" cy="760" r="60" fill="#80F040"/>
    <circle cx="500" cy="1100" r="52" fill="#A0FFC0"/>
    <circle cx="900" cy="1200" r="68" fill="#40F060"/>
    <circle cx="1300" cy="1050" r="45" fill="#80F040"/>
    <circle cx="1700" cy="1180" r="62" fill="#A0FFC0"/>
    <circle cx="2100" cy="1080" r="50" fill="#40F060"/>
    <circle cx="2500" cy="1200" r="66" fill="#80F040"/>
    <circle cx="2900" cy="1060" r="48" fill="#A0FFC0"/>
    <circle cx="3300" cy="1180" r="60" fill="#40F060"/>
    <circle cx="3700" cy="1100" r="55" fill="#80F040"/>
    <circle cx="200" cy="1400" r="42" fill="#A0FFC0"/>
    <circle cx="620" cy="1500" r="58" fill="#40F060"/>
    <circle cx="1040" cy="1420" r="46" fill="#80F040"/>
    <circle cx="1460" cy="1520" r="62" fill="#A0FFC0"/>
    <circle cx="1880" cy="1430" r="48" fill="#40F060"/>
    <circle cx="2300" cy="1540" r="70" fill="#80F040"/>
    <circle cx="2720" cy="1410" r="52" fill="#A0FFC0"/>
    <circle cx="3140" cy="1520" r="60" fill="#40F060"/>
    <circle cx="3560" cy="1450" r="45" fill="#80F040"/>
  </g>

  <!-- LAYER 8: Green magical particle swirl -->
  <g filter="url(#glow)">
    <circle cx="1920" cy="1080" r="5" fill="#A0FFC0" opacity="0.95"/>
    <!-- Spiral particle positions around center (1920,1080) -->
    <circle cx="2070" cy="1040" r="4" fill="#40F060" opacity="0.9"/>
    <circle cx="2180" cy="980" r="3" fill="#80F040" opacity="0.85"/>
    <circle cx="2240" cy="900" r="4" fill="#A0FFC0" opacity="0.88"/>
    <circle cx="2220" cy="810" r="3" fill="#40F060" opacity="0.82"/>
    <circle cx="2140" cy="740" r="4" fill="#80F040" opacity="0.85"/>
    <circle cx="2020" cy="720" r="3" fill="#A0FFC0" opacity="0.8"/>
    <circle cx="1900" cy="760" r="4" fill="#40F060" opacity="0.85"/>
    <circle cx="1780" cy="780" r="3" fill="#80F040" opacity="0.8"/>
    <circle cx="1660" cy="840" r="4" fill="#A0FFC0" opacity="0.85"/>
    <circle cx="1600" cy="940" r="3" fill="#40F060" opacity="0.82"/>
    <circle cx="1620" cy="1040" r="4" fill="#80F040" opacity="0.85"/>
    <circle cx="1700" cy="1130" r="3" fill="#A0FFC0" opacity="0.8"/>
    <circle cx="1820" cy="1190" r="4" fill="#40F060" opacity="0.85"/>
    <circle cx="1960" cy="1210" r="3" fill="#80F040" opacity="0.8"/>
    <circle cx="2100" cy="1180" r="4" fill="#A0FFC0" opacity="0.85"/>
    <circle cx="2200" cy="1110" r="3" fill="#40F060" opacity="0.82"/>
    <!-- Outer spiral -->
    <circle cx="2320" cy="1040" r="3" fill="#80F040" opacity="0.72"/>
    <circle cx="2390" cy="930" r="3" fill="#40F060" opacity="0.68"/>
    <circle cx="2400" cy="810" r="3" fill="#A0FFC0" opacity="0.72"/>
    <circle cx="2350" cy="700" r="3" fill="#80F040" opacity="0.68"/>
    <circle cx="2250" cy="620" r="3" fill="#40F060" opacity="0.72"/>
    <circle cx="2120" cy="590" r="3" fill="#A0FFC0" opacity="0.68"/>
    <circle cx="1980" cy="600" r="3" fill="#80F040" opacity="0.72"/>
    <circle cx="1840" cy="650" r="3" fill="#40F060" opacity="0.68"/>
    <circle cx="1700" cy="730" r="3" fill="#A0FFC0" opacity="0.72"/>
    <circle cx="1580" cy="840" r="3" fill="#80F040" opacity="0.68"/>
    <circle cx="1520" cy="960" r="3" fill="#40F060" opacity="0.72"/>
    <circle cx="1530" cy="1090" r="3" fill="#A0FFC0" opacity="0.68"/>
    <circle cx="1600" cy="1210" r="3" fill="#80F040" opacity="0.72"/>
    <circle cx="1720" cy="1310" r="3" fill="#40F060" opacity="0.68"/>
    <circle cx="1880" cy="1370" r="3" fill="#A0FFC0" opacity="0.72"/>
    <circle cx="2040" cy="1360" r="3" fill="#80F040" opacity="0.68"/>
    <circle cx="2200" cy="1300" r="3" fill="#40F060" opacity="0.72"/>
    <circle cx="2320" cy="1200" r="3" fill="#A0FFC0" opacity="0.68"/>
    <circle cx="2400" cy="1090" r="3" fill="#80F040" opacity="0.72"/>
  </g>
  <!-- General scattered particles -->
  <g filter="url(#glowLime)">
    <circle cx="380" cy="1020" r="4" fill="#40F060" opacity="0.82"/>
    <circle cx="640" cy="880" r="3" fill="#A0FFC0" opacity="0.78"/>
    <circle cx="900" cy="1100" r="5" fill="#40F060" opacity="0.88"/>
    <circle cx="1160" cy="820" r="3" fill="#80F040" opacity="0.75"/>
    <circle cx="1400" cy="1050" r="4" fill="#40F060" opacity="0.82"/>
    <circle cx="2440" cy="820" r="4" fill="#40F060" opacity="0.82"/>
    <circle cx="2700" cy="1080" r="5" fill="#A0FFC0" opacity="0.88"/>
    <circle cx="2960" cy="940" r="3" fill="#80F040" opacity="0.75"/>
    <circle cx="3200" cy="1100" r="4" fill="#40F060" opacity="0.82"/>
    <circle cx="3460" cy="860" r="3" fill="#A0FFC0" opacity="0.78"/>
    <circle cx="460" cy="1280" r="3" fill="#80F040" opacity="0.72"/>
    <circle cx="780" cy="1380" r="4" fill="#40F060" opacity="0.75"/>
    <circle cx="1100" cy="1320" r="3" fill="#A0FFC0" opacity="0.7"/>
    <circle cx="2740" cy="1300" r="3" fill="#80F040" opacity="0.72"/>
    <circle cx="3060" cy="1380" r="4" fill="#40F060" opacity="0.75"/>
    <circle cx="3380" cy="1320" r="3" fill="#A0FFC0" opacity="0.7"/>
    <circle cx="540" cy="600" r="2" fill="#40F060" opacity="0.62"/>
    <circle cx="1040" cy="580" r="2" fill="#80F040" opacity="0.58"/>
    <circle cx="1540" cy="590" r="2" fill="#A0FFC0" opacity="0.62"/>
    <circle cx="2540" cy="585" r="2" fill="#40F060" opacity="0.62"/>
    <circle cx="3040" cy="595" r="2" fill="#80F040" opacity="0.58"/>
    <circle cx="3540" cy="575" r="2" fill="#A0FFC0" opacity="0.62"/>
    <circle cx="620" cy="1700" r="3" fill="#40F060" opacity="0.52"/>
    <circle cx="1220" cy="1720" r="3" fill="#80F040" opacity="0.48"/>
    <circle cx="1820" cy="1710" r="3" fill="#A0FFC0" opacity="0.52"/>
    <circle cx="2420" cy="1700" r="3" fill="#40F060" opacity="0.52"/>
    <circle cx="3020" cy="1715" r="3" fill="#80F040" opacity="0.48"/>
    <circle cx="3620" cy="1705" r="3" fill="#A0FFC0" opacity="0.52"/>
  </g>

  <!-- LAYER 9: Emerald light source center -->
  <rect width="3840" height="2160" fill="url(#eFairyLight1)" filter="url(#blurHeavy)" opacity="0.65"/>
  <rect width="3840" height="2160" fill="url(#eFairyLight2)" filter="url(#blurHeavy)" opacity="0.55"/>

  <!-- Specular top-left -->
  <ellipse cx="850" cy="160" rx="800" ry="280" fill="url(#eSpecular)" filter="url(#blurHeavy)" opacity="0.8"/>

  <!-- Ground glow -->
  <rect x="0" y="1700" width="3840" height="460" fill="url(#eGroundGlow)" filter="url(#blurMid)" opacity="0.6"/>

  <!-- Top dark canopy -->
  <rect x="0" y="0" width="3840" height="400" fill="#030A06" opacity="0.65" filter="url(#blurMid)"/>
  <rect x="0" y="0" width="3840" height="200" fill="#020604" opacity="0.8"/>

  <!-- Deep ground -->
  <rect x="0" y="1850" width="3840" height="310" fill="#020604" opacity="0.7" filter="url(#blur)"/>
  <rect x="0" y="2020" width="3840" height="140" fill="#010302" opacity="0.9"/>

  <!-- LAYER 10: Foreground vignette -->
  <rect width="3840" height="2160" fill="url(#eVignette)"/>

  <!-- Magic mist noise -->
  <rect width="3840" height="2160" fill="#40F060" opacity="0.025" filter="url(#noise)"/>
</svg>
