<?xml version="1.0" encoding="UTF-8"?>
<svg xmlns="http://www.w3.org/2000/svg" xmlns:xlink="http://www.w3.org/1999/xlink"
     viewBox="0 0 3840 2160" width="100%" height="100%"
     preserveAspectRatio="xMidYMid slice">
  <defs>
    <radialGradient id="npAtm1" cx="50%" cy="30%" r="60%" gradientUnits="userSpaceOnUse">
      <stop offset="0%" stop-color="#1A3888" stop-opacity="0.55"/>
      <stop offset="55%" stop-color="#081840" stop-opacity="0.25"/>
      <stop offset="100%" stop-color="#010510" stop-opacity="0"/>
    </radialGradient>
    <radialGradient id="npAtm2" cx="30%" cy="55%" r="50%" gradientUnits="userSpaceOnUse">
      <stop offset="0%" stop-color="#A040FF" stop-opacity="0.35"/>
      <stop offset="100%" stop-color="#000408" stop-opacity="0"/>
    </radialGradient>
    <radialGradient id="npAtm3" cx="72%" cy="60%" r="45%" gradientUnits="userSpaceOnUse">
      <stop offset="0%" stop-color="#00DDFF" stop-opacity="0.3"/>
      <stop offset="100%" stop-color="#010510" stop-opacity="0"/>
    </radialGradient>
    <radialGradient id="npCyanGlow" cx="50%" cy="65%" r="50%" gradientUnits="userSpaceOnUse">
      <stop offset="0%" stop-color="#00DDFF" stop-opacity="0.45"/>
      <stop offset="60%" stop-color="#1A3888" stop-opacity="0.2"/>
      <stop offset="100%" stop-color="#010510" stop-opacity="0"/>
    </radialGradient>
    <radialGradient id="npPurpleGlow" cx="50%" cy="45%" r="45%" gradientUnits="userSpaceOnUse">
      <stop offset="0%" stop-color="#A040FF" stop-opacity="0.4"/>
      <stop offset="100%" stop-color="#000408" stop-opacity="0"/>
    </radialGradient>
    <radialGradient id="npVignette" cx="50%" cy="50%" r="72%" gradientUnits="userSpaceOnUse">
      <stop offset="30%" stop-color="#000000" stop-opacity="0"/>
      <stop offset="100%" stop-color="#000000" stop-opacity="0.92"/>
    </radialGradient>
    <radialGradient id="npSpecular" cx="22%" cy="6%" r="28%" gradientUnits="userSpaceOnUse">
      <stop offset="0%" stop-color="#C0F0FF" stop-opacity="0.45"/>
      <stop offset="55%" stop-color="#00DDFF" stop-opacity="0.15"/>
      <stop offset="100%" stop-color="#010510" stop-opacity="0"/>
    </radialGradient>
    <linearGradient id="npSky" x1="0%" y1="0%" x2="0%" y2="100%">
      <stop offset="0%" stop-color="#000408"/>
      <stop offset="20%" stop-color="#010510"/>
      <stop offset="55%" stop-color="#030C28"/>
      <stop offset="80%" stop-color="#1A3888"/>
      <stop offset="100%" stop-color="#081840"/>
    </linearGradient>
    <linearGradient id="npGridV" x1="50%" y1="0%" x2="50%" y2="100%">
      <stop offset="0%" stop-color="#00DDFF" stop-opacity="0.6"/>
      <stop offset="100%" stop-color="#00DDFF" stop-opacity="0"/>
    </linearGradient>
    <linearGradient id="npGridH" x1="0%" y1="50%" x2="100%" y2="50%">
      <stop offset="0%" stop-color="#00DDFF" stop-opacity="0"/>
      <stop offset="20%" stop-color="#00DDFF" stop-opacity="0.4"/>
      <stop offset="80%" stop-color="#00DDFF" stop-opacity="0.4"/>
      <stop offset="100%" stop-color="#00DDFF" stop-opacity="0"/>
    </linearGradient>
    <linearGradient id="npPillar1" x1="0%" y1="0%" x2="0%" y2="100%">
      <stop offset="0%" stop-color="#A040FF" stop-opacity="0.8"/>
      <stop offset="100%" stop-color="#A040FF" stop-opacity="0.1"/>
    </linearGradient>
    <linearGradient id="npPillar2" x1="0%" y1="0%" x2="0%" y2="100%">
      <stop offset="0%" stop-color="#00DDFF" stop-opacity="0.7"/>
      <stop offset="100%" stop-color="#00DDFF" stop-opacity="0.05"/>
    </linearGradient>
    <filter id="glow" x="-60%" y="-60%" width="220%" height="220%">
      <feGaussianBlur in="SourceGraphic" stdDeviation="10" result="b1"/>
      <feGaussianBlur in="SourceGraphic" stdDeviation="28" result="b2"/>
      <feColorMatrix in="b1" type="matrix"
        values="0 0 0 0 0  0 0 0 0 0.87  0 0 0 0 1  0 0 0 2.2 0" result="c1"/>
      <feColorMatrix in="b2" type="matrix"
        values="0 0 0 0 0  0 0 0 0 0.87  0 0 0 0 1  0 0 0 1 0" result="c2"/>
      <feMerge><feMergeNode in="c2"/><feMergeNode in="c1"/><feMergeNode in="SourceGraphic"/></feMerge>
    </filter>
    <filter id="glowPurple" x="-60%" y="-60%" width="220%" height="220%">
      <feGaussianBlur in="SourceGraphic" stdDeviation="10" result="b1"/>
      <feGaussianBlur in="SourceGraphic" stdDeviation="25" result="b2"/>
      <feColorMatrix in="b1" type="matrix"
        values="0 0 0 0 0.63  0 0 0 0 0.25  0 0 0 0 1  0 0 0 2.5 0" result="c1"/>
      <feColorMatrix in="b2" type="matrix"
        values="0 0 0 0 0.63  0 0 0 0 0.25  0 0 0 0 1  0 0 0 1 0" result="c2"/>
      <feMerge><feMergeNode in="c2"/><feMergeNode in="c1"/><feMergeNode in="SourceGraphic"/></feMerge>
    </filter>
    <filter id="shadow" x="-25%" y="-25%" width="150%" height="150%">
      <feDropShadow dx="0" dy="6" stdDeviation="18" flood-color="#000408" flood-opacity="0.95"/>
    </filter>
    <filter id="noise" x="0%" y="0%" width="100%" height="100%">
      <feTurbulence type="fractalNoise" baseFrequency="0.65" numOctaves="4" stitchTiles="stitch" result="n"/>
      <feColorMatrix in="n" type="saturate" values="0" result="gn"/>
      <feBlend in="SourceGraphic" in2="gn" mode="overlay" result="bl"/>
      <feComposite in="bl" in2="SourceGraphic" operator="in"/>
    </filter>
    <filter id="blur" x="-15%" y="-15%" width="130%" height="130%">
      <feGaussianBlur stdDeviation="5"/>
    </filter>
    <filter id="blurHeavy" x="-30%" y="-30%" width="160%" height="160%">
      <feGaussianBlur stdDeviation="18"/>
    </filter>
    <filter id="blurMid" x="-20%" y="-20%" width="140%" height="140%">
      <feGaussianBlur stdDeviation="9"/>
    </filter>
    <filter id="scanlines">
      <feTurbulence type="fractalNoise" baseFrequency="0 1.5" numOctaves="1" seed="1" result="n"/>
      <feColorMatrix in="n" type="matrix"
        values="0 0 0 0 0  0 0 0 0 0  0 0 0 0 0  0 0 0 0.025 0" result="scan"/>
      <feBlend in="SourceGraphic" in2="scan" mode="overlay"/>
    </filter>
    <filter id="electricArc">
      <feTurbulence type="turbulence" baseFrequency="0.05 0.3" numOctaves="4" seed="16" result="t"/>
      <feDisplacementMap in="SourceGraphic" in2="t" scale="12" xChannelSelector="R" yChannelSelector="G"/>
    </filter>
  </defs>

  <!-- LAYER 1: Cyberpunk night sky base -->
  <rect width="3840" height="2160" fill="url(#npSky)"/>

  <!-- LAYER 2: Atmospheric glow layers -->
  <rect width="3840" height="2160" fill="url(#npAtm1)" filter="url(#blurHeavy)" opacity="0.85"/>
  <rect width="3840" height="2160" fill="url(#npAtm2)" filter="url(#blurMid)" opacity="0.65"/>
  <rect width="3840" height="2160" fill="url(#npAtm3)" filter="url(#blurMid)" opacity="0.55"/>
  <rect width="3840" height="2160" fill="url(#npCyanGlow)" filter="url(#blurHeavy)" opacity="0.7"/>
  <rect width="3840" height="2160" fill="url(#npPurpleGlow)" filter="url(#blurHeavy)" opacity="0.6"/>

  <!-- LAYER 3: Distant city skyline (background buildings) -->
  <g filter="url(#blurHeavy)" opacity="0.55">
    <rect x="0" y="600" width="80" height="800" fill="#030C28"/>
    <rect x="90" y="520" width="60" height="880" fill="#040E30"/>
    <rect x="160" y="420" width="90" height="980" fill="#030C28"/>
    <rect x="260" y="560" width="70" height="840" fill="#040E30"/>
    <rect x="340" y="460" width="100" height="940" fill="#030C28"/>
    <rect x="450" y="380" width="80" height="1020" fill="#040E30"/>
    <rect x="540" y="500" width="60" height="900" fill="#030C28"/>
    <rect x="610" y="400" width="110" height="1000" fill="#040E30"/>
    <rect x="730" y="340" width="75" height="1060" fill="#030C28"/>
    <rect x="815" y="460" width="90" height="940" fill="#040E30"/>
    <rect x="915" y="540" width="65" height="860" fill="#030C28"/>
    <rect x="990" y="380" width="120" height="1020" fill="#040E30"/>
    <rect x="1120" y="320" width="85" height="1080" fill="#030C28"/>
    <rect x="1215" y="440" width="70" height="960" fill="#040E30"/>
    <rect x="1295" y="560" width="95" height="840" fill="#030C28"/>
    <rect x="1400" y="400" width="80" height="1000" fill="#040E30"/>
    <rect x="1490" y="310" width="110" height="1090" fill="#030C28"/>
    <rect x="1610" y="480" width="75" height="920" fill="#040E30"/>
    <rect x="1695" y="580" width="85" height="820" fill="#030C28"/>
    <rect x="1790" y="360" width="100" height="1040" fill="#040E30"/>
    <rect x="1900" y="290" width="90" height="1110" fill="#030C28"/>
    <rect x="2000" y="420" width="80" height="980" fill="#040E30"/>
    <rect x="2090" y="560" width="70" height="840" fill="#030C28"/>
    <rect x="2170" y="360" width="115" height="1040" fill="#040E30"/>
    <rect x="2295" y="300" width="80" height="1100" fill="#030C28"/>
    <rect x="2385" y="430" width="95" height="970" fill="#040E30"/>
    <rect x="2490" y="570" width="65" height="830" fill="#030C28"/>
    <rect x="2565" y="380" width="105" height="1020" fill="#040E30"/>
    <rect x="2680" y="320" width="85" height="1080" fill="#030C28"/>
    <rect x="2775" y="470" width="75" height="930" fill="#040E30"/>
    <rect x="2860" y="560" width="90" height="840" fill="#030C28"/>
    <rect x="2960" y="380" width="110" height="1020" fill="#040E30"/>
    <rect x="3080" y="310" width="80" height="1090" fill="#030C28"/>
    <rect x="3170" y="450" width="95" height="950" fill="#040E30"/>
    <rect x="3275" y="550" width="70" height="850" fill="#030C28"/>
    <rect x="3355" y="370" width="120" height="1030" fill="#040E30"/>
    <rect x="3485" y="300" width="85" height="1100" fill="#030C28"/>
    <rect x="3580" y="440" width="75" height="960" fill="#040E30"/>
    <rect x="3665" y="540" width="95" height="860" fill="#030C28"/>
    <rect x="3770" y="380" width="70" height="1020" fill="#040E30"/>
  </g>

  <!-- Neon outlines on buildings (distant) -->
  <g filter="url(#glowPurple)" opacity="0.5">
    <rect x="164" y="420" width="90" height="3" fill="#A040FF"/>
    <rect x="454" y="378" width="80" height="3" fill="#00DDFF"/>
    <rect x="734" y="338" width="75" height="3" fill="#A040FF"/>
    <rect x="1124" y="318" width="85" height="3" fill="#00DDFF"/>
    <rect x="1494" y="308" width="110" height="3" fill="#A040FF"/>
    <rect x="1904" y="288" width="90" height="3" fill="#00DDFF"/>
    <rect x="2299" y="298" width="80" height="3" fill="#A040FF"/>
    <rect x="2684" y="318" width="85" height="3" fill="#00DDFF"/>
    <rect x="3084" y="308" width="80" height="3" fill="#A040FF"/>
    <rect x="3489" y="298" width="85" height="3" fill="#00DDFF"/>
  </g>

  <!-- LAYER 4: Ground grid with perspective vanishing point (1920, 1100) -->
  <!-- Perspective lines radiating from VP -->
  <g filter="url(#blur)" opacity="0.55">
    <line x1="0" y1="2160" x2="1920" y2="1100" stroke="#00DDFF" stroke-width="1.5"/>
    <line x1="384" y1="2160" x2="1920" y2="1100" stroke="#00DDFF" stroke-width="1.5"/>
    <line x1="768" y1="2160" x2="1920" y2="1100" stroke="#00DDFF" stroke-width="1.5"/>
    <line x1="1152" y1="2160" x2="1920" y2="1100" stroke="#00DDFF" stroke-width="1.5"/>
    <line x1="1536" y1="2160" x2="1920" y2="1100" stroke="#00DDFF" stroke-width="1.5"/>
    <line x1="1920" y1="2160" x2="1920" y2="1100" stroke="#00DDFF" stroke-width="1.5"/>
    <line x1="2304" y1="2160" x2="1920" y2="1100" stroke="#00DDFF" stroke-width="1.5"/>
    <line x1="2688" y1="2160" x2="1920" y2="1100" stroke="#00DDFF" stroke-width="1.5"/>
    <line x1="3072" y1="2160" x2="1920" y2="1100" stroke="#00DDFF" stroke-width="1.5"/>
    <line x1="3456" y1="2160" x2="1920" y2="1100" stroke="#00DDFF" stroke-width="1.5"/>
    <line x1="3840" y1="2160" x2="1920" y2="1100" stroke="#00DDFF" stroke-width="1.5"/>
    <line x1="3840" y1="1800" x2="1920" y2="1100" stroke="#00DDFF" stroke-width="1"/>
    <line x1="3840" y1="1450" x2="1920" y2="1100" stroke="#00DDFF" stroke-width="1"/>
    <line x1="3840" y1="1200" x2="1920" y2="1100" stroke="#00DDFF" stroke-width="1"/>
    <line x1="0" y1="1800" x2="1920" y2="1100" stroke="#00DDFF" stroke-width="1"/>
    <line x1="0" y1="1450" x2="1920" y2="1100" stroke="#00DDFF" stroke-width="1"/>
    <line x1="0" y1="1200" x2="1920" y2="1100" stroke="#00DDFF" stroke-width="1"/>
    <!-- Horizontal grid rings (concentric ellipses on ground plane) -->
    <ellipse cx="1920" cy="1100" rx="3840" ry="700" fill="none" stroke="#00DDFF" stroke-width="1" opacity="0.4"/>
    <ellipse cx="1920" cy="1100" rx="2880" ry="520" fill="none" stroke="#00DDFF" stroke-width="1" opacity="0.45"/>
    <ellipse cx="1920" cy="1100" rx="1920" ry="350" fill="none" stroke="#00DDFF" stroke-width="1.5" opacity="0.5"/>
    <ellipse cx="1920" cy="1100" rx="960" ry="175" fill="none" stroke="#00DDFF" stroke-width="1.5" opacity="0.55"/>
    <ellipse cx="1920" cy="1100" rx="480" ry="88" fill="none" stroke="#00DDFF" stroke-width="1.5" opacity="0.6"/>
  </g>

  <!-- LAYER 5: Circuit board lines on ground (cyan) -->
  <g filter="url(#glow)" opacity="0.7">
    <!-- Main circuit traces horizontal -->
    <line x1="0" y1="1350" x2="3840" y2="1350" stroke="#00DDFF" stroke-width="2"/>
    <line x1="0" y1="1500" x2="3840" y2="1500" stroke="#00DDFF" stroke-width="1.5"/>
    <line x1="0" y1="1680" x2="3840" y2="1680" stroke="#00DDFF" stroke-width="2"/>
    <line x1="0" y1="1880" x2="3840" y2="1880" stroke="#00DDFF" stroke-width="1.5"/>
    <!-- Vertical segments -->
    <line x1="480" y1="1350" x2="480" y2="1500" stroke="#00DDFF" stroke-width="2"/>
    <line x1="960" y1="1500" x2="960" y2="1680" stroke="#00DDFF" stroke-width="2"/>
    <line x1="1440" y1="1350" x2="1440" y2="1680" stroke="#00DDFF" stroke-width="2"/>
    <line x1="1920" y1="1350" x2="1920" y2="1880" stroke="#00DDFF" stroke-width="2.5"/>
    <line x1="2400" y1="1350" x2="2400" y2="1680" stroke="#00DDFF" stroke-width="2"/>
    <line x1="2880" y1="1500" x2="2880" y2="1680" stroke="#00DDFF" stroke-width="2"/>
    <line x1="3360" y1="1350" x2="3360" y2="1500" stroke="#00DDFF" stroke-width="2"/>
    <!-- Circuit nodes (dots at intersections) -->
    <circle cx="480" cy="1350" r="5" fill="#00DDFF"/>
    <circle cx="960" cy="1500" r="5" fill="#00DDFF"/>
    <circle cx="1440" cy="1350" r="5" fill="#00DDFF"/>
    <circle cx="1440" cy="1500" r="4" fill="#00DDFF"/>
    <circle cx="1440" cy="1680" r="5" fill="#00DDFF"/>
    <circle cx="1920" cy="1350" r="6" fill="#00DDFF"/>
    <circle cx="1920" cy="1500" r="5" fill="#00DDFF"/>
    <circle cx="1920" cy="1680" r="5" fill="#00DDFF"/>
    <circle cx="1920" cy="1880" r="6" fill="#00DDFF"/>
    <circle cx="2400" cy="1350" r="5" fill="#00DDFF"/>
    <circle cx="2400" cy="1500" r="4" fill="#00DDFF"/>
    <circle cx="2400" cy="1680" r="5" fill="#00DDFF"/>
    <circle cx="2880" cy="1500" r="5" fill="#00DDFF"/>
    <circle cx="2880" cy="1680" r="5" fill="#00DDFF"/>
    <circle cx="3360" cy="1350" r="5" fill="#00DDFF"/>
    <circle cx="3360" cy="1500" r="4" fill="#00DDFF"/>
    <!-- L-shaped traces -->
    <path d="M240,1350 L240,1420 L480,1420 L480,1500" stroke="#00DDFF" stroke-width="1.5" fill="none"/>
    <path d="M720,1350 L720,1430 L960,1430 L960,1500" stroke="#00DDFF" stroke-width="1.5" fill="none"/>
    <path d="M1200,1500 L1200,1590 L1440,1590 L1440,1680" stroke="#00DDFF" stroke-width="1.5" fill="none"/>
    <path d="M2640,1500 L2640,1590 L2880,1590 L2880,1680" stroke="#00DDFF" stroke-width="1.5" fill="none"/>
    <path d="M3120,1350 L3120,1420 L3360,1420 L3360,1500" stroke="#00DDFF" stroke-width="1.5" fill="none"/>
    <path d="M3600,1350 L3600,1420 L3840,1420" stroke="#00DDFF" stroke-width="1.5" fill="none"/>
  </g>

  <!-- LAYER 6: Holographic purple pillars rising -->
  <g filter="url(#glowPurple)">
    <!-- Pillar 1 left -->
    <rect x="380" y="800" width="40" height="1360" fill="url(#npPillar1)" opacity="0.6"/>
    <rect x="380" y="800" width="40" height="6" fill="#A040FF" opacity="0.9"/>
    <!-- Pillar 2 -->
    <rect x="960" y="700" width="40" height="1460" fill="url(#npPillar2)" opacity="0.55"/>
    <rect x="960" y="700" width="40" height="6" fill="#00DDFF" opacity="0.9"/>
    <!-- Pillar 3 center-left -->
    <rect x="1440" y="600" width="50" height="1560" fill="url(#npPillar1)" opacity="0.65"/>
    <rect x="1440" y="600" width="50" height="8" fill="#A040FF" opacity="0.95"/>
    <!-- Pillar 4 center -->
    <rect x="1895" y="500" width="50" height="1660" fill="url(#npPillar2)" opacity="0.7"/>
    <rect x="1895" y="500" width="50" height="8" fill="#00DDFF" opacity="0.95"/>
    <!-- Pillar 5 center-right -->
    <rect x="2350" y="600" width="50" height="1560" fill="url(#npPillar1)" opacity="0.65"/>
    <rect x="2350" y="600" width="50" height="8" fill="#A040FF" opacity="0.95"/>
    <!-- Pillar 6 -->
    <rect x="2840" y="700" width="40" height="1460" fill="url(#npPillar2)" opacity="0.55"/>
    <rect x="2840" y="700" width="40" height="6" fill="#00DDFF" opacity="0.9"/>
    <!-- Pillar 7 right -->
    <rect x="3420" y="800" width="40" height="1360" fill="url(#npPillar1)" opacity="0.6"/>
    <rect x="3420" y="800" width="40" height="6" fill="#A040FF" opacity="0.9"/>
  </g>

  <!-- LAYER 7: Digital rain columns (thin vertical lines varying opacity) -->
  <g opacity="0.45" filter="url(#blur)">
    <line x1="192" y1="0" x2="192" y2="2160" stroke="#00DDFF" stroke-width="1"/>
    <line x1="576" y1="0" x2="576" y2="2160" stroke="#00DDFF" stroke-width="0.8"/>
    <line x1="768" y1="0" x2="768" y2="2160" stroke="#A040FF" stroke-width="1"/>
    <line x1="1152" y1="0" x2="1152" y2="2160" stroke="#00DDFF" stroke-width="0.8"/>
    <line x1="1344" y1="0" x2="1344" y2="2160" stroke="#A040FF" stroke-width="1"/>
    <line x1="1728" y1="0" x2="1728" y2="2160" stroke="#00DDFF" stroke-width="0.8"/>
    <line x1="2112" y1="0" x2="2112" y2="2160" stroke="#00DDFF" stroke-width="1"/>
    <line x1="2496" y1="0" x2="2496" y2="2160" stroke="#A040FF" stroke-width="0.8"/>
    <line x1="2688" y1="0" x2="2688" y2="2160" stroke="#00DDFF" stroke-width="1"/>
    <line x1="3072" y1="0" x2="3072" y2="2160" stroke="#00DDFF" stroke-width="0.8"/>
    <line x1="3264" y1="0" x2="3264" y2="2160" stroke="#A040FF" stroke-width="1"/>
    <line x1="3648" y1="0" x2="3648" y2="2160" stroke="#00DDFF" stroke-width="0.8"/>
    <!-- Denser rain segments -->
    <line x1="96" y1="200" x2="96" y2="800" stroke="#00DDFF" stroke-width="1.5" opacity="0.6"/>
    <line x1="288" y1="500" x2="288" y2="1100" stroke="#A040FF" stroke-width="1.5" opacity="0.55"/>
    <line x1="480" y1="300" x2="480" y2="900" stroke="#00DDFF" stroke-width="1.5" opacity="0.6"/>
    <line x1="672" y1="600" x2="672" y2="1200" stroke="#A040FF" stroke-width="1.5" opacity="0.55"/>
    <line x1="864" y1="100" x2="864" y2="700" stroke="#00DDFF" stroke-width="1.5" opacity="0.6"/>
    <line x1="1056" y1="400" x2="1056" y2="1000" stroke="#A040FF" stroke-width="1.5" opacity="0.55"/>
    <line x1="1248" y1="700" x2="1248" y2="1300" stroke="#00DDFF" stroke-width="1.5" opacity="0.6"/>
    <line x1="1632" y1="200" x2="1632" y2="800" stroke="#A040FF" stroke-width="1.5" opacity="0.55"/>
    <line x1="1824" y1="500" x2="1824" y2="1100" stroke="#00DDFF" stroke-width="1.5" opacity="0.6"/>
    <line x1="2016" y1="300" x2="2016" y2="900" stroke="#A040FF" stroke-width="1.5" opacity="0.55"/>
    <line x1="2208" y1="600" x2="2208" y2="1200" stroke="#00DDFF" stroke-width="1.5" opacity="0.6"/>
    <line x1="2400" y1="100" x2="2400" y2="700" stroke="#A040FF" stroke-width="1.5" opacity="0.55"/>
    <line x1="2592" y1="400" x2="2592" y2="1000" stroke="#00DDFF" stroke-width="1.5" opacity="0.6"/>
    <line x1="2784" y1="700" x2="2784" y2="1300" stroke="#A040FF" stroke-width="1.5" opacity="0.55"/>
    <line x1="2976" y1="200" x2="2976" y2="800" stroke="#00DDFF" stroke-width="1.5" opacity="0.6"/>
    <line x1="3168" y1="500" x2="3168" y2="1100" stroke="#A040FF" stroke-width="1.5" opacity="0.55"/>
    <line x1="3360" y1="300" x2="3360" y2="900" stroke="#00DDFF" stroke-width="1.5" opacity="0.6"/>
    <line x1="3552" y1="600" x2="3552" y2="1200" stroke="#A040FF" stroke-width="1.5" opacity="0.55"/>
    <line x1="3744" y1="100" x2="3744" y2="700" stroke="#00DDFF" stroke-width="1.5" opacity="0.6"/>
  </g>

  <!-- LAYER 8: Electric arc accents -->
  <g filter="url(#glow)" opacity="0.7">
    <path d="M400,800 Q440,780 460,800 Q480,820 520,795" stroke="#00DDFF" stroke-width="2" fill="none" filter="url(#electricArc)"/>
    <path d="M1000,700 Q1040,680 1060,700 Q1080,720 1120,695" stroke="#A040FF" stroke-width="2" fill="none" filter="url(#electricArc)"/>
    <path d="M1460,600 Q1500,580 1520,600 Q1540,620 1580,595" stroke="#00DDFF" stroke-width="2" fill="none" filter="url(#electricArc)"/>
    <path d="M1915,500 Q1955,480 1975,500 Q1995,520 2035,495" stroke="#A040FF" stroke-width="2.5" fill="none" filter="url(#electricArc)"/>
    <path d="M2370,600 Q2410,580 2430,600 Q2450,620 2490,595" stroke="#00DDFF" stroke-width="2" fill="none" filter="url(#electricArc)"/>
    <path d="M2860,700 Q2900,680 2920,700 Q2940,720 2980,695" stroke="#A040FF" stroke-width="2" fill="none" filter="url(#electricArc)"/>
    <path d="M3440,800 Q3480,780 3500,800 Q3520,820 3560,795" stroke="#00DDFF" stroke-width="2" fill="none" filter="url(#electricArc)"/>
  </g>

  <!-- LAYER 9: Neon sign glow reflections on ground -->
  <g filter="url(#blurMid)" opacity="0.45">
    <rect x="340" y="1200" width="120" height="300" fill="#A040FF" opacity="0.2"/>
    <rect x="920" y="1150" width="120" height="350" fill="#00DDFF" opacity="0.2"/>
    <rect x="1400" y="1100" width="140" height="400" fill="#A040FF" opacity="0.25"/>
    <rect x="1855" y="1050" width="140" height="450" fill="#00DDFF" opacity="0.25"/>
    <rect x="2310" y="1100" width="140" height="400" fill="#A040FF" opacity="0.25"/>
    <rect x="2800" y="1150" width="120" height="350" fill="#00DDFF" opacity="0.2"/>
    <rect x="3380" y="1200" width="120" height="300" fill="#A040FF" opacity="0.2"/>
  </g>

  <!-- LAYER 10: Scanline overlay (thin repeating horizontal stripes) -->
  <rect width="3840" height="2160" fill="#00DDFF" opacity="0.018" filter="url(#scanlines)"/>

  <!-- LAYER 11: Neon particle field (50+) -->
  <g filter="url(#glow)">
    <circle cx="380" cy="900" r="3" fill="#00DDFF" opacity="0.85"/>
    <circle cx="640" cy="780" r="2" fill="#C0F0FF" opacity="0.8"/>
    <circle cx="920" cy="950" r="4" fill="#00DDFF" opacity="0.9"/>
    <circle cx="1180" cy="760" r="2" fill="#A040FF" opacity="0.78"/>
    <circle cx="1420" cy="920" r="3" fill="#00DDFF" opacity="0.85"/>
    <circle cx="1680" cy="740" r="2" fill="#C0F0FF" opacity="0.8"/>
    <circle cx="1940" cy="980" r="4" fill="#00DDFF" opacity="0.92"/>
    <circle cx="2200" cy="770" r="2" fill="#A040FF" opacity="0.78"/>
    <circle cx="2440" cy="940" r="3" fill="#00DDFF" opacity="0.85"/>
    <circle cx="2700" cy="760" r="2" fill="#C0F0FF" opacity="0.8"/>
    <circle cx="2960" cy="960" r="4" fill="#00DDFF" opacity="0.9"/>
    <circle cx="3220" cy="790" r="2" fill="#A040FF" opacity="0.78"/>
    <circle cx="3480" cy="940" r="3" fill="#00DDFF" opacity="0.85"/>
    <circle cx="300" cy="1150" r="3" fill="#A040FF" opacity="0.72"/>
    <circle cx="560" cy="1280" r="2" fill="#00DDFF" opacity="0.68"/>
    <circle cx="820" cy="1200" r="4" fill="#A040FF" opacity="0.75"/>
    <circle cx="1080" cy="1310" r="2" fill="#00DDFF" opacity="0.68"/>
    <circle cx="1360" cy="1180" r="3" fill="#A040FF" opacity="0.72"/>
    <circle cx="1620" cy="1300" r="2" fill="#00DDFF" opacity="0.68"/>
    <circle cx="1900" cy="1210" r="4" fill="#A040FF" opacity="0.75"/>
    <circle cx="2160" cy="1320" r="2" fill="#00DDFF" opacity="0.68"/>
    <circle cx="2440" cy="1190" r="3" fill="#A040FF" opacity="0.72"/>
    <circle cx="2700" cy="1300" r="2" fill="#00DDFF" opacity="0.68"/>
    <circle cx="2960" cy="1220" r="4" fill="#A040FF" opacity="0.75"/>
    <circle cx="3220" cy="1310" r="2" fill="#00DDFF" opacity="0.68"/>
    <circle cx="3480" cy="1190" r="3" fill="#A040FF" opacity="0.72"/>
    <circle cx="3740" cy="1280" r="2" fill="#00DDFF" opacity="0.68"/>
    <circle cx="460" cy="580" r="2" fill="#C0F0FF" opacity="0.62"/>
    <circle cx="760" cy="520" r="2" fill="#00DDFF" opacity="0.58"/>
    <circle cx="1060" cy="560" r="2" fill="#A040FF" opacity="0.62"/>
    <circle cx="1460" cy="540" r="2" fill="#00DDFF" opacity="0.58"/>
    <circle cx="1860" cy="550" r="2" fill="#C0F0FF" opacity="0.62"/>
    <circle cx="2260" cy="535" r="2" fill="#00DDFF" opacity="0.58"/>
    <circle cx="2660" cy="555" r="2" fill="#A040FF" opacity="0.62"/>
    <circle cx="3060" cy="540" r="2" fill="#00DDFF" opacity="0.58"/>
    <circle cx="3460" cy="558" r="2" fill="#C0F0FF" opacity="0.62"/>
    <circle cx="620" cy="1680" r="3" fill="#00DDFF" opacity="0.52"/>
    <circle cx="1220" cy="1700" r="3" fill="#A040FF" opacity="0.48"/>
    <circle cx="1820" cy="1690" r="3" fill="#00DDFF" opacity="0.52"/>
    <circle cx="2420" cy="1680" r="3" fill="#A040FF" opacity="0.48"/>
    <circle cx="3020" cy="1695" r="3" fill="#00DDFF" opacity="0.52"/>
    <circle cx="3620" cy="1685" r="3" fill="#A040FF" opacity="0.48"/>
  </g>
  <g filter="url(#glowPurple)">
    <circle cx="520" cy="1020" r="3" fill="#A040FF" opacity="0.82"/>
    <circle cx="1020" cy="1100" r="4" fill="#C0F0FF" opacity="0.78"/>
    <circle cx="1620" cy="1050" r="3" fill="#A040FF" opacity="0.85"/>
    <circle cx="2120" cy="1120" r="4" fill="#C0F0FF" opacity="0.78"/>
    <circle cx="2720" cy="1060" r="3" fill="#A040FF" opacity="0.82"/>
    <circle cx="3220" cy="1110" r="4" fill="#C0F0FF" opacity="0.78"/>
    <circle cx="760" cy="1420" r="3" fill="#A040FF" opacity="0.65"/>
    <circle cx="1460" cy="1460" r="3" fill="#C0F0FF" opacity="0.62"/>
    <circle cx="2160" cy="1440" r="3" fill="#A040FF" opacity="0.65"/>
    <circle cx="2860" cy="1450" r="3" fill="#C0F0FF" opacity="0.62"/>
    <circle cx="3460" cy="1430" r="3" fill="#A040FF" opacity="0.65"/>
  </g>

  <!-- LAYER 12: Specular top-left -->
  <ellipse cx="850" cy="160" rx="800" ry="280" fill="url(#npSpecular)" filter="url(#blurHeavy)" opacity="0.75"/>

  <!-- Top sky -->
  <rect x="0" y="0" width="3840" height="300" fill="#000408" opacity="0.55" filter="url(#blurMid)"/>
  <rect x="0" y="0" width="3840" height="150" fill="#000204" opacity="0.75"/>

  <!-- Ground darkness -->
  <rect x="0" y="1850" width="3840" height="310" fill="#000408" opacity="0.65" filter="url(#blur)"/>
  <rect x="0" y="2020" width="3840" height="140" fill="#000204" opacity="0.88"/>

  <!-- LAYER 13: Foreground vignette -->
  <rect width="3840" height="2160" fill="url(#npVignette)"/>

  <!-- Digital noise texture -->
  <rect width="3840" height="2160" fill="#00DDFF" opacity="0.022" filter="url(#noise)"/>
</svg>
