<svg xmlns="http://www.w3.org/2000/svg" preserveAspectRatio="xMidYMid slice" viewBox="0 0 3840 2160"><defs><radialGradient id="b" cx="50%" cy="30%" r="60%" gradientUnits="userSpaceOnUse"><stop offset="0%" stop-color="#4828a8" stop-opacity=".45"/><stop offset="60%" stop-color="#380898" stop-opacity=".2"/><stop offset="100%" stop-color="#050312" stop-opacity="0"/></radialGradient><radialGradient id="d" cx="30%" cy="60%" r="50%" gradientUnits="userSpaceOnUse"><stop offset="0%" stop-color="#70b8f0" stop-opacity=".3"/><stop offset="100%" stop-color="#050312" stop-opacity="0"/></radialGradient><radialGradient id="f" cx="75%" cy="55%" r="45%" gradientUnits="userSpaceOnUse"><stop offset="0%" stop-color="#604898" stop-opacity=".35"/><stop offset="100%" stop-color="#030110" stop-opacity="0"/></radialGradient><radialGradient id="g" cx="50%" cy="35%" r="55%" gradientUnits="userSpaceOnUse"><stop offset="0%" stop-color="#a878f0" stop-opacity=".4"/><stop offset="40%" stop-color="#4828a8" stop-opacity=".2"/><stop offset="100%" stop-color="#050312" stop-opacity="0"/></radialGradient><radialGradient id="l" cx="40%" cy="75%" r="30%" gradientUnits="userSpaceOnUse"><stop offset="0%" stop-color="#a878f0" stop-opacity=".55"/><stop offset="100%" stop-color="#050312" stop-opacity="0"/></radialGradient><radialGradient id="m" cx="65%" cy="72%" r="25%" gradientUnits="userSpaceOnUse"><stop offset="0%" stop-color="#70b8f0" stop-opacity=".5"/><stop offset="100%" stop-color="#050312" stop-opacity="0"/></radialGradient><radialGradient id="o" cx="50%" cy="50%" r="72%" gradientUnits="userSpaceOnUse"><stop offset="30%" stop-opacity="0"/><stop offset="100%" stop-opacity=".9"/></radialGradient><radialGradient id="n" cx="22%" cy="6%" r="28%" gradientUnits="userSpaceOnUse"><stop offset="0%" stop-color="#e0b0ff" stop-opacity=".4"/><stop offset="55%" stop-color="#a878f0" stop-opacity=".12"/><stop offset="100%" stop-color="#050312" stop-opacity="0"/></radialGradient><filter id="h" width="220%" height="220%" x="-60%" y="-60%"><feGaussianBlur in="SourceGraphic" result="b1" stdDeviation="10"/><feGaussianBlur in="SourceGraphic" result="b2" stdDeviation="28"/><feColorMatrix in="b1" result="c1" values="0 0 0 0 0.66 0 0 0 0 0.47 0 0 0 0 0.94 0 0 0 2.2 0"/><feColorMatrix in="b2" result="c2" values="0 0 0 0 0.66 0 0 0 0 0.47 0 0 0 0 0.94 0 0 0 0.9 0"/><feMerge><feMergeNode in="c2"/><feMergeNode in="c1"/><feMergeNode in="SourceGraphic"/></feMerge></filter><filter id="j" width="150%" height="150%" x="-25%" y="-25%"><feDropShadow dx="0" dy="6" flood-color="#030110" flood-opacity=".95" stdDeviation="18"/></filter><filter id="p" width="100%" height="100%" x="0%" y="0%"><feTurbulence baseFrequency=".65" numOctaves="4" result="n" stitchTiles="stitch" type="fractalNoise"/><feColorMatrix in="n" result="gn" type="saturate" values="0"/><feBlend in="SourceGraphic" in2="gn" mode="overlay" result="bl"/><feComposite in="bl" in2="SourceGraphic" operator="in"/></filter><filter id="i" width="130%" height="130%" x="-15%" y="-15%"><feGaussianBlur stdDeviation="5"/></filter><filter id="c" width="160%" height="160%" x="-30%" y="-30%"><feGaussianBlur stdDeviation="18"/></filter><filter id="e" width="140%" height="140%" x="-20%" y="-20%"><feGaussianBlur stdDeviation="9"/></filter><linearGradient id="a" x1="0%" x2="0%" y1="0%" y2="100%"><stop offset="0%" stop-color="#030110"/><stop offset="20%" stop-color="#050312"/><stop offset="50%" stop-color="#08051c"/><stop offset="80%" stop-color="#4828a8"/><stop offset="100%" stop-color="#380898"/></linearGradient><linearGradient id="k" x1="0%" x2="0%" y1="0%" y2="100%"><stop offset="0%" stop-color="#a878f0" stop-opacity=".3"/><stop offset="100%" stop-color="#4828a8" stop-opacity=".05"/></linearGradient></defs><path fill="url(#a)" d="M0 0h3840v2160H0z"/><path fill="url(#b)" d="M0 0h3840v2160H0z" filter="url(#c)" opacity=".85"/><path fill="url(#d)" d="M0 0h3840v2160H0z" filter="url(#e)" opacity=".65"/><path fill="url(#f)" d="M0 0h3840v2160H0z" filter="url(#e)" opacity=".55"/><path fill="url(#g)" d="M0 0h3840v2160H0z" filter="url(#c)" opacity=".7"/><g opacity=".9"><circle cx="180" cy="80" r="1.5" fill="#e0b0ff"/><circle cx="350" cy="140" r="1" fill="#fff"/><circle cx="520" cy="60" r="2" fill="#e0b0ff"/><circle cx="700" cy="110" r="1" fill="#fff"/><circle cx="880" cy="50" r="1.5" fill="#70b8f0"/><circle cx="1050" cy="130" r="1" fill="#fff"/><circle cx="1220" cy="70" r="2" fill="#e0b0ff"/><circle cx="1400" cy="100" r="1" fill="#fff"/><circle cx="1580" cy="55" r="1.5" fill="#70b8f0"/><circle cx="1750" cy="120" r="1" fill="#fff"/><circle cx="1920" cy="65" r="2" fill="#e0b0ff"/><circle cx="2100" cy="90" r="1" fill="#fff"/><circle cx="2280" cy="75" r="1.5" fill="#70b8f0"/><circle cx="2450" cy="135" r="1" fill="#fff"/><circle cx="2620" cy="55" r="2" fill="#e0b0ff"/><circle cx="2800" cy="100" r="1" fill="#fff"/><circle cx="2980" cy="70" r="1.5" fill="#70b8f0"/><circle cx="3150" cy="120" r="1" fill="#fff"/><circle cx="3320" cy="60" r="2" fill="#e0b0ff"/><circle cx="3500" cy="95" r="1" fill="#fff"/><circle cx="3680" cy="75" r="1.5" fill="#70b8f0"/><circle cx="3820" cy="130" r="1" fill="#fff"/><circle cx="100" cy="200" r="1" fill="#fff"/><circle cx="280" cy="260" r="1.5" fill="#e0b0ff"/><circle cx="460" cy="190" r="1" fill="#fff"/><circle cx="640" cy="230" r="2" fill="#a878f0"/><circle cx="820" cy="175" r="1" fill="#fff"/><circle cx="1000" cy="250" r="1.5" fill="#e0b0ff"/><circle cx="1180" cy="195" r="1" fill="#fff"/><circle cx="1360" cy="220" r="2" fill="#70b8f0"/><circle cx="1540" cy="180" r="1" fill="#fff"/><circle cx="1720" cy="240" r="1.5" fill="#e0b0ff"/><circle cx="1900" cy="190" r="1" fill="#fff"/><circle cx="2080" cy="215" r="2" fill="#a878f0"/><circle cx="2260" cy="185" r="1" fill="#fff"/><circle cx="2440" cy="255" r="1.5" fill="#e0b0ff"/><circle cx="2620" cy="200" r="1" fill="#fff"/><circle cx="2800" cy="225" r="2" fill="#70b8f0"/><circle cx="2980" cy="185" r="1" fill="#fff"/><circle cx="3160" cy="245" r="1.5" fill="#e0b0ff"/><circle cx="3340" cy="200" r="1" fill="#fff"/><circle cx="3520" cy="220" r="2" fill="#a878f0"/><circle cx="3700" cy="185" r="1" fill="#fff"/><circle cx="200" cy="320" r="2" fill="#e0b0ff"/><circle cx="400" cy="350" r="1" fill="#fff"/><circle cx="600" cy="300" r="1.5" fill="#70b8f0"/><circle cx="800" cy="370" r="1" fill="#fff"/><circle cx="1000" cy="310" r="2" fill="#a878f0"/><circle cx="1200" cy="355" r="1" fill="#fff"/><circle cx="1400" cy="315" r="1.5" fill="#e0b0ff"/><circle cx="1600" cy="345" r="1" fill="#fff"/><circle cx="1800" cy="305" r="2" fill="#70b8f0"/><circle cx="2000" cy="360" r="1" fill="#fff"/><circle cx="2200" cy="320" r="1.5" fill="#a878f0"/><circle cx="2400" cy="355" r="1" fill="#fff"/><circle cx="2600" cy="310" r="2" fill="#e0b0ff"/><circle cx="2800" cy="365" r="1" fill="#fff"/><circle cx="3000" cy="315" r="1.5" fill="#70b8f0"/><circle cx="3200" cy="350" r="1" fill="#fff"/><circle cx="3400" cy="320" r="2" fill="#a878f0"/><circle cx="3600" cy="360" r="1" fill="#fff"/><circle cx="3800" cy="330" r="1.5" fill="#e0b0ff"/><circle cx="150" cy="420" r="1" fill="#fff"/><circle cx="450" cy="440" r="1.5" fill="#e0b0ff"/><circle cx="750" cy="410" r="1" fill="#fff"/><circle cx="1050" cy="450" r="2" fill="#a878f0"/><circle cx="1350" cy="415" r="1" fill="#fff"/><circle cx="1650" cy="445" r="1.5" fill="#70b8f0"/><circle cx="1950" cy="420" r="1" fill="#fff"/><circle cx="2250" cy="455" r="2" fill="#e0b0ff"/><circle cx="2550" cy="415" r="1" fill="#fff"/><circle cx="2850" cy="440" r="1.5" fill="#a878f0"/><circle cx="3150" cy="420" r="1" fill="#fff"/><circle cx="3450" cy="450" r="2" fill="#70b8f0"/><circle cx="3750" cy="425" r="1" fill="#fff"/><circle cx="300" cy="520" r="1.5" fill="#e0b0ff"/><circle cx="600" cy="510" r="1" fill="#fff"/><circle cx="900" cy="530" r="2" fill="#a878f0"/><circle cx="1200" cy="515" r="1" fill="#fff"/><circle cx="1500" cy="525" r="1.5" fill="#70b8f0"/><circle cx="1800" cy="510" r="1" fill="#fff"/><circle cx="2100" cy="535" r="2" fill="#e0b0ff"/><circle cx="2400" cy="515" r="1" fill="#fff"/><circle cx="2700" cy="525" r="1.5" fill="#a878f0"/><circle cx="3000" cy="510" r="1" fill="#fff"/><circle cx="3300" cy="530" r="2" fill="#70b8f0"/><circle cx="3600" cy="515" r="1" fill="#fff"/><circle cx="3840" cy="520" r="1.5" fill="#e0b0ff"/></g><g filter="url(#h)"><circle cx="640" cy="180" r="3" fill="#e0b0ff" opacity=".9"/><circle cx="1280" cy="240" r="2.5" fill="#a878f0" opacity=".85"/><circle cx="1920" cy="160" r="3" fill="#e0b0ff" opacity=".9"/><circle cx="2560" cy="220" r="2.5" fill="#70b8f0" opacity=".85"/><circle cx="3200" cy="185" r="3" fill="#e0b0ff" opacity=".9"/><circle cx="480" cy="320" r="2.5" fill="#a878f0" opacity=".85"/><circle cx="1120" cy="380" r="3" fill="#e0b0ff" opacity=".9"/><circle cx="1760" cy="340" r="2.5" fill="#70b8f0" opacity=".85"/><circle cx="2400" cy="360" r="3" fill="#a878f0" opacity=".9"/><circle cx="3040" cy="325" r="2.5" fill="#e0b0ff" opacity=".85"/><circle cx="3680" cy="360" r="3" fill="#70b8f0" opacity=".9"/></g><g filter="url(#i)" opacity=".55"><circle cx="500" cy="280" r="4" fill="#e0b0ff"/><circle cx="620" cy="220" r="3" fill="#a878f0"/><circle cx="750" cy="290" r="4" fill="#e0b0ff"/><circle cx="660" cy="360" r="3" fill="#a878f0"/><circle cx="590" cy="440" r="4" fill="#e0b0ff"/><circle cx="700" cy="420" r="3" fill="#a878f0"/><path stroke="#a878f0" d="m500 280 120-60m0 0 130 70m0 0-90 70m0 0-70 80m70-80 40 60" opacity=".4"/><circle cx="1400" cy="180" r="4" fill="#70b8f0"/><circle cx="1500" cy="240" r="3" fill="#e0b0ff"/><circle cx="1600" cy="190" r="4" fill="#70b8f0"/><circle cx="1550" cy="320" r="3" fill="#e0b0ff"/><circle cx="1450" cy="350" r="4" fill="#70b8f0"/><path stroke="#70b8f0" d="m1400 180 100 60m0 0 100-50m-100 50 50 80m0 0-100 30" opacity=".4"/><circle cx="2300" cy="200" r="4" fill="#a878f0"/><circle cx="2420" cy="150" r="3" fill="#e0b0ff"/><circle cx="2540" cy="210" r="4" fill="#a878f0"/><circle cx="2460" cy="290" r="3" fill="#e0b0ff"/><circle cx="2360" cy="310" r="4" fill="#a878f0"/><circle cx="2480" cy="380" r="3" fill="#e0b0ff"/><path stroke="#a878f0" d="m2300 200 120-50m0 0 120 60m0 0-80 80m0 0-100 20m100-20 20 90" opacity=".4"/><circle cx="3100" cy="160" r="4" fill="#70b8f0"/><circle cx="3220" cy="220" r="3" fill="#e0b0ff"/><circle cx="3340" cy="175" r="4" fill="#70b8f0"/><circle cx="3260" cy="295" r="3" fill="#e0b0ff"/><path stroke="#70b8f0" d="m3100 160 120 60m0 0 120-45m-120 45 40 75" opacity=".4"/></g><g filter="url(#j)"><path fill="#04020e" d="M0 1380h80v780H0z"/><path fill="#05031a" d="M90 1300h60v860H90z"/><path fill="#04020e" d="M160 1200h90v960h-90z"/><path fill="#05031a" d="M260 1350h70v810h-70z"/><path fill="#04020e" d="M340 1250h100v910H340z"/><path fill="#05031a" d="M450 1150h80v1010h-80z"/><path fill="#04020e" d="M540 1280h60v880h-60z"/><path fill="#05031a" d="M610 1180h110v980H610z"/><path fill="#04020e" d="M730 1100h75v1060h-75z"/><path fill="#05031a" d="M815 1220h90v940h-90z"/><path fill="#04020e" d="M915 1310h65v850h-65z"/><path fill="#05031a" d="M990 1150h120v1010H990z"/><path fill="#04020e" d="M1120 1080h85v1080h-85z"/><path fill="#05031a" d="M1215 1200h70v960h-70z"/><path fill="#04020e" d="M1295 1320h95v840h-95z"/><path fill="#05031a" d="M1400 1180h80v980h-80z"/><path fill="#04020e" d="M1490 1090h110v1070h-110z"/><path fill="#05031a" d="M1610 1250h75v910h-75z"/><path fill="#04020e" d="M1695 1350h85v810h-85z"/><path fill="#05031a" d="M1790 1140h100v1020h-100z"/><path fill="#04020e" d="M1900 1060h90v1100h-90z"/><path fill="#05031a" d="M2000 1180h80v980h-80z"/><path fill="#04020e" d="M2090 1300h70v860h-70z"/><path fill="#05031a" d="M2170 1120h115v1040h-115z"/><path fill="#04020e" d="M2295 1070h80v1090h-80z"/><path fill="#05031a" d="M2385 1200h95v960h-95z"/><path fill="#04020e" d="M2490 1340h65v820h-65z"/><path fill="#05031a" d="M2565 1150h105v1010h-105z"/><path fill="#04020e" d="M2680 1090h85v1070h-85z"/><path fill="#05031a" d="M2775 1230h75v930h-75z"/><path fill="#04020e" d="M2860 1310h90v850h-90z"/><path fill="#05031a" d="M2960 1130h110v1030h-110z"/><path fill="#04020e" d="M3080 1070h80v1090h-80z"/><path fill="#05031a" d="M3170 1190h95v970h-95z"/><path fill="#04020e" d="M3275 1280h70v880h-70z"/><path fill="#05031a" d="M3355 1110h120v1050h-120z"/><path fill="#04020e" d="M3485 1060h85v1100h-85z"/><path fill="#05031a" d="M3580 1200h75v960h-75z"/><path fill="#04020e" d="M3665 1300h95v860h-95z"/><path fill="#05031a" d="M3770 1140h70v1020h-70z"/></g><g filter="url(#h)" opacity=".8"><path fill="#a878f0" d="M175 1220h12v8h-12zm20 20h10v8h-10z"/><path fill="#70b8f0" d="M175 1260h12v8h-12z"/><path fill="#a878f0" d="M455 1170h12v8h-12z"/><path fill="#70b8f0" d="M472 1195h12v8h-12z"/><path fill="#a878f0" d="M455 1215h12v8h-12z"/><path fill="#70b8f0" d="M615 1200h14v9h-14z"/><path fill="#a878f0" d="M635 1225h12v8h-12z"/><path fill="#70b8f0" d="M615 1250h14v9h-14z"/><path fill="#a878f0" d="M735 1120h12v8h-12z"/><path fill="#70b8f0" d="M752 1145h10v8h-10z"/><path fill="#a878f0" d="M735 1170h12v8h-12z"/><path fill="#70b8f0" d="M995 1170h14v9h-14z"/><path fill="#a878f0" d="M1015 1195h12v8h-12zm110-95h14v9h-14z"/><path fill="#70b8f0" d="M1145 1125h12v8h-12z"/><path fill="#a878f0" d="M1405 1200h12v8h-12z"/><path fill="#70b8f0" d="M1422 1225h12v8h-12z"/><path fill="#a878f0" d="M1495 1110h14v9h-14z"/><path fill="#70b8f0" d="M1515 1135h12v8h-12zm280 25h14v9h-14z"/><path fill="#a878f0" d="M1815 1185h12v8h-12zm90-105h14v9h-14z"/><path fill="#70b8f0" d="M1925 1105h12v8h-12z"/><path fill="#a878f0" d="M2175 1140h12v8h-12z"/><path fill="#70b8f0" d="M2195 1165h12v8h-12z"/><path fill="#a878f0" d="M2300 1090h14v9h-14z"/><path fill="#70b8f0" d="M2320 1115h12v8h-12zm250 55h14v9h-14z"/><path fill="#a878f0" d="M2590 1195h12v8h-12zm95-85h14v9h-14z"/><path fill="#70b8f0" d="M2705 1135h12v8h-12zm260 15h14v9h-14z"/><path fill="#a878f0" d="M2985 1175h12v8h-12zm100-85h14v9h-14z"/><path fill="#70b8f0" d="M3105 1115h12v8h-12z"/><path fill="#a878f0" d="M3360 1130h14v9h-14z"/><path fill="#70b8f0" d="M3380 1155h12v8h-12z"/><path fill="#a878f0" d="M3490 1080h14v9h-14z"/><path fill="#70b8f0" d="M3510 1105h12v8h-12z"/></g><g stroke-linecap="round" filter="url(#i)" opacity=".4"><path stroke="#a878f0" stroke-width="1.5" d="m0 2160 1920-780M480 2160l1440-780m-960 780 960-780m-480 780 480-780m480 780-480-780m960 780-960-780m1440 780-1440-780m1920 620-1920-620M0 1800l1920-420"/><path stroke="#4828a8" d="M0 1550h3840M0 1650h3840M0 1780h3840M0 1920h3840M0 2060h3840" opacity=".5"/></g><path fill="url(#k)" d="M0 1400h3840v760H0z" filter="url(#e)" opacity=".6"/><path fill="url(#l)" d="M0 0h3840v2160H0z" filter="url(#c)" opacity=".5"/><path fill="url(#m)" d="M0 0h3840v2160H0z" filter="url(#c)" opacity=".45"/><g filter="url(#h)"><circle cx="420" cy="620" r="3" fill="#a878f0" opacity=".8"/><circle cx="680" cy="540" r="2" fill="#e0b0ff" opacity=".75"/><circle cx="960" cy="680" r="4" fill="#a878f0" opacity=".85"/><circle cx="1200" cy="560" r="2" fill="#e0b0ff" opacity=".72"/><circle cx="1440" cy="640" r="3" fill="#a878f0" opacity=".8"/><circle cx="1700" cy="580" r="2" fill="#a878f0" opacity=".75"/><circle cx="1960" cy="700" r="4" fill="#a878f0" opacity=".88"/><circle cx="2200" cy="590" r="2" fill="#e0b0ff" opacity=".72"/><circle cx="2440" cy="660" r="3" fill="#a878f0" opacity=".8"/><circle cx="2700" cy="570" r="2" fill="#a878f0" opacity=".75"/><circle cx="2960" cy="690" r="4" fill="#a878f0" opacity=".85"/><circle cx="3200" cy="600" r="2" fill="#e0b0ff" opacity=".72"/><circle cx="3460" cy="650" r="3" fill="#a878f0" opacity=".8"/><circle cx="300" cy="750" r="3" fill="#70b8f0" opacity=".72"/><circle cx="580" cy="820" r="2" fill="#e0b0ff" opacity=".65"/><circle cx="840" cy="780" r="4" fill="#a878f0" opacity=".78"/><circle cx="1100" cy="840" r="2" fill="#e0b0ff" opacity=".65"/><circle cx="1380" cy="760" r="3" fill="#70b8f0" opacity=".72"/><circle cx="1640" cy="830" r="2" fill="#e0b0ff" opacity=".65"/><circle cx="1920" cy="790" r="4" fill="#a878f0" opacity=".78"/><circle cx="2180" cy="850" r="2" fill="#e0b0ff" opacity=".65"/><circle cx="2460" cy="770" r="3" fill="#70b8f0" opacity=".72"/><circle cx="2720" cy="840" r="2" fill="#e0b0ff" opacity=".65"/><circle cx="2980" cy="780" r="4" fill="#a878f0" opacity=".78"/><circle cx="3240" cy="840" r="2" fill="#e0b0ff" opacity=".65"/><circle cx="3520" cy="760" r="3" fill="#70b8f0" opacity=".72"/><circle cx="3780" cy="820" r="2" fill="#e0b0ff" opacity=".65"/><circle cx="500" cy="1600" r="3" fill="#a878f0" opacity=".55"/><circle cx="1000" cy="1650" r="3" fill="#70b8f0" opacity=".5"/><circle cx="1500" cy="1620" r="3" fill="#a878f0" opacity=".55"/><circle cx="2000" cy="1660" r="3" fill="#70b8f0" opacity=".5"/><circle cx="2500" cy="1630" r="3" fill="#a878f0" opacity=".55"/><circle cx="3000" cy="1645" r="3" fill="#70b8f0" opacity=".5"/><circle cx="3500" cy="1615" r="3" fill="#a878f0" opacity=".55"/></g><ellipse cx="850" cy="160" fill="url(#n)" filter="url(#c)" opacity=".75" rx="800" ry="280"/><path fill="#030110" d="M0 0h3840v300H0z" filter="url(#e)" opacity=".65"/><path fill="#020108" d="M0 0h3840v150H0z" opacity=".8"/><path fill="#030110" d="M0 1800h3840v360H0z" filter="url(#i)" opacity=".7"/><path fill="#020108" d="M0 2000h3840v160H0z" opacity=".9"/><path fill="url(#o)" d="M0 0h3840v2160H0z"/><path fill="#4828a8" d="M0 0h3840v2160H0z" filter="url(#p)" opacity=".03"/></svg>