<?xml version="1.0" encoding="UTF-8"?>
<svg xmlns="http://www.w3.org/2000/svg" xmlns:xlink="http://www.w3.org/1999/xlink"
     viewBox="0 0 3840 2160" width="100%" height="100%"
     preserveAspectRatio="xMidYMid slice">
  <defs>
    <radialGradient id="nAtm1" cx="50%" cy="30%" r="60%" gradientUnits="userSpaceOnUse">
      <stop offset="0%" stop-color="#4828A8" stop-opacity="0.45"/>
      <stop offset="60%" stop-color="#380898" stop-opacity="0.2"/>
      <stop offset="100%" stop-color="#050312" stop-opacity="0"/>
    </radialGradient>
    <radialGradient id="nAtm2" cx="30%" cy="60%" r="50%" gradientUnits="userSpaceOnUse">
      <stop offset="0%" stop-color="#70B8F0" stop-opacity="0.3"/>
      <stop offset="100%" stop-color="#050312" stop-opacity="0"/>
    </radialGradient>
    <radialGradient id="nAtm3" cx="75%" cy="55%" r="45%" gradientUnits="userSpaceOnUse">
      <stop offset="0%" stop-color="#604898" stop-opacity="0.35"/>
      <stop offset="100%" stop-color="#030110" stop-opacity="0"/>
    </radialGradient>
    <radialGradient id="nGalaxy" cx="50%" cy="35%" r="55%" gradientUnits="userSpaceOnUse">
      <stop offset="0%" stop-color="#A878F0" stop-opacity="0.4"/>
      <stop offset="40%" stop-color="#4828A8" stop-opacity="0.2"/>
      <stop offset="100%" stop-color="#050312" stop-opacity="0"/>
    </radialGradient>
    <radialGradient id="nNeon1" cx="40%" cy="75%" r="30%" gradientUnits="userSpaceOnUse">
      <stop offset="0%" stop-color="#A878F0" stop-opacity="0.55"/>
      <stop offset="100%" stop-color="#050312" stop-opacity="0"/>
    </radialGradient>
    <radialGradient id="nNeon2" cx="65%" cy="72%" r="25%" gradientUnits="userSpaceOnUse">
      <stop offset="0%" stop-color="#70B8F0" stop-opacity="0.5"/>
      <stop offset="100%" stop-color="#050312" stop-opacity="0"/>
    </radialGradient>
    <radialGradient id="nVignette" cx="50%" cy="50%" r="72%" gradientUnits="userSpaceOnUse">
      <stop offset="30%" stop-color="#000000" stop-opacity="0"/>
      <stop offset="100%" stop-color="#000000" stop-opacity="0.9"/>
    </radialGradient>
    <radialGradient id="nSpecular" cx="22%" cy="6%" r="28%" gradientUnits="userSpaceOnUse">
      <stop offset="0%" stop-color="#E0B0FF" stop-opacity="0.4"/>
      <stop offset="55%" stop-color="#A878F0" stop-opacity="0.12"/>
      <stop offset="100%" stop-color="#050312" stop-opacity="0"/>
    </radialGradient>
    <linearGradient id="nSky" x1="0%" y1="0%" x2="0%" y2="100%">
      <stop offset="0%" stop-color="#030110"/>
      <stop offset="20%" stop-color="#050312"/>
      <stop offset="50%" stop-color="#08051C"/>
      <stop offset="80%" stop-color="#4828A8"/>
      <stop offset="100%" stop-color="#380898"/>
    </linearGradient>
    <linearGradient id="nGridH" x1="0%" y1="0%" x2="100%" y2="0%">
      <stop offset="0%" stop-color="#A878F0" stop-opacity="0"/>
      <stop offset="20%" stop-color="#A878F0" stop-opacity="0.35"/>
      <stop offset="80%" stop-color="#A878F0" stop-opacity="0.35"/>
      <stop offset="100%" stop-color="#A878F0" stop-opacity="0"/>
    </linearGradient>
    <linearGradient id="nReflection" x1="0%" y1="0%" x2="0%" y2="100%">
      <stop offset="0%" stop-color="#A878F0" stop-opacity="0.3"/>
      <stop offset="100%" stop-color="#4828A8" stop-opacity="0.05"/>
    </linearGradient>
    <filter id="glow" x="-60%" y="-60%" width="220%" height="220%">
      <feGaussianBlur in="SourceGraphic" stdDeviation="10" result="b1"/>
      <feGaussianBlur in="SourceGraphic" stdDeviation="28" result="b2"/>
      <feColorMatrix in="b1" type="matrix"
        values="0 0 0 0 0.66  0 0 0 0 0.47  0 0 0 0 0.94  0 0 0 2.2 0" result="c1"/>
      <feColorMatrix in="b2" type="matrix"
        values="0 0 0 0 0.66  0 0 0 0 0.47  0 0 0 0 0.94  0 0 0 0.9 0" result="c2"/>
      <feMerge><feMergeNode in="c2"/><feMergeNode in="c1"/><feMergeNode in="SourceGraphic"/></feMerge>
    </filter>
    <filter id="glowBlue" x="-60%" y="-60%" width="220%" height="220%">
      <feGaussianBlur in="SourceGraphic" stdDeviation="8" result="b1"/>
      <feColorMatrix in="b1" type="matrix"
        values="0 0 0 0 0.44  0 0 0 0 0.72  0 0 0 0 0.94  0 0 0 2.5 0" result="c1"/>
      <feMerge><feMergeNode in="c1"/><feMergeNode in="SourceGraphic"/></feMerge>
    </filter>
    <filter id="shadow" x="-25%" y="-25%" width="150%" height="150%">
      <feDropShadow dx="0" dy="6" stdDeviation="18" flood-color="#030110" flood-opacity="0.95"/>
    </filter>
    <filter id="noise" x="0%" y="0%" width="100%" height="100%">
      <feTurbulence type="fractalNoise" baseFrequency="0.65" numOctaves="4" stitchTiles="stitch" result="n"/>
      <feColorMatrix in="n" type="saturate" values="0" result="gn"/>
      <feBlend in="SourceGraphic" in2="gn" mode="overlay" result="bl"/>
      <feComposite in="bl" in2="SourceGraphic" operator="in"/>
    </filter>
    <filter id="blur" x="-15%" y="-15%" width="130%" height="130%">
      <feGaussianBlur stdDeviation="5"/>
    </filter>
    <filter id="blurHeavy" x="-30%" y="-30%" width="160%" height="160%">
      <feGaussianBlur stdDeviation="18"/>
    </filter>
    <filter id="blurMid" x="-20%" y="-20%" width="140%" height="140%">
      <feGaussianBlur stdDeviation="9"/>
    </filter>
    <filter id="blurStar">
      <feGaussianBlur stdDeviation="1.5"/>
    </filter>
  </defs>

  <!-- LAYER 1: Night sky base -->
  <rect width="3840" height="2160" fill="url(#nSky)"/>

  <!-- LAYER 2: Galaxy atmospheric glow -->
  <rect width="3840" height="2160" fill="url(#nAtm1)" filter="url(#blurHeavy)" opacity="0.85"/>
  <rect width="3840" height="2160" fill="url(#nAtm2)" filter="url(#blurMid)" opacity="0.65"/>
  <rect width="3840" height="2160" fill="url(#nAtm3)" filter="url(#blurMid)" opacity="0.55"/>
  <rect width="3840" height="2160" fill="url(#nGalaxy)" filter="url(#blurHeavy)" opacity="0.7"/>

  <!-- LAYER 3: Star field (many tiny stars) -->
  <g opacity="0.9">
    <circle cx="180" cy="80" r="1.5" fill="#E0B0FF"/>
    <circle cx="350" cy="140" r="1" fill="#FFFFFF"/>
    <circle cx="520" cy="60" r="2" fill="#E0B0FF"/>
    <circle cx="700" cy="110" r="1" fill="#FFFFFF"/>
    <circle cx="880" cy="50" r="1.5" fill="#70B8F0"/>
    <circle cx="1050" cy="130" r="1" fill="#FFFFFF"/>
    <circle cx="1220" cy="70" r="2" fill="#E0B0FF"/>
    <circle cx="1400" cy="100" r="1" fill="#FFFFFF"/>
    <circle cx="1580" cy="55" r="1.5" fill="#70B8F0"/>
    <circle cx="1750" cy="120" r="1" fill="#FFFFFF"/>
    <circle cx="1920" cy="65" r="2" fill="#E0B0FF"/>
    <circle cx="2100" cy="90" r="1" fill="#FFFFFF"/>
    <circle cx="2280" cy="75" r="1.5" fill="#70B8F0"/>
    <circle cx="2450" cy="135" r="1" fill="#FFFFFF"/>
    <circle cx="2620" cy="55" r="2" fill="#E0B0FF"/>
    <circle cx="2800" cy="100" r="1" fill="#FFFFFF"/>
    <circle cx="2980" cy="70" r="1.5" fill="#70B8F0"/>
    <circle cx="3150" cy="120" r="1" fill="#FFFFFF"/>
    <circle cx="3320" cy="60" r="2" fill="#E0B0FF"/>
    <circle cx="3500" cy="95" r="1" fill="#FFFFFF"/>
    <circle cx="3680" cy="75" r="1.5" fill="#70B8F0"/>
    <circle cx="3820" cy="130" r="1" fill="#FFFFFF"/>
    <circle cx="100" cy="200" r="1" fill="#FFFFFF"/>
    <circle cx="280" cy="260" r="1.5" fill="#E0B0FF"/>
    <circle cx="460" cy="190" r="1" fill="#FFFFFF"/>
    <circle cx="640" cy="230" r="2" fill="#A878F0"/>
    <circle cx="820" cy="175" r="1" fill="#FFFFFF"/>
    <circle cx="1000" cy="250" r="1.5" fill="#E0B0FF"/>
    <circle cx="1180" cy="195" r="1" fill="#FFFFFF"/>
    <circle cx="1360" cy="220" r="2" fill="#70B8F0"/>
    <circle cx="1540" cy="180" r="1" fill="#FFFFFF"/>
    <circle cx="1720" cy="240" r="1.5" fill="#E0B0FF"/>
    <circle cx="1900" cy="190" r="1" fill="#FFFFFF"/>
    <circle cx="2080" cy="215" r="2" fill="#A878F0"/>
    <circle cx="2260" cy="185" r="1" fill="#FFFFFF"/>
    <circle cx="2440" cy="255" r="1.5" fill="#E0B0FF"/>
    <circle cx="2620" cy="200" r="1" fill="#FFFFFF"/>
    <circle cx="2800" cy="225" r="2" fill="#70B8F0"/>
    <circle cx="2980" cy="185" r="1" fill="#FFFFFF"/>
    <circle cx="3160" cy="245" r="1.5" fill="#E0B0FF"/>
    <circle cx="3340" cy="200" r="1" fill="#FFFFFF"/>
    <circle cx="3520" cy="220" r="2" fill="#A878F0"/>
    <circle cx="3700" cy="185" r="1" fill="#FFFFFF"/>
    <circle cx="200" cy="320" r="2" fill="#E0B0FF"/>
    <circle cx="400" cy="350" r="1" fill="#FFFFFF"/>
    <circle cx="600" cy="300" r="1.5" fill="#70B8F0"/>
    <circle cx="800" cy="370" r="1" fill="#FFFFFF"/>
    <circle cx="1000" cy="310" r="2" fill="#A878F0"/>
    <circle cx="1200" cy="355" r="1" fill="#FFFFFF"/>
    <circle cx="1400" cy="315" r="1.5" fill="#E0B0FF"/>
    <circle cx="1600" cy="345" r="1" fill="#FFFFFF"/>
    <circle cx="1800" cy="305" r="2" fill="#70B8F0"/>
    <circle cx="2000" cy="360" r="1" fill="#FFFFFF"/>
    <circle cx="2200" cy="320" r="1.5" fill="#A878F0"/>
    <circle cx="2400" cy="355" r="1" fill="#FFFFFF"/>
    <circle cx="2600" cy="310" r="2" fill="#E0B0FF"/>
    <circle cx="2800" cy="365" r="1" fill="#FFFFFF"/>
    <circle cx="3000" cy="315" r="1.5" fill="#70B8F0"/>
    <circle cx="3200" cy="350" r="1" fill="#FFFFFF"/>
    <circle cx="3400" cy="320" r="2" fill="#A878F0"/>
    <circle cx="3600" cy="360" r="1" fill="#FFFFFF"/>
    <circle cx="3800" cy="330" r="1.5" fill="#E0B0FF"/>
    <circle cx="150" cy="420" r="1" fill="#FFFFFF"/>
    <circle cx="450" cy="440" r="1.5" fill="#E0B0FF"/>
    <circle cx="750" cy="410" r="1" fill="#FFFFFF"/>
    <circle cx="1050" cy="450" r="2" fill="#A878F0"/>
    <circle cx="1350" cy="415" r="1" fill="#FFFFFF"/>
    <circle cx="1650" cy="445" r="1.5" fill="#70B8F0"/>
    <circle cx="1950" cy="420" r="1" fill="#FFFFFF"/>
    <circle cx="2250" cy="455" r="2" fill="#E0B0FF"/>
    <circle cx="2550" cy="415" r="1" fill="#FFFFFF"/>
    <circle cx="2850" cy="440" r="1.5" fill="#A878F0"/>
    <circle cx="3150" cy="420" r="1" fill="#FFFFFF"/>
    <circle cx="3450" cy="450" r="2" fill="#70B8F0"/>
    <circle cx="3750" cy="425" r="1" fill="#FFFFFF"/>
    <circle cx="300" cy="520" r="1.5" fill="#E0B0FF"/>
    <circle cx="600" cy="510" r="1" fill="#FFFFFF"/>
    <circle cx="900" cy="530" r="2" fill="#A878F0"/>
    <circle cx="1200" cy="515" r="1" fill="#FFFFFF"/>
    <circle cx="1500" cy="525" r="1.5" fill="#70B8F0"/>
    <circle cx="1800" cy="510" r="1" fill="#FFFFFF"/>
    <circle cx="2100" cy="535" r="2" fill="#E0B0FF"/>
    <circle cx="2400" cy="515" r="1" fill="#FFFFFF"/>
    <circle cx="2700" cy="525" r="1.5" fill="#A878F0"/>
    <circle cx="3000" cy="510" r="1" fill="#FFFFFF"/>
    <circle cx="3300" cy="530" r="2" fill="#70B8F0"/>
    <circle cx="3600" cy="515" r="1" fill="#FFFFFF"/>
    <circle cx="3840" cy="520" r="1.5" fill="#E0B0FF"/>
  </g>

  <!-- Bright star points with glow -->
  <g filter="url(#glow)">
    <circle cx="640" cy="180" r="3" fill="#E0B0FF" opacity="0.9"/>
    <circle cx="1280" cy="240" r="2.5" fill="#A878F0" opacity="0.85"/>
    <circle cx="1920" cy="160" r="3" fill="#E0B0FF" opacity="0.9"/>
    <circle cx="2560" cy="220" r="2.5" fill="#70B8F0" opacity="0.85"/>
    <circle cx="3200" cy="185" r="3" fill="#E0B0FF" opacity="0.9"/>
    <circle cx="480" cy="320" r="2.5" fill="#A878F0" opacity="0.85"/>
    <circle cx="1120" cy="380" r="3" fill="#E0B0FF" opacity="0.9"/>
    <circle cx="1760" cy="340" r="2.5" fill="#70B8F0" opacity="0.85"/>
    <circle cx="2400" cy="360" r="3" fill="#A878F0" opacity="0.9"/>
    <circle cx="3040" cy="325" r="2.5" fill="#E0B0FF" opacity="0.85"/>
    <circle cx="3680" cy="360" r="3" fill="#70B8F0" opacity="0.9"/>
  </g>

  <!-- LAYER 4: Constellation network (dots connected with lines) -->
  <g opacity="0.55" filter="url(#blur)">
    <!-- Constellation 1 (Orion-like) -->
    <circle cx="500" cy="280" r="4" fill="#E0B0FF"/>
    <circle cx="620" cy="220" r="3" fill="#A878F0"/>
    <circle cx="750" cy="290" r="4" fill="#E0B0FF"/>
    <circle cx="660" cy="360" r="3" fill="#A878F0"/>
    <circle cx="590" cy="440" r="4" fill="#E0B0FF"/>
    <circle cx="700" cy="420" r="3" fill="#A878F0"/>
    <line x1="500" y1="280" x2="620" y2="220" stroke="#A878F0" stroke-width="1" opacity="0.4"/>
    <line x1="620" y1="220" x2="750" y2="290" stroke="#A878F0" stroke-width="1" opacity="0.4"/>
    <line x1="750" y1="290" x2="660" y2="360" stroke="#A878F0" stroke-width="1" opacity="0.4"/>
    <line x1="660" y1="360" x2="590" y2="440" stroke="#A878F0" stroke-width="1" opacity="0.4"/>
    <line x1="660" y1="360" x2="700" y2="420" stroke="#A878F0" stroke-width="1" opacity="0.4"/>
    <!-- Constellation 2 -->
    <circle cx="1400" cy="180" r="4" fill="#70B8F0"/>
    <circle cx="1500" cy="240" r="3" fill="#E0B0FF"/>
    <circle cx="1600" cy="190" r="4" fill="#70B8F0"/>
    <circle cx="1550" cy="320" r="3" fill="#E0B0FF"/>
    <circle cx="1450" cy="350" r="4" fill="#70B8F0"/>
    <line x1="1400" y1="180" x2="1500" y2="240" stroke="#70B8F0" stroke-width="1" opacity="0.4"/>
    <line x1="1500" y1="240" x2="1600" y2="190" stroke="#70B8F0" stroke-width="1" opacity="0.4"/>
    <line x1="1500" y1="240" x2="1550" y2="320" stroke="#70B8F0" stroke-width="1" opacity="0.4"/>
    <line x1="1550" y1="320" x2="1450" y2="350" stroke="#70B8F0" stroke-width="1" opacity="0.4"/>
    <!-- Constellation 3 -->
    <circle cx="2300" cy="200" r="4" fill="#A878F0"/>
    <circle cx="2420" cy="150" r="3" fill="#E0B0FF"/>
    <circle cx="2540" cy="210" r="4" fill="#A878F0"/>
    <circle cx="2460" cy="290" r="3" fill="#E0B0FF"/>
    <circle cx="2360" cy="310" r="4" fill="#A878F0"/>
    <circle cx="2480" cy="380" r="3" fill="#E0B0FF"/>
    <line x1="2300" y1="200" x2="2420" y2="150" stroke="#A878F0" stroke-width="1" opacity="0.4"/>
    <line x1="2420" y1="150" x2="2540" y2="210" stroke="#A878F0" stroke-width="1" opacity="0.4"/>
    <line x1="2540" y1="210" x2="2460" y2="290" stroke="#A878F0" stroke-width="1" opacity="0.4"/>
    <line x1="2460" y1="290" x2="2360" y2="310" stroke="#A878F0" stroke-width="1" opacity="0.4"/>
    <line x1="2460" y1="290" x2="2480" y2="380" stroke="#A878F0" stroke-width="1" opacity="0.4"/>
    <!-- Constellation 4 -->
    <circle cx="3100" cy="160" r="4" fill="#70B8F0"/>
    <circle cx="3220" cy="220" r="3" fill="#E0B0FF"/>
    <circle cx="3340" cy="175" r="4" fill="#70B8F0"/>
    <circle cx="3260" cy="295" r="3" fill="#E0B0FF"/>
    <line x1="3100" y1="160" x2="3220" y2="220" stroke="#70B8F0" stroke-width="1" opacity="0.4"/>
    <line x1="3220" y1="220" x2="3340" y2="175" stroke="#70B8F0" stroke-width="1" opacity="0.4"/>
    <line x1="3220" y1="220" x2="3260" y2="295" stroke="#70B8F0" stroke-width="1" opacity="0.4"/>
  </g>

  <!-- LAYER 5: City skyline silhouette -->
  <g filter="url(#shadow)">
    <!-- Building silhouettes -->
    <rect x="0" y="1380" width="80" height="780" fill="#04020E"/>
    <rect x="90" y="1300" width="60" height="860" fill="#05031A"/>
    <rect x="160" y="1200" width="90" height="960" fill="#04020E"/>
    <rect x="260" y="1350" width="70" height="810" fill="#05031A"/>
    <rect x="340" y="1250" width="100" height="910" fill="#04020E"/>
    <rect x="450" y="1150" width="80" height="1010" fill="#05031A"/>
    <rect x="540" y="1280" width="60" height="880" fill="#04020E"/>
    <rect x="610" y="1180" width="110" height="980" fill="#05031A"/>
    <rect x="730" y="1100" width="75" height="1060" fill="#04020E"/>
    <rect x="815" y="1220" width="90" height="940" fill="#05031A"/>
    <rect x="915" y="1310" width="65" height="850" fill="#04020E"/>
    <rect x="990" y="1150" width="120" height="1010" fill="#05031A"/>
    <rect x="1120" y="1080" width="85" height="1080" fill="#04020E"/>
    <rect x="1215" y="1200" width="70" height="960" fill="#05031A"/>
    <rect x="1295" y="1320" width="95" height="840" fill="#04020E"/>
    <rect x="1400" y="1180" width="80" height="980" fill="#05031A"/>
    <rect x="1490" y="1090" width="110" height="1070" fill="#04020E"/>
    <rect x="1610" y="1250" width="75" height="910" fill="#05031A"/>
    <rect x="1695" y="1350" width="85" height="810" fill="#04020E"/>
    <rect x="1790" y="1140" width="100" height="1020" fill="#05031A"/>
    <rect x="1900" y="1060" width="90" height="1100" fill="#04020E"/>
    <rect x="2000" y="1180" width="80" height="980" fill="#05031A"/>
    <rect x="2090" y="1300" width="70" height="860" fill="#04020E"/>
    <rect x="2170" y="1120" width="115" height="1040" fill="#05031A"/>
    <rect x="2295" y="1070" width="80" height="1090" fill="#04020E"/>
    <rect x="2385" y="1200" width="95" height="960" fill="#05031A"/>
    <rect x="2490" y="1340" width="65" height="820" fill="#04020E"/>
    <rect x="2565" y="1150" width="105" height="1010" fill="#05031A"/>
    <rect x="2680" y="1090" width="85" height="1070" fill="#04020E"/>
    <rect x="2775" y="1230" width="75" height="930" fill="#05031A"/>
    <rect x="2860" y="1310" width="90" height="850" fill="#04020E"/>
    <rect x="2960" y="1130" width="110" height="1030" fill="#05031A"/>
    <rect x="3080" y="1070" width="80" height="1090" fill="#04020E"/>
    <rect x="3170" y="1190" width="95" height="970" fill="#05031A"/>
    <rect x="3275" y="1280" width="70" height="880" fill="#04020E"/>
    <rect x="3355" y="1110" width="120" height="1050" fill="#05031A"/>
    <rect x="3485" y="1060" width="85" height="1100" fill="#04020E"/>
    <rect x="3580" y="1200" width="75" height="960" fill="#05031A"/>
    <rect x="3665" y="1300" width="95" height="860" fill="#04020E"/>
    <rect x="3770" y="1140" width="70" height="1020" fill="#05031A"/>
  </g>

  <!-- LAYER 6: Neon window lights on buildings -->
  <g filter="url(#glow)" opacity="0.8">
    <rect x="175" y="1220" width="12" height="8" fill="#A878F0"/>
    <rect x="195" y="1240" width="10" height="8" fill="#A878F0"/>
    <rect x="175" y="1260" width="12" height="8" fill="#70B8F0"/>
    <rect x="455" y="1170" width="12" height="8" fill="#A878F0"/>
    <rect x="472" y="1195" width="12" height="8" fill="#70B8F0"/>
    <rect x="455" y="1215" width="12" height="8" fill="#A878F0"/>
    <rect x="615" y="1200" width="14" height="9" fill="#70B8F0"/>
    <rect x="635" y="1225" width="12" height="8" fill="#A878F0"/>
    <rect x="615" y="1250" width="14" height="9" fill="#70B8F0"/>
    <rect x="735" y="1120" width="12" height="8" fill="#A878F0"/>
    <rect x="752" y="1145" width="10" height="8" fill="#70B8F0"/>
    <rect x="735" y="1170" width="12" height="8" fill="#A878F0"/>
    <rect x="995" y="1170" width="14" height="9" fill="#70B8F0"/>
    <rect x="1015" y="1195" width="12" height="8" fill="#A878F0"/>
    <rect x="1125" y="1100" width="14" height="9" fill="#A878F0"/>
    <rect x="1145" y="1125" width="12" height="8" fill="#70B8F0"/>
    <rect x="1405" y="1200" width="12" height="8" fill="#A878F0"/>
    <rect x="1422" y="1225" width="12" height="8" fill="#70B8F0"/>
    <rect x="1495" y="1110" width="14" height="9" fill="#A878F0"/>
    <rect x="1515" y="1135" width="12" height="8" fill="#70B8F0"/>
    <rect x="1795" y="1160" width="14" height="9" fill="#70B8F0"/>
    <rect x="1815" y="1185" width="12" height="8" fill="#A878F0"/>
    <rect x="1905" y="1080" width="14" height="9" fill="#A878F0"/>
    <rect x="1925" y="1105" width="12" height="8" fill="#70B8F0"/>
    <rect x="2175" y="1140" width="12" height="8" fill="#A878F0"/>
    <rect x="2195" y="1165" width="12" height="8" fill="#70B8F0"/>
    <rect x="2300" y="1090" width="14" height="9" fill="#A878F0"/>
    <rect x="2320" y="1115" width="12" height="8" fill="#70B8F0"/>
    <rect x="2570" y="1170" width="14" height="9" fill="#70B8F0"/>
    <rect x="2590" y="1195" width="12" height="8" fill="#A878F0"/>
    <rect x="2685" y="1110" width="14" height="9" fill="#A878F0"/>
    <rect x="2705" y="1135" width="12" height="8" fill="#70B8F0"/>
    <rect x="2965" y="1150" width="14" height="9" fill="#70B8F0"/>
    <rect x="2985" y="1175" width="12" height="8" fill="#A878F0"/>
    <rect x="3085" y="1090" width="14" height="9" fill="#A878F0"/>
    <rect x="3105" y="1115" width="12" height="8" fill="#70B8F0"/>
    <rect x="3360" y="1130" width="14" height="9" fill="#A878F0"/>
    <rect x="3380" y="1155" width="12" height="8" fill="#70B8F0"/>
    <rect x="3490" y="1080" width="14" height="9" fill="#A878F0"/>
    <rect x="3510" y="1105" width="12" height="8" fill="#70B8F0"/>
  </g>

  <!-- LAYER 7: City grid perspective (vanishing point at center-horizon) -->
  <g opacity="0.4" filter="url(#blur)" stroke-linecap="round">
    <!-- Horizontal perspective lines on ground (converging to center 1920,1380) -->
    <line x1="0" y1="2160" x2="1920" y2="1380" stroke="#A878F0" stroke-width="1.5"/>
    <line x1="480" y1="2160" x2="1920" y2="1380" stroke="#A878F0" stroke-width="1.5"/>
    <line x1="960" y1="2160" x2="1920" y2="1380" stroke="#A878F0" stroke-width="1.5"/>
    <line x1="1440" y1="2160" x2="1920" y2="1380" stroke="#A878F0" stroke-width="1.5"/>
    <line x1="2400" y1="2160" x2="1920" y2="1380" stroke="#A878F0" stroke-width="1.5"/>
    <line x1="2880" y1="2160" x2="1920" y2="1380" stroke="#A878F0" stroke-width="1.5"/>
    <line x1="3360" y1="2160" x2="1920" y2="1380" stroke="#A878F0" stroke-width="1.5"/>
    <line x1="3840" y1="2000" x2="1920" y2="1380" stroke="#A878F0" stroke-width="1.5"/>
    <line x1="0" y1="1800" x2="1920" y2="1380" stroke="#A878F0" stroke-width="1.5"/>
    <!-- Horizontal grid lines on ground -->
    <line x1="0" y1="1550" x2="3840" y2="1550" stroke="#4828A8" stroke-width="1" opacity="0.5"/>
    <line x1="0" y1="1650" x2="3840" y2="1650" stroke="#4828A8" stroke-width="1" opacity="0.5"/>
    <line x1="0" y1="1780" x2="3840" y2="1780" stroke="#4828A8" stroke-width="1" opacity="0.5"/>
    <line x1="0" y1="1920" x2="3840" y2="1920" stroke="#4828A8" stroke-width="1" opacity="0.5"/>
    <line x1="0" y1="2060" x2="3840" y2="2060" stroke="#4828A8" stroke-width="1" opacity="0.5"/>
  </g>

  <!-- LAYER 8: Wet ground reflection -->
  <rect x="0" y="1400" width="3840" height="760" fill="url(#nReflection)" filter="url(#blurMid)" opacity="0.6"/>
  <rect width="3840" height="2160" fill="url(#nNeon1)" filter="url(#blurHeavy)" opacity="0.5"/>
  <rect width="3840" height="2160" fill="url(#nNeon2)" filter="url(#blurHeavy)" opacity="0.45"/>

  <!-- LAYER 9: Purple particle field (50+) -->
  <g filter="url(#glow)">
    <circle cx="420" cy="620" r="3" fill="#A878F0" opacity="0.8"/>
    <circle cx="680" cy="540" r="2" fill="#E0B0FF" opacity="0.75"/>
    <circle cx="960" cy="680" r="4" fill="#A878F0" opacity="0.85"/>
    <circle cx="1200" cy="560" r="2" fill="#E0B0FF" opacity="0.72"/>
    <circle cx="1440" cy="640" r="3" fill="#A878F0" opacity="0.8"/>
    <circle cx="1700" cy="580" r="2" fill="#A878F0" opacity="0.75"/>
    <circle cx="1960" cy="700" r="4" fill="#A878F0" opacity="0.88"/>
    <circle cx="2200" cy="590" r="2" fill="#E0B0FF" opacity="0.72"/>
    <circle cx="2440" cy="660" r="3" fill="#A878F0" opacity="0.8"/>
    <circle cx="2700" cy="570" r="2" fill="#A878F0" opacity="0.75"/>
    <circle cx="2960" cy="690" r="4" fill="#A878F0" opacity="0.85"/>
    <circle cx="3200" cy="600" r="2" fill="#E0B0FF" opacity="0.72"/>
    <circle cx="3460" cy="650" r="3" fill="#A878F0" opacity="0.8"/>
    <circle cx="300" cy="750" r="3" fill="#70B8F0" opacity="0.72"/>
    <circle cx="580" cy="820" r="2" fill="#E0B0FF" opacity="0.65"/>
    <circle cx="840" cy="780" r="4" fill="#A878F0" opacity="0.78"/>
    <circle cx="1100" cy="840" r="2" fill="#E0B0FF" opacity="0.65"/>
    <circle cx="1380" cy="760" r="3" fill="#70B8F0" opacity="0.72"/>
    <circle cx="1640" cy="830" r="2" fill="#E0B0FF" opacity="0.65"/>
    <circle cx="1920" cy="790" r="4" fill="#A878F0" opacity="0.78"/>
    <circle cx="2180" cy="850" r="2" fill="#E0B0FF" opacity="0.65"/>
    <circle cx="2460" cy="770" r="3" fill="#70B8F0" opacity="0.72"/>
    <circle cx="2720" cy="840" r="2" fill="#E0B0FF" opacity="0.65"/>
    <circle cx="2980" cy="780" r="4" fill="#A878F0" opacity="0.78"/>
    <circle cx="3240" cy="840" r="2" fill="#E0B0FF" opacity="0.65"/>
    <circle cx="3520" cy="760" r="3" fill="#70B8F0" opacity="0.72"/>
    <circle cx="3780" cy="820" r="2" fill="#E0B0FF" opacity="0.65"/>
    <circle cx="500" cy="1600" r="3" fill="#A878F0" opacity="0.55"/>
    <circle cx="1000" cy="1650" r="3" fill="#70B8F0" opacity="0.5"/>
    <circle cx="1500" cy="1620" r="3" fill="#A878F0" opacity="0.55"/>
    <circle cx="2000" cy="1660" r="3" fill="#70B8F0" opacity="0.5"/>
    <circle cx="2500" cy="1630" r="3" fill="#A878F0" opacity="0.55"/>
    <circle cx="3000" cy="1645" r="3" fill="#70B8F0" opacity="0.5"/>
    <circle cx="3500" cy="1615" r="3" fill="#A878F0" opacity="0.55"/>
  </g>

  <!-- LAYER 10: Specular light top-left -->
  <ellipse cx="850" cy="160" rx="800" ry="280" fill="url(#nSpecular)" filter="url(#blurHeavy)" opacity="0.75"/>

  <!-- Top sky deepening -->
  <rect x="0" y="0" width="3840" height="300" fill="#030110" opacity="0.65" filter="url(#blurMid)"/>
  <rect x="0" y="0" width="3840" height="150" fill="#020108" opacity="0.8"/>

  <!-- Ground darkness -->
  <rect x="0" y="1800" width="3840" height="360" fill="#030110" opacity="0.7" filter="url(#blur)"/>
  <rect x="0" y="2000" width="3840" height="160" fill="#020108" opacity="0.9"/>

  <!-- LAYER 11: Foreground vignette -->
  <rect width="3840" height="2160" fill="url(#nVignette)"/>

  <!-- Noise texture -->
  <rect width="3840" height="2160" fill="#4828A8" opacity="0.03" filter="url(#noise)"/>
</svg>
