<svg xmlns="http://www.w3.org/2000/svg" width="80" height="80" opacity=".85" viewBox="0 0 80 80"><defs><radialGradient id="e" cx="50%" cy="10%" r="90%"><stop offset="0%" stop-color="#fff9c4" stop-opacity=".85"/><stop offset="40%" stop-color="#fff176" stop-opacity=".45"/><stop offset="100%" stop-color="#f9a825" stop-opacity="0"/></radialGradient><radialGradient id="c" cx="50%" cy="50%" r="50%"><stop offset="0%" stop-color="#fffde7"/><stop offset="100%" stop-color="#f9a825"/></radialGradient><filter id="b" width="140%" height="140%" x="-20%" y="-20%"><feDropShadow dx="1" dy="1" flood-color="#0d1b2a" flood-opacity=".7" stdDeviation="1.5"/></filter><filter id="d"><feDropShadow dx="0" dy="0" flood-color="#fff176" flood-opacity=".8" stdDeviation="3"/></filter><linearGradient id="a" x1="0%" x2="100%" y1="0%" y2="0%"><stop offset="0%" stop-color="#546e7a"/><stop offset="100%" stop-color="#263238"/></linearGradient></defs><path fill="none" stroke="url(#a)" stroke-linecap="round" stroke-width="4" d="M6 80c0-20 0-30 2-42 2-10 10-16 14-24" filter="url(#b)"/><rect width="8" height="6" x="2" y="74" fill="#37474f" filter="url(#b)" rx="2"/><path fill="none" stroke="url(#a)" stroke-linecap="round" stroke-width="3" d="M22 14c6-4 16-4 20-2" filter="url(#b)"/><path stroke="#37474f" stroke-width="1.5" d="M42 12v8"/><rect width="14" height="18" x="36" y="20" fill="#455a64" filter="url(#b)" rx="3"/><path fill="#37474f" d="m34 22 9-6 9 6Z" filter="url(#b)"/><rect width="10" height="12" x="38" y="23" fill="url(#c)" filter="url(#d)" rx="1.5"/><path stroke="#546e7a" stroke-width=".8" d="M43 23v12m-5-6h10"/><path fill="url(#e)" d="M38 38 22 72h42L52 38Z" opacity=".6"/><g filter="url(#d)" transform="translate(62 10)"><path fill="#fff176" stroke="#f9a825" stroke-width=".5" d="m0-9 2.1 6.1h6.5l-5.1 4 1.8 6.3L0 3.6l-5.3 3.8 1.8-6.3-5.1-4h6.5z"/></g><g fill="#cfd8dc" filter="url(#b)"><circle cx="70" cy="28" r="1.5"/><circle cx="58" cy="6" r="1.2"/><circle cx="76" cy="16" r="1"/><circle cx="50" cy="14" r=".9"/></g><circle cx="43" cy="29" r="12" fill="#fff176" opacity=".07"/></svg>