<svg xmlns="http://www.w3.org/2000/svg" height="20" opacity=".9" viewBox="0 0 400 20"><defs><filter id="b" width="120%" height="120%" x="-10%" y="-10%"><feDropShadow dx="0" dy="0" flood-color="#85f" flood-opacity=".7" stdDeviation="1.5"/></filter><filter id="c" width="200%" height="200%" x="-50%" y="-50%"><feDropShadow dx="0" dy="0" flood-color="#caf" flood-opacity=".9" stdDeviation="1"/></filter><linearGradient id="a" x1="0" x2="0" y1="0" y2="1"><stop offset="0%" stop-color="#0d0025"/><stop offset="100%" stop-color="#1a004a"/></linearGradient></defs><path fill="url(#a)" d="M0 0h400v20H0z"/><path fill="#1e0050" stroke="#40a" stroke-width=".4" d="M0 10h12v10H0z" filter="url(#b)"/><path fill="#1a0040" stroke="#30c" stroke-width=".4" d="M14 6h18v14H14z" filter="url(#b)"/><path fill="#ffa" d="M16 8h2v2h-2z" opacity=".7"/><path fill="#ffa" d="M20 8h2v2h-2z" opacity=".5"/><path fill="#ffa" d="M16 12h2v2h-2z" opacity=".6"/><path fill="#200055" stroke="#40a" stroke-width=".4" d="M34 13h10v7H34z" filter="url(#b)"/><path fill="#1c0048" stroke="#30c" stroke-width=".4" d="M46 8h14v12H46z" filter="url(#b)"/><path fill="#adf" d="M48 10h2v2h-2z" opacity=".65"/><path fill="#adf" d="M52 10h2v2h-2z" opacity=".5"/><path fill="#1e0050" stroke="#40a" stroke-width=".4" d="M62 11h8v9h-8z" filter="url(#b)"/><path fill="#1a0040" stroke="#30c" stroke-width=".4" d="M72 5h20v15H72z" filter="url(#b)"/><path fill="#ffa" d="M74 7h2v2h-2z" opacity=".7"/><path fill="#ffa" d="M78 7h2v2h-2z" opacity=".55"/><path fill="#ffa" d="M82 7h2v2h-2z" opacity=".6"/><path fill="#ffa" d="M74 11h2v2h-2z" opacity=".45"/><path fill="#200055" stroke="#40a" stroke-width=".4" d="M94 12h12v8H94z" filter="url(#b)"/><path fill="#1c0048" stroke="#30c" stroke-width=".4" d="M108 7h16v13h-16z" filter="url(#b)"/><path fill="#adf" d="M110 9h2v2h-2z" opacity=".6"/><path fill="#adf" d="M114 9h2v2h-2z" opacity=".5"/><path fill="#1e0050" stroke="#40a" stroke-width=".4" d="M126 10h10v10h-10z" filter="url(#b)"/><path fill="#1a0040" stroke="#30c" stroke-width=".4" d="M138 6h18v14h-18z" filter="url(#b)"/><path fill="#ffa" d="M140 8h2v2h-2z" opacity=".65"/><path fill="#ffa" d="M144 8h2v2h-2z" opacity=".5"/><path fill="#200055" stroke="#40a" stroke-width=".4" d="M158 13h10v7h-10z" filter="url(#b)"/><path fill="#1c0048" stroke="#30c" stroke-width=".4" d="M170 8h14v12h-14z" filter="url(#b)"/><path fill="#adf" d="M172 10h2v2h-2z" opacity=".6"/><path fill="#1e0050" stroke="#40a" stroke-width=".4" d="M186 11h8v9h-8z" filter="url(#b)"/><path fill="#1a0040" stroke="#30c" stroke-width=".4" d="M196 5h20v15h-20z" filter="url(#b)"/><path fill="#ffa" d="M198 7h2v2h-2z" opacity=".7"/><path fill="#ffa" d="M202 7h2v2h-2z" opacity=".5"/><path fill="#ffa" d="M206 7h2v2h-2z" opacity=".6"/><path fill="#200055" stroke="#40a" stroke-width=".4" d="M218 12h12v8h-12z" filter="url(#b)"/><path fill="#1c0048" stroke="#30c" stroke-width=".4" d="M232 7h16v13h-16z" filter="url(#b)"/><path fill="#adf" d="M234 9h2v2h-2z" opacity=".6"/><path fill="#adf" d="M238 9h2v2h-2z" opacity=".5"/><path fill="#1e0050" stroke="#40a" stroke-width=".4" d="M250 10h10v10h-10z" filter="url(#b)"/><path fill="#1a0040" stroke="#30c" stroke-width=".4" d="M262 6h18v14h-18z" filter="url(#b)"/><path fill="#ffa" d="M264 8h2v2h-2z" opacity=".65"/><path fill="#ffa" d="M268 8h2v2h-2z" opacity=".5"/><path fill="#200055" stroke="#40a" stroke-width=".4" d="M282 13h10v7h-10z" filter="url(#b)"/><path fill="#1c0048" stroke="#30c" stroke-width=".4" d="M294 8h14v12h-14z" filter="url(#b)"/><path fill="#adf" d="M296 10h2v2h-2z" opacity=".6"/><path fill="#1e0050" stroke="#40a" stroke-width=".4" d="M310 11h8v9h-8z" filter="url(#b)"/><path fill="#1a0040" stroke="#30c" stroke-width=".4" d="M320 5h20v15h-20z" filter="url(#b)"/><path fill="#ffa" d="M322 7h2v2h-2z" opacity=".7"/><path fill="#ffa" d="M326 7h2v2h-2z" opacity=".5"/><path fill="#ffa" d="M330 7h2v2h-2z" opacity=".6"/><path fill="#200055" stroke="#40a" stroke-width=".4" d="M342 12h12v8h-12z" filter="url(#b)"/><path fill="#1c0048" stroke="#30c" stroke-width=".4" d="M356 7h16v13h-16z" filter="url(#b)"/><path fill="#adf" d="M358 9h2v2h-2z" opacity=".6"/><path fill="#adf" d="M362 9h2v2h-2z" opacity=".5"/><path fill="#1e0050" stroke="#40a" stroke-width=".4" d="M374 10h10v10h-10z" filter="url(#b)"/><path fill="#1c0048" stroke="#30c" stroke-width=".4" d="M386 8h14v12h-14z" filter="url(#b)"/><circle cx="10" cy="3" r=".8" fill="#fff" filter="url(#c)"/><circle cx="42" cy="2" r=".6" fill="#dcf" filter="url(#c)"/><circle cx="68" cy="3" r=".9" fill="#fff" filter="url(#c)"/><circle cx="100" cy="2" r=".7" fill="#caf" filter="url(#c)"/><circle cx="130" cy="3" r=".8" fill="#fff" filter="url(#c)"/><circle cx="162" cy="2" r=".6" fill="#dcf" filter="url(#c)"/><circle cx="190" cy="3" r=".9" fill="#fff" filter="url(#c)"/><circle cx="224" cy="2" r=".7" fill="#caf" filter="url(#c)"/><circle cx="254" cy="3" r=".8" fill="#fff" filter="url(#c)"/><circle cx="288" cy="2" r=".6" fill="#dcf" filter="url(#c)"/><circle cx="316" cy="3" r=".9" fill="#fff" filter="url(#c)"/><circle cx="350" cy="2" r=".7" fill="#caf" filter="url(#c)"/><circle cx="380" cy="3" r=".8" fill="#fff" filter="url(#c)"/></svg>