<svg xmlns="http://www.w3.org/2000/svg" viewBox="0 0 80 56"><defs><radialGradient id="b" cx="50%" cy="50%" r="50%"><stop offset="0%" stop-color="#eee8ff"/><stop offset="100%" stop-color="#c8b8f0"/></radialGradient><linearGradient id="a" x1="0" x2="0" y1="0" y2="1"><stop offset="0%" stop-color="#120830"/><stop offset="100%" stop-color="#050312"/></linearGradient></defs><rect width="80" height="56" fill="url(#a)" rx="6"/><circle cx="22" cy="16" r="11" fill="#8848c8" opacity=".2"/><circle cx="22" cy="16" r="8" fill="url(#b)"/><circle cx="26" cy="13" r="6.5" fill="#120830"/><path fill="#a878f0" d="m51.7 5.5.66 1.98h2.09L52.8 8.69l.66 1.98-1.76-1.21-1.76 1.21.66-1.98-1.65-1.21h2.09z" opacity=".9"/><path fill="#c8a8ff" d="m63.5 10.5.35 1.05H65l-.9.65.35 1.05-.95-.65-.95.65.35-1.05-.9-.65h1.15z" opacity=".8"/><path fill="#a878f0" d="m72 2.7.27.81h.9l-.72.54.27.81-.72-.54-.72.54.27-.81-.72-.54h.9z" opacity=".7"/><circle cx="58" cy="8" r="1" fill="#e8d8ff" opacity=".8"/><circle cx="70" cy="18" r=".8" fill="#c8b0ff" opacity=".7"/><circle cx="44" cy="6" r=".7" fill="#a878f0" opacity=".6"/><circle cx="38" cy="12" r=".6" fill="#c8a8ff" opacity=".5"/><path fill="#0a0520" d="M0 44v-6h5v-4h3v-4h3v-2h3v4h2v-6h3v4h3v4h2v2h3v-8h3v-4h3v4h3v4h3v-2h3v-4h3v-4h3v4h3v4h3v-2h3v4h3v4h3v-6h3v4h3v4h3v-2h3v2h5v6Z" opacity=".95"/><path fill="#a878f0" d="M17 28h1.5v1H17z" opacity=".7"/><path fill="#8860d8" d="M31 26h1.5v1H31z" opacity=".6"/><path fill="#a878f0" d="M46 24h1.5v1H46z" opacity=".8"/><path fill="#c8a8ff" d="M43 28h1.5v1H43z" opacity=".5"/><path fill="#a878f0" d="M55 30h1.5v1H55z" opacity=".6"/><path fill="#8860d8" d="M64 32h1.5v1H64z" opacity=".7"/><text x="40" y="52" fill="#a878f0" dominant-baseline="middle" font-family="Arial, sans-serif" font-size="8" font-weight="bold" text-anchor="middle">NUIT</text><rect width="80" height="20" fill="#fff" opacity=".06" rx="6"/><rect width="80" height="8" fill="#fff" opacity=".07" rx="6"/></svg>