<svg xmlns="http://www.w3.org/2000/svg" preserveAspectRatio="xMidYMid slice" viewBox="0 0 3840 2160"><defs><filter id="o" width="220%" height="220%" x="-60%" y="-60%"><feGaussianBlur in="SourceGraphic" result="b1" stdDeviation="10"/><feGaussianBlur in="SourceGraphic" result="b2" stdDeviation="25"/><feColorMatrix in="b1" result="c1" values="0 0 0 0 0.91 0 0 0 0 0.72 0 0 0 0 0.22 0 0 0 2 0"/><feColorMatrix in="b2" result="c2" values="0 0 0 0 0.91 0 0 0 0 0.72 0 0 0 0 0.22 0 0 0 0.9 0"/><feMerge><feMergeNode in="c2"/><feMergeNode in="c1"/><feMergeNode in="SourceGraphic"/></feMerge></filter><filter id="p" width="220%" height="220%" x="-60%" y="-60%"><feGaussianBlur in="SourceGraphic" result="b1" stdDeviation="8"/><feColorMatrix in="b1" result="c1" values="0 0 0 0 0.88 0 0 0 0 0.47 0 0 0 0 0.13 0 0 0 2.5 0"/><feMerge><feMergeNode in="c1"/><feMergeNode in="SourceGraphic"/></feMerge></filter><filter id="s" width="100%" height="100%" x="0%" y="0%"><feTurbulence baseFrequency=".65" numOctaves="4" result="n" stitchTiles="stitch" type="fractalNoise"/><feColorMatrix in="n" result="gn" type="saturate" values="0"/><feBlend in="SourceGraphic" in2="gn" mode="overlay" result="bl"/><feComposite in="bl" in2="SourceGraphic" operator="in"/></filter><filter id="j" width="130%" height="130%" x="-15%" y="-15%"><feGaussianBlur stdDeviation="5"/></filter><filter id="c" width="160%" height="160%" x="-30%" y="-30%"><feGaussianBlur stdDeviation="18"/></filter><filter id="e" width="140%" height="140%" x="-20%" y="-20%"><feGaussianBlur stdDeviation="9"/></filter><filter id="i"><feTurbulence baseFrequency="0.008 0.004" numOctaves="3" result="t" seed="12"/><feDisplacementMap in="SourceGraphic" in2="t" scale="28" xChannelSelector="R" yChannelSelector="G"/></filter><filter id="n"><feTurbulence baseFrequency="0.9 0.4" numOctaves="5" result="n" seed="3" type="fractalNoise"/><feColorMatrix in="n" result="colored" values="0.3 0 0 0 0.5 0 0.25 0 0 0.3 0 0 0.1 0 0.1 0 0 0 0.4 0"/><feBlend in="SourceGraphic" in2="colored" mode="overlay"/></filter><radialGradient id="b" cx="75%" cy="18%" r="55%" gradientUnits="userSpaceOnUse"><stop offset="0%" stop-color="#e8b838" stop-opacity=".6"/><stop offset="50%" stop-color="#a07830" stop-opacity=".25"/><stop offset="100%" stop-color="#301c06" stop-opacity="0"/></radialGradient><radialGradient id="d" cx="50%" cy="50%" r="65%" gradientUnits="userSpaceOnUse"><stop offset="0%" stop-color="#885018" stop-opacity=".35"/><stop offset="100%" stop-color="#281602" stop-opacity="0"/></radialGradient><radialGradient id="f" cx="30%" cy="70%" r="50%" gradientUnits="userSpaceOnUse"><stop offset="0%" stop-color="#422808" stop-opacity=".4"/><stop offset="100%" stop-color="#281602" stop-opacity="0"/></radialGradient><radialGradient id="g" cx="78%" cy="15%" r="28%" gradientUnits="userSpaceOnUse"><stop offset="0%" stop-color="#ffe080" stop-opacity=".9"/><stop offset="30%" stop-color="#e8b838" stop-opacity=".5"/><stop offset="70%" stop-color="#e07820" stop-opacity=".15"/><stop offset="100%" stop-color="#301c06" stop-opacity="0"/></radialGradient><radialGradient id="r" cx="50%" cy="50%" r="72%" gradientUnits="userSpaceOnUse"><stop offset="35%" stop-opacity="0"/><stop offset="100%" stop-opacity=".88"/></radialGradient><radialGradient id="q" cx="78%" cy="8%" r="32%" gradientUnits="userSpaceOnUse"><stop offset="0%" stop-color="#ffe080" stop-opacity=".6"/><stop offset="50%" stop-color="#e8b838" stop-opacity=".2"/><stop offset="100%" stop-color="#301c06" stop-opacity="0"/></radialGradient><linearGradient id="a" x1="0%" x2="0%" y1="0%" y2="100%"><stop offset="0%" stop-color="#281602"/><stop offset="20%" stop-color="#301c06"/><stop offset="55%" stop-color="#422808"/><stop offset="80%" stop-color="#a07830"/><stop offset="100%" stop-color="#885018"/></linearGradient><linearGradient id="h" x1="0%" x2="0%" y1="0%" y2="100%"><stop offset="0%" stop-color="#e8b838" stop-opacity=".15"/><stop offset="100%" stop-color="#e8b838" stop-opacity="0"/></linearGradient><linearGradient id="k" x1="0%" x2="0%" y1="0%" y2="100%"><stop offset="0%" stop-color="#a07848"/><stop offset="100%" stop-color="#422808"/></linearGradient><linearGradient id="l" x1="0%" x2="0%" y1="0%" y2="100%"><stop offset="0%" stop-color="#885018"/><stop offset="100%" stop-color="#301c06"/></linearGradient><linearGradient id="m" x1="0%" x2="0%" y1="0%" y2="100%"><stop offset="0%" stop-color="#a07848"/><stop offset="50%" stop-color="#885018"/><stop offset="100%" stop-color="#422808"/></linearGradient></defs><path fill="url(#a)" d="M0 0h3840v2160H0z"/><path fill="url(#b)" d="M0 0h3840v2160H0z" filter="url(#c)" opacity=".85"/><path fill="url(#d)" d="M0 0h3840v2160H0z" filter="url(#e)" opacity=".7"/><path fill="url(#f)" d="M0 0h3840v2160H0z" filter="url(#e)" opacity=".55"/><ellipse cx="3000" cy="320" fill="url(#g)" filter="url(#c)" opacity=".9" rx="700" ry="420"/><ellipse cx="3000" cy="320" fill="#ffe080" filter="url(#e)" opacity=".35" rx="280" ry="200"/><g fill="#e8b838" filter="url(#c)" opacity=".28"><path d="M2960 0h80l-840 2160h-300zm140 0h60l-560 2160h-250zm-280 0h80L1800 2160h-350zm400 0h60l-330 2160h-200z"/><path d="M2680 0h80L1500 2160h-400zm660 0h60l-200 2160h-150z"/><path d="M2550 0h80L1200 2160H800zm910 0h80l-90 2160h-100z"/></g><path fill="url(#h)" d="M0 900h3840v120H0z" filter="url(#i)" opacity=".6"/><path fill="#e8b838" d="M0 870h3840v80H0z" filter="url(#c)" opacity=".06"/><g stroke-linecap="round" filter="url(#j)" opacity=".55"><path stroke="#a07830" stroke-width="3" d="M0 2160 2800 980"/><path stroke="#885018" stroke-width="2.5" d="M400 2160 2800 980"/><path stroke="#a07830" stroke-width="2" d="M900 2160 2800 980"/><path stroke="#885018" stroke-width="2" d="M1400 2160 2800 980"/><path stroke="#a07830" stroke-width="2.5" d="m1900 2160 900-1180"/><path stroke="#885018" stroke-width="3" d="m2400 2160 400-1180"/><path stroke="#a07830" stroke-width="3" d="M3000 2160 2800 980"/><path stroke="#885018" stroke-width="2.5" d="M3500 2160 2800 980"/><path stroke="#a07830" stroke-width="3" d="M3840 2000 2800 980"/><path stroke="#885018" stroke-width="2" d="M3840 1500 2800 980"/><path stroke="#a07830" stroke-width="2" d="M3840 1200 2800 980"/><path stroke="#885018" stroke-width="2.5" d="m0 1800 2800-820"/><path stroke="#a07830" stroke-width="2" d="m0 1400 2800-420"/><path stroke="#885018" stroke-width="2" d="m0 1100 2800-120"/></g><g filter="url(#c)" opacity=".65"><path fill="#422808" d="M0 1100q480-280 960-50t960-70 960-30 960 70v280H0Z"/><path fill="#301c06" d="M0 1180q600-220 1200-60t1200-60 1440 20v270H0Z"/></g><g filter="url(#e)" opacity=".8"><path fill="url(#k)" d="M0 1280q500-230 1000-60t1000-40 1000 20q420 180 840 50v300H0Z"/><path fill="url(#l)" d="M0 1400q600-200 1200-40t1200-60 1440 80v270H0Z"/></g><path fill="url(#m)" d="M0 1550q400-230 800-70t800-30 800 50 800 50q320-150 640-20v320H0Z" filter="url(#n)"/><path fill="#422808" d="M0 1720q500-200 1000-40t1000-20 1000 40q400 160 840 50v410H0Z"/><g stroke="#a07848" filter="url(#j)" opacity=".2"><path stroke-width="2" d="m200 1550 600-10"/><path d="m200 1570 600-10"/><path stroke-width="2" d="m200 1590 600-10"/><path d="m200 1610 600-10"/><path stroke-width="1.5" d="M350 1540v30m200-10v30m200-50v30m-300 10v30m200-30v30"/><path stroke-width="2" d="m1200 1480 600-15"/><path d="m1200 1500 600-15"/><path stroke-width="2" d="m1200 1520 600-15"/><path stroke-width="1.5" d="M1350 1465v35m200-20v40m200-55v35"/><path stroke-width="2" d="m2500 1530 600-20"/><path d="m2500 1550 600-20"/><path stroke-width="2" d="m2500 1570 600-20"/><path stroke-width="1.5" d="M2650 1510v40m200-20v40m200-60v40"/></g><path fill="#e07820" d="M0 920h3840v180H0z" filter="url(#i)" opacity=".04"/><g filter="url(#o)"><circle cx="380" cy="1040" r="4" fill="#e8b838" opacity=".8"/><circle cx="620" cy="920" r="3" fill="#ffe080" opacity=".75"/><circle cx="900" cy="1120" r="5" fill="#e8b838" opacity=".85"/><circle cx="1150" cy="840" r="3" fill="#ffe080" opacity=".72"/><circle cx="1380" cy="1060" r="4" fill="#e8b838" opacity=".82"/><circle cx="1650" cy="780" r="3" fill="#e8b838" opacity=".78"/><circle cx="1900" cy="1200" r="5" fill="#e8b838" opacity=".88"/><circle cx="2150" cy="910" r="3" fill="#ffe080" opacity=".72"/><circle cx="2400" cy="1100" r="4" fill="#e8b838" opacity=".82"/><circle cx="2680" cy="860" r="3" fill="#e8b838" opacity=".78"/><circle cx="2950" cy="1150" r="5" fill="#e8b838" opacity=".88"/><circle cx="3200" cy="970" r="3" fill="#ffe080" opacity=".72"/><circle cx="3450" cy="1080" r="4" fill="#e8b838" opacity=".82"/><circle cx="290" cy="1350" r="3" fill="#e07820" opacity=".65"/><circle cx="560" cy="1500" r="4" fill="#e8b838" opacity=".72"/><circle cx="840" cy="1420" r="3" fill="#ffe080" opacity=".65"/><circle cx="1120" cy="1520" r="4" fill="#e8b838" opacity=".75"/><circle cx="1460" cy="1380" r="3" fill="#e07820" opacity=".68"/><circle cx="1740" cy="1580" r="4" fill="#e8b838" opacity=".72"/><circle cx="2020" cy="1460" r="3" fill="#ffe080" opacity=".65"/><circle cx="2310" cy="1560" r="4" fill="#e8b838" opacity=".75"/><circle cx="2600" cy="1400" r="3" fill="#e07820" opacity=".68"/><circle cx="2860" cy="1520" r="4" fill="#e8b838" opacity=".72"/><circle cx="3130" cy="1450" r="3" fill="#ffe080" opacity=".65"/><circle cx="3400" cy="1540" r="4" fill="#e8b838" opacity=".75"/><circle cx="460" cy="660" r="3" fill="#ffe080" opacity=".58"/><circle cx="760" cy="600" r="2" fill="#e8b838" opacity=".52"/><circle cx="1080" cy="640" r="3" fill="#ffe080" opacity=".55"/><circle cx="1480" cy="620" r="2" fill="#e8b838" opacity=".52"/><circle cx="1880" cy="635" r="3" fill="#ffe080" opacity=".55"/><circle cx="2280" cy="615" r="2" fill="#e8b838" opacity=".52"/><circle cx="2680" cy="630" r="3" fill="#ffe080" opacity=".55"/><circle cx="3080" cy="625" r="2" fill="#e8b838" opacity=".52"/><circle cx="3480" cy="645" r="3" fill="#ffe080" opacity=".55"/></g><g filter="url(#p)"><circle cx="500" cy="1000" r="3" fill="#e07820" opacity=".78"/><circle cx="950" cy="880" r="4" fill="#f09838" opacity=".82"/><circle cx="1500" cy="980" r="3" fill="#e07820" opacity=".75"/><circle cx="2000" cy="860" r="4" fill="#f09838" opacity=".82"/><circle cx="2600" cy="950" r="3" fill="#e07820" opacity=".78"/><circle cx="3100" cy="900" r="4" fill="#f09838" opacity=".82"/><circle cx="700" cy="1250" r="3" fill="#e07820" opacity=".65"/><circle cx="1300" cy="1300" r="3" fill="#f09838" opacity=".68"/><circle cx="1900" cy="1260" r="3" fill="#e07820" opacity=".65"/><circle cx="2500" cy="1280" r="3" fill="#f09838" opacity=".68"/><circle cx="3200" cy="1240" r="3" fill="#e07820" opacity=".65"/></g><ellipse cx="3000" cy="180" fill="url(#q)" filter="url(#c)" opacity=".85" rx="850" ry="300"/><path fill="#281602" d="M0 0h3840v350H0z" filter="url(#e)" opacity=".6"/><path fill="#1a0e02" d="M0 0h3840v180H0z" opacity=".8"/><path fill="url(#r)" d="M0 0h3840v2160H0z"/><path fill="#a07830" d="M0 0h3840v2160H0z" filter="url(#s)" opacity=".03"/></svg>