<svg xmlns="http://www.w3.org/2000/svg" width="80" height="80" opacity=".85" viewBox="0 0 80 80"><defs><linearGradient id="a" x1="0%" x2="100%" y1="0%" y2="100%"><stop offset="0%" stop-color="#ffd54f"/><stop offset="100%" stop-color="#bf8c00"/></linearGradient><linearGradient id="c" x1="0%" x2="0%" y1="0%" y2="100%"><stop offset="0%" stop-color="#ffca28"/><stop offset="100%" stop-color="#e65100"/></linearGradient><filter id="b" width="140%" height="140%" x="-20%" y="-20%"><feDropShadow dx="1" dy="1" flood-color="#8d4000" flood-opacity=".55" stdDeviation="1.5"/></filter></defs><g fill="none" stroke="url(#a)" stroke-linecap="round" stroke-linejoin="round" filter="url(#b)"><path stroke-width="2" d="m0 0 8 12 8-12"/><path stroke-width="1.8" d="m0 6 10 16L20 6"/><path stroke-width="1.6" d="m0 14 12 18 12-18"/><path stroke-width="1.4" d="m0 22 14 20 14-20"/><path stroke-width="2" d="m0 0 12 8-12 8"/><path stroke-width="1.8" d="m6 0 12 10L6 20"/><path stroke-width="1.6" d="m14 0 12 10-12 12"/><path stroke-width="1.4" d="m22 0 12 10-12 12"/><path stroke-width="1.8" d="M28 18 38 8l10 10-10 10Z"/><path stroke-width="1.2" d="m32 18 6-6 6 6-6 6Z"/><path stroke-width=".8" d="M38 8v20"/><path stroke-width=".8" d="M28 18h20"/><path stroke-width="1.4" d="m8 40 10 12 10-12"/><path stroke-width="1.2" d="m16 48 10 12 10-12"/></g><path fill="url(#c)" d="M0 72q20-14 40-7 18 7 40-3v18H0Z" filter="url(#b)" opacity=".9"/><path fill="none" stroke="#ffe082" stroke-linecap="round" stroke-width="1.2" d="M0 72q20-14 40-7 18 7 40-3"/><g fill="#ffca28" filter="url(#b)"><circle cx="54" cy="28" r="2"/><circle cx="62" cy="22" r="1.5"/><circle cx="70" cy="32" r="1.5"/><circle cx="58" cy="40" r="1"/></g></svg>