<svg xmlns="http://www.w3.org/2000/svg" height="20" opacity=".9" viewBox="0 0 400 20"><defs><linearGradient id="b" x1="0" x2="0" y1="0" y2="1"><stop offset="0%" stop-color="#e8c97a"/><stop offset="100%" stop-color="#c8922a"/></linearGradient><filter id="a" width="140%" height="140%" x="-20%" y="-20%"><feDropShadow dx="0" dy="0" flood-color="#f0a020" flood-opacity=".6" stdDeviation="1.5"/></filter><path id="c" fill="#d4a855" stroke="#8b5c00" stroke-width=".4" d="m0-3 3 3-3 3-3-3z" filter="url(#a)"/></defs><path fill="url(#b)" d="M0 14c10-4 20 0 30-2s20 2 30 0 20 2 30 0 20 2 30 0 20 2 30 0 20 2 30 0 20 2 30 0 20 2 30 0 20 2 30 0 20 2 30 0 20 2 30 0 20 2 30 0 20 2 30 0c5-1 10 0 10 0v8H0Z" opacity=".85"/><path fill="#f5d98a" d="M0 16c10-3 20 0 30-2 10-1 20 2 30 0 10-1 20 2 30 0 10-1 20 2 30 0 10-1 20 2 30 0 10-1 20 2 30 0 10-1 20 2 30 0 10-1 20 2 30 0 10-1 20 2 30 0 10-1 20 2 30 0 10-1 20 2 30 0 10-1 20 2 30 0 10-1 20 2 40 0v6H0Z" opacity=".45"/><use href="#c" transform="translate(20 10)"/><use href="#c" transform="translate(60 9)"/><use href="#c" transform="translate(100 10)"/><use href="#c" transform="translate(140 9)"/><use href="#c" transform="translate(180 10)"/><use href="#c" transform="translate(220 9)"/><use href="#c" transform="translate(260 10)"/><use href="#c" transform="translate(300 9)"/><use href="#c" transform="translate(340 10)"/><use href="#c" transform="translate(380 9)"/></svg>