<svg xmlns="http://www.w3.org/2000/svg" viewBox="0 0 80 56"><defs><linearGradient id="a" x1="0" x2="0" y1="0" y2="1"><stop offset="0%" stop-color="#5a3010"/><stop offset="100%" stop-color="#301c06"/></linearGradient><linearGradient id="e" x1="0" x2="0" y1="0" y2="1"><stop offset="0%" stop-color="#b06828"/><stop offset="100%" stop-color="#7a4010"/></linearGradient><linearGradient id="d" x1="0" x2="0" y1="0" y2="1"><stop offset="0%" stop-color="#d07830"/><stop offset="100%" stop-color="#904820"/></linearGradient><radialGradient id="b" cx="50%" cy="50%" r="50%"><stop offset="0%" stop-color="#ffd060"/><stop offset="40%" stop-color="#f08820"/><stop offset="100%" stop-color="#c05000" stop-opacity=".8"/></radialGradient></defs><rect width="80" height="56" fill="url(#a)" rx="6"/><ellipse cx="40" cy="30" fill="#f60" opacity=".15" rx="26" ry="16"/><clipPath id="c"><path d="M14 0h52v30H14z"/></clipPath><circle cx="40" cy="30" r="14" fill="url(#b)" clip-path="url(#c)"/><path stroke="#ffb830" stroke-width="1.2" d="M40 12V7m12 8 4-4m-28 4-4-4m33 15 6-2m-40 2-6-2" opacity=".6"/><path stroke="#c07030" stroke-width=".5" d="M0 30h80" opacity=".4"/><path fill="url(#d)" d="M-5 44q20-16 40-8 15 6 45-2v22H-5Z"/><path fill="url(#e)" d="M-5 56q15-18 35-12t50-4v16Z"/><path fill="none" stroke="#e8a050" stroke-width=".8" d="M10 42q10-6 22-2" opacity=".6"/><text x="40" y="52" fill="#e8b838" dominant-baseline="middle" font-family="Arial, sans-serif" font-size="8" font-weight="bold" text-anchor="middle">DESERT</text><rect width="80" height="20" fill="#fff" opacity=".07" rx="6"/><rect width="80" height="8" fill="#fff" opacity=".08" rx="6"/></svg>