<svg xmlns="http://www.w3.org/2000/svg" width="120" height="100" viewBox="0 0 120 100"><defs><linearGradient id="b" x1="0%" x2="100%" y1="0%" y2="100%"><stop offset="0%" stop-color="#c8f0f8"/><stop offset="60%" stop-color="#88c8e4"/><stop offset="100%" stop-color="#5098c8"/></linearGradient><linearGradient id="c" x1="0%" x2="100%" y1="0%" y2="0%"><stop offset="0%" stop-color="#185878"/><stop offset="100%" stop-color="#2870a0"/></linearGradient><linearGradient id="d" x1="0%" x2="100%" y1="0%" y2="0%"><stop offset="0%" stop-color="#5098c8"/><stop offset="100%" stop-color="#3878a8"/></linearGradient><radialGradient id="e" cx="40%" cy="35%" r="45%"><stop offset="0%" stop-color="#fff" stop-opacity=".5"/><stop offset="70%" stop-color="#fff" stop-opacity=".05"/><stop offset="100%" stop-color="#fff" stop-opacity="0"/></radialGradient><clipPath id="f"><path d="m60 24 45.2 26L60 76 14.8 50z"/></clipPath><filter id="a" width="140%" height="140%" x="-20%" y="-20%"><feDropShadow dx="0" dy="2" flood-color="#60c0f0" flood-opacity=".6" stdDeviation="4"/></filter></defs><g stroke-width=".8" filter="url(#a)"><path fill="url(#b)" stroke="#a0dcf0" d="m60 24 45.2 26L60 76 14.8 50z" opacity=".78"/><path fill="url(#c)" stroke="#80c0e0" d="M14.8 50 60 76v26L14.8 76z" opacity=".85"/><path fill="url(#d)" stroke="#80c0e0" d="M105.2 50 60 76v26l45.2-26z" opacity=".88"/></g><path fill="url(#e)" d="m60 24 45.2 26L60 76 14.8 50z"/><g clip-path="url(#f)" opacity=".6"><path stroke="#fff" stroke-width=".6" d="m50 35 8 15"/><path stroke="#fff" stroke-width=".5" d="M58 50 48 62"/><path stroke="#c8ecff" stroke-width=".5" d="m72 40 8 15"/><path stroke="#fff" stroke-width=".4" d="m38 52 12 6"/></g><path stroke="#90d8ff" stroke-width="1.4" d="M14.8 50 60 24m0 0 45.2 26" opacity=".8"/><path stroke="#70b8e0" d="M14.8 50v26m90.4-26v26" opacity=".6"/></svg>