<svg xmlns="http://www.w3.org/2000/svg" viewBox="0 0 200 140"><defs><linearGradient id="a" x1="0%" x2="100%" y1="0%" y2="100%"><stop offset="0%" stop-color="#a0d8f0"/><stop offset="100%" stop-color="#4090c0"/></linearGradient><linearGradient id="i" x1="0%" x2="60%" y1="0%" y2="100%"><stop offset="0%" stop-color="#fff" stop-opacity=".4"/><stop offset="45%" stop-color="#fff" stop-opacity=".1"/><stop offset="100%" stop-color="#fff" stop-opacity="0"/></linearGradient><linearGradient id="d" x1="0%" x2="100%" y1="0%" y2="100%"><stop offset="0%" stop-color="#e8f8ff"/><stop offset="40%" stop-color="#c0e8fa"/><stop offset="100%" stop-color="#80c8f0"/></linearGradient><linearGradient id="h" x1="0%" x2="55%" y1="0%" y2="100%"><stop offset="0%" stop-color="#fff" stop-opacity=".75"/><stop offset="45%" stop-color="#fff" stop-opacity=".18"/><stop offset="100%" stop-color="#fff" stop-opacity="0"/></linearGradient><linearGradient id="f" x1="0%" x2="100%" y1="0%" y2="0%"><stop offset="0%" stop-color="#3070a8"/><stop offset="100%" stop-color="#4888c0"/></linearGradient><linearGradient id="g" x1="0%" x2="100%" y1="0%" y2="0%"><stop offset="0%" stop-color="#60a8d8"/><stop offset="100%" stop-color="#80c0e8"/></linearGradient><filter id="e" width="110%" height="110%" x="-5%" y="-5%"><feTurbulence baseFrequency=".65" numOctaves="2" result="noise" seed="9" type="fractalNoise"/><feColorMatrix in="noise" result="cn" values="0 0 0 0 0.9 0 0 0 0 0.96 0 0 0 0 1 0 0 0 0.15 0"/><feBlend in="SourceGraphic" in2="cn" mode="screen" result="t"/><feComposite in="t" in2="SourceGraphic" operator="in"/></filter><filter id="c" width="150%" height="150%" x="-20%" y="-20%"><feDropShadow dx="2" dy="3" flood-color="#2060a0" flood-opacity=".4" stdDeviation="4"/></filter><filter id="b" width="160%" height="160%" x="-30%" y="-30%"><feGaussianBlur result="blur" stdDeviation="3"/><feComposite in="SourceGraphic" in2="blur"/></filter></defs><rect width="200" height="140" fill="url(#a)" rx="10"/><ellipse cx="100" cy="60" fill="#d0f0ff" filter="url(#b)" opacity=".18" rx="40" ry="22"/><g stroke-width=".8" filter="url(#c)"><path fill="url(#d)" stroke="#a0d8ff" d="m100 30 27.7 16L100 62 72.3 46z" filter="url(#e)" opacity=".9"/><path fill="url(#f)" stroke="#306898" d="M72.3 46 100 62v16L72.3 62z" opacity=".88"/><path fill="url(#g)" stroke="#60a8d0" d="M127.7 46 100 62v16l27.7-16z" opacity=".85"/></g><path fill="url(#h)" d="m100 30 27.7 16L100 62 72.3 46z"/><ellipse cx="98" cy="43" fill="#fff" opacity=".55" rx="10" ry="5"/><path stroke="#e8f8ff" stroke-width="1.8" d="M72.3 46 100 30" opacity=".9"/><path stroke="#d0f0ff" stroke-width="1.2" d="m100 30 27.7 16" opacity=".7"/><path stroke="#fff" stroke-width=".5" d="m88 38-4 4m0 0 4 2" opacity=".6"/><path stroke="#fff" stroke-width=".4" d="m112 40 4 4m0 0-4 4" opacity=".5"/><rect width="200" height="140" fill="url(#i)" rx="10"/><text x="100" y="115" fill="#fff" stroke="#3070a8" stroke-width="2" font-family="Arial Black, Arial, sans-serif" font-size="14" font-weight="900" letter-spacing="2" paint-order="stroke" text-anchor="middle">GLACE</text><rect width="198" height="138" x="1" y="1" fill="none" stroke="#c0e8ff" stroke-width="1.5" opacity=".8" rx="9.5"/></svg>