<svg xmlns="http://www.w3.org/2000/svg" width="80" height="80" viewBox="0 0 80 80"><defs><linearGradient id="d" x1="0%" x2="100%" y1="0%" y2="0%"><stop offset="0%" stop-color="#acf"/><stop offset="100%" stop-color="#69e"/></linearGradient><linearGradient id="f" x1="0%" x2="100%" y1="0%" y2="0%"><stop offset="0%" stop-color="#35a"/><stop offset="100%" stop-color="#24a"/></linearGradient><linearGradient id="g" x1="0%" x2="100%" y1="0%" y2="100%"><stop offset="0%" stop-color="#47d"/><stop offset="100%" stop-color="#25b"/></linearGradient><radialGradient id="a" cx="50%" cy="50%" r="50%"><stop offset="0%" stop-color="#1a2a4a"/><stop offset="100%" stop-color="#0a0f1e"/></radialGradient><radialGradient id="c" cx="50%" cy="35%" r="60%"><stop offset="0%" stop-color="#6090ff"/><stop offset="100%" stop-color="#1a3090"/></radialGradient><filter id="b" width="140%" height="140%" x="-20%" y="-20%"><feDropShadow dx="0" dy="2" flood-color="#4080ff" flood-opacity=".7" stdDeviation="3"/></filter><filter id="e"><feDropShadow dx="0" dy="0" flood-color="#4080ff" flood-opacity=".9" stdDeviation="2"/></filter></defs><path fill="url(#a)" d="m40 4 33 18v36L40 76 7 58V22z" filter="url(#b)"/><path fill="url(#c)" d="m40 14 18 8v20q0 14-18 22-18-8-18-22V22Z" opacity=".95"/><path fill="none" stroke="#8ab0ff" stroke-width=".8" d="m40 17 15 7v18q0 12-15 19-15-7-15-19V24Z" opacity=".5"/><path fill="url(#d)" d="m40 28 9 5-9 5-9-5z" filter="url(#e)"/><path fill="url(#f)" d="M49 33v10l-9 5V38z"/><path fill="url(#g)" d="M40 38v10l-9-5V33z"/><path fill="none" stroke="#8af" stroke-width=".5" d="m40 28 9 5-9 5-9-5z"/><path fill="none" stroke="#35a" stroke-width=".5" d="M49 33v10l-9 5V38z"/><path fill="none" stroke="#46c" stroke-width=".5" d="M40 38v10l-9-5V33z"/><text x="40" y="72" fill="#acf" font-family="Arial, sans-serif" font-size="7" font-weight="bold" letter-spacing=".5" text-anchor="middle">1ER BLOC</text><path fill="none" stroke="#4080ff" stroke-width="1.5" d="m40 4 33 18v36L40 76 7 58V22z" opacity=".8"/><path fill="none" stroke="#80b0ff" stroke-width=".5" d="M40 5.5 71.5 23v34L40 74.5 8.5 57V23z" opacity=".4"/></svg>