<svg xmlns="http://www.w3.org/2000/svg" width="80" height="80" viewBox="0 0 80 80"><defs><radialGradient id="a" cx="50%" cy="50%" r="50%"><stop offset="0%" stop-color="#0a2010"/><stop offset="100%" stop-color="#040f06"/></radialGradient><radialGradient id="e" cx="50%" cy="50%" r="50%"><stop offset="0%" stop-color="#fff"/><stop offset="40%" stop-color="#80ffb0"/><stop offset="100%" stop-color="#40c060"/></radialGradient><linearGradient id="c" x1="0%" x2="100%" y1="0%" y2="0%"><stop offset="0%" stop-color="#40c060"/><stop offset="100%" stop-color="#20a040" stop-opacity=".3"/></linearGradient><linearGradient id="d" x1="0%" x2="100%" y1="0%" y2="0%"><stop offset="0%" stop-color="#30b050" stop-opacity=".4"/><stop offset="60%" stop-color="#40c060"/><stop offset="100%" stop-color="#20a040" stop-opacity=".2"/></linearGradient><filter id="b" width="140%" height="140%" x="-20%" y="-20%"><feDropShadow dx="0" dy="2" flood-color="#40c060" flood-opacity=".7" stdDeviation="3"/></filter><filter id="f"><feDropShadow dx="0" dy="0" flood-color="#40c060" flood-opacity=".9" stdDeviation="3"/></filter></defs><path fill="url(#a)" d="m40 4 33 18v36L40 76 7 58V22z" filter="url(#b)"/><rect width="48" height="3.2" x="16" y="14" fill="url(#c)" opacity=".9" rx="1.5"/><rect width="40" height="3.2" x="16" y="18.5" fill="url(#d)" opacity=".8" rx="1.5"/><rect width="44" height="3.2" x="16" y="23" fill="url(#c)" opacity=".85" rx="1.5"/><rect width="36" height="3.2" x="16" y="27.5" fill="url(#d)" opacity=".7" rx="1.5"/><rect width="46" height="3.2" x="16" y="32" fill="url(#c)" opacity=".9" rx="1.5"/><path fill="url(#e)" d="m40 35 2.5 6H49l-5.2 4 2.1 6.5-5.9-4-5.9 4 2.1-6.5-5.2-4h6.5z" filter="url(#f)"/><path fill="#fff" d="m40 37.5 1.5 4h4L42.3 44l1.2 4-3.5-2.5-3.5 2.5 1.2-4-3.2-2.5h4z" opacity=".4"/><rect width="44" height="3.2" x="16" y="53" fill="url(#c)" opacity=".85" rx="1.5"/><rect width="38" height="3.2" x="16" y="57.5" fill="url(#d)" opacity=".75" rx="1.5"/><rect width="42" height="3.2" x="16" y="62" fill="url(#c)" opacity=".8" rx="1.5"/><text x="40" y="72.5" fill="#80ee90" font-family="Arial, sans-serif" font-size="6.5" font-weight="bold" letter-spacing=".5" text-anchor="middle">10 LIGNES</text><path fill="none" stroke="#40c060" stroke-width="1.5" d="m40 4 33 18v36L40 76 7 58V22z" opacity=".9"/><path fill="none" stroke="#80ff90" stroke-width=".5" d="M40 5.5 71.5 23v34L40 74.5 8.5 57V23z" opacity=".4"/></svg>