<svg xmlns="http://www.w3.org/2000/svg" width="80" height="80" viewBox="0 0 80 80"><defs><filter id="b" width="140%" height="140%" x="-20%" y="-20%"><feDropShadow dx="0" dy="2" flood-color="gold" flood-opacity=".6" stdDeviation="3"/></filter><filter id="e"><feDropShadow dx="0" dy="0" flood-color="gold" flood-opacity="1" stdDeviation="5"/><feDropShadow dx="0" dy="0" flood-color="#ff0" flood-opacity=".5" stdDeviation="10"/></filter><filter id="f"><feDropShadow dx="0" dy="0" flood-color="#fff" flood-opacity=".9" stdDeviation="2"/></filter><radialGradient id="a" cx="50%" cy="50%" r="50%"><stop offset="0%" stop-color="#1a1a00"/><stop offset="100%" stop-color="#050500"/></radialGradient><radialGradient id="d" cx="50%" cy="40%" r="60%"><stop offset="0%" stop-color="#fff"/><stop offset="30%" stop-color="#ffff80"/><stop offset="100%" stop-color="gold"/></radialGradient></defs><path fill="url(#a)" d="m40 4 33 18v36L40 76 7 58V22z" filter="url(#b)"/><radialGradient id="c" cx="50%" cy="50%" r="40%"><stop offset="0%" stop-color="gold" stop-opacity=".15"/><stop offset="100%" stop-color="gold" stop-opacity="0"/></radialGradient><path fill="url(#c)" d="m40 4 33 18v36L40 76 7 58V22z"/><path fill="url(#d)" d="M46 13 33 38h8l-7 27 20-30H44z" filter="url(#e)"/><path fill="#fff" d="m44 19-8 19h5.5l-5 19L50 37h-6.5z" opacity=".35"/><path stroke="gold" stroke-linecap="round" stroke-width="1.5" d="m20 28 8 2" filter="url(#f)" opacity=".8"/><path stroke="#ffff80" stroke-linecap="round" stroke-width="1.2" d="M18 36h9" filter="url(#f)" opacity=".7"/><path stroke="gold" stroke-linecap="round" stroke-width="1.5" d="m20 44 8-2" filter="url(#f)" opacity=".8"/><path stroke="gold" stroke-linecap="round" stroke-width="1.2" d="m52 28 8-2" filter="url(#f)" opacity=".6"/><path stroke="#ffff80" stroke-linecap="round" d="M55 36h8" filter="url(#f)" opacity=".5"/><text x="40" y="72.5" fill="gold" font-family="Arial, sans-serif" font-size="6" font-weight="bold" letter-spacing=".5" text-anchor="middle">VITESSE ÉCLAIR</text><path fill="none" stroke="gold" stroke-width="1.5" d="m40 4 33 18v36L40 76 7 58V22z" opacity=".9"/><path fill="none" stroke="#ffff80" stroke-width=".5" d="M40 5.5 71.5 23v34L40 74.5 8.5 57V23z" opacity=".4"/></svg>