<svg xmlns="http://www.w3.org/2000/svg" width="80" height="80" viewBox="0 0 80 80"><defs><radialGradient id="a" cx="50%" cy="50%" r="50%"><stop offset="0%" stop-color="#1a0830"/><stop offset="100%" stop-color="#0a0318"/></radialGradient><radialGradient id="d" cx="50%" cy="30%" r="70%"><stop offset="0%" stop-color="#fff8a0"/><stop offset="50%" stop-color="gold"/><stop offset="100%" stop-color="#a07000"/></radialGradient><radialGradient id="c" cx="50%" cy="40%" r="50%"><stop offset="0%" stop-color="#8040ff" stop-opacity=".2"/><stop offset="100%" stop-color="#8040ff" stop-opacity="0"/></radialGradient><filter id="b" width="140%" height="140%" x="-20%" y="-20%"><feDropShadow dx="0" dy="2" flood-color="#8040ff" flood-opacity=".7" stdDeviation="3"/></filter><filter id="e"><feDropShadow dx="0" dy="0" flood-color="gold" flood-opacity=".8" stdDeviation="4"/><feDropShadow dx="0" dy="0" flood-color="gold" flood-opacity=".3" stdDeviation="8"/></filter><filter id="f"><feDropShadow dx="0" dy="0" flood-color="gold" flood-opacity=".9" stdDeviation="2"/></filter></defs><path fill="url(#a)" d="m40 4 33 18v36L40 76 7 58V22z" filter="url(#b)"/><circle cx="40" cy="34" r="28" fill="url(#c)"/><circle cx="20" cy="18" r="1" fill="#cc80ff" opacity=".7"/><circle cx="62" cy="15" r="1.2" fill="#cc80ff" opacity=".6"/><circle cx="68" cy="32" r=".8" fill="#fff" opacity=".5"/><circle cx="14" cy="42" r=".8" fill="#cc80ff" opacity=".5"/><circle cx="65" cy="50" r="1" fill="#fff" opacity=".4"/><circle cx="25" cy="56" r=".8" fill="#cc80ff" opacity=".4"/><rect width="36" height="8" x="22" y="44" fill="url(#d)" filter="url(#e)" rx="1.5"/><path fill="url(#d)" d="m22 44 4-16 4 16z" filter="url(#e)"/><path fill="url(#d)" d="m33 44 7-24 7 24z" filter="url(#e)"/><path fill="url(#d)" d="m50 44 4-16 4 16z" filter="url(#e)"/><circle cx="28" cy="38" r="2.5" fill="#ff4080"/><circle cx="40" cy="32" r="3" fill="#4080ff"/><circle cx="52" cy="38" r="2.5" fill="#40c060"/><circle cx="27.2" cy="37.2" r=".8" fill="#fff" opacity=".7"/><circle cx="39.2" cy="31.2" r="1" fill="#fff" opacity=".7"/><circle cx="51.2" cy="37.2" r=".8" fill="#fff" opacity=".7"/><rect width="36" height="2" x="22" y="44" fill="#fffaaa" opacity=".4" rx="1"/><text x="40" y="62" fill="gold" filter="url(#f)" font-family="Arial Black, Arial, sans-serif" font-size="10" font-weight="900" text-anchor="middle">100K</text><text x="40" y="72.5" fill="#cc80ff" font-family="Arial, sans-serif" font-size="6" font-weight="bold" letter-spacing=".5" text-anchor="middle">SCORE 100K</text><path fill="none" stroke="#8040ff" stroke-width="1.5" d="m40 4 33 18v36L40 76 7 58V22z" opacity=".9"/><path fill="none" stroke="#cc80ff" stroke-width=".5" d="M40 5.5 71.5 23v34L40 74.5 8.5 57V23z" opacity=".4"/></svg>