<svg xmlns="http://www.w3.org/2000/svg" width="80" height="80" viewBox="0 0 80 80"><defs><radialGradient id="a" cx="50%" cy="50%" r="50%"><stop offset="0%" stop-color="#1a1400"/><stop offset="100%" stop-color="#0a0800"/></radialGradient><radialGradient id="d" cx="50%" cy="50%" r="50%"><stop offset="0%" stop-color="#fff8a0"/><stop offset="50%" stop-color="gold"/><stop offset="100%" stop-color="#a07000"/></radialGradient><radialGradient id="c" cx="50%" cy="50%" r="50%"><stop offset="0%" stop-color="gold" stop-opacity=".3"/><stop offset="70%" stop-color="gold" stop-opacity=".05"/><stop offset="100%" stop-color="gold" stop-opacity="0"/></radialGradient><filter id="b" width="140%" height="140%" x="-20%" y="-20%"><feDropShadow dx="0" dy="2" flood-color="gold" flood-opacity=".7" stdDeviation="3"/></filter><filter id="e"><feDropShadow dx="0" dy="0" flood-color="gold" flood-opacity=".9" stdDeviation="4"/><feDropShadow dx="0" dy="0" flood-color="#ffff80" flood-opacity=".4" stdDeviation="8"/></filter><filter id="f"><feDropShadow dx="0" dy="0" flood-color="#fff" flood-opacity=".8" stdDeviation="2"/></filter></defs><path fill="url(#a)" d="m40 4 33 18v36L40 76 7 58V22z" filter="url(#b)"/><circle cx="40" cy="38" r="28" fill="url(#c)"/><circle cx="40" cy="38" r="22" fill="none" stroke="url(#d)" stroke-width="4" filter="url(#e)"/><circle cx="40" cy="38" r="17" fill="none" stroke="gold" opacity=".5"/><circle cx="40" cy="38" r="14" fill="#1a1400"/><circle cx="40" cy="16.5" r="2" fill="#fffaaa" filter="url(#e)"/><circle cx="58.5" cy="27" r="1.5" fill="#ffe050" filter="url(#e)" opacity=".8"/><circle cx="58.5" cy="49" r="1.5" fill="#ffe050" filter="url(#e)" opacity=".8"/><circle cx="40" cy="59.5" r="2" fill="#fffaaa" filter="url(#e)"/><circle cx="21.5" cy="49" r="1.5" fill="#ffe050" filter="url(#e)" opacity=".8"/><circle cx="21.5" cy="27" r="1.5" fill="#ffe050" filter="url(#e)" opacity=".8"/><path fill="none" stroke="#fff" stroke-linecap="round" stroke-linejoin="round" stroke-width="4" d="m30 38 7 8 15-18" filter="url(#f)"/><path fill="none" stroke="gold" stroke-linecap="round" stroke-linejoin="round" stroke-width="2" d="m30 38 7 8 15-18"/><text x="40" y="72.5" fill="gold" font-family="Arial, sans-serif" font-size="7" font-weight="bold" letter-spacing=".5" text-anchor="middle">PARFAIT</text><path fill="none" stroke="gold" stroke-width="1.5" d="m40 4 33 18v36L40 76 7 58V22z" opacity=".9"/><path fill="none" stroke="#ffff80" stroke-width=".5" d="M40 5.5 71.5 23v34L40 74.5 8.5 57V23z" opacity=".4"/></svg>