<svg xmlns="http://www.w3.org/2000/svg" width="80" height="80" viewBox="0 0 80 80"><defs><filter id="b" width="140%" height="140%" x="-20%" y="-20%"><feDropShadow dx="0" dy="2" flood-color="#40c0a0" flood-opacity=".7" stdDeviation="3"/></filter><filter id="d"><feDropShadow dx="0" dy="0" flood-color="#40c0a0" flood-opacity=".8" stdDeviation="3"/></filter><filter id="e"><feDropShadow dx="0" dy="0" flood-color="#40c0a0" flood-opacity="1" stdDeviation="3"/></filter><radialGradient id="a" cx="50%" cy="50%" r="50%"><stop offset="0%" stop-color="#061a14"/><stop offset="100%" stop-color="#020a08"/></radialGradient><radialGradient id="c" cx="50%" cy="50%" r="50%"><stop offset="0%" stop-color="#40c0a0" stop-opacity=".15"/><stop offset="100%" stop-color="#40c0a0" stop-opacity="0"/></radialGradient></defs><path fill="url(#a)" d="m40 4 33 18v36L40 76 7 58V22z" filter="url(#b)"/><circle cx="40" cy="38" r="28" fill="url(#c)"/><path fill="none" stroke="#40c0a0" stroke-linecap="round" stroke-width="5.5" d="M40 16a22 22 0 1 1-13 41" filter="url(#d)" opacity=".95"/><path fill="none" stroke="#80ffe0" stroke-linecap="round" stroke-width="2" d="M40 16a22 22 0 1 1-13 41" opacity=".3"/><path fill="#40c0a0" d="M38 16q2-2 4 0-1 1-2 .5Z" opacity=".8"/><path fill="#40c0a0" d="M27 57q-1 2 1 3-.5-2-1-3" filter="url(#d)" opacity=".7"/><circle cx="40" cy="38" r="14" fill="none" stroke="#40c0a0" stroke-width=".5" opacity=".2"/><circle cx="40" cy="38" r="3.5" fill="#40c0a0" filter="url(#e)"/><circle cx="40" cy="38" r="1.8" fill="#ccfff0"/><path stroke="#40c0a0" stroke-linecap="round" stroke-width="1.5" d="m56 18 6-3" opacity=".5"/><path stroke="#40c0a0" stroke-linecap="round" d="m57 21 7-1" opacity=".35"/><text x="40" y="72.5" fill="#40c0a0" font-family="Arial, sans-serif" font-size="6.5" font-weight="bold" letter-spacing=".5" text-anchor="middle">ZEN MASTER</text><path fill="none" stroke="#40c0a0" stroke-width="1.5" d="m40 4 33 18v36L40 76 7 58V22z" opacity=".9"/><path fill="none" stroke="#80ffe0" stroke-width=".5" d="M40 5.5 71.5 23v34L40 74.5 8.5 57V23z" opacity=".4"/></svg>