<svg xmlns="http://www.w3.org/2000/svg" width="80" height="80" viewBox="0 0 80 80"><defs><filter id="b" width="140%" height="140%" x="-20%" y="-20%"><feDropShadow dx="0" dy="2" flood-color="#ff4040" flood-opacity=".7" stdDeviation="3"/></filter><filter id="c"><feDropShadow dx="0" dy="0" flood-color="#ff4040" flood-opacity=".9" stdDeviation="5"/><feDropShadow dx="0" dy="0" flood-color="#ff0" flood-opacity=".3" stdDeviation="10"/></filter><filter id="e"><feDropShadow dx="0" dy="0" flood-color="red" flood-opacity="1" stdDeviation="3"/><feDropShadow dx="0" dy="0" flood-color="#ff4040" flood-opacity=".5" stdDeviation="6"/></filter><radialGradient id="a" cx="50%" cy="50%" r="50%"><stop offset="0%" stop-color="#2a0505"/><stop offset="100%" stop-color="#0f0202"/></radialGradient><radialGradient id="d" cx="50%" cy="50%" r="50%"><stop offset="0%" stop-color="#fff"/><stop offset="30%" stop-color="#ffff40"/><stop offset="60%" stop-color="#ff8020"/><stop offset="100%" stop-color="#ff4040" stop-opacity="0"/></radialGradient></defs><path fill="url(#a)" d="m40 4 33 18v36L40 76 7 58V22z" filter="url(#b)"/><path fill="gold" d="m40 38-3-24h6z" filter="url(#c)" opacity=".9"/><path fill="#ff8020" d="m40 38 15-20 5 6z" opacity=".85"/><path fill="#ff4040" d="m40 38 24-5v10z" opacity=".9"/><path fill="#ff8020" d="m40 38 20 16-5 6z" opacity=".85"/><path fill="gold" d="m40 38-3 24h6z" opacity=".9"/><path fill="#ff4040" d="M40 38 25 60l-5-6z" opacity=".85"/><path fill="#ff8020" d="m40 38-24-5v10z" opacity=".9"/><path fill="#ffff40" d="M40 38 20 24l5-6z" opacity=".85"/><path fill="#ff6040" d="m40 38 10-18 3 2z" opacity=".6"/><path fill="#ff4040" d="m40 38 18 8-2 4z" opacity=".6"/><path fill="#ff8020" d="M40 38 22 50l2-4z" opacity=".6"/><path fill="gold" d="M40 38 27 22l3-2z" opacity=".6"/><circle cx="40" cy="38" r="18" fill="url(#d)" opacity=".7"/><text x="40" y="46" fill="#ff2020" filter="url(#e)" font-family="Arial Black, Arial, sans-serif" font-size="22" font-weight="900" text-anchor="middle">×5</text><text x="40" y="46" fill="#fff" font-family="Arial Black, Arial, sans-serif" font-size="22" font-weight="900" opacity=".3" text-anchor="middle">×5</text><text x="40" y="72.5" fill="#ff8060" font-family="Arial, sans-serif" font-size="6.5" font-weight="bold" letter-spacing=".5" text-anchor="middle">COMBO ×5</text><path fill="none" stroke="#ff4040" stroke-width="1.5" d="m40 4 33 18v36L40 76 7 58V22z" opacity=".9"/><path fill="none" stroke="#ff8080" stroke-width=".5" d="M40 5.5 71.5 23v34L40 74.5 8.5 57V23z" opacity=".4"/></svg>