<svg xmlns="http://www.w3.org/2000/svg" width="80" height="80" viewBox="0 0 80 80"><defs><filter id="b" width="140%" height="140%" x="-20%" y="-20%"><feDropShadow dx="0" dy="2" flood-color="#cc2020" flood-opacity=".8" stdDeviation="4"/></filter><filter id="e"><feDropShadow dx="0" dy="0" flood-color="#cc2020" flood-opacity=".7" stdDeviation="4"/></filter><filter id="g"><feDropShadow dx="0" dy="0" flood-color="#ff4040" flood-opacity=".9" stdDeviation="3"/></filter><filter id="f"><feDropShadow dx="0" dy="0" flood-color="#ff6040" flood-opacity=".8" stdDeviation="1.5"/></filter><radialGradient id="a" cx="50%" cy="50%" r="50%"><stop offset="0%" stop-color="#1a0505"/><stop offset="100%" stop-color="#060101"/></radialGradient><radialGradient id="d" cx="40%" cy="30%" r="70%"><stop offset="0%" stop-color="#4a1010"/><stop offset="100%" stop-color="#1a0404"/></radialGradient><radialGradient id="c" cx="50%" cy="50%" r="50%"><stop offset="0%" stop-color="#cc2020" stop-opacity=".2"/><stop offset="70%" stop-color="#cc2020" stop-opacity=".05"/><stop offset="100%" stop-color="#cc2020" stop-opacity="0"/></radialGradient></defs><path fill="url(#a)" d="m40 4 33 18v36L40 76 7 58V22z" filter="url(#b)"/><circle cx="40" cy="38" r="32" fill="url(#c)"/><path fill="url(#d)" d="m40 12 20 8v22q0 16-20 26-20-10-20-26V20Z" filter="url(#e)"/><path fill="none" stroke="#cc2020" stroke-width="2" d="m40 12 20 8v22q0 16-20 26-20-10-20-26V20Z"/><path fill="none" stroke="#ff4040" stroke-width=".8" d="m40 16 17 7v19q0 13-17 22-17-9-17-22V23Z" opacity=".5"/><path fill="none" stroke="#ff6040" stroke-linecap="round" stroke-linejoin="round" stroke-width="1.8" d="m34 20 4 8-3 2 5 12-4 2" filter="url(#f)"/><path fill="none" stroke="#ff4020" stroke-linecap="round" stroke-linejoin="round" stroke-width="1.2" d="m46 25 4 8-3 3 5 12" filter="url(#f)" opacity=".8"/><path fill="none" stroke="#cc2020" stroke-linecap="round" d="m28 36 3 4-2 3" filter="url(#f)" opacity=".7"/><path fill="#cc2020" d="m40 30 2 6h6l-4.8 4 2 6-5.2-4-5.2 4 2-6-4.8-4h6z" filter="url(#g)"/><path fill="#ff4040" d="m40 32 1.4 4h4.1l-3.3 2.5 1.2 4L40 40l-3.4 2.5 1.2-4-3.3-2.5h4.1z" opacity=".6"/><path fill="#ff8080" d="m40 34 1 2.5h2.5l-2 1.5.7 2.5L40 39l-2.2 1.5.7-2.5-2-1.5H39z" opacity=".4"/><rect width="3" height="2" x="19.5" y="30" fill="#060101" rx=".5"/><rect width="3" height="1.5" x="57.5" y="38" fill="#060101" rx=".5"/><rect width="2" height="3" x="35" y="11.5" fill="#060101" rx=".5"/><path stroke="#cc2020" stroke-linecap="round" stroke-width="1.5" d="M40 68v4" opacity=".5"/><text x="40" y="72.5" fill="#ff4040" font-family="Arial, sans-serif" font-size="6.5" font-weight="bold" letter-spacing=".5" text-anchor="middle">SURVIVANT</text><path fill="none" stroke="#cc2020" stroke-width="1.5" d="m40 4 33 18v36L40 76 7 58V22z" opacity=".9"/><path fill="none" stroke="#ff6060" stroke-width=".5" d="M40 5.5 71.5 23v34L40 74.5 8.5 57V23z" opacity=".35"/></svg>