<svg xmlns="http://www.w3.org/2000/svg" width="80" height="80" viewBox="0 0 80 80"><defs><radialGradient id="a" cx="50%" cy="50%" r="50%"><stop offset="0%" stop-color="#160a28"/><stop offset="100%" stop-color="#0a0414"/></radialGradient><radialGradient id="c" cx="50%" cy="50%" r="50%"><stop offset="0%" stop-color="#2a1060"/><stop offset="100%" stop-color="#180838"/></radialGradient><filter id="b" width="140%" height="140%" x="-20%" y="-20%"><feDropShadow dx="0" dy="2" flood-color="#a040ff" flood-opacity=".7" stdDeviation="3"/></filter><filter id="d"><feDropShadow dx="0" dy="0" flood-color="#a040ff" flood-opacity=".7" stdDeviation="2"/></filter></defs><path fill="url(#a)" d="m40 4 33 18v36L40 76 7 58V22z" filter="url(#b)"/><ellipse cx="38" cy="37" fill="url(#c)" stroke="#a040ff" stroke-width="1.5" filter="url(#d)" rx="20" ry="17"/><ellipse cx="32" cy="49" fill="#0a0414" rx="4.5" ry="3.5"/><ellipse cx="32" cy="49" fill="none" stroke="#a040ff" rx="4.5" ry="3.5"/><circle cx="30" cy="28" r="4.5" fill="#ff4040"><title>red</title></circle><circle cx="30" cy="28" r="4.5" fill="none" stroke="#ff8080" stroke-width=".7" opacity=".7"/><circle cx="40" cy="24" r="4.5" fill="#ff8020"/><circle cx="40" cy="24" r="4.5" fill="none" stroke="#ffb060" stroke-width=".7" opacity=".7"/><circle cx="50" cy="28" r="4.5" fill="gold"/><circle cx="50" cy="28" r="4.5" fill="none" stroke="#ffff80" stroke-width=".7" opacity=".7"/><circle cx="52" cy="39" r="4.5" fill="#40c060"/><circle cx="52" cy="39" r="4.5" fill="none" stroke="#80ff90" stroke-width=".7" opacity=".7"/><circle cx="44" cy="48" r="4.5" fill="#4080ff"/><circle cx="44" cy="48" r="4.5" fill="none" stroke="#80aaff" stroke-width=".7" opacity=".7"/><circle cx="30" cy="40" r="4.5" fill="#a040ff"/><circle cx="30" cy="40" r="4.5" fill="none" stroke="#cc80ff" stroke-width=".7" opacity=".7"/><path stroke="#c0a060" stroke-linecap="round" stroke-width="2.5" d="m54 20 13-7" filter="url(#d)"/><path stroke="#a040ff" stroke-linecap="round" stroke-width="3" d="m52 22 2-2"/><path fill="#e0c080" d="M54 20q2-2 4-3-1 2-3 4Z"/><path fill="#cc8840" d="M65 13q3-2 5-3-1 2-3 4Z"/><text x="40" y="72.5" fill="#cc80ff" font-family="Arial, sans-serif" font-size="5.5" font-weight="bold" letter-spacing=".3" text-anchor="middle">MAÎTRE THÈMES</text><path fill="none" stroke="#a040ff" stroke-width="1.5" d="m40 4 33 18v36L40 76 7 58V22z" opacity=".9"/><path fill="none" stroke="#cc80ff" stroke-width=".5" d="M40 5.5 71.5 23v34L40 74.5 8.5 57V23z" opacity=".4"/></svg>