<svg xmlns="http://www.w3.org/2000/svg" viewBox="0 0 128 128"><defs><radialGradient id="b" cx="33%" cy="28%" r="70%" fx="33%" fy="28%"><stop offset="0%" stop-color="#aaa"/><stop offset="12%" stop-color="#888"/><stop offset="35%" stop-color="#444"/><stop offset="65%" stop-color="#1c1c1c"/><stop offset="88%" stop-color="#080808"/><stop offset="100%" stop-color="#020202"/></radialGradient><radialGradient id="e" cx="65%" cy="70%" r="50%"><stop offset="0%" stop-color="#2a2a3a" stop-opacity=".5"/><stop offset="100%" stop-opacity="0"/></radialGradient><radialGradient id="f" cx="28%" cy="22%" r="45%" fx="25%" fy="20%"><stop offset="0%" stop-color="#fff" stop-opacity=".92"/><stop offset="30%" stop-color="#fff" stop-opacity=".45"/><stop offset="70%" stop-color="#fff" stop-opacity=".08"/><stop offset="100%" stop-color="#fff" stop-opacity="0"/></radialGradient><radialGradient id="a" cx="50%" cy="50%" r="50%"><stop offset="0%" stop-opacity=".55"/><stop offset="100%" stop-opacity="0"/></radialGradient><radialGradient id="j" cx="50%" cy="50%" r="50%"><stop offset="0%" stop-color="#fff"/><stop offset="30%" stop-color="#ffee80"/><stop offset="70%" stop-color="#f80"/><stop offset="100%" stop-color="#f40" stop-opacity="0"/></radialGradient><filter id="c" width="170%" height="170%" x="-25%" y="-25%"><feDropShadow dx="4" dy="8" flood-color="#000" flood-opacity=".75" stdDeviation="7"/></filter><filter id="i" width="340%" height="340%" x="-120%" y="-120%"><feGaussianBlur result="blur" stdDeviation="5"/><feMerge><feMergeNode in="blur"/><feMergeNode in="SourceGraphic"/></feMerge></filter><filter id="g"><feGaussianBlur stdDeviation="2.5"/></filter><filter id="d" width="100%" height="100%" x="0%" y="0%"><feTurbulence baseFrequency=".75" numOctaves="4" result="noise" seed="8" type="fractalNoise"/><feColorMatrix in="noise" result="grayNoise" type="saturate" values="0"/><feBlend in="SourceGraphic" in2="grayNoise" mode="overlay" result="blended"/><feComposite in="blended" in2="SourceGraphic" operator="in"/></filter><linearGradient id="h" x1="0%" x2="100%" y1="0%" y2="100%"><stop offset="0%" stop-color="#d0d0d0"/><stop offset="40%" stop-color="#888"/><stop offset="80%" stop-color="#444"/><stop offset="100%" stop-color="#1a1a1a"/></linearGradient></defs><ellipse cx="70" cy="116" fill="url(#a)" rx="36" ry="8"/><circle cx="62" cy="73" r="48" fill="url(#b)" filter="url(#c)"/><circle cx="62" cy="73" r="48" fill="url(#b)" filter="url(#d)" opacity=".12"/><circle cx="62" cy="73" r="48" fill="url(#e)"/><circle cx="62" cy="73" r="48" fill="none" stroke="#030303" stroke-width="3"/><circle cx="62" cy="73" r="47" fill="none" stroke="#444" stroke-width=".8" opacity=".3"/><ellipse cx="62" cy="73" fill="none" stroke="#555" stroke-width="1.2" opacity=".25" rx="47" ry="22" transform="rotate(-22 62 73)"/><ellipse cx="45" cy="53" fill="url(#f)" filter="url(#g)" rx="18" ry="12" transform="rotate(-15 45 53)"/><ellipse cx="41" cy="49" fill="#fff" opacity=".65" rx="6" ry="4"/><path fill="none" stroke="#3a2008" stroke-linecap="round" stroke-width="5" d="M70 30c6-7 16-11 14-19-2-6 8-10 12-2" opacity=".4"/><path fill="none" stroke="#7b4f12" stroke-linecap="round" stroke-linejoin="round" stroke-width="4.5" d="M68 27c6-7 16-11 14-19-2-6 8-10 12-2"/><path fill="none" stroke="#c07828" stroke-dasharray="3.5,5" stroke-linecap="round" stroke-width="1.5" d="M68 27c6-7 16-11 14-19-2-6 8-10 12-2" opacity=".55"/><circle cx="67" cy="28" r="7" fill="url(#h)"/><circle cx="67" cy="28" r="7" fill="none" stroke="#111" stroke-width="1.5"/><ellipse cx="64" cy="25" fill="#fff" opacity=".5" rx="3" ry="2"/><circle cx="94" cy="6" r="14" fill="#f50" filter="url(#i)" opacity=".3"/><circle cx="94" cy="6" r="9" fill="#f80" filter="url(#i)" opacity=".55"/><circle cx="94" cy="6" r="6" fill="url(#j)" filter="url(#i)"/><circle cx="94" cy="6" r="2.8" fill="#fff" opacity=".98"/><g stroke="#fd0" stroke-linecap="round" stroke-width="2.2" filter="url(#i)"><path d="m94 6 9-8m-9 8 10 6M94 6l-8-8m8 8 6 11"/></g><path stroke="#f90" stroke-linecap="round" stroke-width="1.3" d="m94 6 12-2M94 6l11 10M94 6 83 1m11 5-6 10m6-10 2-12" opacity=".65"/></svg>