<svg xmlns="http://www.w3.org/2000/svg" viewBox="0 0 128 128"><defs><radialGradient id="e" cx="50%" cy="82%" r="55%"><stop offset="0%" stop-color="ivory"/><stop offset="30%" stop-color="#ffee60"/><stop offset="65%" stop-color="#fa0"/><stop offset="100%" stop-color="#f60" stop-opacity="0"/></radialGradient><radialGradient id="f" cx="50%" cy="10%" r="40%"><stop offset="0%" stop-color="#fff" stop-opacity=".9"/><stop offset="60%" stop-color="#ffffa0" stop-opacity=".4"/><stop offset="100%" stop-color="#fff" stop-opacity="0"/></radialGradient><radialGradient id="a" cx="50%" cy="50%" r="50%"><stop offset="0%" stop-color="#f30" stop-opacity=".3"/><stop offset="100%" stop-color="#f30" stop-opacity="0"/></radialGradient><linearGradient id="c" x1="50%" x2="50%" y1="0%" y2="100%"><stop offset="0%" stop-color="#cc1400"/><stop offset="35%" stop-color="#ff4000"/><stop offset="70%" stop-color="#ff7020"/><stop offset="100%" stop-color="#ff9a00"/></linearGradient><linearGradient id="d" x1="50%" x2="50%" y1="0%" y2="100%"><stop offset="0%" stop-color="#f50"/><stop offset="40%" stop-color="#ff9500"/><stop offset="75%" stop-color="#fc0"/><stop offset="100%" stop-color="#ffe840"/></linearGradient><filter id="b" width="180%" height="180%" x="-40%" y="-40%"><feGaussianBlur result="blur" stdDeviation="6"/><feMerge><feMergeNode in="blur"/><feMergeNode in="blur"/><feMergeNode in="SourceGraphic"/></feMerge></filter></defs><ellipse cx="64" cy="120" fill="url(#a)" rx="42" ry="10"/><path fill="#f40" d="M64 122c-28-4-50-24-50-46s12-34 16-46 0-22 0-22c6 6 8 16 6 24 6-12 10-22 16-28 0 10-2 20 0 28 4-12 10-20 16-26-2 10-4 20-2 28 4-12 10-20 16-22-2 10-4 20-2 28 4-12 10-18 16-18-2 12-4 22-4 32 4-10 10-16 14-16 0 12-4 24-4 34 0 24-16 44-38 50" filter="url(#b)" opacity=".38"/><path fill="url(#c)" d="M64 122c-28-4-50-24-50-46s12-34 16-46 0-22 0-22c6 6 8 16 6 24 6-12 10-22 16-28 0 10-2 20 0 28 4-12 10-20 16-26-2 10-4 20-2 28 4-12 10-20 16-22-2 10-4 20-2 28 4-12 10-18 16-18-2 12-4 22-4 32 4-10 10-16 14-16 0 12-4 24-4 34 0 24-16 44-38 50"/><path fill="url(#d)" d="M64 120c-24-4-42-22-42-42 0-18 10-28 13-40s0-20 0-20c5 6 7 14 5 22 5-10 8-20 12-26 0 8-1 18 1 26 4-12 9-20 13-25-2 9-3 19-1 27 3-12 8-20 13-22-1 10-3 20-2 28 4-12 9-18 13-18-1 12-3 22-3 32 2-10 6-18 10-18 0 12-3 22-3 32 0 22-13 40-29 44" opacity=".95"/><path fill="url(#e)" d="M64 116c-18-4-30-20-30-38 0-14 8-22 10-32 2-8 0-16 0-16 4 6 6 14 5 22q4.5-15 9-24c0 8-1 18 1 26 3-12 7-20 11-24-1 10-3 20-2 28 3-12 7-18 10-18-1 12-3 22-2 30 4-8 8-14 10-12-1 12-3 22-3 30 0 18-7 26-19 28" opacity=".9"/><ellipse cx="60" cy="16" fill="url(#f)" opacity=".7" rx="12" ry="18"/><path fill="#f60" d="M44 80c-6-12-8-26-6-36 2-8 6-16 10-18-2 8-3 18-2 26 2-10 6-18 10-22-2 10-3 22-2 30 0 12-4 20-10 20" opacity=".35"/><path fill="#f60" d="M84 82c6-12 8-26 6-36-2-8-6-16-10-18 2 8 3 18 2 26-2-10-6-18-10-22 2 10 3 22 2 30 0 12 4 20 10 20" opacity=".3"/></svg>