<svg xmlns="http://www.w3.org/2000/svg" width="64" height="64" viewBox="0 0 64 64"><defs><linearGradient id="b" x1=".5" x2=".5" y1="0" y2="1"><stop offset="0%" stop-color="#f20"/><stop offset="45%" stop-color="#f60"/><stop offset="100%" stop-color="#f90"/></linearGradient><linearGradient id="c" x1=".5" x2=".5" y1="0" y2="1"><stop offset="0%" stop-color="#f80"/><stop offset="50%" stop-color="#fc0"/><stop offset="100%" stop-color="#ffe44a"/></linearGradient><radialGradient id="d" cx="50%" cy="80%" r="55%"><stop offset="0%" stop-color="#fffde0"/><stop offset="50%" stop-color="#ffe040"/><stop offset="100%" stop-color="#f90" stop-opacity="0"/></radialGradient><filter id="a" width="170%" height="170%" x="-35%" y="-35%"><feGaussianBlur result="blur" stdDeviation="4"/><feMerge><feMergeNode in="blur"/><feMergeNode in="SourceGraphic"/></feMerge></filter></defs><path fill="#f50" d="M32 60C18 58 8 48 8 38c0-12 8-18 10-24s0-11 0-11c4 4 5 9 4 13 4-6 6-11 10-14 0 6-2 12 0 16 2-6 6-10 10-14-2 6-4 12-2 17 2-6 6-10 10-11-2 6-4 12-4 18 4-6 8-8 10-6 0 8-4 14-4 20 0 10-8 16-20 18" filter="url(#a)" opacity=".4"/><path fill="url(#b)" d="M32 60C18 58 8 48 8 38c0-12 8-18 10-24s0-11 0-11c4 4 5 9 4 13 4-6 6-11 10-14 0 6-2 12 0 16 2-6 6-10 10-14-2 6-4 12-2 17 2-6 6-10 10-11-2 6-4 12-4 18 4-6 8-8 10-6 0 8-4 14-4 20 0 10-8 16-20 18"/><path fill="url(#c)" d="M32 58c-10-2-18-10-18-18s5-14 6-20c2-6 1-10 1-10 3 4 4 9 3 13 3-6 5-11 8-14 0 5-1 10 1 14 2-6 5-10 8-13-2 6-3 12-2 17 3-5 6-7 8-6-1 7-3 12-3 17 0 12-4 18-12 20"/><path fill="url(#d)" d="M32 56c-8-2-12-8-12-14s4-10 5-15c2-5 1-9 1-9 2 3 3 7 2 10 2-5 3-9 4-11 0 4 0 9 1 12 2-5 4-8 6-10-1 4-2 9-1 13 2-5 4-7 5-6 0 6-2 11-2 15q0 13.5-9 15" opacity=".9"/></svg>