<svg xmlns="http://www.w3.org/2000/svg" viewBox="0 0 128 128"><defs><filter id="c" width="190%" height="150%" x="-45%" y="-25%"><feGaussianBlur result="blur" stdDeviation="6"/><feMerge><feMergeNode in="blur"/><feMergeNode in="blur"/><feMergeNode in="SourceGraphic"/></feMerge></filter><filter id="e" width="165%" height="160%" x="-25%" y="-20%"><feDropShadow dx="3" dy="6" flood-color="#003080" flood-opacity=".5" stdDeviation="6"/></filter><filter id="g" width="160%" height="160%" x="-30%" y="-30%"><feGaussianBlur result="blur" stdDeviation="3"/><feComposite in="SourceGraphic" in2="blur"/></filter><filter id="h" width="300%" height="300%" x="-100%" y="-100%"><feGaussianBlur result="blur" stdDeviation="3"/><feMerge><feMergeNode in="blur"/><feMergeNode in="SourceGraphic"/></feMerge></filter><radialGradient id="b" cx="50%" cy="50%" r="50%"><stop offset="0%" stop-color="#c0f8ff" stop-opacity=".65"/><stop offset="60%" stop-color="#4080ff" stop-opacity=".3"/><stop offset="100%" stop-color="#0020cc" stop-opacity="0"/></radialGradient><radialGradient id="a" cx="50%" cy="50%" r="50%"><stop offset="0%" stop-color="#0020aa" stop-opacity=".3"/><stop offset="100%" stop-color="#0020aa" stop-opacity="0"/></radialGradient><linearGradient id="d" x1="45%" x2="55%" y1="0%" y2="100%"><stop offset="0%" stop-color="#fffde8"/><stop offset="25%" stop-color="#fff040"/><stop offset="60%" stop-color="#ffd000"/><stop offset="88%" stop-color="#ffb800"/><stop offset="100%" stop-color="#ff9000"/></linearGradient><linearGradient id="f" x1="30%" x2="70%" y1="0%" y2="100%"><stop offset="0%" stop-color="#fff" stop-opacity=".8"/><stop offset="50%" stop-color="#fff" stop-opacity=".35"/><stop offset="100%" stop-color="#fff" stop-opacity="0"/></linearGradient></defs><ellipse cx="55" cy="122" fill="url(#a)" rx="38" ry="8"/><ellipse cx="60" cy="66" fill="url(#b)" rx="52" ry="58"/><path fill="#a0f8ff" d="M80 6 50 62h20l-32 60 38-70H56Z" filter="url(#c)" opacity=".6"/><path fill="url(#d)" stroke="#fff" stroke-linejoin="round" stroke-width="1.2" d="M80 6 50 62h20l-32 60 38-70H56Z" filter="url(#e)"/><path fill="url(#f)" d="M79 8 58 50h12l4-42Z" filter="url(#g)"/><g fill="none" stroke="#e0ffff" stroke-linecap="round" filter="url(#h)"><path stroke-width="1.8" d="m75 14 9-6 6 6" opacity=".8"/><path stroke-width="1.5" d="m68 30 10-8 7 4" opacity=".65"/><path stroke-width="1.8" d="m44 108-9 8-5-6" opacity=".75"/><path stroke-width="1.5" d="m48 94-10 6-5-6" opacity=".6"/></g><g stroke="#fe0" stroke-linecap="round" stroke-width="1.2" filter="url(#h)" opacity=".55"><path d="m76 18 12-8M42 112l-10 6"/></g></svg>