<svg xmlns="http://www.w3.org/2000/svg" width="120" height="140" viewBox="0 0 120 140"><defs><radialGradient id="f" cx="40%" cy="35%" r="65%"><stop offset="0%" stop-color="#f8d090"/><stop offset="30%" stop-color="#e09850"/><stop offset="65%" stop-color="#cd8040"/><stop offset="100%" stop-color="#8b4a10"/></radialGradient><radialGradient id="d" cx="50%" cy="50%" r="50%"><stop offset="75%" stop-color="#8b4a10"/><stop offset="85%" stop-color="#b06020"/><stop offset="100%" stop-color="#6a3208"/></radialGradient><radialGradient id="g" cx="40%" cy="30%" r="70%"><stop offset="0%" stop-color="#fff"/><stop offset="25%" stop-color="#f8e8c0"/><stop offset="100%" stop-color="#f0c080"/></radialGradient><linearGradient id="a" x1="0%" x2="100%" y1="0%" y2="100%"><stop offset="0%" stop-color="#e09060"/><stop offset="50%" stop-color="#cd8040"/><stop offset="100%" stop-color="#7a3e10"/></linearGradient><linearGradient id="b" x1="100%" x2="0%" y1="0%" y2="100%"><stop offset="0%" stop-color="#e09060"/><stop offset="50%" stop-color="#cd8040"/><stop offset="100%" stop-color="#7a3e10"/></linearGradient><linearGradient id="c" x1="0%" x2="100%" y1="0%" y2="100%"><stop offset="0%" stop-color="#f0c080"/><stop offset="40%" stop-color="#cd8040"/><stop offset="100%" stop-color="#8b4a10"/></linearGradient><filter id="e" width="140%" height="140%" x="-20%" y="-20%"><feDropShadow dx="0" dy="3" flood-color="#5a2000" flood-opacity=".55" stdDeviation="4"/></filter><filter id="h" width="160%" height="160%" x="-30%" y="-30%"><feGaussianBlur result="blur" stdDeviation="2.3"/><feComposite in="SourceGraphic" in2="blur"/></filter><filter id="i" width="110%" height="110%" x="-5%" y="-5%"><feGaussianBlur result="blur" stdDeviation="1.5"/><feComposite in="SourceGraphic" in2="blur"/></filter></defs><path fill="url(#a)" d="M42 6h13v36H36z"/><path stroke="#f0c080" stroke-width=".6" d="M40 10h13" opacity=".55"/><path stroke="#f0c080" stroke-width=".6" d="M39 15h14" opacity=".45"/><path stroke="#f0c080" stroke-width=".6" d="M38 20h15" opacity=".38"/><path stroke="#f0c080" stroke-width=".6" d="M37 25h16" opacity=".3"/><path stroke="#f0c080" stroke-width=".6" d="M37 30h16" opacity=".25"/><path stroke="#f0c080" stroke-width=".6" d="M36 35h17" opacity=".2"/><path stroke="#7a3e10" stroke-width=".8" d="m42 6-6 36" opacity=".7"/><path fill="url(#b)" d="M65 6h13l6 36H65z"/><path stroke="#f0c080" stroke-width=".6" d="M67 10h13" opacity=".55"/><path stroke="#f0c080" stroke-width=".6" d="M67 15h14" opacity=".45"/><path stroke="#f0c080" stroke-width=".6" d="M67 20h15" opacity=".38"/><path stroke="#f0c080" stroke-width=".6" d="M67 25h16" opacity=".3"/><path stroke="#f0c080" stroke-width=".6" d="M67 30h16" opacity=".25"/><path stroke="#f0c080" stroke-width=".6" d="M67 35h17" opacity=".2"/><path stroke="#7a3e10" stroke-width=".8" d="m78 6 6 36" opacity=".7"/><circle cx="60" cy="46" r="8" fill="none" stroke="url(#c)" stroke-width="4"/><path fill="none" stroke="#f8deb0" stroke-width="1.5" d="M54 42a8 8 0 0 1 12 0" opacity=".7"/><circle cx="60" cy="95" r="44" fill="url(#d)" filter="url(#e)"/><circle cx="60" cy="95" r="42" fill="none" stroke="#c07030" stroke-dasharray="3.2,2.1" stroke-width="2.5"/><circle cx="60" cy="95" r="40" fill="url(#f)"/><circle cx="60" cy="95" r="38" fill="none" stroke="#f0c080" stroke-width="1.2" opacity=".5"/><circle cx="60" cy="95" r="36.5" fill="none" stroke="#8b4a10" stroke-width=".7" opacity=".6"/><ellipse cx="47" cy="82" fill="#fff" opacity=".35" rx="14" ry="9" transform="rotate(-30 47 82)"/><path fill="url(#g)" stroke="#8b4a10" stroke-width=".8" d="m60 73 3.5 11H75l-9.3 6.5 3.5 11L60 95l-9.2 6.5 3.5-11L45 84h11.5z" filter="url(#h)"/><path fill="#fff" d="m60 73 2 6h5l-4 3 1.5 6-4.5-3-4.5 3 1.5-6-4-3h5z" opacity=".22"/><text x="60" y="117" fill="#4a1800" filter="url(#i)" font-family="Impact, Arial Black, sans-serif" font-size="26" font-weight="bold" text-anchor="middle">3</text><text x="59" y="116" fill="#f8deb0" font-family="Impact, Arial Black, sans-serif" font-size="26" font-weight="bold" opacity=".25" text-anchor="middle">3</text><circle cx="60" cy="95" r="40" fill="none" stroke="#cd8040" opacity=".2"/><circle cx="60" cy="95" r="43" fill="none" stroke="#cd8040" stroke-width=".5" opacity=".1"/></svg>