<svg xmlns="http://www.w3.org/2000/svg" viewBox="0 0 128 128"><defs><filter id="b" width="180%" height="180%" x="-40%" y="-40%"><feGaussianBlur result="blur" stdDeviation="7"/><feMerge><feMergeNode in="blur"/><feMergeNode in="blur"/><feMergeNode in="SourceGraphic"/></feMerge></filter><filter id="j" width="220%" height="220%" x="-60%" y="-60%"><feGaussianBlur result="blur" stdDeviation="4"/><feMerge><feMergeNode in="blur"/><feMergeNode in="SourceGraphic"/></feMerge></filter><filter id="c" width="150%" height="150%" x="-20%" y="-20%"><feDropShadow dx="2" dy="5" flood-color="#002208" flood-opacity=".7" stdDeviation="6"/></filter><filter id="h" width="160%" height="160%" x="-30%" y="-30%"><feGaussianBlur result="blur" stdDeviation="3"/><feComposite in="SourceGraphic" in2="blur"/></filter><filter id="k"><feGaussianBlur stdDeviation="2.5"/></filter><radialGradient id="e" cx="40%" cy="30%" r="65%" fx="38%" fy="28%"><stop offset="0%" stop-color="#1e3a24"/><stop offset="40%" stop-color="#0d1e12"/><stop offset="80%" stop-color="#050e08"/><stop offset="100%" stop-color="#020704"/></radialGradient><radialGradient id="i" cx="40%" cy="40%" r="60%"><stop offset="0%" stop-color="#00ff60" stop-opacity=".95"/><stop offset="45%" stop-color="#00cc48" stop-opacity=".75"/><stop offset="80%" stop-color="#004820" stop-opacity=".5"/><stop offset="100%" stop-color="#001008" stop-opacity=".2"/></radialGradient><radialGradient id="a" cx="50%" cy="50%" r="50%"><stop offset="0%" stop-color="#002208" stop-opacity=".5"/><stop offset="100%" stop-color="#002208" stop-opacity="0"/></radialGradient><linearGradient id="f" x1="0%" x2="0%" y1="0%" y2="100%"><stop offset="0%" stop-color="#b8ffc8"/><stop offset="55%" stop-color="#60cc80"/><stop offset="100%" stop-color="#226634"/></linearGradient><linearGradient id="d" x1="0%" x2="100%" y1="0%" y2="100%"><stop offset="0%" stop-color="#3a6040"/><stop offset="50%" stop-color="#1e3a24"/><stop offset="100%" stop-color="#0d1810"/></linearGradient></defs><ellipse cx="64" cy="124" fill="url(#a)" rx="34" ry="7"/><ellipse cx="64" cy="56" fill="#00ff60" filter="url(#b)" opacity=".14" rx="46" ry="44"/><g filter="url(#c)" opacity=".8"><path stroke="url(#d)" stroke-linecap="round" stroke-width="9" d="m26 90 76 28"/><circle cx="26" cy="90" r="7" fill="url(#d)" stroke="#00ff60" stroke-opacity=".4"/><circle cx="102" cy="118" r="7" fill="url(#d)" stroke="#00ff60" stroke-opacity=".4"/><path stroke="url(#d)" stroke-linecap="round" stroke-width="9" d="m102 90-76 28"/><circle cx="102" cy="90" r="7" fill="url(#d)" stroke="#00ff60" stroke-opacity=".4"/><circle cx="26" cy="118" r="7" fill="url(#d)" stroke="#00ff60" stroke-opacity=".4"/></g><path stroke="#00ff60" stroke-linecap="round" stroke-width="1.5" d="m26 90 76 28m0-28-76 28" opacity=".35"/><ellipse cx="64" cy="54" fill="url(#e)" stroke="#00ff60" stroke-opacity=".55" stroke-width="2" filter="url(#c)" rx="40" ry="38"/><path fill="url(#e)" stroke="#00ff60" stroke-opacity=".5" stroke-width="1.8" d="M30 74q-2 26 34 28 36-2 34-28Z"/><path stroke="#00ff60" stroke-opacity=".4" stroke-width="1.5" d="M28 78h72"/><g fill="url(#f)" stroke="#00ff60" stroke-opacity=".55" stroke-width="1.2" filter="url(#h)"><rect width="10" height="14" x="36" y="82" rx="3"/><rect width="10" height="16" x="48" y="82" rx="3"/><rect width="10" height="17" x="60" y="82" rx="3"/><rect width="10" height="16" x="72" y="82" rx="3"/><rect width="8" height="13" x="84" y="82" rx="3"/></g><ellipse cx="44" cy="52" fill="#010804" rx="14" ry="16"/><ellipse cx="44" cy="52" fill="url(#i)" filter="url(#j)" rx="11" ry="13"/><ellipse cx="44" cy="52" fill="#000f04" rx="5" ry="6"/><ellipse cx="84" cy="52" fill="#010804" rx="14" ry="16"/><ellipse cx="84" cy="52" fill="url(#i)" filter="url(#j)" rx="11" ry="13"/><ellipse cx="84" cy="52" fill="#000f04" rx="5" ry="6"/><path fill="#010804" stroke="#00ff60" stroke-opacity=".4" d="m57 68 7-10 7 10q0 8-7 8t-7-8Z"/><ellipse cx="48" cy="32" fill="#00ff60" filter="url(#k)" opacity=".18" rx="14" ry="9" transform="rotate(-20 48 32)"/><ellipse cx="46" cy="30" fill="#8fa" opacity=".35" rx="6" ry="3.5" transform="rotate(-20 46 30)"/></svg>