<svg xmlns="http://www.w3.org/2000/svg" viewBox="0 0 48 48"><defs><filter id="e" width="220%" height="220%" x="-60%" y="-60%"><feDropShadow dx="0" dy="0" flood-color="#ff4040" flood-opacity=".8" stdDeviation="2.5"/></filter><filter id="d" width="160%" height="160%" x="-30%" y="-30%"><feGaussianBlur result="blur" stdDeviation="3"/><feComposite in="SourceGraphic" in2="blur"/></filter><filter id="b" width="150%" height="150%" x="-20%" y="-20%"><feDropShadow dx="1" dy="2" flood-color="#000" flood-opacity=".45" stdDeviation="2.5"/></filter><linearGradient id="a" x1="0%" x2="100%" y1="0%" y2="100%"><stop offset="0%" stop-color="#909ea8"/><stop offset="50%" stop-color="#5a6870"/><stop offset="100%" stop-color="#2c3840"/></linearGradient><linearGradient id="c" x1="0%" x2="100%" y1="0%" y2="100%"><stop offset="0%" stop-color="#8a9aa4"/><stop offset="55%" stop-color="#4a5a62"/><stop offset="100%" stop-color="#20303a"/></linearGradient></defs><rect width="12" height="16" x="4" y="16" fill="url(#a)" stroke="#303c44" stroke-width="1.2" filter="url(#b)" opacity=".7" rx="2.5"/><rect width="3.5" height="7" x="5" y="17" fill="#fff" opacity=".18" rx="1.5"/><path fill="url(#c)" stroke="#283038" stroke-linejoin="round" stroke-width="1.2" d="m16 14 10-8v36l-10-8Z" filter="url(#b)" opacity=".7"/><path stroke="#f22" stroke-linecap="round" stroke-width="7" d="m28 30 14-16" filter="url(#d)" opacity=".3"/><path stroke="#f22" stroke-linecap="round" stroke-width="7" d="m28 14 14 16" filter="url(#d)" opacity=".3"/><path stroke="#ff5050" stroke-linecap="round" stroke-width="3.5" d="m28 30 14-16" filter="url(#e)"/><path stroke="#ff5050" stroke-linecap="round" stroke-width="3.5" d="m28 14 14 16" filter="url(#e)"/><path stroke="#faa" stroke-linecap="round" stroke-width="1.2" d="m28 30 14-16m-14 0 14 16" opacity=".7"/></svg>