<svg xmlns="http://www.w3.org/2000/svg" viewBox="0 0 48 48"><defs><filter id="d" width="200%" height="200%" x="-50%" y="-50%"><feDropShadow dx="0" dy="0" flood-color="#40d8ff" flood-opacity=".85" stdDeviation="2"/></filter><filter id="e" width="160%" height="160%" x="-30%" y="-30%"><feGaussianBlur result="blur" stdDeviation="3"/><feComposite in="SourceGraphic" in2="blur"/></filter><filter id="b" width="150%" height="150%" x="-20%" y="-20%"><feDropShadow dx="1" dy="2" flood-color="#003050" flood-opacity=".55" stdDeviation="2.5"/></filter><linearGradient id="a" x1="0%" x2="100%" y1="0%" y2="100%"><stop offset="0%" stop-color="#e8f8ff"/><stop offset="45%" stop-color="#70ccee"/><stop offset="100%" stop-color="#1888aa"/></linearGradient><linearGradient id="c" x1="0%" x2="100%" y1="0%" y2="100%"><stop offset="0%" stop-color="#ccf0ff"/><stop offset="55%" stop-color="#40c8ee"/><stop offset="100%" stop-color="#0a6888"/></linearGradient></defs><rect width="12" height="16" x="4" y="16" fill="url(#a)" stroke="#006080" stroke-width="1.2" filter="url(#b)" rx="2.5"/><rect width="3.5" height="7" x="5" y="17" fill="#fff" opacity=".45" rx="1.5"/><path fill="url(#c)" stroke="#005878" stroke-linejoin="round" stroke-width="1.2" d="m16 14 10-8v36l-10-8Z" filter="url(#b)"/><path fill="#fff" d="m16 16 8-7v11l-8 4Z" opacity=".28"/><path fill="none" stroke="#40d8ff" stroke-linecap="round" stroke-width="2.8" d="M30 18q4 6 0 12" filter="url(#d)"/><path fill="none" stroke="#40d8ff" stroke-linecap="round" stroke-width="2.4" d="M34 14q6 10 0 20" filter="url(#d)" opacity=".85"/><path fill="none" stroke="#40d8ff" stroke-linecap="round" stroke-width="2" d="M38 10q8 14 0 28" filter="url(#d)" opacity=".6"/><path fill="none" stroke="#80eeff" stroke-linecap="round" stroke-width="6" d="M30 18q4 6 0 12" filter="url(#e)" opacity=".18"/></svg>