<svg xmlns="http://www.w3.org/2000/svg" viewBox="0 0 128 128"><defs><filter id="e" width="170%" height="170%" x="-25%" y="-25%"><feDropShadow dx="2" dy="6" flood-color="#830" flood-opacity=".65" stdDeviation="7"/></filter><filter id="h" width="160%" height="160%" x="-30%" y="-30%"><feGaussianBlur result="blur" stdDeviation="3"/><feComposite in="SourceGraphic" in2="blur"/></filter><filter id="c" width="170%" height="170%" x="-35%" y="-35%"><feGaussianBlur result="blur" stdDeviation="6"/><feMerge><feMergeNode in="blur"/><feMergeNode in="blur"/><feMergeNode in="SourceGraphic"/></feMerge></filter><filter id="b"><feGaussianBlur stdDeviation="2.5"/></filter><radialGradient id="g" cx="38%" cy="28%" r="60%" fx="35%" fy="25%"><stop offset="0%" stop-color="#fff" stop-opacity=".75"/><stop offset="45%" stop-color="#ffee80" stop-opacity=".2"/><stop offset="100%" stop-color="gold" stop-opacity="0"/></radialGradient><radialGradient id="a" cx="50%" cy="50%" r="50%"><stop offset="50%" stop-color="gold" stop-opacity="0"/><stop offset="75%" stop-color="#fa0" stop-opacity=".4"/><stop offset="100%" stop-color="#f60" stop-opacity="0"/></radialGradient><linearGradient id="d" x1="0%" x2="0%" y1="0%" y2="100%"><stop offset="0%" stop-color="#fffce0"/><stop offset="18%" stop-color="#ffe840"/><stop offset="45%" stop-color="gold"/><stop offset="75%" stop-color="#ffa800"/><stop offset="100%" stop-color="#ff7200"/></linearGradient><linearGradient id="f" x1="0%" x2="0%" y1="0%" y2="100%"><stop offset="0%" stop-color="#fff" stop-opacity="0"/><stop offset="60%" stop-color="#a50" stop-opacity="0"/><stop offset="100%" stop-color="#620" stop-opacity=".45"/></linearGradient></defs><circle cx="64" cy="64" r="64" fill="url(#a)"/><path fill="#420" d="m64 7 24.8 33.3 29.4 17.2-26.8 36.6 5.9 26.9L64 76.7 30.7 121l5.9-26.9L9.8 57.5l29.4-17.2z" filter="url(#b)" opacity=".4" transform="translate(4 10)"/><path fill="gold" d="m64 7 24.8 33.3 29.4 17.2-26.8 36.6 5.9 26.9L64 76.7 30.7 121l5.9-26.9L9.8 57.5l29.4-17.2z" filter="url(#c)" opacity=".45"/><path fill="url(#d)" stroke="#c60" stroke-linejoin="round" stroke-width="1.8" d="m64 7 24.8 33.3 29.4 17.2-26.8 36.6 5.9 26.9L64 76.7 30.7 121l5.9-26.9L9.8 57.5l29.4-17.2z" filter="url(#e)"/><path fill="url(#f)" d="m64 7 24.8 33.3 29.4 17.2-26.8 36.6 5.9 26.9L64 76.7 30.7 121l5.9-26.9L9.8 57.5l29.4-17.2z"/><path fill="url(#g)" d="m64 7 24.8 33.3 29.4 17.2-26.8 36.6 5.9 26.9L64 76.7 30.7 121l5.9-26.9L9.8 57.5l29.4-17.2z" filter="url(#h)"/><ellipse cx="48" cy="38" fill="#fff" filter="url(#b)" opacity=".38" rx="26" ry="9" transform="rotate(-32 48 38)"/><path stroke="#fff" stroke-linecap="round" stroke-width="2.5" d="m30 58 42-40" filter="url(#b)" opacity=".3"/><path fill="#ffee60" d="m64 30 12.5 23.5H103L81.5 68l8 24L64 77 38.5 92l8-24L25 53.5h26.5z" filter="url(#h)" opacity=".1"/></svg>