<svg xmlns="http://www.w3.org/2000/svg" preserveAspectRatio="xMidYMid slice" viewBox="0 0 3840 2160"><defs><radialGradient id="b" cx="50%" cy="85%" r="65%" gradientUnits="userSpaceOnUse"><stop offset="0%" stop-color="#f08020" stop-opacity=".55"/><stop offset="45%" stop-color="#a83c0c" stop-opacity=".25"/><stop offset="100%" stop-color="#180402" stop-opacity="0"/></radialGradient><radialGradient id="d" cx="50%" cy="95%" r="50%" gradientUnits="userSpaceOnUse"><stop offset="0%" stop-color="#f03810" stop-opacity=".7"/><stop offset="60%" stop-color="#901804" stop-opacity=".3"/><stop offset="100%" stop-color="#100302" stop-opacity="0"/></radialGradient><radialGradient id="f" cx="35%" cy="75%" r="40%" gradientUnits="userSpaceOnUse"><stop offset="0%" stop-color="#a04828" stop-opacity=".4"/><stop offset="100%" stop-color="#180402" stop-opacity="0"/></radialGradient><radialGradient id="g" cx="50%" cy="100%" r="55%" gradientUnits="userSpaceOnUse"><stop offset="0%" stop-color="#ffb060" stop-opacity=".9"/><stop offset="25%" stop-color="#f08020" stop-opacity=".7"/><stop offset="60%" stop-color="#a83c0c" stop-opacity=".4"/><stop offset="100%" stop-color="#180402" stop-opacity="0"/></radialGradient><radialGradient id="l" cx="50%" cy="100%" r="35%" gradientUnits="userSpaceOnUse"><stop offset="0%" stop-color="#ffb060"/><stop offset="40%" stop-color="#f08020" stop-opacity=".8"/><stop offset="100%" stop-color="#901804" stop-opacity="0"/></radialGradient><radialGradient id="o" cx="50%" cy="50%" r="72%" gradientUnits="userSpaceOnUse"><stop offset="30%" stop-opacity="0"/><stop offset="100%" stop-opacity=".92"/></radialGradient><radialGradient id="m" cx="22%" cy="6%" r="28%" gradientUnits="userSpaceOnUse"><stop offset="0%" stop-color="#ffb060" stop-opacity=".35"/><stop offset="100%" stop-color="#180402" stop-opacity="0"/></radialGradient><filter id="i" width="220%" height="220%" x="-60%" y="-60%"><feGaussianBlur in="SourceGraphic" result="b1" stdDeviation="10"/><feGaussianBlur in="SourceGraphic" result="b2" stdDeviation="28"/><feColorMatrix in="b1" result="c1" values="0 0 0 0 0.94 0 0 0 0 0.50 0 0 0 0 0.13 0 0 0 2.2 0"/><feColorMatrix in="b2" result="c2" values="0 0 0 0 0.94 0 0 0 0 0.50 0 0 0 0 0.13 0 0 0 0.9 0"/><feMerge><feMergeNode in="c2"/><feMergeNode in="c1"/><feMergeNode in="SourceGraphic"/></feMerge></filter><filter id="p" width="100%" height="100%" x="0%" y="0%"><feTurbulence baseFrequency=".65" numOctaves="4" result="n" stitchTiles="stitch" type="fractalNoise"/><feColorMatrix in="n" result="gn" type="saturate" values="0"/><feBlend in="SourceGraphic" in2="gn" mode="overlay" result="bl"/><feComposite in="bl" in2="SourceGraphic" operator="in"/></filter><filter id="h" width="130%" height="130%" x="-15%" y="-15%"><feGaussianBlur stdDeviation="5"/></filter><filter id="c" width="160%" height="160%" x="-30%" y="-30%"><feGaussianBlur stdDeviation="18"/></filter><filter id="e" width="140%" height="140%" x="-20%" y="-20%"><feGaussianBlur stdDeviation="9"/></filter><filter id="k"><feTurbulence baseFrequency="0.009 0.005" numOctaves="4" result="t" seed="6"/><feDisplacementMap in="SourceGraphic" in2="t" scale="35" xChannelSelector="R" yChannelSelector="G"/></filter><filter id="n"><feTurbulence baseFrequency="0.4 0.2" numOctaves="5" result="n" seed="9" type="fractalNoise"/><feColorMatrix in="n" result="colored" values="0.2 0 0 0 0.2 0 0.1 0 0 0.05 0 0 0.05 0 0.02 0 0 0 0.5 0"/><feBlend in="SourceGraphic" in2="colored" mode="multiply"/></filter><linearGradient id="a" x1="0%" x2="0%" y1="0%" y2="100%"><stop offset="0%" stop-color="#100302"/><stop offset="25%" stop-color="#180402"/><stop offset="55%" stop-color="#240804"/><stop offset="80%" stop-color="#a83c0c"/><stop offset="100%" stop-color="#f08020"/></linearGradient><linearGradient id="j" x1="0%" x2="100%" y1="0%" y2="0%"><stop offset="0%" stop-color="#f08020" stop-opacity=".9"/><stop offset="50%" stop-color="#ffb060"/><stop offset="100%" stop-color="#f08020" stop-opacity=".9"/></linearGradient></defs><path fill="url(#a)" d="M0 0h3840v2160H0z"/><path fill="url(#b)" d="M0 0h3840v2160H0z" filter="url(#c)" opacity=".9"/><path fill="url(#d)" d="M0 0h3840v2160H0z" filter="url(#e)" opacity=".75"/><path fill="url(#f)" d="M0 0h3840v2160H0z" filter="url(#e)" opacity=".6"/><path fill="url(#g)" d="M0 0h3840v2160H0z" filter="url(#c)" opacity=".7"/><g filter="url(#c)" opacity=".65"><path fill="#1c0604" d="M0 1400q300-300 600-50t600-50 600-100 600-100 600-50 840 100v1010H0Z"/><path fill="#240804" d="M0 1600q400-250 800-100t800-80 800-40 800 20q320-140 640-20v780H0Z"/></g><g stroke-linecap="round" filter="url(#h)" opacity=".3"><path stroke="#3c1008" stroke-width="2" d="m200 1650 280 250m0-250-280 250m450-320 280 250m0-250-280 250m450-310 280 250m0-250-280 250m500-220 280 250m0-250-280 250m500-300 280 250m0-250-280 250m500-190 280 250m0-250-280 250m450-290 280 250m0-250-280 250m450-190 280 250m0-250-280 250"/><path fill="none" stroke="#5c1808" stroke-width="2.5" d="M400 1700q20 50-10 100t-10 120m520-290q30 60 10 130t10 140m580-240q20 60-10 140t-10 160m720-380q30 70 0 160t0 180m600-280q20 60 0 140t10 160m590-280q20 70-10 160t0 170"/></g><g fill="none" filter="url(#i)"><path stroke="url(#j)" stroke-width="5" d="M0 1800q300-50 600 20t600 10 600 20 600 20 600 10 840 20" opacity=".85"/><path stroke="#f08020" stroke-width="4" d="M0 1900q400-60 800 10t800 10 800 20 800 20 640 10" opacity=".75"/><path stroke="#ffb060" stroke-width="3" d="M200 1750q150-30 300 30t300 10m300-90q150-40 300 20t300 10m200-10q150-40 300 20t300 10m200-50q150-40 300 20t300 10" opacity=".8"/><path stroke="#ffb060" stroke-width="3" d="M3500 1720q120-40 340 40" opacity=".75"/><path stroke="#f03810" stroke-width="2" d="M600 1820q-20-40-40-70t-50-50m690 130q-20-40-40-70t-50-50m690 140q20-40 40-75t60-55m500 150q-20-40-40-70t-50-55m690 135q20-40 40-75t60-55" opacity=".7"/></g><path fill="#100302" d="M0 0h3840v700H0z" filter="url(#c)" opacity=".8"/><path fill="#0a0201" d="M0 0h3840v400H0z" opacity=".9"/><g filter="url(#c)" opacity=".6"><ellipse cx="600" cy="400" fill="#180402" rx="700" ry="400"/><ellipse cx="1500" cy="350" fill="#240804" rx="800" ry="380"/><ellipse cx="2400" cy="420" fill="#180402" rx="750" ry="390"/><ellipse cx="3300" cy="380" fill="#240804" rx="720" ry="370"/><ellipse cx="1000" cy="300" fill="#100302" rx="600" ry="350"/><ellipse cx="2000" cy="280" fill="#180402" rx="650" ry="360"/><ellipse cx="3000" cy="320" fill="#100302" rx="630" ry="355"/></g><path fill="#f08020" d="M0 1600h3840v560H0z" filter="url(#k)" opacity=".04"/><g filter="url(#i)"><circle cx="400" cy="1600" r="4" fill="#f08020" opacity=".9"/><circle cx="620" cy="1450" r="3" fill="#ffb060" opacity=".85"/><circle cx="850" cy="1300" r="5" fill="#f08020" opacity=".92"/><circle cx="1080" cy="1180" r="3" fill="#ffb060" opacity=".8"/><circle cx="1300" cy="1060" r="4" fill="#f08020" opacity=".88"/><circle cx="1550" cy="940" r="2" fill="#ffb060" opacity=".75"/><circle cx="1780" cy="820" r="3" fill="#f08020" opacity=".82"/><circle cx="2010" cy="700" r="4" fill="#ffb060" opacity=".78"/><circle cx="500" cy="1200" r="3" fill="#f03810" opacity=".78"/><circle cx="750" cy="1050" r="4" fill="#f08020" opacity=".82"/><circle cx="980" cy="900" r="2" fill="#ffb060" opacity=".72"/><circle cx="1220" cy="760" r="3" fill="#f08020" opacity=".78"/><circle cx="330" cy="1400" r="4" fill="#ffb060" opacity=".85"/><circle cx="700" cy="1200" r="3" fill="#f03810" opacity=".75"/><circle cx="960" cy="1050" r="5" fill="#f08020" opacity=".88"/><circle cx="1180" cy="900" r="3" fill="#ffb060" opacity=".78"/><circle cx="1480" cy="1500" r="4" fill="#f08020" opacity=".88"/><circle cx="1720" cy="1350" r="3" fill="#ffb060" opacity=".82"/><circle cx="1960" cy="1200" r="5" fill="#f08020" opacity=".9"/><circle cx="2200" cy="1080" r="3" fill="#ffb060" opacity=".78"/><circle cx="2420" cy="960" r="4" fill="#f08020" opacity=".85"/><circle cx="2660" cy="840" r="2" fill="#ffb060" opacity=".72"/><circle cx="2880" cy="720" r="3" fill="#f08020" opacity=".78"/><circle cx="1580" cy="1250" r="3" fill="#f03810" opacity=".75"/><circle cx="1820" cy="1100" r="4" fill="#f08020" opacity=".82"/><circle cx="2050" cy="950" r="2" fill="#ffb060" opacity=".7"/><circle cx="2280" cy="800" r="3" fill="#f08020" opacity=".75"/><circle cx="2480" cy="1500" r="4" fill="#f08020" opacity=".88"/><circle cx="2720" cy="1350" r="3" fill="#ffb060" opacity=".82"/><circle cx="2960" cy="1200" r="5" fill="#f08020" opacity=".9"/><circle cx="3180" cy="1080" r="3" fill="#ffb060" opacity=".78"/><circle cx="3400" cy="1600" r="4" fill="#f08020" opacity=".88"/><circle cx="3620" cy="1420" r="3" fill="#ffb060" opacity=".82"/><circle cx="3200" cy="1450" r="5" fill="#f08020" opacity=".9"/><circle cx="3450" cy="1300" r="3" fill="#ffb060" opacity=".78"/><circle cx="2600" cy="600" r="3" fill="#ffb060" opacity=".65"/><circle cx="3000" cy="550" r="2" fill="#f08020" opacity=".6"/><circle cx="3400" cy="580" r="3" fill="#ffb060" opacity=".65"/><circle cx="200" cy="700" r="2" fill="#f08020" opacity=".58"/><circle cx="600" cy="650" r="3" fill="#ffb060" opacity=".62"/><circle cx="1100" cy="620" r="2" fill="#f08020" opacity=".58"/><circle cx="1600" cy="640" r="2" fill="#ffb060" opacity=".6"/><circle cx="2100" cy="620" r="3" fill="#f08020" opacity=".62"/></g><path fill="url(#l)" d="M0 0h3840v2160H0z" filter="url(#c)" opacity=".8"/><path fill="#f08020" d="M0 1950h3840v210H0z" filter="url(#e)" opacity=".55"/><path fill="#ffb060" d="M0 2050h3840v110H0z" filter="url(#h)" opacity=".45"/><ellipse cx="850" cy="160" fill="url(#m)" filter="url(#c)" opacity=".5" rx="700" ry="250"/><path fill="#240804" d="M0 1350h3840v810H0z" filter="url(#n)" opacity=".04"/><path fill="url(#o)" d="M0 0h3840v2160H0z"/><path fill="#a83c0c" d="M0 0h3840v2160H0z" filter="url(#p)" opacity=".03"/></svg>