<svg xmlns="http://www.w3.org/2000/svg" width="80" height="80" opacity=".85" viewBox="0 0 80 80"><defs><linearGradient id="a" x1="0%" x2="100%" y1="0%" y2="100%"><stop offset="0%" stop-color="#ff6f00"/><stop offset="50%" stop-color="#e53935"/><stop offset="100%" stop-color="#b71c1c"/></linearGradient><linearGradient id="c" x1="0%" x2="100%" y1="0%" y2="100%"><stop offset="0%" stop-color="#ffcc02"/><stop offset="60%" stop-color="#ff6f00"/><stop offset="100%" stop-color="#e53935"/></linearGradient><radialGradient id="d" cx="40%" cy="35%" r="60%"><stop offset="0%" stop-color="#546e7a"/><stop offset="100%" stop-color="#212121"/></radialGradient><filter id="b" width="140%" height="140%" x="-20%" y="-20%"><feDropShadow dx="1.5" dy="1.5" flood-color="#b71c1c" flood-opacity=".7" stdDeviation="2"/></filter></defs><path fill="url(#a)" d="M0 0c4 8 2 18 8 24s2 18 10 26c6 6 4 18 8 28l-4 2H0z" filter="url(#b)" opacity=".9"/><path fill="none" stroke="url(#c)" stroke-linecap="round" stroke-width="4" d="M0 0c3 6 1 16 6 22 4 6 2 16 8 24 4 6 3 18 6 30" filter="url(#b)"/><path fill="url(#a)" d="M0 0c10 4 22 6 28 16s20 12 28 24c6 10 16 18 24 22v-4c-8-4-16-12-22-22-8-12-22-14-28-24C24 4 12 2 0 0" filter="url(#b)" opacity=".75"/><path fill="none" stroke="#ffee58" stroke-linecap="round" stroke-width="1.5" d="M0 0c12 3 24 5 30 14 6 10 20 12 28 24 6 10 16 18 22 22" opacity=".8"/><g filter="url(#b)"><path fill="url(#d)" d="M36 52c-4-4-6-8-2-10s10 0 12 4 0 9-4 10c-2 1-5-2-6-4"/><path fill="url(#d)" d="M56 28c-3-4-4-8-1-9s8 1 9 4-1 7-4 7c-2 0-3-1-4-2"/><path fill="#37474f" d="M18 62c-2-3-2-6 0-7s5 1 5 4c0 2-2 4-4 4Z"/><ellipse cx="66" cy="48" fill="#37474f" rx="4" ry="3" transform="rotate(-15 66 48)"/></g><g fill="#ffcc02" opacity=".9"><path d="m48 18 2-4 2 4-4-2zm14-6 2-4 2 4-4-2zm10 10 2-4 2 4-4-2z"/><circle cx="44" cy="10" r="1.5"/><circle cx="58" cy="6" r="1.2"/></g></svg>