<svg xmlns="http://www.w3.org/2000/svg" height="20" opacity=".9" viewBox="0 0 400 20"><defs><filter id="b" width="140%" height="140%" x="-20%" y="-20%"><feDropShadow dx="0" dy="0" flood-color="#f40" flood-opacity=".9" stdDeviation="2"/></filter><filter id="c" width="200%" height="200%" x="-50%" y="-50%"><feDropShadow dx="0" dy="0" flood-color="#fa0" flood-opacity="1" stdDeviation="1.2"/></filter><linearGradient id="a" x1="0" x2="0" y1="0" y2="1"><stop offset="0%" stop-color="#f60"/><stop offset="50%" stop-color="#c20"/><stop offset="100%" stop-color="#600"/></linearGradient></defs><path fill="#1a0000" d="M0 0h400v20H0z"/><path fill="url(#a)" d="m0 16 8-6 6 5 8-7 8 6 10-7 10 6 8-4 8 6 9-7 9 5 8-7 8 6 10-4 8 6 8-7 9 6 8-4 7 6 10-8 8 5 8-4 9 6 8-7 7 6 10-4 8 6 8-7 8 4 9-5 9 7 8-5 8 6 8-7 9 5 8-6 7 7 10-5 8 6 8-7 8 4 9-5 7 6 8-4 8 6 8-7 8 5 8-4 10 6v5H0Z" filter="url(#b)"/><path fill="none" stroke="#fc0" stroke-width=".8" d="m0 16 8-6 6 5 8-7 8 6 10-7 10 6 8-4 8 6 9-7 9 5 8-7 8 6 10-4 8 6 8-7 9 6 8-4 7 6 10-8 8 5 8-4 9 6 8-7 7 6 10-4 8 6 8-7 8 4 9-5 9 7 8-5 8 6 8-7 9 5 8-6 7 7 10-5 8 6 8-7 8 4 9-5 7 6 8-4 8 6 8-7 8 5 8-4 10 6" opacity=".7"/><circle cx="25" cy="5" r="1.4" fill="#fd0" filter="url(#c)"/><circle cx="55" cy="3" r="1" fill="#f80" filter="url(#c)"/><circle cx="95" cy="4" r="1.6" fill="#fc0" filter="url(#c)"/><circle cx="140" cy="2" r="1.1" fill="#fa0" filter="url(#c)"/><circle cx="175" cy="5" r="1.3" fill="#fd0" filter="url(#c)"/><circle cx="220" cy="3" r="1" fill="#f80" filter="url(#c)"/><circle cx="265" cy="4" r="1.5" fill="#fc0" filter="url(#c)"/><circle cx="310" cy="2" r="1.2" fill="#fa0" filter="url(#c)"/><circle cx="350" cy="5" r="1" fill="#fd0" filter="url(#c)"/><circle cx="385" cy="3" r="1.4" fill="#f80" filter="url(#c)"/></svg>