<svg xmlns="http://www.w3.org/2000/svg" viewBox="0 0 80 56"><defs><linearGradient id="a" x1="0" x2="0" y1="0" y2="1"><stop offset="0%" stop-color="#380808"/><stop offset="100%" stop-color="#180402"/></linearGradient><linearGradient id="c" x1="0" x2="0" y1="0" y2="1"><stop offset="0%" stop-color="#3a1010"/><stop offset="100%" stop-color="#1a0808"/></linearGradient><linearGradient id="d" x1="0" x2="0" y1="0" y2="1"><stop offset="0%" stop-color="#ff6800"/><stop offset="100%" stop-color="#cc2000"/></linearGradient><radialGradient id="b" cx="50%" cy="0%" r="60%"><stop offset="0%" stop-color="#f40" stop-opacity=".6"/><stop offset="100%" stop-color="#f20" stop-opacity="0"/></radialGradient></defs><rect width="80" height="56" fill="url(#a)" rx="6"/><ellipse cx="40" cy="4" fill="url(#b)" rx="28" ry="18"/><path fill="url(#c)" d="m5 44 23-30 12-4 12 4 23 30Z"/><path fill="none" stroke="#5a1808" stroke-width="2" d="M32 12q8-4 16 0"/><path fill="none" stroke="url(#d)" stroke-linecap="round" stroke-width="3" d="M35 12q-4 8-7 16-3 6-2 12 2 4-2 4"/><path fill="none" stroke="url(#d)" stroke-linecap="round" stroke-width="2.5" d="m45 12 6 16q3 6 1 12-2 4 3 4"/><ellipse cx="40" cy="44" fill="#cc3000" opacity=".8" rx="18" ry="4"/><ellipse cx="40" cy="44" fill="#ff5000" opacity=".6" rx="12" ry="2.5"/><circle cx="38" cy="8" r="1.2" fill="#f80" opacity=".9"/><circle cx="43" cy="6" r=".8" fill="#fa0" opacity=".8"/><circle cx="34" cy="6" r="1" fill="#f60" opacity=".7"/><circle cx="46" cy="9" r=".6" fill="#f40" opacity=".6"/><circle cx="40" cy="5" r="1.5" fill="#ffb800" opacity=".8"/><path fill="#2a0808" d="m25 32 7-12-4 6Zm27 0-6-12 4 6Z" opacity=".4"/><text x="40" y="52" fill="#f08020" dominant-baseline="middle" font-family="Arial, sans-serif" font-size="8" font-weight="bold" text-anchor="middle">VOLCAN</text><rect width="80" height="20" fill="#fff" opacity=".06" rx="6"/><rect width="80" height="8" fill="#fff" opacity=".07" rx="6"/></svg>