<svg xmlns="http://www.w3.org/2000/svg" preserveAspectRatio="xMidYMid slice" viewBox="0 0 3840 2160"><defs><radialGradient id="b" cx="50%" cy="40%" r="65%" gradientUnits="userSpaceOnUse"><stop offset="0%" stop-color="#f09838" stop-opacity=".55"/><stop offset="55%" stop-color="#a03818" stop-opacity=".22"/><stop offset="100%" stop-color="#1c0804" stop-opacity="0"/></radialGradient><radialGradient id="d" cx="30%" cy="55%" r="50%" gradientUnits="userSpaceOnUse"><stop offset="0%" stop-color="#f05830" stop-opacity=".35"/><stop offset="100%" stop-color="#140604" stop-opacity="0"/></radialGradient><radialGradient id="f" cx="70%" cy="60%" r="45%" gradientUnits="userSpaceOnUse"><stop offset="0%" stop-color="#a85840" stop-opacity=".4"/><stop offset="100%" stop-color="#1c0804" stop-opacity="0"/></radialGradient><radialGradient id="g" cx="50%" cy="50%" r="48%" gradientUnits="userSpaceOnUse"><stop offset="0%" stop-color="#ffd080" stop-opacity=".9"/><stop offset="25%" stop-color="#f09838" stop-opacity=".6"/><stop offset="60%" stop-color="#f05830" stop-opacity=".2"/><stop offset="100%" stop-color="#1c0804" stop-opacity="0"/></radialGradient><radialGradient id="h" cx="50%" cy="42%" r="25%" gradientUnits="userSpaceOnUse"><stop offset="0%" stop-color="#ffd080"/><stop offset="40%" stop-color="#f09838" stop-opacity=".7"/><stop offset="100%" stop-color="#1c0804" stop-opacity="0"/></radialGradient><radialGradient id="l" cx="50%" cy="80%" r="40%" gradientUnits="userSpaceOnUse"><stop offset="0%" stop-color="#ffd080" stop-opacity=".4"/><stop offset="60%" stop-color="#f09838" stop-opacity=".15"/><stop offset="100%" stop-color="#1c0804" stop-opacity="0"/></radialGradient><radialGradient id="s" cx="50%" cy="50%" r="72%" gradientUnits="userSpaceOnUse"><stop offset="35%" stop-opacity="0"/><stop offset="100%" stop-opacity=".88"/></radialGradient><radialGradient id="r" cx="50%" cy="6%" r="30%" gradientUnits="userSpaceOnUse"><stop offset="0%" stop-color="#ffd080" stop-opacity=".55"/><stop offset="50%" stop-color="#f09838" stop-opacity=".2"/><stop offset="100%" stop-color="#1c0804" stop-opacity="0"/></radialGradient><filter id="p" width="220%" height="220%" x="-60%" y="-60%"><feGaussianBlur in="SourceGraphic" result="b1" stdDeviation="10"/><feGaussianBlur in="SourceGraphic" result="b2" stdDeviation="28"/><feColorMatrix in="b1" result="c1" values="0 0 0 0 0.94 0 0 0 0 0.60 0 0 0 0 0.22 0 0 0 2.2 0"/><feColorMatrix in="b2" result="c2" values="0 0 0 0 0.94 0 0 0 0 0.60 0 0 0 0 0.22 0 0 0 1 0"/><feMerge><feMergeNode in="c2"/><feMergeNode in="c1"/><feMergeNode in="SourceGraphic"/></feMerge></filter><filter id="q" width="220%" height="220%" x="-60%" y="-60%"><feGaussianBlur in="SourceGraphic" result="b1" stdDeviation="8"/><feColorMatrix in="b1" result="c1" values="0 0 0 0 0.94 0 0 0 0 0.35 0 0 0 0 0.19 0 0 0 2.5 0"/><feMerge><feMergeNode in="c1"/><feMergeNode in="SourceGraphic"/></feMerge></filter><filter id="o" width="150%" height="150%" x="-25%" y="-25%"><feDropShadow dx="0" dy="8" flood-color="#1c0804" flood-opacity=".9" stdDeviation="20"/></filter><filter id="t" width="100%" height="100%" x="0%" y="0%"><feTurbulence baseFrequency=".65" numOctaves="4" result="n" stitchTiles="stitch" type="fractalNoise"/><feColorMatrix in="n" result="gn" type="saturate" values="0"/><feBlend in="SourceGraphic" in2="gn" mode="overlay" result="bl"/><feComposite in="bl" in2="SourceGraphic" operator="in"/></filter><filter id="c" width="160%" height="160%" x="-30%" y="-30%"><feGaussianBlur stdDeviation="18"/></filter><filter id="e" width="140%" height="140%" x="-20%" y="-20%"><feGaussianBlur stdDeviation="9"/></filter><filter id="k"><feTurbulence baseFrequency="0.012 0.006" numOctaves="3" result="t" seed="14"/><feDisplacementMap in="SourceGraphic" in2="t" scale="22" xChannelSelector="R" yChannelSelector="G"/></filter><filter id="n"><feTurbulence baseFrequency="0.8 0.4" numOctaves="5" result="n" seed="5" type="fractalNoise"/><feColorMatrix in="n" result="colored" values="0.35 0 0 0 0.5 0 0.22 0 0 0.28 0 0 0.1 0 0.1 0 0 0 0.45 0"/><feBlend in="SourceGraphic" in2="colored" mode="overlay"/></filter><linearGradient id="a" x1="0%" x2="0%" y1="0%" y2="100%"><stop offset="0%" stop-color="#140604"/><stop offset="15%" stop-color="#1c0804"/><stop offset="40%" stop-color="#280c06"/><stop offset="70%" stop-color="#f09838"/><stop offset="100%" stop-color="#f05830"/></linearGradient><linearGradient id="j" x1="0%" x2="0%" y1="0%" y2="100%"><stop offset="0%" stop-color="#f09838" stop-opacity=".45"/><stop offset="50%" stop-color="#a03818" stop-opacity=".3"/><stop offset="100%" stop-color="#782008" stop-opacity=".5"/></linearGradient><linearGradient id="m" x1="0%" x2="0%" y1="0%" y2="100%"><stop offset="0%" stop-color="#a85840"/><stop offset="100%" stop-color="#782008"/></linearGradient><linearGradient id="i" x1="0%" x2="0%" y1="0%" y2="100%"><stop offset="0%" stop-color="#ffd080" stop-opacity=".35"/><stop offset="100%" stop-color="#f09838" stop-opacity="0"/></linearGradient></defs><path fill="url(#a)" d="M0 0h3840v2160H0z"/><path fill="url(#b)" d="M0 0h3840v2160H0z" filter="url(#c)" opacity=".85"/><path fill="url(#d)" d="M0 0h3840v2160H0z" filter="url(#e)" opacity=".65"/><path fill="url(#f)" d="M0 0h3840v2160H0z" filter="url(#e)" opacity=".55"/><path fill="url(#g)" d="M0 0h3840v2160H0z" filter="url(#c)" opacity=".75"/><circle cx="1920" cy="950" r="280" fill="#ffd080" filter="url(#e)" opacity=".9"/><circle cx="1920" cy="950" r="180" fill="#ffe8a0" opacity=".95"/><path fill="url(#h)" d="M0 0h3840v2160H0z" filter="url(#c)" opacity=".8"/><g filter="url(#c)" opacity=".3"><path fill="#ffd080" d="M1890 950h60L800 0H700z"/><path fill="#f09838" d="M1890 950h60L1200 0h-100z"/><path fill="#ffd080" d="M1890 950h60L1600 0h-100z"/><path fill="#f09838" d="M1890 950h60l50-950h-160z"/><path fill="#ffd080" d="M1890 950h60L2400 0h-160z"/><path fill="#f09838" d="M1890 950h60L2800 0h-160z"/><path fill="#ffd080" d="M1890 950h60L3200 0h-160z"/><path fill="#f09838" d="M1890 950h60L400 0H280z"/><path fill="#ffd080" d="M1890 950h60L3600 0h-120z"/><path fill="#f09838" d="M1890 950h60L0 300V150z"/><path fill="#ffd080" d="M1890 950h60l1890-750V50z"/><path fill="#f09838" d="M1890 950h60L0 700V600z"/><path fill="#ffd080" d="M1890 950h60l1890-350v100z"/></g><path fill="url(#i)" d="M0 880h3840v140H0z" filter="url(#c)" opacity=".65"/><path fill="#ffd080" d="M0 920h3840v60H0z" filter="url(#e)" opacity=".12"/><path fill="url(#j)" d="M0 950h3840v600H0z" filter="url(#k)" opacity=".75"/><path fill="#782008" d="M0 1550h3840v300H0z" opacity=".5"/><g fill="none" filter="url(#e)" opacity=".55"><path stroke="#ffd080" stroke-width="2.5" d="M0 980q480-20 960 5t960 0 960 0 960 0"/><path stroke="#f09838" stroke-width="2" d="M0 1030q480-20 960 5t960 0 960 0 960 0"/><path stroke="#ffd080" stroke-width="2.5" d="M0 1080q480-25 960 2t960 0 960 0 960 0"/><path stroke="#f09838" stroke-width="2" d="M0 1135q480-27 960 3t960 0 960 0 960 0"/><path stroke="#ffd080" stroke-width="2.5" d="M0 1195q480-30 960 3t960 0 960 0 960 0"/><path stroke="#f09838" stroke-width="2" d="M0 1260q480-32 960 5t960 0 960 0 960 0"/><path stroke="#ffd080" stroke-width="2.5" d="M0 1335q480-37 960 5t960 0 960 0 960 0"/><path stroke="#f09838" stroke-width="2" d="M0 1420q480-42 960 5t960 0 960 0 960 0"/><path stroke="#ffd080" stroke-width="2.5" d="M0 1510q480-47 960 5t960 0 960 0 960 0"/></g><path fill="url(#l)" d="M0 0h3840v2160H0z" filter="url(#c)" opacity=".65"/><path fill="url(#m)" d="M0 1580q600-40 1200-10t1200-10 1440 0v600H0Z" filter="url(#n)"/><path fill="#885020" d="M0 1700q700-40 1400-10t1400-10q500-30 1040 0v480H0Z" opacity=".7"/><g fill="none" stroke="#1c0804" stroke-linecap="round" filter="url(#o)"><path stroke-width="30" d="M120 1600q30-200 80-400 30-150 80-300 30-100 70-200"/><path stroke-width="18" d="M350 700 100 500q-40-40-80-50"/><path stroke-width="16" d="M350 700q-70-160-90-250-10-50-30-90m120 340 80-240q20-60 50-100"/><path stroke-width="18" d="M350 700q120-120 210-180 60-40 120-50"/><path stroke-width="14" d="M350 700q30-80 50-140"/><path stroke-width="30" d="M3720 1620q-30-200-80-400-30-150-80-300-30-100-70-200"/><path stroke-width="18" d="m3490 720 250-200q40-40 80-50"/><path stroke-width="16" d="M3490 720q70-160 90-250 10-50 30-90m-120 340-80-240q-20-60-50-100"/><path stroke-width="18" d="M3490 720q-120-120-210-180-60-40-120-50"/><path stroke-width="14" d="M3490 720q-30-80-50-140"/><path stroke-width="22" d="M50 1680q30-160 70-300 30-100 70-200"/><path stroke-width="14" d="M190 1180q-90-90-150-160m150 160q50-100 90-160"/><path stroke-width="12" d="M190 1180q-10-100-20-170"/><path stroke-width="22" d="M3790 1700q-30-160-70-300-30-100-70-200"/><path stroke-width="14" d="M3650 1200q90-90 150-160m-150 160q-50-100-90-160"/><path stroke-width="12" d="M3650 1200q10-100 20-170"/></g><ellipse cx="1920" cy="950" fill="#f09838" filter="url(#c)" opacity=".18" rx="1800" ry="600"/><ellipse cx="1920" cy="1200" fill="#f05830" filter="url(#c)" opacity=".12" rx="2200" ry="500"/><g filter="url(#p)"><circle cx="380" cy="920" r="3" fill="#ffd080" opacity=".82"/><circle cx="620" cy="820" r="2" fill="#f09838" opacity=".78"/><circle cx="880" cy="960" r="4" fill="#ffd080" opacity=".88"/><circle cx="1140" cy="780" r="2" fill="#f09838" opacity=".75"/><circle cx="1380" cy="940" r="3" fill="#ffd080" opacity=".82"/><circle cx="1640" cy="760" r="2" fill="#f09838" opacity=".78"/><circle cx="1900" cy="1000" r="4" fill="#ffd080" opacity=".9"/><circle cx="2160" cy="790" r="2" fill="#f09838" opacity=".75"/><circle cx="2400" cy="960" r="3" fill="#ffd080" opacity=".82"/><circle cx="2660" cy="810" r="2" fill="#f09838" opacity=".78"/><circle cx="2920" cy="980" r="4" fill="#ffd080" opacity=".88"/><circle cx="3180" cy="840" r="2" fill="#f09838" opacity=".75"/><circle cx="3440" cy="950" r="3" fill="#ffd080" opacity=".82"/><circle cx="300" cy="1150" r="3" fill="#f05830" opacity=".7"/><circle cx="560" cy="1280" r="2" fill="#ffd080" opacity=".65"/><circle cx="820" cy="1200" r="4" fill="#f09838" opacity=".72"/><circle cx="1080" cy="1320" r="2" fill="#ffd080" opacity=".65"/><circle cx="1340" cy="1180" r="3" fill="#f05830" opacity=".7"/><circle cx="1600" cy="1300" r="2" fill="#ffd080" opacity=".65"/><circle cx="1860" cy="1220" r="4" fill="#f09838" opacity=".72"/><circle cx="2120" cy="1330" r="2" fill="#ffd080" opacity=".65"/><circle cx="2380" cy="1190" r="3" fill="#f05830" opacity=".7"/><circle cx="2640" cy="1310" r="2" fill="#ffd080" opacity=".65"/><circle cx="2900" cy="1230" r="4" fill="#f09838" opacity=".72"/><circle cx="3160" cy="1320" r="2" fill="#ffd080" opacity=".65"/><circle cx="3420" cy="1200" r="3" fill="#f05830" opacity=".7"/><circle cx="3680" cy="1290" r="2" fill="#ffd080" opacity=".65"/><circle cx="460" cy="620" r="2" fill="#ffd080" opacity=".6"/><circle cx="760" cy="560" r="2" fill="#f09838" opacity=".55"/><circle cx="1060" cy="600" r="2" fill="#ffd080" opacity=".6"/><circle cx="1360" cy="580" r="2" fill="#f09838" opacity=".55"/><circle cx="1660" cy="590" r="2" fill="#ffd080" opacity=".6"/><circle cx="1960" cy="575" r="2" fill="#f09838" opacity=".55"/><circle cx="2260" cy="595" r="2" fill="#ffd080" opacity=".6"/><circle cx="2560" cy="580" r="2" fill="#f09838" opacity=".55"/><circle cx="2860" cy="605" r="2" fill="#ffd080" opacity=".6"/><circle cx="3160" cy="585" r="2" fill="#f09838" opacity=".55"/><circle cx="3460" cy="595" r="2" fill="#ffd080" opacity=".6"/><circle cx="3760" cy="570" r="2" fill="#f09838" opacity=".55"/></g><g filter="url(#q)"><circle cx="500" cy="1080" r="3" fill="#f05830" opacity=".75"/><circle cx="1000" cy="1100" r="4" fill="#f09838" opacity=".78"/><circle cx="1500" cy="1080" r="3" fill="#f05830" opacity=".75"/><circle cx="2000" cy="1120" r="4" fill="#f09838" opacity=".78"/><circle cx="2500" cy="1090" r="3" fill="#f05830" opacity=".75"/><circle cx="3000" cy="1105" r="4" fill="#f09838" opacity=".78"/><circle cx="3500" cy="1085" r="3" fill="#f05830" opacity=".75"/><circle cx="750" cy="1400" r="3" fill="#f09838" opacity=".65"/><circle cx="1350" cy="1420" r="3" fill="#f05830" opacity=".62"/><circle cx="1950" cy="1405" r="3" fill="#f09838" opacity=".65"/><circle cx="2550" cy="1415" r="3" fill="#f05830" opacity=".62"/><circle cx="3150" cy="1400" r="3" fill="#f09838" opacity=".65"/></g><ellipse cx="1920" cy="160" fill="url(#r)" filter="url(#c)" opacity=".75" rx="600" ry="220"/><path fill="#1c0804" d="M0 0h3840v350H0z" filter="url(#e)" opacity=".55"/><path fill="#140604" d="M0 0h3840v180H0z" opacity=".75"/><path fill="url(#s)" d="M0 0h3840v2160H0z"/><path fill="#f09838" d="M0 0h3840v2160H0z" filter="url(#t)" opacity=".025"/></svg>