<?xml version="1.0" encoding="UTF-8"?>
<svg xmlns="http://www.w3.org/2000/svg" xmlns:xlink="http://www.w3.org/1999/xlink"
     viewBox="0 0 3840 2160" width="100%" height="100%"
     preserveAspectRatio="xMidYMid slice">
  <defs>
    <radialGradient id="pAtm1" cx="50%" cy="40%" r="65%" gradientUnits="userSpaceOnUse">
      <stop offset="0%" stop-color="#F09838" stop-opacity="0.55"/>
      <stop offset="55%" stop-color="#A03818" stop-opacity="0.22"/>
      <stop offset="100%" stop-color="#1C0804" stop-opacity="0"/>
    </radialGradient>
    <radialGradient id="pAtm2" cx="30%" cy="55%" r="50%" gradientUnits="userSpaceOnUse">
      <stop offset="0%" stop-color="#F05830" stop-opacity="0.35"/>
      <stop offset="100%" stop-color="#140604" stop-opacity="0"/>
    </radialGradient>
    <radialGradient id="pAtm3" cx="70%" cy="60%" r="45%" gradientUnits="userSpaceOnUse">
      <stop offset="0%" stop-color="#A85840" stop-opacity="0.4"/>
      <stop offset="100%" stop-color="#1C0804" stop-opacity="0"/>
    </radialGradient>
    <radialGradient id="pSun" cx="50%" cy="50%" r="48%" gradientUnits="userSpaceOnUse">
      <stop offset="0%" stop-color="#FFD080" stop-opacity="0.9"/>
      <stop offset="25%" stop-color="#F09838" stop-opacity="0.6"/>
      <stop offset="60%" stop-color="#F05830" stop-opacity="0.2"/>
      <stop offset="100%" stop-color="#1C0804" stop-opacity="0"/>
    </radialGradient>
    <radialGradient id="pSunCore" cx="50%" cy="42%" r="25%" gradientUnits="userSpaceOnUse">
      <stop offset="0%" stop-color="#FFD080" stop-opacity="1"/>
      <stop offset="40%" stop-color="#F09838" stop-opacity="0.7"/>
      <stop offset="100%" stop-color="#1C0804" stop-opacity="0"/>
    </radialGradient>
    <radialGradient id="pWaterGlow" cx="50%" cy="80%" r="40%" gradientUnits="userSpaceOnUse">
      <stop offset="0%" stop-color="#FFD080" stop-opacity="0.4"/>
      <stop offset="60%" stop-color="#F09838" stop-opacity="0.15"/>
      <stop offset="100%" stop-color="#1C0804" stop-opacity="0"/>
    </radialGradient>
    <radialGradient id="pVignette" cx="50%" cy="50%" r="72%" gradientUnits="userSpaceOnUse">
      <stop offset="35%" stop-color="#000000" stop-opacity="0"/>
      <stop offset="100%" stop-color="#000000" stop-opacity="0.88"/>
    </radialGradient>
    <radialGradient id="pSpecular" cx="50%" cy="6%" r="30%" gradientUnits="userSpaceOnUse">
      <stop offset="0%" stop-color="#FFD080" stop-opacity="0.55"/>
      <stop offset="50%" stop-color="#F09838" stop-opacity="0.2"/>
      <stop offset="100%" stop-color="#1C0804" stop-opacity="0"/>
    </radialGradient>
    <linearGradient id="pSky" x1="0%" y1="0%" x2="0%" y2="100%">
      <stop offset="0%" stop-color="#140604"/>
      <stop offset="15%" stop-color="#1C0804"/>
      <stop offset="40%" stop-color="#280C06"/>
      <stop offset="70%" stop-color="#F09838"/>
      <stop offset="100%" stop-color="#F05830"/>
    </linearGradient>
    <linearGradient id="pWater" x1="0%" y1="0%" x2="0%" y2="100%">
      <stop offset="0%" stop-color="#F09838" stop-opacity="0.45"/>
      <stop offset="50%" stop-color="#A03818" stop-opacity="0.3"/>
      <stop offset="100%" stop-color="#782008" stop-opacity="0.5"/>
    </linearGradient>
    <linearGradient id="pSand" x1="0%" y1="0%" x2="0%" y2="100%">
      <stop offset="0%" stop-color="#A85840"/>
      <stop offset="100%" stop-color="#782008"/>
    </linearGradient>
    <linearGradient id="pHorizonGlow" x1="0%" y1="0%" x2="0%" y2="100%">
      <stop offset="0%" stop-color="#FFD080" stop-opacity="0.35"/>
      <stop offset="100%" stop-color="#F09838" stop-opacity="0"/>
    </linearGradient>
    <filter id="glow" x="-60%" y="-60%" width="220%" height="220%">
      <feGaussianBlur in="SourceGraphic" stdDeviation="10" result="b1"/>
      <feGaussianBlur in="SourceGraphic" stdDeviation="28" result="b2"/>
      <feColorMatrix in="b1" type="matrix"
        values="0 0 0 0 0.94  0 0 0 0 0.60  0 0 0 0 0.22  0 0 0 2.2 0" result="c1"/>
      <feColorMatrix in="b2" type="matrix"
        values="0 0 0 0 0.94  0 0 0 0 0.60  0 0 0 0 0.22  0 0 0 1 0" result="c2"/>
      <feMerge><feMergeNode in="c2"/><feMergeNode in="c1"/><feMergeNode in="SourceGraphic"/></feMerge>
    </filter>
    <filter id="glowWarm" x="-60%" y="-60%" width="220%" height="220%">
      <feGaussianBlur in="SourceGraphic" stdDeviation="8" result="b1"/>
      <feColorMatrix in="b1" type="matrix"
        values="0 0 0 0 0.94  0 0 0 0 0.35  0 0 0 0 0.19  0 0 0 2.5 0" result="c1"/>
      <feMerge><feMergeNode in="c1"/><feMergeNode in="SourceGraphic"/></feMerge>
    </filter>
    <filter id="shadow" x="-25%" y="-25%" width="150%" height="150%">
      <feDropShadow dx="0" dy="8" stdDeviation="20" flood-color="#1C0804" flood-opacity="0.9"/>
    </filter>
    <filter id="noise" x="0%" y="0%" width="100%" height="100%">
      <feTurbulence type="fractalNoise" baseFrequency="0.65" numOctaves="4" stitchTiles="stitch" result="n"/>
      <feColorMatrix in="n" type="saturate" values="0" result="gn"/>
      <feBlend in="SourceGraphic" in2="gn" mode="overlay" result="bl"/>
      <feComposite in="bl" in2="SourceGraphic" operator="in"/>
    </filter>
    <filter id="blur" x="-15%" y="-15%" width="130%" height="130%">
      <feGaussianBlur stdDeviation="5"/>
    </filter>
    <filter id="blurHeavy" x="-30%" y="-30%" width="160%" height="160%">
      <feGaussianBlur stdDeviation="18"/>
    </filter>
    <filter id="blurMid" x="-20%" y="-20%" width="140%" height="140%">
      <feGaussianBlur stdDeviation="9"/>
    </filter>
    <filter id="waterWave">
      <feTurbulence type="turbulence" baseFrequency="0.012 0.006" numOctaves="3" seed="14" result="t"/>
      <feDisplacementMap in="SourceGraphic" in2="t" scale="22" xChannelSelector="R" yChannelSelector="G"/>
    </filter>
    <filter id="sandTex">
      <feTurbulence type="fractalNoise" baseFrequency="0.8 0.4" numOctaves="5" seed="5" result="n"/>
      <feColorMatrix in="n" type="matrix"
        values="0.35 0 0 0 0.5  0 0.22 0 0 0.28  0 0 0.1 0 0.1  0 0 0 0.45 0" result="colored"/>
      <feBlend in="SourceGraphic" in2="colored" mode="overlay"/>
    </filter>
  </defs>

  <!-- LAYER 1: Sunset sky base -->
  <rect width="3840" height="2160" fill="url(#pSky)"/>

  <!-- LAYER 2: Atmospheric golden glow -->
  <rect width="3840" height="2160" fill="url(#pAtm1)" filter="url(#blurHeavy)" opacity="0.85"/>
  <rect width="3840" height="2160" fill="url(#pAtm2)" filter="url(#blurMid)" opacity="0.65"/>
  <rect width="3840" height="2160" fill="url(#pAtm3)" filter="url(#blurMid)" opacity="0.55"/>
  <rect width="3840" height="2160" fill="url(#pSun)" filter="url(#blurHeavy)" opacity="0.75"/>

  <!-- LAYER 3: Sun disk on horizon -->
  <ellipse cx="1920" cy="950" rx="280" ry="280" fill="#FFD080" opacity="0.9" filter="url(#blurMid)"/>
  <ellipse cx="1920" cy="950" rx="180" ry="180" fill="#FFE8A0" opacity="0.95"/>
  <rect width="3840" height="2160" fill="url(#pSunCore)" filter="url(#blurHeavy)" opacity="0.8"/>

  <!-- LAYER 4: Sun rays radiating from center horizon -->
  <g opacity="0.3" filter="url(#blurHeavy)" transform-origin="1920 950">
    <polygon points="1890,950 1950,950 800,0 700,0" fill="#FFD080"/>
    <polygon points="1890,950 1950,950 1200,0 1100,0" fill="#F09838"/>
    <polygon points="1890,950 1950,950 1600,0 1500,0" fill="#FFD080"/>
    <polygon points="1890,950 1950,950 2000,0 1840,0" fill="#F09838"/>
    <polygon points="1890,950 1950,950 2400,0 2240,0" fill="#FFD080"/>
    <polygon points="1890,950 1950,950 2800,0 2640,0" fill="#F09838"/>
    <polygon points="1890,950 1950,950 3200,0 3040,0" fill="#FFD080"/>
    <polygon points="1890,950 1950,950 400,0 280,0" fill="#F09838"/>
    <polygon points="1890,950 1950,950 3600,0 3480,0" fill="#FFD080"/>
    <polygon points="1890,950 1950,950 0,300 0,150" fill="#F09838"/>
    <polygon points="1890,950 1950,950 3840,200 3840,50" fill="#FFD080"/>
    <polygon points="1890,950 1950,950 0,700 0,600" fill="#F09838"/>
    <polygon points="1890,950 1950,950 3840,600 3840,700" fill="#FFD080"/>
  </g>

  <!-- LAYER 5: Horizon glow line -->
  <rect x="0" y="880" width="3840" height="140" fill="url(#pHorizonGlow)" opacity="0.65" filter="url(#blurHeavy)"/>
  <rect x="0" y="920" width="3840" height="60" fill="#FFD080" opacity="0.12" filter="url(#blurMid)"/>

  <!-- LAYER 6: Ocean water with reflection & wave shimmer -->
  <rect x="0" y="950" width="3840" height="600" fill="url(#pWater)" filter="url(#waterWave)" opacity="0.75"/>
  <rect x="0" y="1550" width="3840" height="300" fill="#782008" opacity="0.5"/>
  <!-- Water shimmer lines (wave ripples) -->
  <g filter="url(#blurMid)" opacity="0.55">
    <path d="M0,980 Q480,960 960,985 Q1440,1010 1920,985 Q2400,960 2880,985 Q3360,1010 3840,985" stroke="#FFD080" stroke-width="2.5" fill="none"/>
    <path d="M0,1030 Q480,1010 960,1035 Q1440,1060 1920,1035 Q2400,1010 2880,1035 Q3360,1060 3840,1035" stroke="#F09838" stroke-width="2" fill="none"/>
    <path d="M0,1080 Q480,1055 960,1082 Q1440,1109 1920,1082 Q2400,1055 2880,1082 Q3360,1109 3840,1082" stroke="#FFD080" stroke-width="2.5" fill="none"/>
    <path d="M0,1135 Q480,1108 960,1138 Q1440,1168 1920,1138 Q2400,1108 2880,1138 Q3360,1168 3840,1138" stroke="#F09838" stroke-width="2" fill="none"/>
    <path d="M0,1195 Q480,1165 960,1198 Q1440,1231 1920,1198 Q2400,1165 2880,1198 Q3360,1231 3840,1198" stroke="#FFD080" stroke-width="2.5" fill="none"/>
    <path d="M0,1260 Q480,1228 960,1265 Q1440,1302 1920,1265 Q2400,1228 2880,1265 Q3360,1302 3840,1265" stroke="#F09838" stroke-width="2" fill="none"/>
    <path d="M0,1335 Q480,1298 960,1340 Q1440,1382 1920,1340 Q2400,1298 2880,1340 Q3360,1382 3840,1340" stroke="#FFD080" stroke-width="2.5" fill="none"/>
    <path d="M0,1420 Q480,1378 960,1425 Q1440,1472 1920,1425 Q2400,1378 2880,1425 Q3360,1472 3840,1425" stroke="#F09838" stroke-width="2" fill="none"/>
    <path d="M0,1510 Q480,1463 960,1515 Q1440,1567 1920,1515 Q2400,1463 2880,1515 Q3360,1567 3840,1515" stroke="#FFD080" stroke-width="2.5" fill="none"/>
  </g>
  <!-- Water glow reflection of sun -->
  <rect width="3840" height="2160" fill="url(#pWaterGlow)" filter="url(#blurHeavy)" opacity="0.65"/>

  <!-- LAYER 7: Beach sand at bottom -->
  <path d="M0,1580 Q600,1540 1200,1570 Q1800,1600 2400,1560 Q3000,1520 3840,1560 L3840,2160 L0,2160 Z" fill="url(#pSand)" filter="url(#sandTex)"/>
  <path d="M0,1700 Q700,1660 1400,1690 Q2100,1720 2800,1680 Q3300,1650 3840,1680 L3840,2160 L0,2160 Z" fill="#885020" opacity="0.7"/>

  <!-- LAYER 8: Palm tree silhouettes on left and right sides -->
  <g filter="url(#shadow)">
    <!-- Left palm tree -->
    <path d="M120,1600 Q150,1400 200,1200 Q230,1050 280,900 Q310,800 350,700" stroke="#1C0804" stroke-width="30" fill="none" stroke-linecap="round"/>
    <!-- Left palm fronds -->
    <path d="M350,700 Q200,580 100,500 Q60,460 20,450" stroke="#1C0804" stroke-width="18" fill="none" stroke-linecap="round"/>
    <path d="M350,700 Q280,540 260,450 Q250,400 230,360" stroke="#1C0804" stroke-width="16" fill="none" stroke-linecap="round"/>
    <path d="M350,700 Q400,550 430,460 Q450,400 480,360" stroke="#1C0804" stroke-width="16" fill="none" stroke-linecap="round"/>
    <path d="M350,700 Q470,580 560,520 Q620,480 680,470" stroke="#1C0804" stroke-width="18" fill="none" stroke-linecap="round"/>
    <path d="M350,700 Q380,620 400,560" stroke="#1C0804" stroke-width="14" fill="none" stroke-linecap="round"/>
    <!-- Right palm tree -->
    <path d="M3720,1620 Q3690,1420 3640,1220 Q3610,1070 3560,920 Q3530,820 3490,720" stroke="#1C0804" stroke-width="30" fill="none" stroke-linecap="round"/>
    <!-- Right palm fronds -->
    <path d="M3490,720 Q3640,600 3740,520 Q3780,480 3820,470" stroke="#1C0804" stroke-width="18" fill="none" stroke-linecap="round"/>
    <path d="M3490,720 Q3560,560 3580,470 Q3590,420 3610,380" stroke="#1C0804" stroke-width="16" fill="none" stroke-linecap="round"/>
    <path d="M3490,720 Q3440,570 3410,480 Q3390,420 3360,380" stroke="#1C0804" stroke-width="16" fill="none" stroke-linecap="round"/>
    <path d="M3490,720 Q3370,600 3280,540 Q3220,500 3160,490" stroke="#1C0804" stroke-width="18" fill="none" stroke-linecap="round"/>
    <path d="M3490,720 Q3460,640 3440,580" stroke="#1C0804" stroke-width="14" fill="none" stroke-linecap="round"/>
    <!-- Small palm left -->
    <path d="M50,1680 Q80,1520 120,1380 Q150,1280 190,1180" stroke="#1C0804" stroke-width="22" fill="none" stroke-linecap="round"/>
    <path d="M190,1180 Q100,1090 40,1020" stroke="#1C0804" stroke-width="14" fill="none" stroke-linecap="round"/>
    <path d="M190,1180 Q240,1080 280,1020" stroke="#1C0804" stroke-width="14" fill="none" stroke-linecap="round"/>
    <path d="M190,1180 Q180,1080 170,1010" stroke="#1C0804" stroke-width="12" fill="none" stroke-linecap="round"/>
    <!-- Small palm right -->
    <path d="M3790,1700 Q3760,1540 3720,1400 Q3690,1300 3650,1200" stroke="#1C0804" stroke-width="22" fill="none" stroke-linecap="round"/>
    <path d="M3650,1200 Q3740,1110 3800,1040" stroke="#1C0804" stroke-width="14" fill="none" stroke-linecap="round"/>
    <path d="M3650,1200 Q3600,1100 3560,1040" stroke="#1C0804" stroke-width="14" fill="none" stroke-linecap="round"/>
    <path d="M3650,1200 Q3660,1100 3670,1030" stroke="#1C0804" stroke-width="12" fill="none" stroke-linecap="round"/>
  </g>

  <!-- LAYER 9: Golden hour atmospheric scattering (warm gradient center) -->
  <ellipse cx="1920" cy="950" rx="1800" ry="600" fill="#F09838" opacity="0.18" filter="url(#blurHeavy)"/>
  <ellipse cx="1920" cy="1200" rx="2200" ry="500" fill="#F05830" opacity="0.12" filter="url(#blurHeavy)"/>

  <!-- LAYER 10: Particle field — warm dust/spray (50+) -->
  <g filter="url(#glow)">
    <circle cx="380" cy="920" r="3" fill="#FFD080" opacity="0.82"/>
    <circle cx="620" cy="820" r="2" fill="#F09838" opacity="0.78"/>
    <circle cx="880" cy="960" r="4" fill="#FFD080" opacity="0.88"/>
    <circle cx="1140" cy="780" r="2" fill="#F09838" opacity="0.75"/>
    <circle cx="1380" cy="940" r="3" fill="#FFD080" opacity="0.82"/>
    <circle cx="1640" cy="760" r="2" fill="#F09838" opacity="0.78"/>
    <circle cx="1900" cy="1000" r="4" fill="#FFD080" opacity="0.9"/>
    <circle cx="2160" cy="790" r="2" fill="#F09838" opacity="0.75"/>
    <circle cx="2400" cy="960" r="3" fill="#FFD080" opacity="0.82"/>
    <circle cx="2660" cy="810" r="2" fill="#F09838" opacity="0.78"/>
    <circle cx="2920" cy="980" r="4" fill="#FFD080" opacity="0.88"/>
    <circle cx="3180" cy="840" r="2" fill="#F09838" opacity="0.75"/>
    <circle cx="3440" cy="950" r="3" fill="#FFD080" opacity="0.82"/>
    <circle cx="300" cy="1150" r="3" fill="#F05830" opacity="0.7"/>
    <circle cx="560" cy="1280" r="2" fill="#FFD080" opacity="0.65"/>
    <circle cx="820" cy="1200" r="4" fill="#F09838" opacity="0.72"/>
    <circle cx="1080" cy="1320" r="2" fill="#FFD080" opacity="0.65"/>
    <circle cx="1340" cy="1180" r="3" fill="#F05830" opacity="0.7"/>
    <circle cx="1600" cy="1300" r="2" fill="#FFD080" opacity="0.65"/>
    <circle cx="1860" cy="1220" r="4" fill="#F09838" opacity="0.72"/>
    <circle cx="2120" cy="1330" r="2" fill="#FFD080" opacity="0.65"/>
    <circle cx="2380" cy="1190" r="3" fill="#F05830" opacity="0.7"/>
    <circle cx="2640" cy="1310" r="2" fill="#FFD080" opacity="0.65"/>
    <circle cx="2900" cy="1230" r="4" fill="#F09838" opacity="0.72"/>
    <circle cx="3160" cy="1320" r="2" fill="#FFD080" opacity="0.65"/>
    <circle cx="3420" cy="1200" r="3" fill="#F05830" opacity="0.7"/>
    <circle cx="3680" cy="1290" r="2" fill="#FFD080" opacity="0.65"/>
    <circle cx="460" cy="620" r="2" fill="#FFD080" opacity="0.6"/>
    <circle cx="760" cy="560" r="2" fill="#F09838" opacity="0.55"/>
    <circle cx="1060" cy="600" r="2" fill="#FFD080" opacity="0.6"/>
    <circle cx="1360" cy="580" r="2" fill="#F09838" opacity="0.55"/>
    <circle cx="1660" cy="590" r="2" fill="#FFD080" opacity="0.6"/>
    <circle cx="1960" cy="575" r="2" fill="#F09838" opacity="0.55"/>
    <circle cx="2260" cy="595" r="2" fill="#FFD080" opacity="0.6"/>
    <circle cx="2560" cy="580" r="2" fill="#F09838" opacity="0.55"/>
    <circle cx="2860" cy="605" r="2" fill="#FFD080" opacity="0.6"/>
    <circle cx="3160" cy="585" r="2" fill="#F09838" opacity="0.55"/>
    <circle cx="3460" cy="595" r="2" fill="#FFD080" opacity="0.6"/>
    <circle cx="3760" cy="570" r="2" fill="#F09838" opacity="0.55"/>
  </g>
  <!-- Orange spray particles over water -->
  <g filter="url(#glowWarm)">
    <circle cx="500" cy="1080" r="3" fill="#F05830" opacity="0.75"/>
    <circle cx="1000" cy="1100" r="4" fill="#F09838" opacity="0.78"/>
    <circle cx="1500" cy="1080" r="3" fill="#F05830" opacity="0.75"/>
    <circle cx="2000" cy="1120" r="4" fill="#F09838" opacity="0.78"/>
    <circle cx="2500" cy="1090" r="3" fill="#F05830" opacity="0.75"/>
    <circle cx="3000" cy="1105" r="4" fill="#F09838" opacity="0.78"/>
    <circle cx="3500" cy="1085" r="3" fill="#F05830" opacity="0.75"/>
    <circle cx="750" cy="1400" r="3" fill="#F09838" opacity="0.65"/>
    <circle cx="1350" cy="1420" r="3" fill="#F05830" opacity="0.62"/>
    <circle cx="1950" cy="1405" r="3" fill="#F09838" opacity="0.65"/>
    <circle cx="2550" cy="1415" r="3" fill="#F05830" opacity="0.62"/>
    <circle cx="3150" cy="1400" r="3" fill="#F09838" opacity="0.65"/>
  </g>

  <!-- LAYER 11: Specular top-center (sun) -->
  <ellipse cx="1920" cy="160" rx="600" ry="220" fill="url(#pSpecular)" filter="url(#blurHeavy)" opacity="0.75"/>

  <!-- Sky top deepening -->
  <rect x="0" y="0" width="3840" height="350" fill="#1C0804" opacity="0.55" filter="url(#blurMid)"/>
  <rect x="0" y="0" width="3840" height="180" fill="#140604" opacity="0.75"/>

  <!-- LAYER 12: Foreground vignette -->
  <rect width="3840" height="2160" fill="url(#pVignette)"/>

  <!-- Sand grain noise -->
  <rect width="3840" height="2160" fill="#F09838" opacity="0.025" filter="url(#noise)"/>
</svg>
