<svg xmlns="http://www.w3.org/2000/svg" width="80" height="80" opacity=".85" viewBox="0 0 80 80"><defs><radialGradient id="c" cx="50%" cy="50%" r="50%"><stop offset="0%" stop-color="#66bb6a"/><stop offset="100%" stop-color="#1b5e20"/></radialGradient><radialGradient id="d" cx="35%" cy="35%" r="65%"><stop offset="0%" stop-color="#fce4ec"/><stop offset="60%" stop-color="#f06292"/><stop offset="100%" stop-color="#c2185b"/></radialGradient><linearGradient id="a" x1="0%" x2="100%" y1="0%" y2="0%"><stop offset="0%" stop-color="#a1887f"/><stop offset="100%" stop-color="#5d4037"/></linearGradient><filter id="b" width="140%" height="140%" x="-20%" y="-20%"><feDropShadow dx="1" dy="1" flood-color="#1a237e" flood-opacity=".4" stdDeviation="1.5"/></filter></defs><path fill="none" stroke="url(#a)" stroke-linecap="round" stroke-width="5" d="M4 80c2-12 6-22 12-32s14-16 22-26c4-6 6-12 8-18" filter="url(#b)"/><path fill="none" stroke="#795548" stroke-linecap="round" stroke-width="1.5" d="M8 70c2-1 4 0 3 1m1-9c2-1 4 0 3 1m3-11c2-1 4 0 3 1m3-9c2-1 4 0 3 1m3-9c2-1 4 0 3 1m3-9c2-1 4 0 3 1"/><path fill="url(#c)" d="M46 4c6-2 16 0 24-2-2 6-8 8-14 6 6 4 10 8 12 14-6-4-12-8-18-10 2 6 2 12 0 16-4-6-6-12-4-24" filter="url(#b)"/><path fill="none" stroke="#1b5e20" stroke-width=".8" d="M46 4c10 4 18 10 22 18"/><path fill="#4caf50" d="M46 4c-6-4-16-4-26-2 4 4 10 6 16 4-6 4-10 8-10 14 4-4 10-8 14-10-2 6-2 12 0 16 4-6 6-14 6-22" filter="url(#b)"/><path fill="none" stroke="#1b5e20" stroke-width=".8" d="M46 4c-8 4-14 10-20 16"/><path fill="#388e3c" d="M46 4c6 6 10 14 14 24-6-2-10-8-12-14 6 8 10 18 10 26-6-4-10-12-12-20-2 8-2 14-4 20-2-6-2-16 4-36" filter="url(#b)"/><g filter="url(#b)"><circle cx="44" cy="10" r="4" fill="#5d4037"/><circle cx="50" cy="8" r="3.5" fill="#4e342e"/><path stroke="#3e2723" stroke-width=".8" d="M44 6v8m-4-4h8"/></g><path fill="#29b6f6" d="M0 72q10-6 20 0t20 0 20 0 20 0v8H0Z" filter="url(#b)" opacity=".75"/><path fill="none" stroke="#b3e5fc" stroke-linecap="round" stroke-width="1.5" d="M0 72q10-6 20 0t20 0 20 0 20 0"/><g filter="url(#b)" transform="translate(64 58)"><path fill="url(#d)" stroke="#c2185b" stroke-width=".8" d="M0 0c-4-4-8-2-8 2 0 6 4 10 8 10 6 0 10-4 10-10S6-8 0-8-10-4-10 2"/><path fill="#fce4ec" d="M0 2c-2-2-2 2 0 2s2-4 0-2"/><path fill="none" stroke="#f8bbd9" stroke-width=".6" d="M-8 2c3-2 6-4 8-6M-6 6c3-2 6-4 8-8m-4 12C2 8 6 4 8 0"/></g></svg>