<svg xmlns="http://www.w3.org/2000/svg" height="20" opacity=".9" viewBox="0 0 400 20"><defs><linearGradient id="a" x1="0" x2="0" y1="0" y2="1"><stop offset="0%" stop-color="#f5d98a"/><stop offset="100%" stop-color="#c8922a"/></linearGradient><linearGradient id="b" x1="0" x2="0" y1="0" y2="1"><stop offset="0%" stop-color="#00bcd4" stop-opacity=".85"/><stop offset="100%" stop-color="#006080"/></linearGradient><filter id="c" width="140%" height="140%" x="-20%" y="-20%"><feDropShadow dx="0" dy="0" flood-color="#00e5cc" flood-opacity=".7" stdDeviation="1.5"/></filter><filter id="e" width="160%" height="160%" x="-30%" y="-30%"><feDropShadow dx="0" dy="0" flood-color="#f90" flood-opacity=".6" stdDeviation="2"/></filter><g id="d" stroke="#c8822a"><ellipse fill="#f5c5a0" stroke-width=".5" rx="4" ry="2.5"/><path stroke-width=".4" d="M-3.5 0h7" opacity=".7"/><path stroke-width=".3" d="M-2.5-1.2h5m-5 2.4h5" opacity=".5"/></g><g id="g"><path fill="#8b5a2b" stroke="#5c3800" stroke-width=".4" d="M0 0q1-4 0-10-1 6 0 10"/><path fill="none" stroke="#2a0" stroke-linecap="round" stroke-width="1.5" d="M0-10q-8-4-10-2m10 2q-4-6-2-5"/><path fill="none" stroke="#2acc00" stroke-linecap="round" stroke-width="1.5" d="M0-10q8-4 10-2M0-10q4-6 2-5"/><path fill="none" stroke="#3b0" stroke-linecap="round" stroke-width="1.2" d="M0-10q0-6 1-5"/></g></defs><path fill="url(#a)" d="M0 13h400v7H0z"/><path fill="url(#b)" d="M0 13c20-5 40 1 60-3s40 3 60 0 40 3 60 0 40 3 60 0 40 3 60 0 40 3 60 0 40 3 40 2v2H0Z" filter="url(#c)"/><path fill="none" stroke="#fff" stroke-width=".6" d="M0 13c20-5 40 1 60-3s40 3 60 0 40 3 60 0 40 3 60 0 40 3 60 0 40 3 60 0 40 3 40 2" opacity=".5"/><use href="#d" transform="translate(22 16)"/><use href="#d" transform="rotate(25 -4.713 154.848)"/><use href="#d" transform="rotate(-15 115.766 -409.766)"/><use href="#d" transform="translate(155 16.5)"/><use href="#d" transform="rotate(20 54.63 575.128)"/><use href="#d" transform="rotate(-10 215.798 -1380.501)"/><use href="#d" transform="translate(288 16)"/><use href="#d" transform="rotate(15 103.835 1272.943)"/><use href="#d" transform="rotate(-20 233.37 -1058.201)"/><use filter="url(#e)" href="#g" transform="translate(50 20)"/><use filter="url(#e)" href="#g" transform="translate(200 20)"/><use filter="url(#e)" href="#g" transform="translate(350 20)"/></svg>