<svg xmlns="http://www.w3.org/2000/svg" viewBox="0 0 80 56"><defs><linearGradient id="a" x1="0" x2="0" y1="0" y2="1"><stop offset="0%" stop-color="#3a1008"/><stop offset="100%" stop-color="#1c0804"/></linearGradient><linearGradient id="d" x1="0" x2="0" y1="0" y2="1"><stop offset="0%" stop-color="#3890c8"/><stop offset="100%" stop-color="#1850a0"/></linearGradient><linearGradient id="e" x1="0" x2="0" y1="0" y2="1"><stop offset="0%" stop-color="#e8b860"/><stop offset="100%" stop-color="#c89040"/></linearGradient><radialGradient id="b" cx="50%" cy="100%" r="60%"><stop offset="0%" stop-color="#ffd840"/><stop offset="35%" stop-color="#ff8020"/><stop offset="100%" stop-color="#cc3800" stop-opacity=".6"/></radialGradient></defs><rect width="80" height="56" fill="url(#a)" rx="6"/><rect width="80" height="36" fill="#220a04" opacity=".3" rx="0"/><circle cx="40" cy="32" r="20" fill="#ff6010" opacity=".2"/><circle cx="40" cy="32" r="14" fill="#ff8020" opacity=".15"/><clipPath id="c"><path d="M22 0h36v32H22z"/></clipPath><circle cx="40" cy="32" r="10" fill="url(#b)" clip-path="url(#c)"/><path fill="#ff8020" d="M36 33q4 3 8 0-4 5-8 0" opacity=".5"/><path fill="url(#d)" d="M0 32h80v12H0z"/><path fill="#2870b0" d="M0 34q10-3 20 0t20 0 20 0 20 0v10H0Z" opacity=".6"/><path fill="url(#e)" d="M0 42q20-3 40 0t40-1v15H0Z"/><path stroke="#ff9040" stroke-width=".8" d="M0 32h80" opacity=".6"/><path fill="none" stroke="#5a3010" stroke-linecap="round" stroke-width="2.5" d="M64 44q-1-6 1-12 1-4-1-8"/><path fill="none" stroke="#1a6820" stroke-linecap="round" stroke-width="2" d="M64 24q-8-6-12-4"/><path fill="none" stroke="#228828" stroke-linecap="round" stroke-width="1.8" d="M64 24q-4-8-6-10"/><path fill="none" stroke="#1a6820" stroke-linecap="round" stroke-width="1.8" d="M64 24q4-8 8-8"/><path fill="none" stroke="#228828" stroke-linecap="round" stroke-width="1.8" d="M64 24q6-4 10-2"/><path fill="none" stroke="#1e7022" stroke-linecap="round" stroke-width="1.5" d="M64 24q-2-4-6-3"/><circle cx="62" cy="26" r="1.8" fill="#5a3010"/><circle cx="65" cy="25" r="1.5" fill="#4a2808"/><path fill="none" stroke="#1a0804" d="M18 16q2-2 4 0" opacity=".6"/><path fill="none" stroke="#1a0804" d="M24 14q2-2 4 0" opacity=".5"/><text x="40" y="52" fill="#f09838" dominant-baseline="middle" font-family="Arial, sans-serif" font-size="8" font-weight="bold" text-anchor="middle">PLAGE</text><rect width="80" height="20" fill="#fff" opacity=".07" rx="6"/><rect width="80" height="8" fill="#fff" opacity=".08" rx="6"/></svg>