<svg xmlns="http://www.w3.org/2000/svg" width="120" height="100" viewBox="0 0 120 100"><defs><linearGradient id="b" x1="0%" x2="100%" y1="0%" y2="100%"><stop offset="0%" stop-color="#a0dcff"/><stop offset="50%" stop-color="#60b8f0"/><stop offset="100%" stop-color="#2888c8"/></linearGradient><linearGradient id="e" x1="0%" x2="60%" y1="0%" y2="100%"><stop offset="0%" stop-color="#fff" stop-opacity=".6"/><stop offset="40%" stop-color="#fff" stop-opacity=".1"/><stop offset="100%" stop-color="#fff" stop-opacity="0"/></linearGradient><linearGradient id="c" x1="0%" x2="100%" y1="0%" y2="0%"><stop offset="0%" stop-color="#1850a0"/><stop offset="100%" stop-color="#2868b8"/></linearGradient><linearGradient id="d" x1="0%" x2="100%" y1="0%" y2="0%"><stop offset="0%" stop-color="#3888c0"/><stop offset="100%" stop-color="#5098cc"/></linearGradient><filter id="a" width="140%" height="140%" x="-15%" y="-15%"><feDropShadow dx="2" dy="3" flood-color="#40a8ff" flood-opacity=".5" stdDeviation="4"/></filter></defs><g stroke-width=".7" filter="url(#a)"><path fill="url(#b)" stroke="#a0d8ff" d="m60 24 45.2 26L60 76 14.8 50z" opacity=".85"/><path fill="url(#c)" stroke="#204890" d="M14.8 50 60 76v26L14.8 76z" opacity=".92"/><path fill="url(#d)" stroke="#4090c0" d="M105.2 50 60 76v26l45.2-26z" opacity=".9"/></g><path fill="url(#e)" d="m60 24 45.2 26L60 76 14.8 50z"/><path fill="#fff" d="m60 28 30 20-30 10-30-10z" opacity=".12"/><path stroke="#c0ecff" stroke-width="1.2" d="M14.8 50 60 24m0 0 45.2 26" opacity=".7"/></svg>