<svg xmlns="http://www.w3.org/2000/svg" viewBox="0 0 200 140"><defs><linearGradient id="a" x1="0%" x2="100%" y1="0%" y2="100%"><stop offset="0%" stop-color="#2060a0"/><stop offset="100%" stop-color="#0a2040"/></linearGradient><linearGradient id="h" x1="0%" x2="60%" y1="0%" y2="100%"><stop offset="0%" stop-color="#fff" stop-opacity=".22"/><stop offset="45%" stop-color="#fff" stop-opacity=".06"/><stop offset="100%" stop-color="#fff" stop-opacity="0"/></linearGradient><linearGradient id="d" x1="0%" x2="100%" y1="0%" y2="100%"><stop offset="0%" stop-color="#a0dcff"/><stop offset="50%" stop-color="#60b8f0"/><stop offset="100%" stop-color="#2888c8"/></linearGradient><linearGradient id="g" x1="0%" x2="60%" y1="0%" y2="100%"><stop offset="0%" stop-color="#fff" stop-opacity=".65"/><stop offset="40%" stop-color="#fff" stop-opacity=".12"/><stop offset="100%" stop-color="#fff" stop-opacity="0"/></linearGradient><linearGradient id="e" x1="0%" x2="100%" y1="0%" y2="0%"><stop offset="0%" stop-color="#1850a0"/><stop offset="100%" stop-color="#2868b8"/></linearGradient><linearGradient id="f" x1="0%" x2="100%" y1="0%" y2="0%"><stop offset="0%" stop-color="#3888c0"/><stop offset="100%" stop-color="#5098cc"/></linearGradient><filter id="c" width="150%" height="150%" x="-20%" y="-20%"><feDropShadow dx="2" dy="3" flood-color="#40a8ff" flood-opacity=".55" stdDeviation="4"/></filter><filter id="b" width="160%" height="160%" x="-30%" y="-30%"><feGaussianBlur result="blur" stdDeviation="3"/><feComposite in="SourceGraphic" in2="blur"/></filter></defs><rect width="200" height="140" fill="url(#a)" rx="10"/><ellipse cx="100" cy="62" fill="#40a8ff" filter="url(#b)" opacity=".12" rx="38" ry="22"/><g stroke-width=".8" filter="url(#c)"><path fill="url(#d)" stroke="#a0d8ff" d="m100 30 27.7 16L100 62 72.3 46z" opacity=".88"/><path fill="url(#e)" stroke="#204890" d="M72.3 46 100 62v16L72.3 62z" opacity=".92"/><path fill="url(#f)" stroke="#4090c0" d="M127.7 46 100 62v16l27.7-16z" opacity=".9"/></g><path fill="url(#g)" d="m100 30 27.7 16L100 62 72.3 46z"/><path fill="#fff" d="m100 33 20 11-20 11-20-11z" opacity=".13"/><path stroke="#c0ecff" stroke-width="1.2" d="M72.3 46 100 30m0 0 27.7 16" opacity=".75"/><rect width="200" height="140" fill="url(#h)" rx="10"/><text x="100" y="115" fill="#0ef" stroke="#0a2040" stroke-width="2" font-family="Arial Black, Arial, sans-serif" font-size="14" font-weight="900" letter-spacing="2" paint-order="stroke" text-anchor="middle">CRISTAL</text><rect width="198" height="138" x="1" y="1" fill="none" stroke="#60b8ff" stroke-width="1.5" opacity=".7" rx="9.5"/></svg>