<svg xmlns="http://www.w3.org/2000/svg" preserveAspectRatio="xMidYMid slice" viewBox="0 0 3840 2160"><defs><filter id="m" width="220%" height="220%" x="-60%" y="-60%"><feGaussianBlur in="SourceGraphic" result="b1" stdDeviation="10"/><feGaussianBlur in="SourceGraphic" result="b2" stdDeviation="25"/><feColorMatrix in="b1" result="c1" values="0 0 0 0 0.36 0 0 0 0 0.79 0 0 0 0 0.25 0 0 0 1.8 0"/><feColorMatrix in="b2" result="c2" values="0 0 0 0 0.36 0 0 0 0 0.79 0 0 0 0 0.25 0 0 0 0.9 0"/><feMerge><feMergeNode in="c2"/><feMergeNode in="c1"/><feMergeNode in="SourceGraphic"/></feMerge></filter><filter id="l" width="220%" height="220%" x="-60%" y="-60%"><feGaussianBlur in="SourceGraphic" result="b1" stdDeviation="8"/><feGaussianBlur in="SourceGraphic" result="b2" stdDeviation="20"/><feColorMatrix in="b1" result="c1" values="0 0 0 0 0.83 0 0 0 0 0.69 0 0 0 0 0.19 0 0 0 2.2 0"/><feColorMatrix in="b2" result="c2" values="0 0 0 0 0.83 0 0 0 0 0.69 0 0 0 0 0.19 0 0 0 0.8 0"/><feMerge><feMergeNode in="c2"/><feMergeNode in="c1"/><feMergeNode in="SourceGraphic"/></feMerge></filter><filter id="k" width="150%" height="150%" x="-25%" y="-25%"><feDropShadow dx="0" dy="6" flood-color="#060e06" flood-opacity=".95" stdDeviation="18"/></filter><filter id="q" width="100%" height="100%" x="0%" y="0%"><feTurbulence baseFrequency=".75" numOctaves="4" result="n" stitchTiles="stitch" type="fractalNoise"/><feColorMatrix in="n" result="gn" type="saturate" values="0"/><feBlend in="SourceGraphic" in2="gn" mode="overlay" result="bl"/><feComposite in="bl" in2="SourceGraphic" operator="in"/></filter><filter id="j" width="130%" height="130%" x="-15%" y="-15%"><feGaussianBlur stdDeviation="5"/></filter><filter id="c" width="160%" height="160%" x="-30%" y="-30%"><feGaussianBlur stdDeviation="18"/></filter><filter id="e" width="140%" height="140%" x="-20%" y="-20%"><feGaussianBlur stdDeviation="9"/></filter><radialGradient id="b" cx="50%" cy="25%" r="65%" gradientUnits="userSpaceOnUse"><stop offset="0%" stop-color="#2e4820" stop-opacity=".7"/><stop offset="60%" stop-color="#0f2310" stop-opacity=".3"/><stop offset="100%" stop-color="#060e06" stop-opacity="0"/></radialGradient><radialGradient id="d" cx="20%" cy="50%" r="50%" gradientUnits="userSpaceOnUse"><stop offset="0%" stop-color="#183810" stop-opacity=".5"/><stop offset="100%" stop-color="#081508" stop-opacity="0"/></radialGradient><radialGradient id="f" cx="80%" cy="60%" r="45%" gradientUnits="userSpaceOnUse"><stop offset="0%" stop-color="#1a3c12" stop-opacity=".4"/><stop offset="100%" stop-color="#081508" stop-opacity="0"/></radialGradient><radialGradient id="p" cx="50%" cy="50%" r="75%" gradientUnits="userSpaceOnUse"><stop offset="35%" stop-opacity="0"/><stop offset="100%" stop-opacity=".88"/></radialGradient><radialGradient id="n" cx="22%" cy="6%" r="30%" gradientUnits="userSpaceOnUse"><stop offset="0%" stop-color="#90ff80" stop-opacity=".5"/><stop offset="55%" stop-color="#5dc940" stop-opacity=".15"/><stop offset="100%" stop-color="#081508" stop-opacity="0"/></radialGradient><linearGradient id="a" x1="0%" x2="0%" y1="0%" y2="100%"><stop offset="0%" stop-color="#060e06"/><stop offset="25%" stop-color="#0a180a"/><stop offset="60%" stop-color="#0f2310"/><stop offset="85%" stop-color="#183810"/><stop offset="100%" stop-color="#081508"/></linearGradient><linearGradient id="g" x1="48%" x2="52%" y1="0%" y2="100%"><stop offset="0%" stop-color="#90ff80" stop-opacity=".3"/><stop offset="70%" stop-color="#5dc940" stop-opacity=".05"/><stop offset="100%" stop-color="#5dc940" stop-opacity="0"/></linearGradient><linearGradient id="h" x1="46%" x2="54%" y1="0%" y2="100%"><stop offset="0%" stop-color="#d4b030" stop-opacity=".2"/><stop offset="60%" stop-color="#d4b030" stop-opacity=".03"/><stop offset="100%" stop-color="#d4b030" stop-opacity="0"/></linearGradient><linearGradient id="i" x1="0%" x2="100%" y1="50%" y2="50%"><stop offset="0%" stop-color="#2e4820" stop-opacity=".45"/><stop offset="25%" stop-color="#5a9048" stop-opacity=".18"/><stop offset="75%" stop-color="#5a9048" stop-opacity=".18"/><stop offset="100%" stop-color="#2e4820" stop-opacity=".45"/></linearGradient><linearGradient id="o" x1="0%" x2="0%" y1="0%" y2="100%"><stop offset="0%" stop-color="#081508" stop-opacity="0"/><stop offset="100%" stop-color="#030703"/></linearGradient></defs><path fill="url(#a)" d="M0 0h3840v2160H0z"/><path fill="url(#b)" d="M0 0h3840v2160H0z" filter="url(#c)" opacity=".9"/><path fill="url(#d)" d="M0 0h3840v2160H0z" filter="url(#e)" opacity=".7"/><path fill="url(#f)" d="M0 0h3840v2160H0z" filter="url(#e)" opacity=".6"/><g filter="url(#c)" opacity=".5"><ellipse cx="320" cy="950" fill="#0c1c0a" rx="400" ry="700"/><ellipse cx="820" cy="880" fill="#0d1e0b" rx="440" ry="720"/><ellipse cx="1380" cy="920" fill="#0c1c0a" rx="380" ry="680"/><ellipse cx="1980" cy="900" fill="#0d1e0b" rx="420" ry="710"/><ellipse cx="2560" cy="910" fill="#0c1c0a" rx="390" ry="695"/><ellipse cx="3120" cy="890" fill="#0d1e0b" rx="430" ry="705"/><ellipse cx="3680" cy="930" fill="#0c1c0a" rx="400" ry="690"/><path fill="#081508" d="M270 950h110v800H270zm500-70h130v870H770zm560 40h100v830h-100zm600-20h120v850h-120zm580 10h105v840h-105zm560-20h125v860h-125zm560 40h115v820h-115z"/></g><g filter="url(#e)" opacity=".75"><ellipse cx="100" cy="750" fill="#142e0e" rx="340" ry="560"/><ellipse cx="580" cy="700" fill="#183810" rx="370" ry="580"/><ellipse cx="1100" cy="720" fill="#152f0f" rx="320" ry="550"/><ellipse cx="1700" cy="710" fill="#183810" rx="355" ry="570"/><ellipse cx="2280" cy="715" fill="#142e0e" rx="335" ry="555"/><ellipse cx="2850" cy="705" fill="#183810" rx="360" ry="575"/><ellipse cx="3380" cy="720" fill="#152f0f" rx="340" ry="560"/><ellipse cx="3800" cy="740" fill="#183810" rx="300" ry="540"/><path fill="#0a1a08" d="M50 750h120v1000H50zm480-50h140v1050H530zm520 20h110v1020h-110zm600-10h130v1040h-130zm580 5h115v1030h-115zm570-10h135v1045h-135zm530 15h125v1010h-125z"/></g><g fill="url(#g)" filter="url(#c)" opacity=".4"><path d="M1840 0h80l330 2160h-500z"/><path d="M1710 0h80l230 2160h-380z"/><path d="M1960 0h70l320 2160h-270z"/><path d="M1580 0h60l190 2160h-330z"/><path d="M2070 0h70l360 2160h-200z"/><path d="M1450 0h60l170 2160h-330z"/><path d="M2200 0h60l420 2160h-200z"/></g><g fill="url(#h)" filter="url(#c)" opacity=".22"><path d="M1870 0h50l200 2160h-280z"/><path d="M1740 0h60l140 2160h-260z"/><path d="M2000 0h40l240 2160h-160z"/></g><path fill="url(#i)" d="M0 550h3840v350H0z" filter="url(#c)" opacity=".55"/><path fill="url(#i)" d="M0 850h3840v280H0z" filter="url(#c)" opacity=".4"/><path fill="url(#i)" d="M0 1100h3840v240H0z" filter="url(#c)" opacity=".3"/><path fill="url(#i)" d="M0 1400h3840v280H0z" filter="url(#c)" opacity=".35"/><path fill="url(#i)" d="M0 1700h3840v260H0z" filter="url(#c)" opacity=".25"/><g stroke-linecap="round" filter="url(#j)" opacity=".65"><path fill="none" stroke="#2e4820" stroke-width="7" d="M250 0c-10 250 20 500-20 750s20 500-20 750 20 500 10 660"/><path fill="none" stroke="#3a5828" stroke-width="5" d="M420 0c20 300-20 600 10 900s-40 600-10 900 10 360 10 360"/><path fill="none" stroke="#2e4820" stroke-width="7" d="M3580 0c20 200-20 450 10 700s-20 500 10 750-20 500 0 710"/><path fill="none" stroke="#3a5828" stroke-width="5" d="M3420 0c-20 280 20 560-10 840s20 560-10 840 10 480 10 480"/><path fill="none" stroke="#2e4820" stroke-width="4" d="M700 0c20 180-10 360 10 540s-10 360 10 510"/><path fill="none" stroke="#2e4820" stroke-width="3" d="M1100 0c20 200-20 420 10 640s-10 440 10 640"/><path fill="none" stroke="#2e4820" stroke-width="4" d="M1600 0c20 170-20 350 10 530"/><path fill="none" stroke="#2e4820" stroke-width="3" d="M2200 0c20 190-20 390 10 590s-10 400 10 590"/><path fill="none" stroke="#2e4820" stroke-width="4" d="M2700 0c20 160-20 340 10 520"/><path fill="none" stroke="#2e4820" stroke-width="3" d="M3100 0c20 200-20 410 10 620s-10 420 10 630"/><ellipse cx="240" cy="420" fill="#2e4820" opacity=".75" rx="35" ry="22"/><ellipse cx="255" cy="800" fill="#244018" opacity=".7" rx="40" ry="25"/><ellipse cx="235" cy="1200" fill="#2e4820" opacity=".65" rx="32" ry="20"/><ellipse cx="425" cy="620" fill="#3a5828" opacity=".75" rx="30" ry="18"/><ellipse cx="3590" cy="380" fill="#2e4820" opacity=".75" rx="38" ry="24"/><ellipse cx="3605" cy="780" fill="#244018" opacity=".7" rx="42" ry="26"/><ellipse cx="3595" cy="1180" fill="#2e4820" opacity=".65" rx="34" ry="21"/></g><g filter="url(#k)"><path fill="#0c1a0a" d="M0 550q280-300 520-70Q310 720 0 820Z" opacity=".97"/><path fill="#0e1f0c" d="M0 320q360-220 580 60Q300 560 0 610Z" opacity=".93"/><path fill="#081508" d="M0 1050q320-230 540 10-260 240-540 320Z" opacity=".97"/><path fill="#0a1a08" d="M0 1500q250-200 420 20-220 220-420 280Z" opacity=".9"/><path fill="#0c1a0a" d="M3840 480q-280-260-520-10 240 250 520 310Z" opacity=".97"/><path fill="#0e1f0c" d="M3840 280q-340-200-560 50 260 190 560 240Z" opacity=".93"/><path fill="#081508" d="M3840 980q-320-220-540 20 240 240 540 300Z" opacity=".97"/><path fill="#0a1a08" d="M3840 1450q-240-200-440 20 220 210 440 270Z" opacity=".9"/><ellipse cx="450" cy="2120" fill="#081508" opacity=".97" rx="650" ry="220"/><ellipse cx="1300" cy="2140" fill="#0a1a08" opacity=".93" rx="750" ry="200"/><ellipse cx="2100" cy="2125" fill="#081508" opacity=".97" rx="700" ry="210"/><ellipse cx="2900" cy="2130" fill="#0a1a08" opacity=".93" rx="680" ry="205"/><ellipse cx="3600" cy="2115" fill="#081508" opacity=".97" rx="620" ry="215"/></g><g stroke="#2e4820" stroke-width="2" filter="url(#e)" opacity=".45"><path fill="#1a3810" d="m550 1420 130-62 130 62v124l-130 62-130-62z"/><path fill="#2e4820" d="m680 1358 130 62v-124l-130-62z"/><path fill="#122e0a" d="m550 1420 130-62v-124l-130 62z"/><path fill="#1a3810" d="m2750 1280 140-68 140 68v132l-140 68-140-68z"/><path fill="#2e4820" d="m2890 1212 140 68v-132l-140-68z"/><path fill="#122e0a" d="m2750 1280 140-68v-132l-140 68z"/><path fill="#1a3810" d="m1380 1580 130-66 130 66v132l-130 66-130-66z"/><path fill="#2e4820" d="m1510 1514 130 66v-132l-130-66z"/><path fill="#122e0a" d="m1380 1580 130-66v-132l-130 66z"/><path fill="#1a3810" d="m2050 1480 150-74 150 74v148l-150 74-150-74z"/><path fill="#2e4820" d="m2200 1406 150 74v-148l-150-74z"/><path fill="#122e0a" d="m2050 1480 150-74v-148l-150 74z"/></g><g filter="url(#l)"><circle cx="410" cy="1080" r="5" fill="#d4b030" opacity=".92"/><circle cx="680" cy="890" r="4" fill="#ffe080" opacity=".85"/><circle cx="950" cy="1180" r="6" fill="#d4b030" opacity=".95"/><circle cx="1180" cy="780" r="4" fill="#ffe080" opacity=".8"/><circle cx="1420" cy="1090" r="5" fill="#d4b030" opacity=".88"/><circle cx="1700" cy="740" r="4" fill="#d4b030" opacity=".82"/><circle cx="1950" cy="1250" r="6" fill="#d4b030" opacity=".92"/><circle cx="2180" cy="930" r="4" fill="#ffe080" opacity=".78"/><circle cx="2420" cy="1130" r="5" fill="#d4b030" opacity=".88"/><circle cx="2700" cy="840" r="4" fill="#d4b030" opacity=".83"/><circle cx="2980" cy="1190" r="6" fill="#d4b030" opacity=".92"/><circle cx="3220" cy="980" r="4" fill="#ffe080" opacity=".75"/><circle cx="3480" cy="1100" r="5" fill="#d4b030" opacity=".88"/><circle cx="320" cy="1380" r="4" fill="#d4b030" opacity=".72"/><circle cx="590" cy="1560" r="3" fill="#ffe080" opacity=".65"/><circle cx="870" cy="1440" r="5" fill="#d4b030" opacity=".78"/><circle cx="1150" cy="1520" r="3" fill="#ffe080" opacity=".68"/><circle cx="1480" cy="1380" r="4" fill="#d4b030" opacity=".75"/><circle cx="1750" cy="1620" r="3" fill="#d4b030" opacity=".7"/><circle cx="2050" cy="1480" r="5" fill="#d4b030" opacity=".82"/><circle cx="2340" cy="1580" r="3" fill="#ffe080" opacity=".72"/><circle cx="2620" cy="1420" r="4" fill="#d4b030" opacity=".78"/><circle cx="2880" cy="1540" r="3" fill="#ffe080" opacity=".68"/><circle cx="3150" cy="1460" r="5" fill="#d4b030" opacity=".82"/><circle cx="3420" cy="1580" r="3" fill="#d4b030" opacity=".7"/><circle cx="480" cy="670" r="3" fill="#ffe080" opacity=".62"/><circle cx="780" cy="610" r="2" fill="#d4b030" opacity=".58"/><circle cx="1100" cy="650" r="3" fill="#ffe080" opacity=".55"/><circle cx="1500" cy="630" r="2" fill="#d4b030" opacity=".58"/><circle cx="1900" cy="640" r="3" fill="#ffe080" opacity=".55"/><circle cx="2300" cy="620" r="2" fill="#d4b030" opacity=".58"/><circle cx="2700" cy="645" r="3" fill="#ffe080" opacity=".55"/><circle cx="3100" cy="635" r="2" fill="#d4b030" opacity=".58"/><circle cx="3500" cy="655" r="3" fill="#ffe080" opacity=".55"/><circle cx="560" cy="1750" r="3" fill="#d4b030" opacity=".52"/><circle cx="1000" cy="1780" r="3" fill="#ffe080" opacity=".48"/><circle cx="1600" cy="1760" r="3" fill="#d4b030" opacity=".52"/><circle cx="2200" cy="1740" r="3" fill="#ffe080" opacity=".48"/><circle cx="2800" cy="1755" r="3" fill="#d4b030" opacity=".52"/><circle cx="3300" cy="1765" r="3" fill="#ffe080" opacity=".48"/></g><g filter="url(#m)"><circle cx="460" cy="1030" r="4" fill="#5dc940" opacity=".82"/><circle cx="820" cy="1120" r="5" fill="#90ff80" opacity=".75"/><circle cx="1260" cy="940" r="4" fill="#5dc940" opacity=".88"/><circle cx="1620" cy="1180" r="5" fill="#90ff80" opacity=".78"/><circle cx="2020" cy="1040" r="4" fill="#5dc940" opacity=".82"/><circle cx="2380" cy="1270" r="5" fill="#90ff80" opacity=".75"/><circle cx="2780" cy="1080" r="4" fill="#5dc940" opacity=".82"/><circle cx="3180" cy="1220" r="5" fill="#90ff80" opacity=".78"/><circle cx="640" cy="1320" r="4" fill="#5dc940" opacity=".72"/><circle cx="1040" cy="1420" r="5" fill="#90ff80" opacity=".68"/><circle cx="1740" cy="1360" r="4" fill="#5dc940" opacity=".75"/><circle cx="2240" cy="1480" r="5" fill="#90ff80" opacity=".72"/><circle cx="2640" cy="1440" r="4" fill="#5dc940" opacity=".78"/><circle cx="3040" cy="1380" r="5" fill="#90ff80" opacity=".72"/><circle cx="380" cy="880" r="3" fill="#5dc940" opacity=".62"/><circle cx="960" cy="820" r="3" fill="#90ff80" opacity=".58"/><circle cx="1560" cy="850" r="3" fill="#5dc940" opacity=".62"/><circle cx="2160" cy="830" r="3" fill="#90ff80" opacity=".58"/><circle cx="2760" cy="845" r="3" fill="#5dc940" opacity=".62"/><circle cx="3360" cy="835" r="3" fill="#90ff80" opacity=".58"/><circle cx="700" cy="1680" r="4" fill="#5dc940" opacity=".52"/><circle cx="1400" cy="1700" r="4" fill="#90ff80" opacity=".48"/><circle cx="2100" cy="1690" r="4" fill="#5dc940" opacity=".52"/><circle cx="2800" cy="1680" r="4" fill="#90ff80" opacity=".48"/><circle cx="3400" cy="1695" r="4" fill="#5dc940" opacity=".52"/></g><ellipse cx="850" cy="160" fill="url(#n)" filter="url(#c)" opacity=".8" rx="900" ry="320"/><ellipse cx="1920" cy="80" fill="#90ff80" filter="url(#c)" opacity=".07" rx="500" ry="180"/><path fill="#0f2310" d="M0 0h3840v500H0z" filter="url(#c)" opacity=".7"/><path fill="#060e06" d="M0 0h3840v280H0z" opacity=".85"/><path fill="url(#o)" d="M0 1780h3840v380H0z" opacity=".9"/><path fill="#040c04" d="M0 1980h3840v180H0z" opacity=".95"/><path fill="url(#b)" d="M0 650h3840v600H0z" filter="url(#c)" opacity=".35"/><path fill="url(#p)" d="M0 0h3840v2160H0z"/><path fill="#2e4820" d="M0 0h3840v2160H0z" filter="url(#q)" opacity=".035"/></svg>