<svg xmlns="http://www.w3.org/2000/svg" width="80" height="80" opacity=".85" viewBox="0 0 80 80"><defs><radialGradient id="b" cx="50%" cy="50%" r="50%"><stop offset="0%" stop-color="#4caf50"/><stop offset="100%" stop-color="#1b5e20"/></radialGradient><radialGradient id="c" cx="50%" cy="50%" r="50%"><stop offset="0%" stop-color="#fff176"/><stop offset="100%" stop-color="#f9a825"/></radialGradient><filter id="a" width="140%" height="140%" x="-20%" y="-20%"><feDropShadow dx="1" dy="1" flood-color="#1b5e20" flood-opacity=".6" stdDeviation="1.5"/></filter></defs><path fill="none" stroke="#2e7d32" stroke-linecap="round" stroke-width="2.5" d="M0 0c8 12 5 25 14 32 8 7 4 20 14 26 8 5 12 14 10 22" filter="url(#a)"/><path fill="none" stroke="#388e3c" stroke-linecap="round" stroke-width="1.8" d="M0 0c15 6 28 10 32 22 4 10 16 14 20 26 4 10 10 18 16 24" filter="url(#a)"/><ellipse cx="18" cy="28" fill="url(#b)" filter="url(#a)" rx="10" ry="5" transform="rotate(-35 18 28)"/><path stroke="#1b5e20" stroke-width=".8" d="m10 31 16-6"/><ellipse cx="30" cy="50" fill="url(#b)" filter="url(#a)" rx="9" ry="4.5" transform="rotate(20 30 50)"/><path stroke="#1b5e20" stroke-width=".8" d="m22 52 16-4"/><ellipse cx="36" cy="18" fill="#33691e" filter="url(#a)" rx="8" ry="4" transform="rotate(10 36 18)"/><path stroke="#1b5e20" stroke-width=".7" d="m29 19 14-2"/><ellipse cx="56" cy="62" fill="url(#b)" filter="url(#a)" rx="7" ry="3.5" transform="rotate(-15 56 62)"/><g filter="url(#a)" transform="translate(52 30)"><ellipse cy="-7" fill="#e91e63" rx="3" ry="5.5"/><ellipse cy="-7" fill="#e91e63" rx="3" ry="5.5" transform="rotate(72)"/><ellipse cy="-7" fill="#e91e63" rx="3" ry="5.5" transform="rotate(144)"/><ellipse cy="-7" fill="#ad1457" rx="3" ry="5.5" transform="rotate(216)"/><ellipse cy="-7" fill="#ad1457" rx="3" ry="5.5" transform="rotate(288)"/><circle r="4" fill="url(#c)"/></g><path fill="none" stroke="#2e7d32" stroke-linecap="round" stroke-width="1.2" d="M14 32q-6 6-4 12T8 54"/></svg>