<svg xmlns="http://www.w3.org/2000/svg" height="20" opacity=".9" viewBox="0 0 400 20"><defs><g id="b" transform="rotate(-35)"><ellipse fill="#3a8c1e" filter="url(#a)" rx="7" ry="3"/><path stroke="#1d5c0a" stroke-width=".5" d="M0-3v6"/></g><g id="c"><circle r="1.5" fill="gold"/><circle cy="-2.5" r="1" fill="#ffe066" opacity=".85"/><circle cy="2.5" r="1" fill="#ffe066" opacity=".85"/><circle cx="-2.5" r="1" fill="#ffe066" opacity=".85"/><circle cx="2.5" r="1" fill="#ffe066" opacity=".85"/></g><filter id="a" width="140%" height="140%" x="-20%" y="-20%"><feDropShadow dx="0" dy="0" flood-color="#7fff00" flood-opacity=".7" stdDeviation="1.5"/></filter></defs><path fill="#1a4d08" d="M0 15h400v5H0z" opacity=".6"/><use href="#b" transform="translate(18 11)"/><use href="#b" transform="matrix(-1 0 0 1 54 9)"/><use href="#b" transform="translate(90 11)"/><use href="#b" transform="matrix(-1 0 0 1 126 9)"/><use href="#b" transform="translate(162 11)"/><use href="#b" transform="matrix(-1 0 0 1 198 9)"/><use href="#b" transform="translate(234 11)"/><use href="#b" transform="matrix(-1 0 0 1 270 9)"/><use href="#b" transform="translate(306 11)"/><use href="#b" transform="matrix(-1 0 0 1 342 9)"/><use href="#b" transform="translate(378 11)"/><use href="#c" transform="translate(36 14)"/><use href="#c" transform="translate(72 13)"/><use href="#c" transform="translate(108 14)"/><use href="#c" transform="translate(144 13)"/><use href="#c" transform="translate(180 14)"/><use href="#c" transform="translate(216 13)"/><use href="#c" transform="translate(252 14)"/><use href="#c" transform="translate(288 13)"/><use href="#c" transform="translate(324 14)"/><use href="#c" transform="translate(360 13)"/></svg>