<svg xmlns="http://www.w3.org/2000/svg" viewBox="0 0 80 56"><defs><radialGradient id="b" cx="50%" cy="50%" r="50%"><stop offset="0%" stop-color="#2a7a10"/><stop offset="100%" stop-color="#144a06"/></radialGradient><radialGradient id="c" cx="50%" cy="50%" r="50%"><stop offset="0%" stop-color="#fe4" stop-opacity=".9"/><stop offset="100%" stop-color="#fe4" stop-opacity="0"/></radialGradient><radialGradient id="d" cx="50%" cy="50%" r="50%"><stop offset="0%" stop-color="#cf2" stop-opacity=".9"/><stop offset="100%" stop-color="#cf2" stop-opacity="0"/></radialGradient><linearGradient id="a" x1="0" x2="0" y1="0" y2="1"><stop offset="0%" stop-color="#1a3a0a"/><stop offset="100%" stop-color="#081508"/></linearGradient></defs><rect width="80" height="56" fill="url(#a)" rx="6"/><rect width="80" height="14" y="42" fill="#0d2008" opacity=".7" rx="0"/><rect width="80" height="6" y="50" fill="#061004" opacity=".5" rx="0"/><rect width="8" height="18" x="36" y="28" fill="#4a2e10" rx="2"/><rect width="2" height="14" x="37.5" y="30" fill="#5c3a14" opacity=".6" rx="1"/><ellipse cx="40" cy="26" fill="url(#b)" rx="22" ry="14"/><ellipse cx="40" cy="20" fill="#2e8812" rx="16" ry="10"/><ellipse cx="33" cy="24" fill="#1e6808" opacity=".8" rx="10" ry="7"/><ellipse cx="47" cy="24" fill="#1e6808" opacity=".8" rx="10" ry="7"/><ellipse cx="40" cy="14" fill="#3aaa18" rx="11" ry="7"/><ellipse cx="40" cy="13" fill="#4acc20" opacity=".5" rx="6" ry="3"/><circle cx="18" cy="22" r="4" fill="url(#c)"/><circle cx="18" cy="22" r="1.5" fill="#fe4"/><circle cx="62" cy="30" r="3.5" fill="url(#d)"/><circle cx="62" cy="30" r="1.2" fill="#cf4"/><text x="40" y="52" fill="#d4b030" dominant-baseline="middle" font-family="Arial, sans-serif" font-size="8" font-weight="bold" text-anchor="middle">JUNGLE</text><rect width="80" height="20" fill="#fff" opacity=".07" rx="6"/><rect width="80" height="8" fill="#fff" opacity=".08" rx="6"/></svg>