<svg xmlns="http://www.w3.org/2000/svg" width="120" height="100" viewBox="0 0 120 100"><defs><linearGradient id="b" x1="0%" x2="100%" y1="0%" y2="0%"><stop offset="0%" stop-color="#d8e4f0"/><stop offset="45%" stop-color="#7888a0"/><stop offset="100%" stop-color="#c8d4e4"/></linearGradient><linearGradient id="d" x1="0%" x2="100%" y1="0%" y2="0%"><stop offset="0%" stop-color="#404e5e"/><stop offset="100%" stop-color="#5a6878"/></linearGradient><linearGradient id="e" x1="0%" x2="100%" y1="0%" y2="0%"><stop offset="0%" stop-color="#8898a8"/><stop offset="100%" stop-color="#6a7888"/></linearGradient><filter id="c" width="110%" height="110%" x="-5%" y="-5%"><feTurbulence baseFrequency="0.0 0.9" result="stripes" seed="2" type="fractalNoise"/><feColorMatrix in="stripes" result="grayStripes" type="saturate" values="0"/><feBlend in="SourceGraphic" in2="grayStripes" mode="soft-light" result="brushed"/><feComposite in="brushed" in2="SourceGraphic" operator="in"/></filter><filter id="a" width="140%" height="140%" x="-15%" y="-15%"><feDropShadow dx="3" dy="4" flood-color="#101820" flood-opacity=".7" stdDeviation="2"/></filter><radialGradient id="f" cx="30%" cy="35%" r="35%"><stop offset="0%" stop-color="#fff" stop-opacity=".6"/><stop offset="60%" stop-color="#fff" stop-opacity=".1"/><stop offset="100%" stop-color="#fff" stop-opacity="0"/></radialGradient></defs><g stroke="#c8c8c8" filter="url(#a)"><path fill="url(#b)" d="m60 24 45.2 26L60 76 14.8 50z" filter="url(#c)"/><path fill="url(#d)" d="M14.8 50 60 76v26L14.8 76z"/><path fill="url(#e)" d="M105.2 50 60 76v26l45.2-26z"/></g><path fill="url(#f)" d="m60 24 45.2 26L60 76 14.8 50z"/><path stroke="#e8eef8" stroke-width="1.2" d="M14.8 50 60 24m0 0 45.2 26" opacity=".9"/><path stroke="#d0d0d0" d="M60 76v26" opacity=".8"/></svg>