<svg xmlns="http://www.w3.org/2000/svg" viewBox="0 0 200 140"><defs><linearGradient id="a" x1="0%" x2="100%" y1="0%" y2="100%"><stop offset="0%" stop-color="#708090"/><stop offset="100%" stop-color="#303840"/></linearGradient><linearGradient id="f" x1="0%" x2="60%" y1="0%" y2="100%"><stop offset="0%" stop-color="#fff" stop-opacity=".28"/><stop offset="40%" stop-color="#fff" stop-opacity=".08"/><stop offset="100%" stop-color="#fff" stop-opacity="0"/></linearGradient><linearGradient id="c" x1="0%" x2="100%" y1="0%" y2="100%"><stop offset="0%" stop-color="#e8eef4"/><stop offset="30%" stop-color="#a8b8c8"/><stop offset="60%" stop-color="#d0d8e0"/><stop offset="100%" stop-color="#788898"/></linearGradient><linearGradient id="d" x1="0%" x2="100%" y1="0%" y2="0%"><stop offset="0%" stop-color="#404850"/><stop offset="50%" stop-color="#586068"/><stop offset="100%" stop-color="#485058"/></linearGradient><linearGradient id="e" x1="0%" x2="100%" y1="0%" y2="0%"><stop offset="0%" stop-color="#788898"/><stop offset="50%" stop-color="#a0b0c0"/><stop offset="100%" stop-color="#889098"/></linearGradient><filter id="b" width="150%" height="150%" x="-20%" y="-20%"><feDropShadow dx="2" dy="3" flood-color="#101820" flood-opacity=".7" stdDeviation="3"/></filter></defs><rect width="200" height="140" fill="url(#a)" rx="10"/><g stroke-width=".8" filter="url(#b)"><path fill="url(#c)" stroke="#506070" d="m100 30 27.7 16L100 62 72.3 46z"/><path fill="url(#d)" stroke="#303840" d="M72.3 46 100 62v16L72.3 62z"/><path fill="url(#e)" stroke="#607080" d="M127.7 46 100 62v16l27.7-16z"/></g><path fill="#fff" d="m100 30 27.7 16-12.7 8-27.7-16z" opacity=".22"/><path stroke="#e0eaf4" stroke-width="1.5" d="M72.3 46 100 30" opacity=".8"/><path stroke="#d0dce8" d="m100 30 27.7 16" opacity=".6"/><path stroke="#c0d0e0" stroke-width=".6" d="M127.7 52 100 68" opacity=".4"/><path stroke="#c0d0e0" stroke-width=".4" d="M127.7 58 100 74" opacity=".3"/><rect width="200" height="140" fill="url(#f)" rx="10"/><text x="100" y="115" fill="#c0d0e0" stroke="#181e24" stroke-width="2" font-family="Arial Black, Arial, sans-serif" font-size="14" font-weight="900" letter-spacing="2" paint-order="stroke" text-anchor="middle">MÉTAL</text><rect width="198" height="138" x="1" y="1" fill="none" stroke="#90a8c0" stroke-width="1.5" opacity=".75" rx="9.5"/></svg>