<svg xmlns="http://www.w3.org/2000/svg" width="120" height="100" viewBox="0 0 120 100"><defs><linearGradient id="b" x1="0%" x2="100%" y1="0%" y2="100%"><stop offset="0%" stop-color="#0c0a22"/><stop offset="100%" stop-color="#060418"/></linearGradient><linearGradient id="c" x1="0%" x2="100%" y1="0%" y2="0%"><stop offset="0%" stop-color="#040310"/><stop offset="100%" stop-color="#060418"/></linearGradient><linearGradient id="d" x1="0%" x2="100%" y1="0%" y2="0%"><stop offset="0%" stop-color="#080618"/><stop offset="100%" stop-color="#060416"/></linearGradient><filter id="f" width="140%" height="140%" x="-20%" y="-20%"><feGaussianBlur result="blur" stdDeviation="1.5"/><feMerge><feMergeNode in="blur"/><feMergeNode in="SourceGraphic"/></feMerge></filter><filter id="a" width="150%" height="150%" x="-25%" y="-25%"><feDropShadow dx="0" dy="0" flood-color="#0cf" flood-opacity=".7" stdDeviation="5"/></filter><radialGradient id="e" cx="50%" cy="50%" r="45%"><stop offset="0%" stop-color="#0df" stop-opacity=".4"/><stop offset="100%" stop-color="#0df" stop-opacity="0"/></radialGradient><clipPath id="g"><path d="m60 24 45.2 26L60 76 14.8 50z"/></clipPath></defs><g stroke-width=".5" filter="url(#a)"><path fill="url(#b)" stroke="#0df" d="m60 24 45.2 26L60 76 14.8 50z"/><path fill="url(#c)" stroke="#80f" d="M14.8 50 60 76v26L14.8 76z"/><path fill="url(#d)" stroke="#0df" d="M105.2 50 60 76v26l45.2-26z"/></g><path fill="url(#e)" d="m60 24 45.2 26L60 76 14.8 50z"/><g filter="url(#f)"><path stroke="#0df" stroke-width="2" d="M14.8 50 60 24m0 0 45.2 26" opacity=".9"/><path stroke="#0df" stroke-width="1.5" d="M14.8 50 60 76m45.2-26L60 76" opacity=".7"/><path stroke="#80f" stroke-width="1.5" d="M14.8 50v26M60 76v26" opacity=".8"/><path stroke="#0df" stroke-width="1.5" d="M105.2 50v26" opacity=".8"/></g><g stroke="#0df" stroke-width=".5" clip-path="url(#g)" opacity=".25"><path d="M14.8 50h90.4M60 24v52"/></g></svg>