<svg xmlns="http://www.w3.org/2000/svg" viewBox="0 0 200 140"><defs><linearGradient id="a" x1="0%" x2="100%" y1="0%" y2="100%"><stop offset="0%" stop-color="#050418"/><stop offset="100%" stop-color="#0a0820"/></linearGradient><linearGradient id="h" x1="0%" x2="60%" y1="0%" y2="100%"><stop offset="0%" stop-color="#0df" stop-opacity=".1"/><stop offset="50%" stop-color="#0df" stop-opacity=".03"/><stop offset="100%" stop-color="#0df" stop-opacity="0"/></linearGradient><linearGradient id="d" x1="0%" x2="100%" y1="0%" y2="100%"><stop offset="0%" stop-color="#102030"/><stop offset="100%" stop-color="#080f18"/></linearGradient><linearGradient id="e" x1="0%" x2="100%" y1="0%" y2="0%"><stop offset="0%" stop-color="#040810"/><stop offset="100%" stop-color="#081018"/></linearGradient><linearGradient id="f" x1="0%" x2="100%" y1="0%" y2="0%"><stop offset="0%" stop-color="#0a1828"/><stop offset="100%" stop-color="#081018"/></linearGradient><filter id="g" width="180%" height="180%" x="-40%" y="-40%"><feGaussianBlur result="blur" stdDeviation="4"/><feComposite in="SourceGraphic" in2="blur"/></filter><filter id="b" width="220%" height="220%" x="-60%" y="-60%"><feGaussianBlur result="blur" stdDeviation="7"/><feComposite in="SourceGraphic" in2="blur"/></filter><filter id="c" width="150%" height="150%" x="-20%" y="-20%"><feDropShadow dx="0" dy="0" flood-color="#0df" flood-opacity=".45" stdDeviation="5"/></filter></defs><rect width="200" height="140" fill="url(#a)" rx="10"/><path stroke="#0df" stroke-width=".3" d="M0 35h200M0 70h200M0 105h200" opacity=".08"/><path stroke="#0df" stroke-width=".3" d="M50 0v140M100 0v140M150 0v140" opacity=".06"/><ellipse cx="100" cy="60" fill="#0df" filter="url(#b)" opacity=".07" rx="44" ry="26"/><g filter="url(#c)"><path fill="url(#d)" stroke="#0df" d="m100 30 27.7 16L100 62 72.3 46z"/><path fill="url(#e)" stroke="#0ac" stroke-width=".9" d="M72.3 46 100 62v16L72.3 62z"/><path fill="url(#f)" stroke="#0ce" stroke-width=".9" d="M127.7 46 100 62v16l27.7-16z"/></g><path stroke="#0df" stroke-width="2" d="M72.3 46 100 30" filter="url(#g)" opacity=".9"/><path stroke="#0df" stroke-width="2" d="m100 30 27.7 16" filter="url(#g)" opacity=".9"/><path stroke="#0ab" stroke-width="1.2" d="M72.3 46 100 62" filter="url(#g)" opacity=".7"/><path stroke="#0ab" stroke-width="1.2" d="M127.7 46 100 62" filter="url(#g)" opacity=".7"/><path stroke="#089" d="M72.3 62V46" opacity=".6"/><path stroke="#09a" d="M127.7 46v16" opacity=".6"/><path stroke="#0bc" d="M100 62v16" filter="url(#g)" opacity=".7"/><path stroke="#0df" stroke-width=".6" d="m82 38 36 16" opacity=".3"/><path stroke="#0df" stroke-width=".5" d="m78 46 22-10" opacity=".25"/><circle cx="100" cy="30" r="2.5" fill="#0df" filter="url(#g)" opacity=".9"/><circle cx="72.3" cy="46" r="1.8" fill="#0ce" filter="url(#g)" opacity=".7"/><circle cx="127.7" cy="46" r="1.8" fill="#0ce" filter="url(#g)" opacity=".7"/><circle cx="100" cy="62" r="2" fill="#0bd" filter="url(#g)" opacity=".8"/><rect width="200" height="140" fill="url(#h)" rx="10"/><text x="100" y="115" fill="#0df" stroke="#000818" stroke-width="2" filter="url(#g)" font-family="Arial Black, Arial, sans-serif" font-size="14" font-weight="900" letter-spacing="2" paint-order="stroke" text-anchor="middle">NÉON</text><rect width="198" height="138" x="1" y="1" fill="none" stroke="#0df" stroke-width="1.5" filter="url(#g)" opacity=".6" rx="9.5"/></svg>