<svg xmlns="http://www.w3.org/2000/svg" width="120" height="100" viewBox="0 0 120 100"><defs><radialGradient id="b" cx="50%" cy="50%" r="55%"><stop offset="0%" stop-color="#ff90cc"/><stop offset="60%" stop-color="#f040a0"/><stop offset="100%" stop-color="#c02070"/></radialGradient><radialGradient id="e" cx="28%" cy="30%" r="35%"><stop offset="0%" stop-color="#fff" stop-opacity=".85"/><stop offset="50%" stop-color="#fff" stop-opacity=".3"/><stop offset="100%" stop-color="#fff" stop-opacity="0"/></radialGradient><linearGradient id="c" x1="0%" x2="100%" y1="0%" y2="0%"><stop offset="0%" stop-color="#880040"/><stop offset="100%" stop-color="#a81858"/></linearGradient><linearGradient id="d" x1="0%" x2="100%" y1="0%" y2="0%"><stop offset="0%" stop-color="#c82870"/><stop offset="100%" stop-color="#b01a5c"/></linearGradient><clipPath id="f"><path d="m60 24 45.2 26L60 76 14.8 50z"/></clipPath><filter id="a" width="140%" height="140%" x="-20%" y="-20%"><feDropShadow dx="0" dy="2" flood-color="#ff50b0" flood-opacity=".7" stdDeviation="5"/></filter></defs><g filter="url(#a)"><path fill="url(#b)" stroke="#e060a0" d="m60 24 45.2 26L60 76 14.8 50z"/><path fill="url(#c)" stroke="#800038" d="M14.8 50 60 76v26L14.8 76z"/><path fill="url(#d)" stroke="#900040" d="M105.2 50 60 76v26l45.2-26z"/></g><path fill="url(#e)" d="m60 24 45.2 26L60 76 14.8 50z"/><ellipse cx="40" cy="40" fill="#fff" clip-path="url(#f)" opacity=".45" rx="12" ry="7" transform="rotate(-30 40 40)"/><path stroke="#ffb0e0" stroke-width="1.5" d="M14.8 50 60 24m0 0 45.2 26" opacity=".8"/></svg>