<svg xmlns="http://www.w3.org/2000/svg" viewBox="0 0 200 140"><defs><linearGradient id="a" x1="0%" x2="100%" y1="0%" y2="100%"><stop offset="0%" stop-color="#ff60a0"/><stop offset="100%" stop-color="#c02060"/></linearGradient><linearGradient id="h" x1="0%" x2="60%" y1="0%" y2="100%"><stop offset="0%" stop-color="#fff" stop-opacity=".38"/><stop offset="40%" stop-color="#fff" stop-opacity=".1"/><stop offset="100%" stop-color="#fff" stop-opacity="0"/></linearGradient><linearGradient id="d" x1="0%" x2="100%" y1="0%" y2="100%"><stop offset="0%" stop-color="#ffb0d0"/><stop offset="50%" stop-color="#ff70b0"/><stop offset="100%" stop-color="#e03080"/></linearGradient><linearGradient id="g" x1="0%" x2="50%" y1="0%" y2="100%"><stop offset="0%" stop-color="#fff" stop-opacity=".8"/><stop offset="50%" stop-color="#fff" stop-opacity=".2"/><stop offset="100%" stop-color="#fff" stop-opacity="0"/></linearGradient><linearGradient id="e" x1="0%" x2="100%" y1="0%" y2="0%"><stop offset="0%" stop-color="#a01848"/><stop offset="100%" stop-color="#c02858"/></linearGradient><linearGradient id="f" x1="0%" x2="100%" y1="0%" y2="0%"><stop offset="0%" stop-color="#e04080"/><stop offset="100%" stop-color="#cc3070"/></linearGradient><filter id="b" width="160%" height="160%" x="-30%" y="-30%"><feGaussianBlur result="blur" stdDeviation="4"/><feComposite in="SourceGraphic" in2="blur"/></filter><filter id="c" width="150%" height="150%" x="-20%" y="-20%"><feDropShadow dx="2" dy="3" flood-color="#c02060" flood-opacity=".5" stdDeviation="4"/></filter></defs><rect width="200" height="140" fill="url(#a)" rx="10"/><ellipse cx="100" cy="60" fill="#ff90c0" filter="url(#b)" opacity=".2" rx="42" ry="24"/><g stroke-width=".8" filter="url(#c)"><path fill="url(#d)" stroke="#e03070" d="m100 30 27.7 16L100 62 72.3 46z"/><path fill="url(#e)" stroke="#901040" d="M72.3 46 100 62v16L72.3 62z"/><path fill="url(#f)" stroke="#d03068" d="M127.7 46 100 62v16l27.7-16z"/></g><path fill="url(#g)" d="m100 30 27.7 16L100 62 72.3 46z"/><ellipse cx="100" cy="44" fill="#fff" opacity=".5" rx="12" ry="6"/><path stroke="#ffe0ee" stroke-width="1.5" d="M72.3 46 100 30" opacity=".9"/><path stroke="#ffd0e8" d="m100 30 27.7 16" opacity=".7"/><circle cx="80" cy="100" r="3" fill="#fff" opacity=".25"/><circle cx="120" cy="100" r="3" fill="#fff" opacity=".25"/><circle cx="60" cy="90" r="2" fill="#fff" opacity=".18"/><circle cx="140" cy="90" r="2" fill="#fff" opacity=".18"/><rect width="200" height="140" fill="url(#h)" rx="10"/><text x="100" y="115" fill="#fff" stroke="#a01040" stroke-width="2" font-family="Arial Black, Arial, sans-serif" font-size="14" font-weight="900" letter-spacing="2" paint-order="stroke" text-anchor="middle">CANDY</text><rect width="198" height="138" x="1" y="1" fill="none" stroke="#ff90c0" stroke-width="1.5" opacity=".8" rx="9.5"/></svg>