<svg xmlns="http://www.w3.org/2000/svg" preserveAspectRatio="xMidYMid slice" viewBox="0 0 3840 2160"><defs><filter id="k" width="220%" height="220%" x="-60%" y="-60%"><feGaussianBlur in="SourceGraphic" result="b1" stdDeviation="10"/><feGaussianBlur in="SourceGraphic" result="b2" stdDeviation="28"/><feColorMatrix in="b1" result="c1" values="0 0 0 0 0 0 0 0 0 0.87 0 0 0 0 1 0 0 0 2.2 0"/><feColorMatrix in="b2" result="c2" values="0 0 0 0 0 0 0 0 0 0.87 0 0 0 0 1 0 0 0 1 0"/><feMerge><feMergeNode in="c2"/><feMergeNode in="c1"/><feMergeNode in="SourceGraphic"/></feMerge></filter><filter id="i" width="220%" height="220%" x="-60%" y="-60%"><feGaussianBlur in="SourceGraphic" result="b1" stdDeviation="10"/><feGaussianBlur in="SourceGraphic" result="b2" stdDeviation="25"/><feColorMatrix in="b1" result="c1" values="0 0 0 0 0.63 0 0 0 0 0.25 0 0 0 0 1 0 0 0 2.5 0"/><feColorMatrix in="b2" result="c2" values="0 0 0 0 0.63 0 0 0 0 0.25 0 0 0 0 1 0 0 0 1 0"/><feMerge><feMergeNode in="c2"/><feMergeNode in="c1"/><feMergeNode in="SourceGraphic"/></feMerge></filter><filter id="r" width="100%" height="100%" x="0%" y="0%"><feTurbulence baseFrequency=".65" numOctaves="4" result="n" stitchTiles="stitch" type="fractalNoise"/><feColorMatrix in="n" result="gn" type="saturate" values="0"/><feBlend in="SourceGraphic" in2="gn" mode="overlay" result="bl"/><feComposite in="bl" in2="SourceGraphic" operator="in"/></filter><filter id="j" width="130%" height="130%" x="-15%" y="-15%"><feGaussianBlur stdDeviation="5"/></filter><filter id="c" width="160%" height="160%" x="-30%" y="-30%"><feGaussianBlur stdDeviation="18"/></filter><filter id="e" width="140%" height="140%" x="-20%" y="-20%"><feGaussianBlur stdDeviation="9"/></filter><filter id="o"><feTurbulence baseFrequency="0 1.5" result="n" seed="1" type="fractalNoise"/><feColorMatrix in="n" result="scan" values="0 0 0 0 0 0 0 0 0 0 0 0 0 0 0 0 0 0 0.025 0"/><feBlend in="SourceGraphic" in2="scan" mode="overlay"/></filter><filter id="n"><feTurbulence baseFrequency="0.05 0.3" numOctaves="4" result="t" seed="16"/><feDisplacementMap in="SourceGraphic" in2="t" scale="12" xChannelSelector="R" yChannelSelector="G"/></filter><radialGradient id="b" cx="50%" cy="30%" r="60%" gradientUnits="userSpaceOnUse"><stop offset="0%" stop-color="#1a3888" stop-opacity=".55"/><stop offset="55%" stop-color="#081840" stop-opacity=".25"/><stop offset="100%" stop-color="#010510" stop-opacity="0"/></radialGradient><radialGradient id="d" cx="30%" cy="55%" r="50%" gradientUnits="userSpaceOnUse"><stop offset="0%" stop-color="#a040ff" stop-opacity=".35"/><stop offset="100%" stop-color="#000408" stop-opacity="0"/></radialGradient><radialGradient id="f" cx="72%" cy="60%" r="45%" gradientUnits="userSpaceOnUse"><stop offset="0%" stop-color="#0df" stop-opacity=".3"/><stop offset="100%" stop-color="#010510" stop-opacity="0"/></radialGradient><radialGradient id="g" cx="50%" cy="65%" r="50%" gradientUnits="userSpaceOnUse"><stop offset="0%" stop-color="#0df" stop-opacity=".45"/><stop offset="60%" stop-color="#1a3888" stop-opacity=".2"/><stop offset="100%" stop-color="#010510" stop-opacity="0"/></radialGradient><radialGradient id="h" cx="50%" cy="45%" r="45%" gradientUnits="userSpaceOnUse"><stop offset="0%" stop-color="#a040ff" stop-opacity=".4"/><stop offset="100%" stop-color="#000408" stop-opacity="0"/></radialGradient><radialGradient id="q" cx="50%" cy="50%" r="72%" gradientUnits="userSpaceOnUse"><stop offset="30%" stop-opacity="0"/><stop offset="100%" stop-opacity=".92"/></radialGradient><radialGradient id="p" cx="22%" cy="6%" r="28%" gradientUnits="userSpaceOnUse"><stop offset="0%" stop-color="#c0f0ff" stop-opacity=".45"/><stop offset="55%" stop-color="#0df" stop-opacity=".15"/><stop offset="100%" stop-color="#010510" stop-opacity="0"/></radialGradient><linearGradient id="a" x1="0%" x2="0%" y1="0%" y2="100%"><stop offset="0%" stop-color="#000408"/><stop offset="20%" stop-color="#010510"/><stop offset="55%" stop-color="#030c28"/><stop offset="80%" stop-color="#1a3888"/><stop offset="100%" stop-color="#081840"/></linearGradient><linearGradient id="l" x1="0%" x2="0%" y1="0%" y2="100%"><stop offset="0%" stop-color="#a040ff" stop-opacity=".8"/><stop offset="100%" stop-color="#a040ff" stop-opacity=".1"/></linearGradient><linearGradient id="m" x1="0%" x2="0%" y1="0%" y2="100%"><stop offset="0%" stop-color="#0df" stop-opacity=".7"/><stop offset="100%" stop-color="#0df" stop-opacity=".05"/></linearGradient></defs><path fill="url(#a)" d="M0 0h3840v2160H0z"/><path fill="url(#b)" d="M0 0h3840v2160H0z" filter="url(#c)" opacity=".85"/><path fill="url(#d)" d="M0 0h3840v2160H0z" filter="url(#e)" opacity=".65"/><path fill="url(#f)" d="M0 0h3840v2160H0z" filter="url(#e)" opacity=".55"/><path fill="url(#g)" d="M0 0h3840v2160H0z" filter="url(#c)" opacity=".7"/><path fill="url(#h)" d="M0 0h3840v2160H0z" filter="url(#c)" opacity=".6"/><g filter="url(#c)" opacity=".55"><path fill="#030c28" d="M0 600h80v800H0z"/><path fill="#040e30" d="M90 520h60v880H90z"/><path fill="#030c28" d="M160 420h90v980h-90z"/><path fill="#040e30" d="M260 560h70v840h-70z"/><path fill="#030c28" d="M340 460h100v940H340z"/><path fill="#040e30" d="M450 380h80v1020h-80z"/><path fill="#030c28" d="M540 500h60v900h-60z"/><path fill="#040e30" d="M610 400h110v1000H610z"/><path fill="#030c28" d="M730 340h75v1060h-75z"/><path fill="#040e30" d="M815 460h90v940h-90z"/><path fill="#030c28" d="M915 540h65v860h-65z"/><path fill="#040e30" d="M990 380h120v1020H990z"/><path fill="#030c28" d="M1120 320h85v1080h-85z"/><path fill="#040e30" d="M1215 440h70v960h-70z"/><path fill="#030c28" d="M1295 560h95v840h-95z"/><path fill="#040e30" d="M1400 400h80v1000h-80z"/><path fill="#030c28" d="M1490 310h110v1090h-110z"/><path fill="#040e30" d="M1610 480h75v920h-75z"/><path fill="#030c28" d="M1695 580h85v820h-85z"/><path fill="#040e30" d="M1790 360h100v1040h-100z"/><path fill="#030c28" d="M1900 290h90v1110h-90z"/><path fill="#040e30" d="M2000 420h80v980h-80z"/><path fill="#030c28" d="M2090 560h70v840h-70z"/><path fill="#040e30" d="M2170 360h115v1040h-115z"/><path fill="#030c28" d="M2295 300h80v1100h-80z"/><path fill="#040e30" d="M2385 430h95v970h-95z"/><path fill="#030c28" d="M2490 570h65v830h-65z"/><path fill="#040e30" d="M2565 380h105v1020h-105z"/><path fill="#030c28" d="M2680 320h85v1080h-85z"/><path fill="#040e30" d="M2775 470h75v930h-75z"/><path fill="#030c28" d="M2860 560h90v840h-90z"/><path fill="#040e30" d="M2960 380h110v1020h-110z"/><path fill="#030c28" d="M3080 310h80v1090h-80z"/><path fill="#040e30" d="M3170 450h95v950h-95z"/><path fill="#030c28" d="M3275 550h70v850h-70z"/><path fill="#040e30" d="M3355 370h120v1030h-120z"/><path fill="#030c28" d="M3485 300h85v1100h-85z"/><path fill="#040e30" d="M3580 440h75v960h-75z"/><path fill="#030c28" d="M3665 540h95v860h-95z"/><path fill="#040e30" d="M3770 380h70v1020h-70z"/></g><g filter="url(#i)" opacity=".5"><path fill="#a040ff" d="M164 420h90v3h-90z"/><path fill="#0df" d="M454 378h80v3h-80z"/><path fill="#a040ff" d="M734 338h75v3h-75z"/><path fill="#0df" d="M1124 318h85v3h-85z"/><path fill="#a040ff" d="M1494 308h110v3h-110z"/><path fill="#0df" d="M1904 288h90v3h-90z"/><path fill="#a040ff" d="M2299 298h80v3h-80z"/><path fill="#0df" d="M2684 318h85v3h-85z"/><path fill="#a040ff" d="M3084 308h80v3h-80z"/><path fill="#0df" d="M3489 298h85v3h-85z"/></g><g stroke="#0df" filter="url(#j)" opacity=".55"><path stroke-width="1.5" d="m0 2160 1920-1060M384 2160l1536-1060M768 2160l1152-1060m-768 1060 768-1060m-384 1060 384-1060m0 1060V1100m384 1060-384-1060m768 1060-768-1060m1152 1060L1920 1100m1536 1060L1920 1100m1920 1060L1920 1100"/><path d="m3840 1800-1920-700m1920 350-1920-350m1920 100-1920-100M0 1800l1920-700M0 1450l1920-350M0 1200l1920-100"/><ellipse cx="1920" cy="1100" fill="none" opacity=".4" rx="3840" ry="700"/><ellipse cx="1920" cy="1100" fill="none" opacity=".45" rx="2880" ry="520"/><ellipse cx="1920" cy="1100" fill="none" stroke-width="1.5" opacity=".5" rx="1920" ry="350"/><ellipse cx="1920" cy="1100" fill="none" stroke-width="1.5" opacity=".55" rx="960" ry="175"/><ellipse cx="1920" cy="1100" fill="none" stroke-width="1.5" opacity=".6" rx="480" ry="88"/></g><g filter="url(#k)" opacity=".7"><path stroke="#0df" stroke-width="2" d="M0 1350h3840"/><path stroke="#0df" stroke-width="1.5" d="M0 1500h3840"/><path stroke="#0df" stroke-width="2" d="M0 1680h3840"/><path stroke="#0df" stroke-width="1.5" d="M0 1880h3840"/><path stroke="#0df" stroke-width="2" d="M480 1350v150m480 0v180m480-330v330"/><path stroke="#0df" stroke-width="2.5" d="M1920 1350v530"/><path stroke="#0df" stroke-width="2" d="M2400 1350v330m480-180v180m480-330v150"/><circle cx="480" cy="1350" r="5" fill="#0df"/><circle cx="960" cy="1500" r="5" fill="#0df"/><circle cx="1440" cy="1350" r="5" fill="#0df"/><circle cx="1440" cy="1500" r="4" fill="#0df"/><circle cx="1440" cy="1680" r="5" fill="#0df"/><circle cx="1920" cy="1350" r="6" fill="#0df"/><circle cx="1920" cy="1500" r="5" fill="#0df"/><circle cx="1920" cy="1680" r="5" fill="#0df"/><circle cx="1920" cy="1880" r="6" fill="#0df"/><circle cx="2400" cy="1350" r="5" fill="#0df"/><circle cx="2400" cy="1500" r="4" fill="#0df"/><circle cx="2400" cy="1680" r="5" fill="#0df"/><circle cx="2880" cy="1500" r="5" fill="#0df"/><circle cx="2880" cy="1680" r="5" fill="#0df"/><circle cx="3360" cy="1350" r="5" fill="#0df"/><circle cx="3360" cy="1500" r="4" fill="#0df"/><path fill="none" stroke="#0df" stroke-width="1.5" d="M240 1350v70h240v80m240-150v80h240v70m240 0v90h240v90m1200-180v90h240v90m240-330v70h240v80m240-150v70h240"/></g><g filter="url(#i)"><path fill="url(#l)" d="M380 800h40v1360h-40z" opacity=".6"/><path fill="#a040ff" d="M380 800h40v6h-40z" opacity=".9"/><path fill="url(#m)" d="M960 700h40v1460h-40z" opacity=".55"/><path fill="#0df" d="M960 700h40v6h-40z" opacity=".9"/><path fill="url(#l)" d="M1440 600h50v1560h-50z" opacity=".65"/><path fill="#a040ff" d="M1440 600h50v8h-50z" opacity=".95"/><path fill="url(#m)" d="M1895 500h50v1660h-50z" opacity=".7"/><path fill="#0df" d="M1895 500h50v8h-50z" opacity=".95"/><path fill="url(#l)" d="M2350 600h50v1560h-50z" opacity=".65"/><path fill="#a040ff" d="M2350 600h50v8h-50z" opacity=".95"/><path fill="url(#m)" d="M2840 700h40v1460h-40z" opacity=".55"/><path fill="#0df" d="M2840 700h40v6h-40z" opacity=".9"/><path fill="url(#l)" d="M3420 800h40v1360h-40z" opacity=".6"/><path fill="#a040ff" d="M3420 800h40v6h-40z" opacity=".9"/></g><g filter="url(#j)" opacity=".45"><path stroke="#0df" d="M192 0v2160"/><path stroke="#0df" stroke-width=".8" d="M576 0v2160"/><path stroke="#a040ff" d="M768 0v2160"/><path stroke="#0df" stroke-width=".8" d="M1152 0v2160"/><path stroke="#a040ff" d="M1344 0v2160"/><path stroke="#0df" stroke-width=".8" d="M1728 0v2160"/><path stroke="#0df" d="M2112 0v2160"/><path stroke="#a040ff" stroke-width=".8" d="M2496 0v2160"/><path stroke="#0df" d="M2688 0v2160"/><path stroke="#0df" stroke-width=".8" d="M3072 0v2160"/><path stroke="#a040ff" d="M3264 0v2160"/><path stroke="#0df" stroke-width=".8" d="M3648 0v2160"/><path stroke="#0df" stroke-width="1.5" d="M96 200v600" opacity=".6"/><path stroke="#a040ff" stroke-width="1.5" d="M288 500v600" opacity=".55"/><path stroke="#0df" stroke-width="1.5" d="M480 300v600" opacity=".6"/><path stroke="#a040ff" stroke-width="1.5" d="M672 600v600" opacity=".55"/><path stroke="#0df" stroke-width="1.5" d="M864 100v600" opacity=".6"/><path stroke="#a040ff" stroke-width="1.5" d="M1056 400v600" opacity=".55"/><path stroke="#0df" stroke-width="1.5" d="M1248 700v600" opacity=".6"/><path stroke="#a040ff" stroke-width="1.5" d="M1632 200v600" opacity=".55"/><path stroke="#0df" stroke-width="1.5" d="M1824 500v600" opacity=".6"/><path stroke="#a040ff" stroke-width="1.5" d="M2016 300v600" opacity=".55"/><path stroke="#0df" stroke-width="1.5" d="M2208 600v600" opacity=".6"/><path stroke="#a040ff" stroke-width="1.5" d="M2400 100v600" opacity=".55"/><path stroke="#0df" stroke-width="1.5" d="M2592 400v600" opacity=".6"/><path stroke="#a040ff" stroke-width="1.5" d="M2784 700v600" opacity=".55"/><path stroke="#0df" stroke-width="1.5" d="M2976 200v600" opacity=".6"/><path stroke="#a040ff" stroke-width="1.5" d="M3168 500v600" opacity=".55"/><path stroke="#0df" stroke-width="1.5" d="M3360 300v600" opacity=".6"/><path stroke="#a040ff" stroke-width="1.5" d="M3552 600v600" opacity=".55"/><path stroke="#0df" stroke-width="1.5" d="M3744 100v600" opacity=".6"/></g><g fill="none" filter="url(#k)" opacity=".7"><path stroke="#0df" stroke-width="2" d="M400 800q40-20 60 0t60-5" filter="url(#n)"/><path stroke="#a040ff" stroke-width="2" d="M1000 700q40-20 60 0t60-5" filter="url(#n)"/><path stroke="#0df" stroke-width="2" d="M1460 600q40-20 60 0t60-5" filter="url(#n)"/><path stroke="#a040ff" stroke-width="2.5" d="M1915 500q40-20 60 0t60-5" filter="url(#n)"/><path stroke="#0df" stroke-width="2" d="M2370 600q40-20 60 0t60-5" filter="url(#n)"/><path stroke="#a040ff" stroke-width="2" d="M2860 700q40-20 60 0t60-5" filter="url(#n)"/><path stroke="#0df" stroke-width="2" d="M3440 800q40-20 60 0t60-5" filter="url(#n)"/></g><g filter="url(#e)" opacity=".45"><path fill="#a040ff" d="M340 1200h120v300H340z" opacity=".2"/><path fill="#0df" d="M920 1150h120v350H920z" opacity=".2"/><path fill="#a040ff" d="M1400 1100h140v400h-140z" opacity=".25"/><path fill="#0df" d="M1855 1050h140v450h-140z" opacity=".25"/><path fill="#a040ff" d="M2310 1100h140v400h-140z" opacity=".25"/><path fill="#0df" d="M2800 1150h120v350h-120z" opacity=".2"/><path fill="#a040ff" d="M3380 1200h120v300h-120z" opacity=".2"/></g><path fill="#0df" d="M0 0h3840v2160H0z" filter="url(#o)" opacity=".018"/><g filter="url(#k)"><circle cx="380" cy="900" r="3" fill="#0df" opacity=".85"/><circle cx="640" cy="780" r="2" fill="#c0f0ff" opacity=".8"/><circle cx="920" cy="950" r="4" fill="#0df" opacity=".9"/><circle cx="1180" cy="760" r="2" fill="#a040ff" opacity=".78"/><circle cx="1420" cy="920" r="3" fill="#0df" opacity=".85"/><circle cx="1680" cy="740" r="2" fill="#c0f0ff" opacity=".8"/><circle cx="1940" cy="980" r="4" fill="#0df" opacity=".92"/><circle cx="2200" cy="770" r="2" fill="#a040ff" opacity=".78"/><circle cx="2440" cy="940" r="3" fill="#0df" opacity=".85"/><circle cx="2700" cy="760" r="2" fill="#c0f0ff" opacity=".8"/><circle cx="2960" cy="960" r="4" fill="#0df" opacity=".9"/><circle cx="3220" cy="790" r="2" fill="#a040ff" opacity=".78"/><circle cx="3480" cy="940" r="3" fill="#0df" opacity=".85"/><circle cx="300" cy="1150" r="3" fill="#a040ff" opacity=".72"/><circle cx="560" cy="1280" r="2" fill="#0df" opacity=".68"/><circle cx="820" cy="1200" r="4" fill="#a040ff" opacity=".75"/><circle cx="1080" cy="1310" r="2" fill="#0df" opacity=".68"/><circle cx="1360" cy="1180" r="3" fill="#a040ff" opacity=".72"/><circle cx="1620" cy="1300" r="2" fill="#0df" opacity=".68"/><circle cx="1900" cy="1210" r="4" fill="#a040ff" opacity=".75"/><circle cx="2160" cy="1320" r="2" fill="#0df" opacity=".68"/><circle cx="2440" cy="1190" r="3" fill="#a040ff" opacity=".72"/><circle cx="2700" cy="1300" r="2" fill="#0df" opacity=".68"/><circle cx="2960" cy="1220" r="4" fill="#a040ff" opacity=".75"/><circle cx="3220" cy="1310" r="2" fill="#0df" opacity=".68"/><circle cx="3480" cy="1190" r="3" fill="#a040ff" opacity=".72"/><circle cx="3740" cy="1280" r="2" fill="#0df" opacity=".68"/><circle cx="460" cy="580" r="2" fill="#c0f0ff" opacity=".62"/><circle cx="760" cy="520" r="2" fill="#0df" opacity=".58"/><circle cx="1060" cy="560" r="2" fill="#a040ff" opacity=".62"/><circle cx="1460" cy="540" r="2" fill="#0df" opacity=".58"/><circle cx="1860" cy="550" r="2" fill="#c0f0ff" opacity=".62"/><circle cx="2260" cy="535" r="2" fill="#0df" opacity=".58"/><circle cx="2660" cy="555" r="2" fill="#a040ff" opacity=".62"/><circle cx="3060" cy="540" r="2" fill="#0df" opacity=".58"/><circle cx="3460" cy="558" r="2" fill="#c0f0ff" opacity=".62"/><circle cx="620" cy="1680" r="3" fill="#0df" opacity=".52"/><circle cx="1220" cy="1700" r="3" fill="#a040ff" opacity=".48"/><circle cx="1820" cy="1690" r="3" fill="#0df" opacity=".52"/><circle cx="2420" cy="1680" r="3" fill="#a040ff" opacity=".48"/><circle cx="3020" cy="1695" r="3" fill="#0df" opacity=".52"/><circle cx="3620" cy="1685" r="3" fill="#a040ff" opacity=".48"/></g><g filter="url(#i)"><circle cx="520" cy="1020" r="3" fill="#a040ff" opacity=".82"/><circle cx="1020" cy="1100" r="4" fill="#c0f0ff" opacity=".78"/><circle cx="1620" cy="1050" r="3" fill="#a040ff" opacity=".85"/><circle cx="2120" cy="1120" r="4" fill="#c0f0ff" opacity=".78"/><circle cx="2720" cy="1060" r="3" fill="#a040ff" opacity=".82"/><circle cx="3220" cy="1110" r="4" fill="#c0f0ff" opacity=".78"/><circle cx="760" cy="1420" r="3" fill="#a040ff" opacity=".65"/><circle cx="1460" cy="1460" r="3" fill="#c0f0ff" opacity=".62"/><circle cx="2160" cy="1440" r="3" fill="#a040ff" opacity=".65"/><circle cx="2860" cy="1450" r="3" fill="#c0f0ff" opacity=".62"/><circle cx="3460" cy="1430" r="3" fill="#a040ff" opacity=".65"/></g><ellipse cx="850" cy="160" fill="url(#p)" filter="url(#c)" opacity=".75" rx="800" ry="280"/><path fill="#000408" d="M0 0h3840v300H0z" filter="url(#e)" opacity=".55"/><path fill="#000204" d="M0 0h3840v150H0z" opacity=".75"/><path fill="#000408" d="M0 1850h3840v310H0z" filter="url(#j)" opacity=".65"/><path fill="#000204" d="M0 2020h3840v140H0z" opacity=".88"/><path fill="url(#q)" d="M0 0h3840v2160H0z"/><path fill="#0df" d="M0 0h3840v2160H0z" filter="url(#r)" opacity=".022"/></svg>