<svg xmlns="http://www.w3.org/2000/svg" width="80" height="80" opacity=".85" viewBox="0 0 80 80"><defs><filter id="d" width="160%" height="160%" x="-30%" y="-30%"><feDropShadow dx="0" dy="0" flood-color="#00e5ff" flood-opacity=".5" stdDeviation="2"/></filter><filter id="b"><feDropShadow dx="0" dy="0" flood-color="#18ffff" flood-opacity=".9" stdDeviation="4"/></filter><filter id="e"><feDropShadow dx="0" dy="0" flood-color="#00e5ff" flood-opacity=".6" stdDeviation="2.5"/></filter><linearGradient id="c" x1="0%" x2="100%" y1="0%" y2="100%"><stop offset="0%" stop-color="#00e5ff"/><stop offset="100%" stop-color="#0097a7"/></linearGradient><linearGradient id="a" x1="0%" x2="0%" y1="0%" y2="100%"><stop offset="0%" stop-color="#18ffff"/><stop offset="50%" stop-color="#00e5ff"/><stop offset="100%" stop-color="#00acc1"/></linearGradient></defs><rect width="5" height="72" x="4" y="4" fill="url(#a)" filter="url(#b)" rx="1.5"/><rect width="22" height="5" x="4" y="4" fill="url(#a)" filter="url(#b)" rx="1.5"/><rect width="22" height="5" x="4" y="71" fill="url(#a)" filter="url(#b)" rx="1.5"/><rect width="28" height="76" x="2" y="2" fill="none" stroke="#00e5ff" stroke-width=".5" opacity=".25" rx="3"/><g fill="none" stroke="url(#c)" stroke-linecap="round" stroke-linejoin="round" filter="url(#d)"><path stroke-width="1.8" d="M26 10h14v10"/><path stroke-width="1.5" d="M40 10h18v12"/><path stroke-width="1.3" d="M58 10h14"/><path stroke-width="1.8" d="M26 30h20v14h14"/><path stroke-width="1.3" d="M46 30v-8h12"/><path stroke-width="1.5" d="M60 44h12v12"/><path stroke-width="1.8" d="M26 68h20V56h16v12h10"/><path d="M46 56V44"/><path d="M62 56V44h10"/><path stroke-width="1.2" d="M72 10v16"/><path stroke-width="1.2" d="M72 38v6"/></g><g fill="#18ffff" filter="url(#e)"><circle cx="40" cy="10" r="2.5"/><circle cx="58" cy="10" r="2.5"/><circle cx="72" cy="10" r="2.5"/><circle cx="46" cy="30" r="2.5"/><circle cx="46" cy="22" r="2"/><circle cx="58" cy="22" r="2"/><circle cx="60" cy="44" r="2.5"/><circle cx="72" cy="44" r="2.5"/><circle cx="72" cy="56" r="2"/><circle cx="46" cy="68" r="2.5"/><circle cx="62" cy="56" r="2.5"/><circle cx="62" cy="68" r="2"/><circle cx="72" cy="68" r="2.5"/></g><g stroke-width=".8" filter="url(#d)"><rect width="10" height="6" x="54" y="26" fill="#00acc1" stroke="#18ffff" rx="1"/><path stroke="#00e5ff" d="M56 26v-2m4 2v-2m-4 8v2m4-2v2"/><rect width="8" height="8" x="66" y="28" fill="#006064" stroke="#18ffff" rx="1"/><path stroke="#00e5ff" d="M68 28v-2m4 2v-2"/></g><path stroke="#00e5ff" stroke-width=".3" d="M30 0v80M0 35h80" opacity=".12"/></svg>