<svg xmlns="http://www.w3.org/2000/svg" height="20" opacity=".9" viewBox="0 0 400 20"><defs><filter id="b" width="180%" height="180%" x="-40%" y="-40%"><feDropShadow dx="0" dy="0" flood-color="#0fe" flood-opacity="1" stdDeviation="2.5"/></filter><filter id="a" width="140%" height="140%" x="-20%" y="-20%"><feDropShadow dx="0" dy="0" flood-color="#0cd" flood-opacity=".85" stdDeviation="1.5"/></filter></defs><path fill="#03080f" d="M0 0h400v20H0z"/><path stroke="#0cd" stroke-width="1.5" d="M0 10h400" filter="url(#a)"/><path stroke="#045" stroke-width=".8" d="M0 5h400M0 15h400" opacity=".6"/><circle cx="16" cy="10" r="3" fill="#001520" stroke="#0fe" stroke-width="1.2" filter="url(#b)"/><circle cx="50" cy="10" r="3" fill="#001520" stroke="#0fe" stroke-width="1.2" filter="url(#b)"/><circle cx="84" cy="10" r="3" fill="#001520" stroke="#0fe" stroke-width="1.2" filter="url(#b)"/><circle cx="118" cy="10" r="3" fill="#001520" stroke="#0fe" stroke-width="1.2" filter="url(#b)"/><circle cx="152" cy="10" r="3" fill="#001520" stroke="#0fe" stroke-width="1.2" filter="url(#b)"/><circle cx="186" cy="10" r="3" fill="#001520" stroke="#0fe" stroke-width="1.2" filter="url(#b)"/><circle cx="220" cy="10" r="3" fill="#001520" stroke="#0fe" stroke-width="1.2" filter="url(#b)"/><circle cx="254" cy="10" r="3" fill="#001520" stroke="#0fe" stroke-width="1.2" filter="url(#b)"/><circle cx="288" cy="10" r="3" fill="#001520" stroke="#0fe" stroke-width="1.2" filter="url(#b)"/><circle cx="322" cy="10" r="3" fill="#001520" stroke="#0fe" stroke-width="1.2" filter="url(#b)"/><circle cx="356" cy="10" r="3" fill="#001520" stroke="#0fe" stroke-width="1.2" filter="url(#b)"/><circle cx="390" cy="10" r="3" fill="#001520" stroke="#0fe" stroke-width="1.2" filter="url(#b)"/><circle cx="16" cy="10" r="1" fill="#0fe" opacity=".9"/><circle cx="50" cy="10" r="1" fill="#0fe" opacity=".9"/><circle cx="84" cy="10" r="1" fill="#0fe" opacity=".9"/><circle cx="118" cy="10" r="1" fill="#0fe" opacity=".9"/><circle cx="152" cy="10" r="1" fill="#0fe" opacity=".9"/><circle cx="186" cy="10" r="1" fill="#0fe" opacity=".9"/><circle cx="220" cy="10" r="1" fill="#0fe" opacity=".9"/><circle cx="254" cy="10" r="1" fill="#0fe" opacity=".9"/><circle cx="288" cy="10" r="1" fill="#0fe" opacity=".9"/><circle cx="322" cy="10" r="1" fill="#0fe" opacity=".9"/><circle cx="356" cy="10" r="1" fill="#0fe" opacity=".9"/><circle cx="390" cy="10" r="1" fill="#0fe" opacity=".9"/><path fill="none" stroke="#0ac" stroke-width=".9" d="M50 10V5h16" filter="url(#a)"/><path fill="none" stroke="#0ac" stroke-width=".9" d="M152 10V5h16" filter="url(#a)"/><path fill="none" stroke="#0ac" stroke-width=".9" d="M254 10V5h16" filter="url(#a)"/><path fill="none" stroke="#0ac" stroke-width=".9" d="M356 10V5h16" filter="url(#a)"/><path fill="none" stroke="#0ac" stroke-width=".9" d="M84 10v5h16" filter="url(#a)"/><path fill="none" stroke="#0ac" stroke-width=".9" d="M186 10v5h16" filter="url(#a)"/><path fill="none" stroke="#0ac" stroke-width=".9" d="M288 10v5h16" filter="url(#a)"/><rect width="5" height="3" x="64" y="3" fill="#034" stroke="#0fe" stroke-width=".7" filter="url(#b)" rx=".5"/><rect width="5" height="3" x="166" y="3" fill="#034" stroke="#0fe" stroke-width=".7" filter="url(#b)" rx=".5"/><rect width="5" height="3" x="268" y="3" fill="#034" stroke="#0fe" stroke-width=".7" filter="url(#b)" rx=".5"/><rect width="5" height="3" x="370" y="3" fill="#034" stroke="#0fe" stroke-width=".7" filter="url(#b)" rx=".5"/><rect width="5" height="3" x="98" y="14" fill="#034" stroke="#0fe" stroke-width=".7" filter="url(#b)" rx=".5"/><rect width="5" height="3" x="200" y="14" fill="#034" stroke="#0fe" stroke-width=".7" filter="url(#b)" rx=".5"/><rect width="5" height="3" x="302" y="14" fill="#034" stroke="#0fe" stroke-width=".7" filter="url(#b)" rx=".5"/></svg>