<svg xmlns="http://www.w3.org/2000/svg" viewBox="0 0 80 56"><defs><linearGradient id="a" x1="0" x2="0" y1="0" y2="1"><stop offset="0%" stop-color="#020c20"/><stop offset="100%" stop-color="#010510"/></linearGradient><linearGradient id="b" x1="0" x2="0" y1="0" y2="1"><stop offset="0%" stop-color="#002030"/><stop offset="100%" stop-color="#001020"/></linearGradient></defs><rect width="80" height="56" fill="url(#a)" rx="6"/><path stroke="#0df" stroke-width=".4" d="M0 44h80" opacity=".3"/><path stroke="#0df" stroke-width=".2" d="M0 48h80" opacity=".15"/><path fill="none" stroke="#0df" stroke-width=".5" d="M0 44h15v2h10v-2h15v-2h12v2h13v2h15" opacity=".4"/><path fill="none" stroke="#0ac" stroke-width=".4" d="M10 48h10v2h12v-2h18v2h12v-2h13" opacity=".3"/><circle cx="25" cy="44" r="1" fill="#0df" opacity=".6"/><circle cx="52" cy="44" r="1" fill="#0df" opacity=".6"/><circle cx="40" cy="42" r=".8" fill="#0fd" opacity=".5"/><path fill="#030d1e" d="M2 34h7v10H2z"/><path fill="none" stroke="#0df" stroke-width=".5" d="M2 34h7v10H2z" opacity=".4"/><path fill="#040e20" d="M11 22h9v22h-9z"/><path fill="none" stroke="#0ce" stroke-width=".5" d="M11 22h9v22h-9z" opacity=".5"/><path fill="#030c1c" d="M22 28h8v16h-8z"/><path fill="none" stroke="#0bd" stroke-width=".4" d="M22 28h8v16h-8z" opacity=".4"/><path fill="#020b1a" d="M32 32h6v12h-6z"/><path fill="none" stroke="#0df" stroke-width=".4" d="M32 32h6v12h-6z" opacity=".3"/><path fill="#050f22" d="M40 16h11v28H40z"/><path fill="none" stroke="#0ef" stroke-width=".6" d="M40 16h11v28H40z" opacity=".6"/><path stroke="#0df" stroke-width=".8" d="M45.5 16v-6" opacity=".7"/><circle cx="45.5" cy="10" r="1.2" fill="#0ef" opacity=".8"/><path fill="#040e20" d="M53 26h8v18h-8z"/><path fill="none" stroke="#0bd" stroke-width=".5" d="M53 26h8v18h-8z" opacity=".5"/><path fill="#030c1c" d="M63 30h7v14h-7z"/><path fill="none" stroke="#0df" stroke-width=".4" d="M63 30h7v14h-7z" opacity=".4"/><path fill="#040e20" d="M72 24h8v20h-8z"/><path fill="none" stroke="#0ce" stroke-width=".5" d="M72 24h8v20h-8z" opacity=".4"/><path fill="#0df" d="M13 24h2v1.5h-2z" opacity=".9"/><path fill="#0df" d="M17 24h2v1.5h-2z" opacity=".7"/><path fill="#0fe" d="M13 28h2v1.5h-2z" opacity=".8"/><path fill="#0cf" d="M17 28h2v1.5h-2z" opacity=".6"/><path fill="#0df" d="M13 32h2v1.5h-2z" opacity=".7"/><path fill="#0ef" d="M17 36h2v1.5h-2z" opacity=".8"/><path fill="#0ef" d="M42 18h2v1.5h-2z" opacity=".9"/><path fill="#0df" d="M46 18h2v1.5h-2z" opacity=".8"/><path fill="#0cf" d="M42 22h2v1.5h-2z" opacity=".7"/><path fill="#0ef" d="M46 22h2v1.5h-2z" opacity=".9"/><path fill="#0df" d="M42 26h2v1.5h-2z" opacity=".8"/><path fill="#0bd" d="M46 26h2v1.5h-2z" opacity=".6"/><path fill="#0ef" d="M42 30h2v1.5h-2z" opacity=".7"/><path fill="#0df" d="M46 34h2v1.5h-2zm9-6h2v1.5h-2z" opacity=".8"/><path fill="#0ef" d="M59 28h2v1.5h-2z" opacity=".7"/><path fill="#0cf" d="M55 32h2v1.5h-2z" opacity=".9"/><path fill="#0df" d="M59 36h2v1.5h-2z" opacity=".6"/><path fill="#0df" d="M0 43h80v1H0z" opacity=".4"/><path fill="url(#b)" d="M0 44h80v12H0z"/><text x="40" y="52" fill="#0df" dominant-baseline="middle" font-family="Arial, sans-serif" font-size="8" font-weight="bold" text-anchor="middle">NEOPOLIS</text><rect width="80" height="20" fill="#fff" opacity=".05" rx="6"/><rect width="80" height="8" fill="#fff" opacity=".06" rx="6"/></svg>