<svg xmlns="http://www.w3.org/2000/svg" preserveAspectRatio="xMidYMid slice" viewBox="0 0 3840 2160"><defs><radialGradient id="b" cx="50%" cy="40%" r="60%" gradientUnits="userSpaceOnUse"><stop offset="0%" stop-color="#40f060" stop-opacity=".45"/><stop offset="55%" stop-color="#148040" stop-opacity=".2"/><stop offset="100%" stop-color="#030a06" stop-opacity="0"/></radialGradient><radialGradient id="d" cx="30%" cy="55%" r="50%" gradientUnits="userSpaceOnUse"><stop offset="0%" stop-color="#80f040" stop-opacity=".35"/><stop offset="100%" stop-color="#020604" stop-opacity="0"/></radialGradient><radialGradient id="f" cx="70%" cy="60%" r="45%" gradientUnits="userSpaceOnUse"><stop offset="0%" stop-color="#307048" stop-opacity=".4"/><stop offset="100%" stop-color="#030a06" stop-opacity="0"/></radialGradient><radialGradient id="g" cx="50%" cy="45%" r="40%" gradientUnits="userSpaceOnUse"><stop offset="0%" stop-color="#a0ffc0" stop-opacity=".7"/><stop offset="25%" stop-color="#40f060" stop-opacity=".45"/><stop offset="60%" stop-color="#148040" stop-opacity=".2"/><stop offset="100%" stop-color="#030a06" stop-opacity="0"/></radialGradient><radialGradient id="l" cx="40%" cy="50%" r="25%" gradientUnits="userSpaceOnUse"><stop offset="0%" stop-color="#a0ffc0" stop-opacity=".6"/><stop offset="100%" stop-color="#030a06" stop-opacity="0"/></radialGradient><radialGradient id="m" cx="65%" cy="55%" r="20%" gradientUnits="userSpaceOnUse"><stop offset="0%" stop-color="#80f040" stop-opacity=".55"/><stop offset="100%" stop-color="#030a06" stop-opacity="0"/></radialGradient><radialGradient id="q" cx="50%" cy="50%" r="72%" gradientUnits="userSpaceOnUse"><stop offset="35%" stop-opacity="0"/><stop offset="100%" stop-opacity=".9"/></radialGradient><radialGradient id="n" cx="22%" cy="6%" r="28%" gradientUnits="userSpaceOnUse"><stop offset="0%" stop-color="#a0ffc0" stop-opacity=".5"/><stop offset="55%" stop-color="#40f060" stop-opacity=".15"/><stop offset="100%" stop-color="#030a06" stop-opacity="0"/></radialGradient><filter id="i" width="220%" height="220%" x="-60%" y="-60%"><feGaussianBlur in="SourceGraphic" result="b1" stdDeviation="10"/><feGaussianBlur in="SourceGraphic" result="b2" stdDeviation="28"/><feColorMatrix in="b1" result="c1" values="0 0 0 0 0.25 0 0 0 0 0.94 0 0 0 0 0.38 0 0 0 2.2 0"/><feColorMatrix in="b2" result="c2" values="0 0 0 0 0.25 0 0 0 0 0.94 0 0 0 0 0.38 0 0 0 1 0"/><feMerge><feMergeNode in="c2"/><feMergeNode in="c1"/><feMergeNode in="SourceGraphic"/></feMerge></filter><filter id="k" width="220%" height="220%" x="-60%" y="-60%"><feGaussianBlur in="SourceGraphic" result="b1" stdDeviation="8"/><feColorMatrix in="b1" result="c1" values="0 0 0 0 0.50 0 0 0 0 0.94 0 0 0 0 0.25 0 0 0 2.5 0"/><feMerge><feMergeNode in="c1"/><feMergeNode in="SourceGraphic"/></feMerge></filter><filter id="h" width="150%" height="150%" x="-25%" y="-25%"><feDropShadow dx="0" dy="6" flood-color="#020604" flood-opacity=".95" stdDeviation="18"/></filter><filter id="r" width="100%" height="100%" x="0%" y="0%"><feTurbulence baseFrequency=".65" numOctaves="4" result="n" stitchTiles="stitch" type="fractalNoise"/><feColorMatrix in="n" result="gn" type="saturate" values="0"/><feBlend in="SourceGraphic" in2="gn" mode="overlay" result="bl"/><feComposite in="bl" in2="SourceGraphic" operator="in"/></filter><filter id="p" width="130%" height="130%" x="-15%" y="-15%"><feGaussianBlur stdDeviation="5"/></filter><filter id="c" width="160%" height="160%" x="-30%" y="-30%"><feGaussianBlur stdDeviation="18"/></filter><filter id="e" width="140%" height="140%" x="-20%" y="-20%"><feGaussianBlur stdDeviation="9"/></filter><filter id="j" width="200%" height="200%" x="-50%" y="-50%"><feGaussianBlur stdDeviation="16"/></filter><linearGradient id="a" x1="0%" x2="0%" y1="0%" y2="100%"><stop offset="0%" stop-color="#020604"/><stop offset="20%" stop-color="#030a06"/><stop offset="55%" stop-color="#051008"/><stop offset="80%" stop-color="#148040"/><stop offset="100%" stop-color="#0c3020"/></linearGradient><linearGradient id="o" x1="0%" x2="0%" y1="0%" y2="100%"><stop offset="0%" stop-color="#40f060" stop-opacity=".2"/><stop offset="100%" stop-color="#30f050" stop-opacity=".4"/></linearGradient></defs><path fill="url(#a)" d="M0 0h3840v2160H0z"/><path fill="url(#b)" d="M0 0h3840v2160H0z" filter="url(#c)" opacity=".85"/><path fill="url(#d)" d="M0 0h3840v2160H0z" filter="url(#e)" opacity=".65"/><path fill="url(#f)" d="M0 0h3840v2160H0z" filter="url(#e)" opacity=".55"/><path fill="url(#g)" d="M0 0h3840v2160H0z" filter="url(#c)" opacity=".75"/><g filter="url(#c)" opacity=".55"><ellipse cx="300" cy="1000" fill="#051008" rx="380" ry="650"/><ellipse cx="800" cy="940" fill="#040c07" rx="420" ry="700"/><ellipse cx="1400" cy="970" fill="#051008" rx="360" ry="660"/><ellipse cx="2000" cy="950" fill="#040c07" rx="400" ry="680"/><ellipse cx="2600" cy="960" fill="#051008" rx="375" ry="665"/><ellipse cx="3200" cy="945" fill="#040c07" rx="415" ry="685"/><ellipse cx="3700" cy="975" fill="#051008" rx="380" ry="655"/></g><g filter="url(#h)" opacity=".85"><ellipse cx="300" cy="2050" fill="#041508" rx="200" ry="80"/><path fill="#03100a" d="M280 1980h40v170h-40z"/><ellipse cx="300" cy="1980" fill="#051a0a" rx="180" ry="90"/><ellipse cx="750" cy="2080" fill="#041508" rx="150" ry="65"/><path fill="#03100a" d="M735 2015h30v140h-30z"/><ellipse cx="750" cy="2015" fill="#051a0a" rx="140" ry="72"/><ellipse cx="1300" cy="2010" fill="#041508" rx="260" ry="100"/><path fill="#03100a" d="M1275 1920h50v200h-50z"/><ellipse cx="1300" cy="1920" fill="#051a0a" rx="240" ry="115"/><ellipse cx="1950" cy="2060" fill="#041508" rx="180" ry="75"/><path fill="#03100a" d="M1935 1990h35v155h-35z"/><ellipse cx="1950" cy="1990" fill="#051a0a" rx="165" ry="82"/><ellipse cx="2550" cy="2030" fill="#041508" rx="220" ry="88"/><path fill="#03100a" d="M2528 1950h44v185h-44z"/><ellipse cx="2550" cy="1950" fill="#051a0a" rx="200" ry="98"/><ellipse cx="3100" cy="2070" fill="#041508" rx="160" ry="68"/><path fill="#03100a" d="M3086 2005h32v145h-32z"/><ellipse cx="3100" cy="2005" fill="#051a0a" rx="148" ry="75"/><ellipse cx="3600" cy="2020" fill="#041508" rx="240" ry="95"/><path fill="#03100a" d="M3578 1935h46v195h-46z"/><ellipse cx="3600" cy="1935" fill="#051a0a" rx="225" ry="108"/></g><g filter="url(#i)" opacity=".7"><ellipse cx="300" cy="1980" fill="#40f060" opacity=".35" rx="170" ry="82"/><ellipse cx="750" cy="2015" fill="#80f040" opacity=".3" rx="130" ry="65"/><ellipse cx="1300" cy="1920" fill="#40f060" opacity=".4" rx="220" ry="105"/><ellipse cx="1950" cy="1990" fill="#80f040" opacity=".32" rx="155" ry="75"/><ellipse cx="2550" cy="1950" fill="#40f060" opacity=".38" rx="190" ry="90"/><ellipse cx="3100" cy="2005" fill="#80f040" opacity=".3" rx="140" ry="68"/><ellipse cx="3600" cy="1935" fill="#40f060" opacity=".38" rx="210" ry="100"/></g><g filter="url(#i)" opacity=".6" transform="translate(1920 1100)"><circle r="380" fill="none" stroke="#40f060" stroke-width="3" opacity=".55"/><circle r="360" fill="none" stroke="#a0ffc0" stroke-width="1.5" opacity=".4"/><path fill="none" stroke="#40f060" stroke-width="2" d="M380 0 190 329h-380L-380 0l190-329h380z" opacity=".5"/><path fill="none" stroke="#80f040" stroke-width="2" d="m0-260 225 390h-450z" opacity=".45"/><path fill="none" stroke="#80f040" stroke-width="2" d="m0 260 225-390h-450z" opacity=".45"/><circle r="240" fill="none" stroke="#40f060" stroke-width="2" opacity=".5"/><circle r="140" fill="none" stroke="#a0ffc0" stroke-width="2" opacity=".55"/><circle r="80" fill="#40f060" opacity=".15"/><circle r="50" fill="#a0ffc0" opacity=".12"/><path stroke="#40f060" stroke-width="3" d="M380-15v30m-760-30v30m365 365h30m-30-760h30" opacity=".7"/><path stroke="#40f060" stroke-width="3" d="m269-269 11 11m-549-11-11 11m549 527 11-11m-549 11-11-11" opacity=".65"/></g><path fill="#148040" d="M0 500h3840v350H0z" filter="url(#c)" opacity=".2"/><path fill="#40f060" d="M0 900h3840v280H0z" filter="url(#c)" opacity=".12"/><path fill="#148040" d="M0 1200h3840v240H0z" filter="url(#c)" opacity=".18"/><g filter="url(#j)" opacity=".55"><circle cx="320" cy="800" r="60" fill="#a0ffc0"/><circle cx="720" cy="650" r="45" fill="#40f060"/><circle cx="1100" cy="780" r="70" fill="#80f040"/><circle cx="1480" cy="600" r="50" fill="#a0ffc0"/><circle cx="1880" cy="750" r="65" fill="#40f060"/><circle cx="2260" cy="620" r="48" fill="#80f040"/><circle cx="2660" cy="790" r="72" fill="#a0ffc0"/><circle cx="3040" cy="650" r="55" fill="#40f060"/><circle cx="3420" cy="760" r="60" fill="#80f040"/><circle cx="500" cy="1100" r="52" fill="#a0ffc0"/><circle cx="900" cy="1200" r="68" fill="#40f060"/><circle cx="1300" cy="1050" r="45" fill="#80f040"/><circle cx="1700" cy="1180" r="62" fill="#a0ffc0"/><circle cx="2100" cy="1080" r="50" fill="#40f060"/><circle cx="2500" cy="1200" r="66" fill="#80f040"/><circle cx="2900" cy="1060" r="48" fill="#a0ffc0"/><circle cx="3300" cy="1180" r="60" fill="#40f060"/><circle cx="3700" cy="1100" r="55" fill="#80f040"/><circle cx="200" cy="1400" r="42" fill="#a0ffc0"/><circle cx="620" cy="1500" r="58" fill="#40f060"/><circle cx="1040" cy="1420" r="46" fill="#80f040"/><circle cx="1460" cy="1520" r="62" fill="#a0ffc0"/><circle cx="1880" cy="1430" r="48" fill="#40f060"/><circle cx="2300" cy="1540" r="70" fill="#80f040"/><circle cx="2720" cy="1410" r="52" fill="#a0ffc0"/><circle cx="3140" cy="1520" r="60" fill="#40f060"/><circle cx="3560" cy="1450" r="45" fill="#80f040"/></g><g filter="url(#i)"><circle cx="1920" cy="1080" r="5" fill="#a0ffc0" opacity=".95"/><circle cx="2070" cy="1040" r="4" fill="#40f060" opacity=".9"/><circle cx="2180" cy="980" r="3" fill="#80f040" opacity=".85"/><circle cx="2240" cy="900" r="4" fill="#a0ffc0" opacity=".88"/><circle cx="2220" cy="810" r="3" fill="#40f060" opacity=".82"/><circle cx="2140" cy="740" r="4" fill="#80f040" opacity=".85"/><circle cx="2020" cy="720" r="3" fill="#a0ffc0" opacity=".8"/><circle cx="1900" cy="760" r="4" fill="#40f060" opacity=".85"/><circle cx="1780" cy="780" r="3" fill="#80f040" opacity=".8"/><circle cx="1660" cy="840" r="4" fill="#a0ffc0" opacity=".85"/><circle cx="1600" cy="940" r="3" fill="#40f060" opacity=".82"/><circle cx="1620" cy="1040" r="4" fill="#80f040" opacity=".85"/><circle cx="1700" cy="1130" r="3" fill="#a0ffc0" opacity=".8"/><circle cx="1820" cy="1190" r="4" fill="#40f060" opacity=".85"/><circle cx="1960" cy="1210" r="3" fill="#80f040" opacity=".8"/><circle cx="2100" cy="1180" r="4" fill="#a0ffc0" opacity=".85"/><circle cx="2200" cy="1110" r="3" fill="#40f060" opacity=".82"/><circle cx="2320" cy="1040" r="3" fill="#80f040" opacity=".72"/><circle cx="2390" cy="930" r="3" fill="#40f060" opacity=".68"/><circle cx="2400" cy="810" r="3" fill="#a0ffc0" opacity=".72"/><circle cx="2350" cy="700" r="3" fill="#80f040" opacity=".68"/><circle cx="2250" cy="620" r="3" fill="#40f060" opacity=".72"/><circle cx="2120" cy="590" r="3" fill="#a0ffc0" opacity=".68"/><circle cx="1980" cy="600" r="3" fill="#80f040" opacity=".72"/><circle cx="1840" cy="650" r="3" fill="#40f060" opacity=".68"/><circle cx="1700" cy="730" r="3" fill="#a0ffc0" opacity=".72"/><circle cx="1580" cy="840" r="3" fill="#80f040" opacity=".68"/><circle cx="1520" cy="960" r="3" fill="#40f060" opacity=".72"/><circle cx="1530" cy="1090" r="3" fill="#a0ffc0" opacity=".68"/><circle cx="1600" cy="1210" r="3" fill="#80f040" opacity=".72"/><circle cx="1720" cy="1310" r="3" fill="#40f060" opacity=".68"/><circle cx="1880" cy="1370" r="3" fill="#a0ffc0" opacity=".72"/><circle cx="2040" cy="1360" r="3" fill="#80f040" opacity=".68"/><circle cx="2200" cy="1300" r="3" fill="#40f060" opacity=".72"/><circle cx="2320" cy="1200" r="3" fill="#a0ffc0" opacity=".68"/><circle cx="2400" cy="1090" r="3" fill="#80f040" opacity=".72"/></g><g filter="url(#k)"><circle cx="380" cy="1020" r="4" fill="#40f060" opacity=".82"/><circle cx="640" cy="880" r="3" fill="#a0ffc0" opacity=".78"/><circle cx="900" cy="1100" r="5" fill="#40f060" opacity=".88"/><circle cx="1160" cy="820" r="3" fill="#80f040" opacity=".75"/><circle cx="1400" cy="1050" r="4" fill="#40f060" opacity=".82"/><circle cx="2440" cy="820" r="4" fill="#40f060" opacity=".82"/><circle cx="2700" cy="1080" r="5" fill="#a0ffc0" opacity=".88"/><circle cx="2960" cy="940" r="3" fill="#80f040" opacity=".75"/><circle cx="3200" cy="1100" r="4" fill="#40f060" opacity=".82"/><circle cx="3460" cy="860" r="3" fill="#a0ffc0" opacity=".78"/><circle cx="460" cy="1280" r="3" fill="#80f040" opacity=".72"/><circle cx="780" cy="1380" r="4" fill="#40f060" opacity=".75"/><circle cx="1100" cy="1320" r="3" fill="#a0ffc0" opacity=".7"/><circle cx="2740" cy="1300" r="3" fill="#80f040" opacity=".72"/><circle cx="3060" cy="1380" r="4" fill="#40f060" opacity=".75"/><circle cx="3380" cy="1320" r="3" fill="#a0ffc0" opacity=".7"/><circle cx="540" cy="600" r="2" fill="#40f060" opacity=".62"/><circle cx="1040" cy="580" r="2" fill="#80f040" opacity=".58"/><circle cx="1540" cy="590" r="2" fill="#a0ffc0" opacity=".62"/><circle cx="2540" cy="585" r="2" fill="#40f060" opacity=".62"/><circle cx="3040" cy="595" r="2" fill="#80f040" opacity=".58"/><circle cx="3540" cy="575" r="2" fill="#a0ffc0" opacity=".62"/><circle cx="620" cy="1700" r="3" fill="#40f060" opacity=".52"/><circle cx="1220" cy="1720" r="3" fill="#80f040" opacity=".48"/><circle cx="1820" cy="1710" r="3" fill="#a0ffc0" opacity=".52"/><circle cx="2420" cy="1700" r="3" fill="#40f060" opacity=".52"/><circle cx="3020" cy="1715" r="3" fill="#80f040" opacity=".48"/><circle cx="3620" cy="1705" r="3" fill="#a0ffc0" opacity=".52"/></g><path fill="url(#l)" d="M0 0h3840v2160H0z" filter="url(#c)" opacity=".65"/><path fill="url(#m)" d="M0 0h3840v2160H0z" filter="url(#c)" opacity=".55"/><ellipse cx="850" cy="160" fill="url(#n)" filter="url(#c)" opacity=".8" rx="800" ry="280"/><path fill="url(#o)" d="M0 1700h3840v460H0z" filter="url(#e)" opacity=".6"/><path fill="#030a06" d="M0 0h3840v400H0z" filter="url(#e)" opacity=".65"/><path fill="#020604" d="M0 0h3840v200H0z" opacity=".8"/><path fill="#020604" d="M0 1850h3840v310H0z" filter="url(#p)" opacity=".7"/><path fill="#010302" d="M0 2020h3840v140H0z" opacity=".9"/><path fill="url(#q)" d="M0 0h3840v2160H0z"/><path fill="#40f060" d="M0 0h3840v2160H0z" filter="url(#r)" opacity=".025"/></svg>