<svg xmlns="http://www.w3.org/2000/svg" width="80" height="80" opacity=".85" viewBox="0 0 80 80"><defs><radialGradient id="c" cx="40%" cy="30%" r="65%"><stop offset="0%" stop-color="#ef5350"/><stop offset="100%" stop-color="#b71c1c"/></radialGradient><radialGradient id="d" cx="30%" cy="25%" r="40%"><stop offset="0%" stop-color="#fff" stop-opacity=".5"/><stop offset="100%" stop-color="#fff" stop-opacity="0"/></radialGradient><radialGradient id="a" cx="50%" cy="30%" r="60%"><stop offset="0%" stop-color="#f5f5f5"/><stop offset="100%" stop-color="#bcaaa4"/></radialGradient><filter id="b" width="140%" height="140%" x="-20%" y="-20%"><feDropShadow dx="1" dy="1" flood-color="#4a0000" flood-opacity=".5" stdDeviation="1.8"/></filter><filter id="e"><feDropShadow dx="0" dy="0" flood-color="#ffe57f" flood-opacity=".9" stdDeviation="2.5"/></filter></defs><path fill="url(#a)" d="M20 80c-4-8-6-16-4-24 2-6 8-8 12-8s10 2 12 8 0 16-4 24Z" filter="url(#b)"/><path fill="none" stroke="#d7ccc8" stroke-width="1.5" d="M16 58q12-4 24 0" opacity=".7"/><path fill="url(#c)" d="M4 52c0-22 6-36 24-40s28 10 28 32c0 6-6 12-12 12-8 2-24 2-32 0-6-1-8-2-8-4" filter="url(#b)"/><path fill="url(#d)" d="M4 52c0-22 6-36 24-40s28 10 28 32" opacity=".4"/><g fill="#fff" filter="url(#b)" opacity=".92"><circle cx="28" cy="22" r="6"/><circle cx="12" cy="36" r="4.5"/><circle cx="44" cy="30" r="4"/><circle cx="38" cy="46" r="3.5"/><circle cx="18" cy="50" r="3"/><circle cx="28" cy="44" r="2.5"/></g><path fill="none" stroke="#c62828" stroke-linecap="round" stroke-width="2" d="M4 52c4 4 8 6 12 4s8 2 12 2 8-2 12 0 10 0 16-4" filter="url(#b)"/><g filter="url(#e)" transform="translate(66 12)"><path fill="#ffe57f" d="M0-8C.5-1 1-.5 8 0 1 .5.5 1 0 8-.5 1-1 .5-8 0c7-.5 7.5-1 8-8"/><path fill="none" stroke="#ffe57f" stroke-width=".8" d="M3-5C1.5-.5.5-1.5 5 3m-8-8C-1.5-.5-.5-1.5-5 3m8 2C1.5.5.5 1.5 5-3m-8 8C-1.5.5-.5 1.5-5-3" opacity=".6"/><circle r="2" fill="#fff9c4"/></g><g filter="url(#e)" transform="translate(68 50)"><path fill="#f8bbd9" d="M0-6C.4-.8.8-.4 6 0 .8.4.4.8 0 6-.4.8-.8.4-6 0-.8-.4-.4-.8 0-6"/><circle r="1.5" fill="#fce4ec"/></g><g filter="url(#b)" transform="translate(62 68)"><path fill="none" stroke="#2e7d32" stroke-linecap="round" stroke-width="1.5" d="M0 12C0 8-2 4 0 0"/><circle cy="-2" r="6" fill="#43a047"/><circle cx="-5" cy="4" r="6" fill="#388e3c"/><circle cx="5" cy="4" r="6" fill="#43a047"/><circle cy="2" r="2.5" fill="#2e7d32"/><path stroke="#1b5e20" stroke-width=".7" d="M0-8V2m-10 0H0m10 0H0"/></g><g fill="#ffe57f" opacity=".8"><circle cx="56" cy="64" r="1.5"/><circle cx="62" cy="36" r="1.2"/><circle cx="74" cy="28" r="1"/></g></svg>