<svg xmlns="http://www.w3.org/2000/svg" height="20" opacity=".9" viewBox="0 0 400 20"><defs><g id="d"><ellipse fill="#c20" stroke="#f42" stroke-width=".5" filter="url(#a)" rx="6" ry="4"/><circle cx="-2" cy="-1" r="1" fill="#fff" opacity=".85"/><circle cx="2" cy="-1" r="1" fill="#fff" opacity=".85"/><circle cy="1" r=".7" fill="#fff" opacity=".75"/><rect width="5" height="5" x="-2.5" y="4" fill="#ffe0cc" stroke="#c96" stroke-width=".4" rx="1"/></g><g id="e"><ellipse fill="#e06600" stroke="#fa0" stroke-width=".5" filter="url(#a)" rx="5" ry="3.5"/><circle cx="-1.5" cy="-.5" r=".8" fill="#fff" opacity=".8"/><circle cx="1.5" cy="-.5" r=".8" fill="#fff" opacity=".8"/><rect width="4" height="4.5" x="-2" y="3.5" fill="#ffe0cc" stroke="#c96" stroke-width=".4" rx="1"/></g><g id="f"><ellipse fill="#70c" stroke="#b4f" stroke-width=".5" filter="url(#a)" rx="6.5" ry="4.5"/><circle cx="-2.5" cy="-1" r="1.1" fill="#fff" opacity=".8"/><circle cx="2.5" cy="-1" r="1.1" fill="#fff" opacity=".8"/><circle cy="1" r=".8" fill="#fff" opacity=".7"/><rect width="5" height="5" x="-2.5" y="4.5" fill="#ffe0cc" stroke="#c96" stroke-width=".4" rx="1"/></g><g id="g" stroke="gold" stroke-linecap="round"><path d="M0-3v6" filter="url(#b)"/><path d="M-3 0h6" filter="url(#b)"/><path stroke-width=".5" d="m-2-2 4 4" filter="url(#b)"/><path stroke-width=".5" d="m2-2-4 4" filter="url(#b)"/></g><filter id="a" width="140%" height="140%" x="-20%" y="-20%"><feDropShadow dx="0" dy="0" flood-color="#0f8" flood-opacity=".7" stdDeviation="1.8"/></filter><filter id="b" width="200%" height="200%" x="-50%" y="-50%"><feDropShadow dx="0" dy="0" flood-color="gold" flood-opacity=".9" stdDeviation="1.2"/></filter><linearGradient id="c" x1="0" x2="0" y1="0" y2="1"><stop offset="0%" stop-color="#042"/><stop offset="100%" stop-color="#001a0d"/></linearGradient></defs><path fill="url(#c)" d="M0 0h400v20H0z"/><path fill="#003318" d="M0 17h400v3H0z" opacity=".8"/><path stroke="#0f8" stroke-width=".6" d="M0 17h400" filter="url(#a)" opacity=".5"/><use href="#d" transform="translate(12 13)"/><use href="#e" transform="translate(37 13.5)"/><use href="#f" transform="translate(64 13)"/><use href="#d" transform="translate(91 13)"/><use href="#e" transform="translate(116 13.5)"/><use href="#f" transform="translate(143 13)"/><use href="#d" transform="translate(170 13)"/><use href="#e" transform="translate(195 13.5)"/><use href="#f" transform="translate(222 13)"/><use href="#d" transform="translate(249 13)"/><use href="#e" transform="translate(274 13.5)"/><use href="#f" transform="translate(301 13)"/><use href="#d" transform="translate(328 13)"/><use href="#e" transform="translate(353 13.5)"/><use href="#f" transform="translate(380 13)"/><use href="#g" transform="translate(25 7)"/><use href="#g" transform="translate(51 5)"/><use href="#g" transform="translate(78 6)"/><use href="#g" transform="translate(104 5)"/><use href="#g" transform="translate(130 7)"/><use href="#g" transform="translate(157 5)"/><use href="#g" transform="translate(183 6)"/><use href="#g" transform="translate(209 5)"/><use href="#g" transform="translate(236 7)"/><use href="#g" transform="translate(262 5)"/><use href="#g" transform="translate(288 6)"/><use href="#g" transform="translate(315 5)"/><use href="#g" transform="translate(341 7)"/><use href="#g" transform="translate(367 5)"/><use href="#g" transform="translate(393 6)"/></svg>