<svg xmlns="http://www.w3.org/2000/svg" viewBox="0 0 80 56"><defs><radialGradient id="b" cx="50%" cy="50%" r="50%"><stop offset="0%" stop-color="#30d050" stop-opacity=".4"/><stop offset="100%" stop-color="#30d050" stop-opacity="0"/></radialGradient><radialGradient id="d" cx="50%" cy="50%" r="50%"><stop offset="0%" stop-color="#80ff80" stop-opacity=".9"/><stop offset="100%" stop-color="#40ff60" stop-opacity="0"/></radialGradient><radialGradient id="e" cx="50%" cy="50%" r="50%"><stop offset="0%" stop-color="#c0ffd0" stop-opacity=".9"/><stop offset="100%" stop-color="#80ffb0" stop-opacity="0"/></radialGradient><linearGradient id="a" x1="0" x2="0" y1="0" y2="1"><stop offset="0%" stop-color="#071a0c"/><stop offset="100%" stop-color="#030a06"/></linearGradient><linearGradient id="c" x1="0" x2="0" y1="0" y2="1"><stop offset="0%" stop-color="#cc2020"/><stop offset="100%" stop-color="#881010"/></linearGradient></defs><rect width="80" height="56" fill="url(#a)" rx="6"/><ellipse cx="38" cy="30" fill="url(#b)" rx="24" ry="16"/><ellipse cx="40" cy="44" fill="#0a2010" opacity=".8" rx="32" ry="4"/><rect width="10" height="12" x="33" y="34" fill="#e8d8b0" rx="3"/><rect width="3" height="8" x="34" y="36" fill="#f0e8c0" opacity=".5" rx="1"/><ellipse cx="38" cy="34" fill="url(#c)" rx="16" ry="10"/><ellipse cx="38" cy="40" fill="#aa1818" opacity=".5" rx="17" ry="4"/><circle cx="32" cy="30" r="3" fill="#fff" opacity=".85"/><circle cx="42" cy="28" r="2.2" fill="#fff" opacity=".85"/><circle cx="38" cy="33" r="1.5" fill="#fff" opacity=".75"/><circle cx="47" cy="32" r="1.8" fill="#fff" opacity=".8"/><circle cx="29" cy="35" r="1.5" fill="#fff" opacity=".7"/><path fill="#40f060" d="m62 14 1.5 4.5H68l-3.6 2.7 1.4 4.5L62 23l-3.8 2.7 1.4-4.5-3.6-2.7h4.5Z" opacity=".9"/><path fill="#fff" d="m62 14 1.5 4.5H68l-3.6 2.7 1.4 4.5L62 23l-3.8 2.7 1.4-4.5-3.6-2.7h4.5Z" opacity=".3"/><path stroke="#40f060" d="M62 11v3m8 3-2 1.5M54 17l2 1.5" opacity=".7"/><circle cx="14" cy="20" r="5" fill="url(#d)"/><circle cx="14" cy="20" r="1.8" fill="#a0ffa0"/><circle cx="14" cy="20" r=".8" fill="#fff"/><circle cx="66" cy="34" r="4" fill="url(#e)"/><circle cx="66" cy="34" r="1.5" fill="#c0ffd0"/><circle cx="66" cy="34" r=".6" fill="#fff"/><circle cx="22" cy="14" r=".8" fill="#60ff80" opacity=".7"/><circle cx="55" cy="10" r=".6" fill="#40f060" opacity=".6"/><circle cx="18" cy="36" r=".7" fill="#80ffb0" opacity=".5"/><text x="40" y="52" fill="#40f060" dominant-baseline="middle" font-family="Arial, sans-serif" font-size="8" font-weight="bold" text-anchor="middle">ENCHANTE</text><rect width="80" height="20" fill="#fff" opacity=".07" rx="6"/><rect width="80" height="8" fill="#fff" opacity=".08" rx="6"/></svg>