<svg xmlns="http://www.w3.org/2000/svg" viewBox="0 0 180 180"><defs><linearGradient id="a" x1="0%" x2="100%" y1="0%" y2="100%"><stop offset="0%" stop-color="#10190c"/><stop offset="50%" stop-color="#0d1a0e"/><stop offset="100%" stop-color="#060c06"/></linearGradient><linearGradient id="e" x1="0%" x2="0%" y1="0%" y2="100%"><stop offset="0%" stop-color="#ffe878"/><stop offset="40%" stop-color="#f0cc44"/><stop offset="70%" stop-color="#d4b030"/><stop offset="100%" stop-color="#9a7018"/></linearGradient><linearGradient id="d" x1="0%" x2="30%" y1="0%" y2="100%"><stop offset="0%" stop-color="rgba(255,255,255,0.10)"/><stop offset="30%" stop-color="rgba(255,255,255,0.02)"/><stop offset="70%" stop-color="rgba(0,0,0,0.0)"/><stop offset="100%" stop-color="rgba(0,0,0,0.08)"/></linearGradient><filter id="c" width="135%" height="135%" x="-15%" y="-15%"><feDropShadow dx="0" dy="2.5" flood-color="#000" flood-opacity=".6" stdDeviation="2.5"/></filter><filter id="f" width="140%" height="220%" x="-20%" y="-60%"><feGaussianBlur result="blur" stdDeviation="2.5"/><feMerge><feMergeNode in="blur"/><feMergeNode in="blur"/><feMergeNode in="SourceGraphic"/></feMerge></filter><filter id="g" width="112%" height="112%" x="-6%" y="-6%"><feGaussianBlur result="blur" stdDeviation="3.5"/><feMerge><feMergeNode in="blur"/><feMergeNode in="SourceGraphic"/></feMerge></filter><radialGradient id="b" cx="50%" cy="44%" r="55%"><stop offset="0%" stop-color="#1e3a14" stop-opacity=".65"/><stop offset="100%" stop-color="#060c06" stop-opacity="0"/></radialGradient></defs><rect width="180" height="180" fill="url(#a)" rx="38" ry="38"/><rect width="180" height="180" fill="url(#b)" rx="38" ry="38"/><path stroke="#4ebc80" stroke-width=".5" d="M0 22.5h180M0 45h180M0 67.5h180M0 90h180M0 112.5h180M0 135h180M0 157.5h180M22.5 0v180M45 0v180M67.5 0v180M90 0v180M112.5 0v180M135 0v180M157.5 0v180" opacity=".04"/><g filter="url(#c)"><path fill="#70ec7c" d="m34 14 16 8-16 8-16-8z"/><path fill="#3ac644" d="m34 30 16-8v16l-16 8z"/><path fill="#1e7228" d="m34 30-16-8v16l16 8z"/><path fill="#fff" d="m34 14 16 8-8 4-16-8z" opacity=".2"/><path fill="#ffaa4a" d="m68 14 16 8-16 8-16-8z"/><path fill="#ee8a1c" d="m68 30 16-8v16l-16 8z"/><path fill="#9e5a06" d="m68 30-16-8v16l16 8z"/><path fill="#fff" d="m68 14 16 8-8 4-16-8z" opacity=".2"/><path fill="#ffd864" d="m102 14 16 8-16 8-16-8z"/><path fill="#d4b030" d="m102 30 16-8v16l-16 8z"/><path fill="#8c7418" d="m102 30-16-8v16l16 8z"/><path fill="#fff" d="m102 14 16 8-8 4-16-8z" opacity=".26"/><path fill="#ee7060" d="m136 14 16 8-16 8-16-8z"/><path fill="#da4e30" d="m136 30 16-8v16l-16 8z"/><path fill="#8c2a12" d="m136 30-16-8v16l16 8z"/><path fill="#fff" d="m136 14 16 8-8 4-16-8z" opacity=".2"/><path fill="#5ccede" d="m34 46 16 8-16 8-16-8z"/><path fill="#30b2c6" d="m34 62 16-8v16l-16 8z"/><path fill="#147888" d="m34 62-16-8v16l16 8z"/><path fill="#fff" d="m34 46 16 8-8 4-16-8z" opacity=".2"/><path fill="#c060e0" d="m68 46 16 8-16 8-16-8z"/><path fill="#9e3ac6" d="m68 62 16-8v16l-16 8z"/><path fill="#621880" d="m68 62-16-8v16l16 8z"/><path fill="#fff" d="m68 46 16 8-8 4-16-8z" opacity=".2"/><path fill="#86ec72" d="m102 46 16 8-16 8-16-8z"/><path fill="#62da4e" d="m102 62 16-8v16l-16 8z"/><path fill="#369424" d="m102 62-16-8v16l16 8z"/><path fill="#fff" d="m102 46 16 8-8 4-16-8z" opacity=".2"/><path fill="#ffcc68" d="m136 46 16 8-16 8-16-8z"/><path fill="#eeb23a" d="m136 62 16-8v16l-16 8z"/><path fill="#a07618" d="m136 62-16-8v16l16 8z"/><path fill="#fff" d="m136 46 16 8-8 4-16-8z" opacity=".25"/><path fill="#dce84e" d="m34 78 16 8-16 8-16-8z"/><path fill="#c6d026" d="m34 94 16-8v16l-16 8z"/><path fill="#828a14" d="m34 94-16-8v16l16 8z"/><path fill="#fff" d="m34 78 16 8-8 4-16-8z" opacity=".2"/><path fill="#76d49c" d="m68 78 16 8-16 8-16-8z"/><path fill="#4ebc80" d="m68 94 16-8v16l-16 8z"/><path fill="#267a50" d="m68 94-16-8v16l16 8z"/><path fill="#fff" d="m68 78 16 8-8 4-16-8z" opacity=".2"/><path fill="#ee7060" d="m102 78 16 8-16 8-16-8z"/><path fill="#da4e30" d="m102 94 16-8v16l-16 8z"/><path fill="#8c2a12" d="m102 94-16-8v16l16 8z"/><path fill="#fff" d="m102 78 16 8-8 4-16-8z" opacity=".2"/><path fill="#70ec7c" d="m136 78 16 8-16 8-16-8z"/><path fill="#3ac644" d="m136 94 16-8v16l-16 8z"/><path fill="#1e7228" d="m136 94-16-8v16l16 8z"/><path fill="#fff" d="m136 78 16 8-8 4-16-8z" opacity=".2"/><path fill="#ffaa4a" d="m34 110 16 8-16 8-16-8z"/><path fill="#ee8a1c" d="m34 126 16-8v16l-16 8z"/><path fill="#9e5a06" d="m34 126-16-8v16l16 8z"/><path fill="#fff" d="m34 110 16 8-8 4-16-8z" opacity=".2"/><path fill="#5ccede" d="m68 110 16 8-16 8-16-8z"/><path fill="#30b2c6" d="m68 126 16-8v16l-16 8z"/><path fill="#147888" d="m68 126-16-8v16l16 8z"/><path fill="#fff" d="m68 110 16 8-8 4-16-8z" opacity=".2"/><path fill="#c060e0" d="m102 110 16 8-16 8-16-8z"/><path fill="#9e3ac6" d="m102 126 16-8v16l-16 8z"/><path fill="#621880" d="m102 126-16-8v16l16 8z"/><path fill="#fff" d="m102 110 16 8-8 4-16-8z" opacity=".2"/><path fill="#dce84e" d="m136 110 16 8-16 8-16-8z"/><path fill="#c6d026" d="m136 126 16-8v16l-16 8z"/><path fill="#828a14" d="m136 126-16-8v16l16 8z"/><path fill="#fff" d="m136 110 16 8-8 4-16-8z" opacity=".2"/></g><rect width="180" height="180" fill="url(#d)" rx="38" ry="38"/><text x="90" y="162" fill="url(#e)" filter="url(#f)" font-family="'Arial Black','Impact','Arial',sans-serif" font-size="14" font-weight="900" letter-spacing="2.5" text-anchor="middle">BLOCK PUZZLE</text><rect width="180" height="180" fill="none" stroke="#d4b030" stroke-width="5" filter="url(#g)" opacity=".22" rx="38" ry="38"/><rect width="180" height="180" fill="none" stroke="url(#e)" stroke-width="2.5" opacity=".88" rx="38" ry="38"/><rect width="170" height="170" x="5" y="5" fill="none" stroke="#d4b030" stroke-width=".7" opacity=".18" rx="34" ry="34"/><path fill="rgba(255,255,255,0.08)" d="M38 1.5h104q36.5 0 36.5 36.5 0-30-36.5-34Q90 1.5 38 4 1.5 8 1.5 38 1.5 1.5 38 1.5"/></svg>