<svg xmlns="http://www.w3.org/2000/svg" viewBox="0 0 64 64"><defs><linearGradient id="a" x1="0%" x2="100%" y1="0%" y2="100%"><stop offset="0%" stop-color="#0f1a0f"/><stop offset="100%" stop-color="#060a06"/></linearGradient><linearGradient id="c" x1="0%" x2="100%" y1="0%" y2="100%"><stop offset="0%" stop-color="#ffe566"/><stop offset="50%" stop-color="#d4b030"/><stop offset="100%" stop-color="#a07820"/></linearGradient><filter id="b"><feDropShadow dx=".5" dy="1" flood-color="rgba(0,0,0,0.7)" flood-opacity="1" stdDeviation="1"/></filter><filter id="d" width="120%" height="120%" x="-10%" y="-10%"><feGaussianBlur result="coloredBlur" stdDeviation="1.5"/><feMerge><feMergeNode in="coloredBlur"/><feMergeNode in="SourceGraphic"/></feMerge></filter></defs><rect width="62" height="62" x="1" y="1" fill="url(#a)" rx="11" ry="11"/><rect width="62" height="62" x="1" y="1" fill="none" stroke="rgba(0,0,0,0.5)" stroke-width="5" rx="11" ry="11"/><g filter="url(#b)"><path fill="#6eea7a" d="m16 11 8 4-8 4-8-4z"/><path fill="#3ac644" d="m16 19 8-4v8l-8 4z"/><path fill="#1e7228" d="m16 19-8-4v8l8 4z"/></g><g filter="url(#b)"><path fill="#dce84e" d="m32 11 8 4-8 4-8-4z"/><path fill="#c6d026" d="m32 19 8-4v8l-8 4z"/><path fill="#828a14" d="m32 19-8-4v8l8 4z"/></g><g filter="url(#b)"><path fill="#ed7460" d="m48 11 8 4-8 4-8-4z"/><path fill="#da4e30" d="m48 19 8-4v8l-8 4z"/><path fill="#8e2814" d="m48 19-8-4v8l8 4z"/></g><g filter="url(#b)"><path fill="#ffaa4e" d="m16 23 8 4-8 4-8-4z"/><path fill="#ee8a1c" d="m16 31 8-4v8l-8 4z"/><path fill="#a05a0a" d="m16 31-8-4v8l8 4z"/></g><g filter="url(#b)"><path fill="#78d4a0" d="m32 23 8 4-8 4-8-4z"/><path fill="#4ebc80" d="m32 31 8-4v8l-8 4z"/><path fill="#287c50" d="m32 31-8-4v8l8 4z"/></g><g filter="url(#b)"><path fill="#c066e0" d="m48 23 8 4-8 4-8-4z"/><path fill="#9e3ac6" d="m48 31 8-4v8l-8 4z"/><path fill="#641882" d="m48 31-8-4v8l8 4z"/></g><g filter="url(#b)"><path fill="#5ccede" d="m16 35 8 4-8 4-8-4z"/><path fill="#30b2c6" d="m16 43 8-4v8l-8 4z"/><path fill="#167688" d="m16 43-8-4v8l8 4z"/></g><g filter="url(#b)"><path fill="#ffcc68" d="m32 35 8 4-8 4-8-4z"/><path fill="#eeb23a" d="m32 43 8-4v8l-8 4z"/><path fill="#a07618" d="m32 43-8-4v8l8 4z"/></g><g filter="url(#b)"><path fill="#88ec74" d="m48 35 8 4-8 4-8-4z"/><path fill="#62da4e" d="m48 43 8-4v8l-8 4z"/><path fill="#389628" d="m48 43-8-4v8l8 4z"/></g><rect width="62" height="62" x="1" y="1" fill="none" stroke="url(#c)" stroke-width="1.8" filter="url(#d)" opacity=".92" rx="11" ry="11"/><path fill="rgba(255,255,255,0.07)" d="M12 2h40q11 0 11 10 0-7-11-8.5-20-1.5-40 0Q2 5 2 12 2 2 12 2"/></svg>