<svg xmlns="http://www.w3.org/2000/svg" viewBox="0 0 192 192"><defs><filter id="c" width="135%" height="135%" x="-15%" y="-15%"><feDropShadow dx="0" dy="3" flood-color="#000" flood-opacity=".65" stdDeviation="3"/></filter><filter id="e" width="130%" height="180%" x="-15%" y="-40%"><feGaussianBlur result="blur" stdDeviation="3"/><feMerge><feMergeNode in="blur"/><feMergeNode in="blur"/><feMergeNode in="SourceGraphic"/></feMerge></filter><filter id="f" width="110%" height="110%" x="-5%" y="-5%"><feGaussianBlur result="blur" stdDeviation="4"/><feMerge><feMergeNode in="blur"/><feMergeNode in="SourceGraphic"/></feMerge></filter><linearGradient id="a" x1="0%" x2="100%" y1="0%" y2="100%"><stop offset="0%" stop-color="#0a160a"/><stop offset="50%" stop-color="#0d1c0e"/><stop offset="100%" stop-color="#060c06"/></linearGradient><linearGradient id="d" x1="0%" x2="0%" y1="0%" y2="100%"><stop offset="0%" stop-color="#ffe878"/><stop offset="40%" stop-color="#f5d060"/><stop offset="70%" stop-color="#d4b030"/><stop offset="100%" stop-color="#a07810"/></linearGradient><radialGradient id="b" cx="50%" cy="45%" r="55%"><stop offset="0%" stop-color="#1a3a1a" stop-opacity=".7"/><stop offset="100%" stop-color="#060c06" stop-opacity="0"/></radialGradient></defs><rect width="192" height="192" fill="url(#a)" rx="34" ry="34"/><rect width="192" height="192" fill="url(#b)" rx="34" ry="34"/><path stroke="#3ac644" stroke-width=".6" d="M0 24h192M0 48h192M0 72h192M0 96h192M0 120h192M0 144h192M0 168h192M24 0v192M48 0v192M72 0v192M96 0v192M120 0v192M144 0v192M168 0v192" opacity=".045"/><g filter="url(#c)"><path fill="#6eea7a" d="m40 20 18 9-18 9-18-9z"/><path fill="#3ac644" d="m40 38 18-9v18l-18 9z"/><path fill="#1e7228" d="m40 38-18-9v18l18 9z"/><path fill="#fff" d="m40 20 18 9-9 4.5-18-9z" opacity=".18"/><path fill="#ffaa4e" d="m76 20 18 9-18 9-18-9z"/><path fill="#ee8a1c" d="m76 38 18-9v18l-18 9z"/><path fill="#a05a0a" d="m76 38-18-9v18l18 9z"/><path fill="#fff" d="m76 20 18 9-9 4.5-18-9z" opacity=".18"/><path fill="#5ccede" d="m112 20 18 9-18 9-18-9z"/><path fill="#30b2c6" d="m112 38 18-9v18l-18 9z"/><path fill="#167688" d="m112 38-18-9v18l18 9z"/><path fill="#fff" d="m112 20 18 9-9 4.5-18-9z" opacity=".18"/><path fill="#ed7460" d="m148 20 18 9-18 9-18-9z"/><path fill="#da4e30" d="m148 38 18-9v18l-18 9z"/><path fill="#8e2814" d="m148 38-18-9v18l18 9z"/><path fill="#fff" d="m148 20 18 9-9 4.5-18-9z" opacity=".18"/><path fill="#c066e0" d="m40 56 18 9-18 9-18-9z"/><path fill="#9e3ac6" d="m40 74 18-9v18l-18 9z"/><path fill="#641882" d="m40 74-18-9v18l18 9z"/><path fill="#fff" d="m40 56 18 9-9 4.5-18-9z" opacity=".18"/><path fill="#88ec74" d="m76 56 18 9-18 9-18-9z"/><path fill="#62da4e" d="m76 74 18-9v18l-18 9z"/><path fill="#389628" d="m76 74-18-9v18l18 9z"/><path fill="#fff" d="m76 56 18 9-9 4.5-18-9z" opacity=".18"/><path fill="#ffcc68" d="m112 56 18 9-18 9-18-9z"/><path fill="#eeb23a" d="m112 74 18-9v18l-18 9z"/><path fill="#a07618" d="m112 74-18-9v18l18 9z"/><path fill="#fff" d="m112 56 18 9-9 4.5-18-9z" opacity=".18"/><path fill="#78d4a0" d="m148 56 18 9-18 9-18-9z"/><path fill="#4ebc80" d="m148 74 18-9v18l-18 9z"/><path fill="#287c50" d="m148 74-18-9v18l18 9z"/><path fill="#fff" d="m148 56 18 9-9 4.5-18-9z" opacity=".18"/><path fill="#dce84e" d="m40 92 18 9-18 9-18-9z"/><path fill="#c6d026" d="m40 110 18-9v18l-18 9z"/><path fill="#828a14" d="m40 110-18-9v18l18 9z"/><path fill="#fff" d="m40 92 18 9-9 4.5-18-9z" opacity=".18"/><path fill="#6eea7a" d="m76 92 18 9-18 9-18-9z"/><path fill="#3ac644" d="m76 110 18-9v18l-18 9z"/><path fill="#1e7228" d="m76 110-18-9v18l18 9z"/><path fill="#fff" d="m76 92 18 9-9 4.5-18-9z" opacity=".18"/><path fill="#ed7460" d="m112 92 18 9-18 9-18-9z"/><path fill="#da4e30" d="m112 110 18-9v18l-18 9z"/><path fill="#8e2814" d="m112 110-18-9v18l18 9z"/><path fill="#fff" d="m112 92 18 9-9 4.5-18-9z" opacity=".18"/><path fill="#ffaa4e" d="m148 92 18 9-18 9-18-9z"/><path fill="#ee8a1c" d="m148 110 18-9v18l-18 9z"/><path fill="#a05a0a" d="m148 110-18-9v18l18 9z"/><path fill="#fff" d="m148 92 18 9-9 4.5-18-9z" opacity=".18"/><path fill="#5ccede" d="m40 128 18 9-18 9-18-9z"/><path fill="#30b2c6" d="m40 146 18-9v18l-18 9z"/><path fill="#167688" d="m40 146-18-9v18l18 9z"/><path fill="#fff" d="m40 128 18 9-9 4.5-18-9z" opacity=".18"/><path fill="#c066e0" d="m76 128 18 9-18 9-18-9z"/><path fill="#9e3ac6" d="m76 146 18-9v18l-18 9z"/><path fill="#641882" d="m76 146-18-9v18l18 9z"/><path fill="#fff" d="m76 128 18 9-9 4.5-18-9z" opacity=".18"/><path fill="#88ec74" d="m112 128 18 9-18 9-18-9z"/><path fill="#62da4e" d="m112 146 18-9v18l-18 9z"/><path fill="#389628" d="m112 146-18-9v18l18 9z"/><path fill="#fff" d="m112 128 18 9-9 4.5-18-9z" opacity=".18"/><path fill="#ffcc68" d="m148 128 18 9-18 9-18-9z"/><path fill="#eeb23a" d="m148 146 18-9v18l-18 9z"/><path fill="#a07618" d="m148 146-18-9v18l18 9z"/><path fill="#fff" d="m148 128 18 9-9 4.5-18-9z" opacity=".18"/></g><text x="96" y="184" fill="url(#d)" filter="url(#e)" font-family="'Arial Black','Impact','Arial',sans-serif" font-size="18" font-weight="900" letter-spacing="4" text-anchor="middle">BP</text><rect width="192" height="192" fill="none" stroke="#d4b030" stroke-width="5" filter="url(#f)" opacity=".3" rx="34" ry="34"/><rect width="192" height="192" fill="none" stroke="url(#d)" stroke-width="2.5" opacity=".9" rx="34" ry="34"/><rect width="182" height="182" x="5" y="5" fill="none" stroke="#d4b030" stroke-width=".8" opacity=".2" rx="30" ry="30"/><path fill="rgba(255,255,255,0.06)" d="M34 1.5h124q32.5 0 32.5 32.5 0-26-32.5-31Q96 1.5 34 3 1.5 8 1.5 34 1.5 1.5 34 1.5"/></svg>