<svg xmlns="http://www.w3.org/2000/svg" viewBox="0 0 512 512"><defs><filter id="e" width="145%" height="145%" x="-20%" y="-20%"><feDropShadow dx="0" dy="5" flood-color="#000" flood-opacity=".7" stdDeviation="6"/></filter><filter id="g" width="130%" height="220%" x="-15%" y="-60%"><feGaussianBlur result="blur" stdDeviation="5"/><feMerge><feMergeNode in="blur"/><feMergeNode in="blur"/><feMergeNode in="SourceGraphic"/></feMerge></filter><filter id="h" width="110%" height="110%" x="-5%" y="-5%"><feGaussianBlur result="blur" stdDeviation="10"/><feMerge><feMergeNode in="blur"/><feMergeNode in="SourceGraphic"/></feMerge></filter><radialGradient id="b" cx="50%" cy="44%" r="52%"><stop offset="0%" stop-color="#1e3c1e" stop-opacity=".75"/><stop offset="60%" stop-color="#0c180c" stop-opacity=".4"/><stop offset="100%" stop-color="#060a06" stop-opacity="0"/></radialGradient><radialGradient id="c" cx="50%" cy="50%" r="50%"><stop offset="0%" stop-color="#d4b030" stop-opacity=".1"/><stop offset="100%" stop-color="#d4b030" stop-opacity="0"/></radialGradient><linearGradient id="a" x1="0%" x2="100%" y1="0%" y2="100%"><stop offset="0%" stop-color="#112011"/><stop offset="40%" stop-color="#0a140a"/><stop offset="100%" stop-color="#060a06"/></linearGradient><linearGradient id="f" x1="0%" x2="0%" y1="0%" y2="100%"><stop offset="0%" stop-color="#ffe878"/><stop offset="25%" stop-color="#f5d060"/><stop offset="60%" stop-color="#d4b030"/><stop offset="100%" stop-color="#8a6010"/></linearGradient><clipPath id="d"><rect width="512" height="512" rx="92" ry="92"/></clipPath></defs><rect width="512" height="512" fill="url(#a)" rx="92" ry="92"/><rect width="512" height="512" fill="url(#b)" rx="92" ry="92"/><rect width="512" height="512" fill="url(#c)" rx="92" ry="92"/><g stroke="#3ac644" stroke-width=".8" clip-path="url(#d)" opacity=".05"><path d="M0 64h512M0 128h512M0 192h512M0 256h512M0 320h512M0 384h512M0 448h512M64 0v512M128 0v512M192 0v512M256 0v512M320 0v512M384 0v512M448 0v512"/></g><g filter="url(#e)"><path fill="#70ec7c" d="m84 18 32 16-32 16-32-16z"/><path fill="#3ac644" d="m84 50 32-16v32L84 82z"/><path fill="#1c7026" d="M84 50 52 34v32l32 16z"/><path fill="#fff" d="m84 18 32 16-16 8-32-16z" opacity=".22"/><path fill="#ffaa4a" d="m148 18 32 16-32 16-32-16z"/><path fill="#ee8a1c" d="m148 50 32-16v32l-32 16z"/><path fill="#9e5a06" d="m148 50-32-16v32l32 16z"/><path fill="#fff" d="m148 18 32 16-16 8-32-16z" opacity=".22"/><path fill="#ffd864" d="m212 18 32 16-32 16-32-16z"/><path fill="#d4b030" d="m212 50 32-16v32l-32 16z"/><path fill="#8c7418" d="m212 50-32-16v32l32 16z"/><path fill="#fff" d="m212 18 32 16-16 8-32-16z" opacity=".28"/><path fill="#ee7060" d="m276 18 32 16-32 16-32-16z"/><path fill="#da4e30" d="m276 50 32-16v32l-32 16z"/><path fill="#8c2a12" d="m276 50-32-16v32l32 16z"/><path fill="#fff" d="m276 18 32 16-16 8-32-16z" opacity=".22"/><path fill="#5ccede" d="m340 18 32 16-32 16-32-16z"/><path fill="#30b2c6" d="m340 50 32-16v32l-32 16z"/><path fill="#147888" d="m340 50-32-16v32l32 16z"/><path fill="#fff" d="m340 18 32 16-16 8-32-16z" opacity=".22"/><path fill="#c060e0" d="m84 82 32 16-32 16-32-16z"/><path fill="#9e3ac6" d="m84 114 32-16v32l-32 16z"/><path fill="#621880" d="M84 114 52 98v32l32 16z"/><path fill="#fff" d="m84 82 32 16-16 8-32-16z" opacity=".22"/><path fill="#86ec72" d="m148 82 32 16-32 16-32-16z"/><path fill="#62da4e" d="m148 114 32-16v32l-32 16z"/><path fill="#369424" d="m148 114-32-16v32l32 16z"/><path fill="#fff" d="m148 82 32 16-16 8-32-16z" opacity=".22"/><path fill="#76d49c" d="m212 82 32 16-32 16-32-16z"/><path fill="#4ebc80" d="m212 114 32-16v32l-32 16z"/><path fill="#267a50" d="m212 114-32-16v32l32 16z"/><path fill="#fff" d="m212 82 32 16-16 8-32-16z" opacity=".22"/><path fill="#d8e84c" d="m276 82 32 16-32 16-32-16z"/><path fill="#c6d026" d="m276 114 32-16v32l-32 16z"/><path fill="#7e8810" d="m276 114-32-16v32l32 16z"/><path fill="#fff" d="m276 82 32 16-16 8-32-16z" opacity=".22"/><path fill="#ee7060" d="m148 146 32 16-32 16-32-16z"/><path fill="#da4e30" d="m148 178 32-16v32l-32 16z"/><path fill="#8c2a12" d="m148 178-32-16v32l32 16z"/><path fill="#fff" d="m148 146 32 16-16 8-32-16z" opacity=".22"/><path fill="#ffaa4a" d="m212 146 32 16-32 16-32-16z"/><path fill="#ee8a1c" d="m212 178 32-16v32l-32 16z"/><path fill="#9e5a06" d="m212 178-32-16v32l32 16z"/><path fill="#fff" d="m212 146 32 16-16 8-32-16z" opacity=".22"/><path fill="#70ec7c" d="m276 146 32 16-32 16-32-16z"/><path fill="#3ac644" d="m276 178 32-16v32l-32 16z"/><path fill="#1c7026" d="m276 178-32-16v32l32 16z"/><path fill="#fff" d="m276 146 32 16-16 8-32-16z" opacity=".22"/><path fill="#c060e0" d="m340 146 32 16-32 16-32-16z"/><path fill="#9e3ac6" d="m340 178 32-16v32l-32 16z"/><path fill="#621880" d="m340 178-32-16v32l32 16z"/><path fill="#fff" d="m340 146 32 16-16 8-32-16z" opacity=".22"/><path fill="#ffcc68" d="m84 210 32 16-32 16-32-16z"/><path fill="#eeb23a" d="m84 242 32-16v32l-32 16z"/><path fill="#9e7018" d="m84 242-32-16v32l32 16z"/><path fill="#fff" d="m84 210 32 16-16 8-32-16z" opacity=".28"/><path fill="#5ccede" d="m212 210 32 16-32 16-32-16z"/><path fill="#30b2c6" d="m212 242 32-16v32l-32 16z"/><path fill="#147888" d="m212 242-32-16v32l32 16z"/><path fill="#fff" d="m212 210 32 16-16 8-32-16z" opacity=".22"/><path fill="#86ec72" d="m276 210 32 16-32 16-32-16z"/><path fill="#62da4e" d="m276 242 32-16v32l-32 16z"/><path fill="#369424" d="m276 242-32-16v32l32 16z"/><path fill="#fff" d="m276 210 32 16-16 8-32-16z" opacity=".22"/><path fill="#ffd864" d="m340 210 32 16-32 16-32-16z"/><path fill="#d4b030" d="m340 242 32-16v32l-32 16z"/><path fill="#8c7418" d="m340 242-32-16v32l32 16z"/><path fill="#fff" d="m340 210 32 16-16 8-32-16z" opacity=".28"/><path fill="#86ec72" d="m84 274 32 16-32 16-32-16z"/><path fill="#62da4e" d="m84 306 32-16v32l-32 16z"/><path fill="#369424" d="m84 306-32-16v32l32 16z"/><path fill="#fff" d="m84 274 32 16-16 8-32-16z" opacity=".22"/><path fill="#76d49c" d="m148 274 32 16-32 16-32-16z"/><path fill="#4ebc80" d="m148 306 32-16v32l-32 16z"/><path fill="#267a50" d="m148 306-32-16v32l32 16z"/><path fill="#fff" d="m148 274 32 16-16 8-32-16z" opacity=".22"/><path fill="#ee7060" d="m276 274 32 16-32 16-32-16z"/><path fill="#da4e30" d="m276 306 32-16v32l-32 16z"/><path fill="#8c2a12" d="m276 306-32-16v32l32 16z"/><path fill="#fff" d="m276 274 32 16-16 8-32-16z" opacity=".22"/></g><path stroke="url(#f)" stroke-width="1.5" d="M60 360h392" opacity=".4"/><path fill="#d4b030" d="m256 350 4 4-4 4-4-4z" opacity=".6"/><text x="256" y="410" fill="url(#f)" filter="url(#g)" font-family="'Arial Black','Impact','Arial',sans-serif" font-size="58" font-weight="900" letter-spacing="8" text-anchor="middle">BLOCK PUZZLE</text><text x="256" y="438" fill="#d4b030" font-family="'Arial','Helvetica',sans-serif" font-size="16" font-weight="400" letter-spacing="10" opacity=".6" text-anchor="middle">PREMIUM</text><circle cx="58" cy="420" r="3.5" fill="#d4b030" opacity=".5"/><circle cx="70" cy="420" r="2.2" fill="#d4b030" opacity=".3"/><circle cx="454" cy="420" r="3.5" fill="#d4b030" opacity=".5"/><circle cx="442" cy="420" r="2.2" fill="#d4b030" opacity=".3"/><rect width="512" height="512" fill="none" stroke="#d4b030" stroke-width="10" filter="url(#h)" opacity=".25" rx="92" ry="92"/><rect width="512" height="512" fill="none" stroke="url(#f)" stroke-width="4" opacity=".95" rx="92" ry="92"/><rect width="496" height="496" x="8" y="8" fill="none" stroke="#d4b030" opacity=".18" rx="86" ry="86"/><path fill="rgba(255,255,255,0.06)" d="M92 2h328q90 0 90 90 0-82-90-87Q256 2 92 5 2 10 2 92 2 2 92 2"/></svg>