<svg xmlns="http://www.w3.org/2000/svg" viewBox="0 0 1200 630"><defs><filter id="l" width="140%" height="140%" x="-20%" y="-20%"><feGaussianBlur result="blur" stdDeviation="5"/><feMerge><feMergeNode in="blur"/><feMergeNode in="SourceGraphic"/></feMerge></filter><filter id="i" width="120%" height="200%" x="-10%" y="-50%"><feGaussianBlur result="blur" stdDeviation="8"/><feMerge><feMergeNode in="blur"/><feMergeNode in="blur"/><feMergeNode in="SourceGraphic"/></feMerge></filter><filter id="k" width="120%" height="160%" x="-10%" y="-30%"><feGaussianBlur result="blur" stdDeviation="6"/><feMerge><feMergeNode in="blur"/><feMergeNode in="SourceGraphic"/></feMerge></filter><filter id="g" width="130%" height="200%" x="-15%" y="-50%"><feGaussianBlur result="blur" stdDeviation="3"/><feMerge><feMergeNode in="blur"/><feMergeNode in="SourceGraphic"/></feMerge></filter><filter id="e" width="300%" height="300%" x="-100%" y="-100%"><feGaussianBlur result="blur" stdDeviation="3"/><feMerge><feMergeNode in="blur"/><feMergeNode in="SourceGraphic"/></feMerge></filter><radialGradient id="b" cx="50%" cy="50%" r="60%"><stop offset="0%" stop-color="#142414" stop-opacity=".7"/><stop offset="60%" stop-color="#0a140a" stop-opacity=".3"/><stop offset="100%" stop-color="#050e05" stop-opacity="0"/></radialGradient><radialGradient id="c" cx="25%" cy="50%" r="40%"><stop offset="0%" stop-color="#d4b030" stop-opacity=".08"/><stop offset="100%" stop-color="#d4b030" stop-opacity="0"/></radialGradient><radialGradient id="d" cx="75%" cy="50%" r="40%"><stop offset="0%" stop-color="#3ac644" stop-opacity=".12"/><stop offset="100%" stop-color="#3ac644" stop-opacity="0"/></radialGradient><radialGradient id="f" cx="50%" cy="50%" r="75%"><stop offset="0%" stop-color="#060a06" stop-opacity="0"/><stop offset="100%" stop-opacity=".72"/></radialGradient><linearGradient id="a" x1="0%" x2="100%" y1="0%" y2="100%"><stop offset="0%" stop-color="#050e05"/><stop offset="35%" stop-color="#081408"/><stop offset="70%" stop-color="#060a06"/><stop offset="100%" stop-color="#030603"/></linearGradient><linearGradient id="h" x1="0%" x2="0%" y1="0%" y2="100%"><stop offset="0%" stop-color="#ffe878"/><stop offset="30%" stop-color="#f5d060"/><stop offset="65%" stop-color="#d4b030"/><stop offset="100%" stop-color="#9a7010"/></linearGradient><linearGradient id="j" x1="0%" x2="0%" y1="0%" y2="100%"><stop offset="0%" stop-color="#5ae030"/><stop offset="100%" stop-color="#2a8810"/></linearGradient></defs><path fill="url(#a)" d="M0 0h1200v630H0z"/><path fill="url(#b)" d="M0 0h1200v630H0z"/><path fill="url(#c)" d="M0 0h1200v630H0z"/><path fill="url(#d)" d="M0 0h1200v630H0z"/><path stroke="#3ac644" stroke-width=".8" d="M0 90h1200M0 180h1200M0 270h1200M0 360h1200M0 450h1200M0 540h1200M120 0v630M240 0v630M360 0v630M480 0v630M600 0v630M720 0v630M840 0v630M960 0v630M1080 0v630" opacity=".04"/><g filter="url(#e)" opacity=".55"><circle cx="80" cy="120" r="5" fill="#3ac644" opacity=".7"/><circle cx="150" cy="480" r="4" fill="#62da4e" opacity=".6"/><circle cx="380" cy="60" r="3" fill="#4ebc80" opacity=".5"/><circle cx="200" cy="320" r="6" fill="#3ac644" opacity=".4"/><circle cx="320" cy="560" r="4" fill="#eeb23a" opacity=".6"/><circle cx="100" cy="380" r="3" fill="#d4b030" opacity=".5"/><circle cx="420" cy="580" r="5" fill="#30b2c6" opacity=".5"/><circle cx="50" cy="250" r="3" fill="#30b2c6" opacity=".4"/><circle cx="280" cy="110" r="4" fill="#9e3ac6" opacity=".5"/><circle cx="900" cy="80" r="5" fill="#da4e30" opacity=".6"/><circle cx="1050" cy="200" r="4" fill="#ee8a1c" opacity=".5"/><circle cx="750" cy="560" r="6" fill="#3ac644" opacity=".5"/><circle cx="1150" cy="450" r="4" fill="#c6d026" opacity=".5"/><circle cx="820" cy="580" r="3" fill="#9e3ac6" opacity=".5"/><circle cx="680" cy="50" r="4" fill="#30b2c6" opacity=".4"/><circle cx="1100" cy="580" r="5" fill="#eeb23a" opacity=".6"/></g><path fill="url(#f)" d="M0 0h1200v630H0z"/><path stroke="#d4b030" stroke-width=".8" d="M600 30v570" opacity=".15"/><path stroke="#d4b030" stroke-width="1.2" d="M60 152h200m60 0h240" opacity=".45"/><circle cx="290" cy="152" r="4" fill="#d4b030" opacity=".55"/><text x="308" y="148" fill="#d4b030" filter="url(#g)" font-family="'Arial','Helvetica',sans-serif" font-size="20" font-weight="400" letter-spacing="10" opacity=".8" text-anchor="middle">PREMIUM</text><text x="305" y="270" fill="url(#h)" filter="url(#i)" font-family="'Arial Black','Impact','Arial',sans-serif" font-size="118" font-weight="900" letter-spacing="4" text-anchor="middle">BLOCK</text><text x="305" y="382" fill="url(#h)" filter="url(#i)" font-family="'Arial Black','Impact','Arial',sans-serif" font-size="118" font-weight="900" letter-spacing="4" text-anchor="middle">PUZZLE</text><text x="305" y="428" fill="#7ac870" font-family="'Arial','Helvetica',sans-serif" font-size="19" font-weight="300" letter-spacing="5" opacity=".7" text-anchor="middle">Place. Clear. Conquer.</text><path stroke="#d4b030" stroke-width=".8" d="M100 452h410" opacity=".25"/><rect width="380" height="68" x="115" y="468" fill="url(#j)" filter="url(#k)" opacity=".95" rx="34"/><rect width="380" height="34" x="115" y="468" fill="#fff" opacity=".12" rx="34"/><rect width="380" height="68" x="115" y="468" fill="none" stroke="#5ae030" stroke-width="1.5" opacity=".55" rx="34"/><text x="305" y="512" fill="#fff" filter="url(#g)" font-family="'Arial Black','Impact','Arial',sans-serif" font-size="26" font-weight="900" letter-spacing="5" text-anchor="middle">PLAY FREE NOW</text><text x="305" y="598" fill="#d4b030" font-family="'Arial','Helvetica',sans-serif" font-size="13" font-weight="300" letter-spacing="3" opacity=".38" text-anchor="middle">10 THEMES · GLOBAL LEADERBOARD · FREE</text><g filter="url(#l)"><path fill="#70ec7c" d="m720 48 52 26-52 26-52-26z"/><path fill="#3ac644" d="m720 100 52-26v52l-52 26z"/><path fill="#1e7228" d="m720 100-52-26v52l52 26z"/><path fill="#fff" d="m720 48 52 26-26 13-52-26z" opacity=".22"/><path fill="#ffaa4a" d="m820 94 46 23-46 23-46-23z"/><path fill="#ee8a1c" d="m820 140 46-23v46l-46 23z"/><path fill="#9e5a06" d="m820 140-46-23v46l46 23z"/><path fill="#fff" d="m820 94 46 23-23 11-46-23z" opacity=".22"/><path fill="#c060e0" d="m680 166 44 22-44 22-44-22z"/><path fill="#9e3ac6" d="m680 210 44-22v44l-44 22z"/><path fill="#621880" d="m680 210-44-22v44l44 22z"/><path fill="#fff" d="m680 166 44 22-22 11-44-22z" opacity=".22"/><path fill="#ee7060" d="m910 40 50 25-50 25-50-25z"/><path fill="#da4e30" d="m910 90 50-25v50l-50 25z"/><path fill="#8c2a12" d="m910 90-50-25v50l50 25z"/><path fill="#fff" d="m910 40 50 25-25 12-50-25z" opacity=".22"/><path fill="#5ccede" d="m780 232 48 24-48 24-48-24z"/><path fill="#30b2c6" d="m780 280 48-24v48l-48 24z"/><path fill="#147888" d="m780 280-48-24v48l48 24z"/><path fill="#fff" d="m780 232 48 24-24 12-48-24z" opacity=".22"/><path fill="#ffcc68" d="m660 298 42 21-42 21-42-21z"/><path fill="#eeb23a" d="m660 340 42-21v42l-42 21z"/><path fill="#a07618" d="m660 340-42-21v42l42 21z"/><path fill="#fff" d="m660 298 42 21-21 10.5-42-21z" opacity=".28"/><path fill="#86ec72" d="m900 174 46 23-46 23-46-23z"/><path fill="#62da4e" d="m900 220 46-23v46l-46 23z"/><path fill="#369424" d="m900 220-46-23v46l46 23z"/><path fill="#fff" d="m900 174 46 23-23 11.5-46-23z" opacity=".22"/><path fill="#dce84e" d="m1020 116 44 22-44 22-44-22z"/><path fill="#c6d026" d="m1020 160 44-22v44l-44 22z"/><path fill="#828a14" d="m1020 160-44-22v44l44 22z"/><path fill="#fff" d="m1020 116 44 22-22 11-44-22z" opacity=".22"/><path fill="#70ec7c" d="m840 320 50 25-50 25-50-25z"/><path fill="#3ac644" d="m840 370 50-25v50l-50 25z"/><path fill="#1e7228" d="m840 370-50-25v50l50 25z"/><path fill="#fff" d="m840 320 50 25-25 12.5-50-25z" opacity=".22"/><path fill="#76d49c" d="m1000 262 48 24-48 24-48-24z"/><path fill="#4ebc80" d="m1000 310 48-24v48l-48 24z"/><path fill="#267a50" d="m1000 310-48-24v48l48 24z"/><path fill="#fff" d="m1000 262 48 24-24 12-48-24z" opacity=".22"/><path fill="#ee7060" d="m700 414 46 23-46 23-46-23z"/><path fill="#da4e30" d="m700 460 46-23v46l-46 23z"/><path fill="#8c2a12" d="m700 460-46-23v46l46 23z"/><path fill="#fff" d="m700 414 46 23-23 11.5-46-23z" opacity=".22"/><path fill="#ffaa4a" d="m950 410 50 25-50 25-50-25z"/><path fill="#ee8a1c" d="m950 460 50-25v50l-50 25z"/><path fill="#9e5a06" d="m950 460-50-25v50l50 25z"/><path fill="#fff" d="m950 410 50 25-25 12.5-50-25z" opacity=".22"/></g><path fill="url(#f)" d="M0 0h1200v630H0z" opacity=".4"/><path fill="rgba(255,255,255,0.025)" d="M0 0h200Q0 0 0 200Z"/></svg>