<svg xmlns="http://www.w3.org/2000/svg" viewBox="0 0 1080 1920"><defs><filter id="e" width="145%" height="145%" x="-20%" y="-20%"><feDropShadow dx="0" dy="8" flood-color="#000" flood-opacity=".7" stdDeviation="10"/></filter><filter id="g" width="120%" height="180%" x="-10%" y="-40%"><feGaussianBlur result="blur" stdDeviation="12"/><feMerge><feMergeNode in="blur"/><feMergeNode in="blur"/><feMergeNode in="SourceGraphic"/></feMerge></filter><filter id="h" width="130%" height="220%" x="-15%" y="-60%"><feGaussianBlur result="blur" stdDeviation="5"/><feMerge><feMergeNode in="blur"/><feMergeNode in="SourceGraphic"/></feMerge></filter><filter id="j" width="110%" height="500%" x="-5%" y="-200%"><feGaussianBlur result="blur" stdDeviation="6"/><feMerge><feMergeNode in="blur"/><feMergeNode in="blur"/><feMergeNode in="SourceGraphic"/></feMerge></filter><filter id="d" width="300%" height="300%" x="-100%" y="-100%"><feGaussianBlur result="blur" stdDeviation="4"/><feMerge><feMergeNode in="blur"/><feMergeNode in="SourceGraphic"/></feMerge></filter><filter id="m" width="104%" height="104%" x="-2%" y="-2%"><feGaussianBlur result="blur" stdDeviation="8"/><feMerge><feMergeNode in="blur"/><feMergeNode in="SourceGraphic"/></feMerge></filter><linearGradient id="a" x1="0%" x2="30%" y1="0%" y2="100%"><stop offset="0%" stop-color="#081508"/><stop offset="30%" stop-color="#0c1c0c"/><stop offset="60%" stop-color="#0f2310"/><stop offset="100%" stop-color="#060e06"/></linearGradient><linearGradient id="f" x1="0%" x2="0%" y1="0%" y2="100%"><stop offset="0%" stop-color="#ffe878"/><stop offset="30%" stop-color="#f5d060"/><stop offset="65%" stop-color="#d4b030"/><stop offset="100%" stop-color="#9a7010"/></linearGradient><linearGradient id="i" x1="0%" x2="100%" y1="0%" y2="0%"><stop offset="0%" stop-color="#3ac644"/><stop offset="40%" stop-color="#d4b030"/><stop offset="100%" stop-color="#ee8a1c"/></linearGradient><linearGradient id="k" x1="0%" x2="100%" y1="0%" y2="0%"><stop offset="0%" stop-color="#3ac644" stop-opacity=".5"/><stop offset="100%" stop-color="#ee8a1c" stop-opacity=".5"/></linearGradient><radialGradient id="b" cx="50%" cy="48%" r="42%"><stop offset="0%" stop-color="#1a3a18" stop-opacity=".85"/><stop offset="50%" stop-color="#102010" stop-opacity=".5"/><stop offset="100%" stop-color="#060e06" stop-opacity="0"/></radialGradient><radialGradient id="c" cx="50%" cy="48%" r="30%"><stop offset="0%" stop-color="#d4b030" stop-opacity=".12"/><stop offset="100%" stop-color="#d4b030" stop-opacity="0"/></radialGradient><radialGradient id="l" cx="50%" cy="50%" r="65%"><stop offset="0%" stop-color="#060e06" stop-opacity="0"/><stop offset="100%" stop-opacity=".85"/></radialGradient></defs><path fill="url(#a)" d="M0 0h1080v1920H0z"/><path fill="url(#b)" d="M0 0h1080v1920H0z"/><path fill="url(#c)" d="M0 0h1080v1920H0z"/><path stroke="#3ac644" d="M0 120h1080M0 240h1080M0 360h1080M0 480h1080M0 600h1080M0 720h1080M0 840h1080M0 960h1080M0 1080h1080M0 1200h1080M0 1320h1080M0 1440h1080M0 1560h1080M0 1680h1080M0 1800h1080M120 0v1920M240 0v1920M360 0v1920M480 0v1920M600 0v1920M720 0v1920M840 0v1920M960 0v1920" opacity=".035"/><g filter="url(#d)" opacity=".7"><circle cx="120" cy="160" r="5" fill="#3ac644" opacity=".65"/><circle cx="320" cy="80" r="4" fill="#eeb23a" opacity=".55"/><circle cx="540" cy="120" r="3" fill="#30b2c6" opacity=".5"/><circle cx="780" cy="90" r="5" fill="#9e3ac6" opacity=".55"/><circle cx="950" cy="200" r="4" fill="#da4e30" opacity=".6"/><circle cx="80" cy="350" r="3" fill="#ee8a1c" opacity=".5"/><circle cx="200" cy="500" r="6" fill="#62da4e" opacity=".45"/><circle cx="1000" cy="350" r="4" fill="#4ebc80" opacity=".5"/><circle cx="980" cy="550" r="5" fill="#c6d026" opacity=".45"/><circle cx="70" cy="1200" r="5" fill="#3ac644" opacity=".55"/><circle cx="180" cy="1350" r="4" fill="#d4b030" opacity=".5"/><circle cx="900" cy="1100" r="6" fill="#30b2c6" opacity=".5"/><circle cx="1010" cy="1280" r="4" fill="#da4e30" opacity=".55"/><circle cx="360" cy="1500" r="3" fill="#9e3ac6" opacity=".45"/><circle cx="780" cy="1450" r="5" fill="#ee8a1c" opacity=".5"/><circle cx="150" cy="1650" r="4" fill="#62da4e" opacity=".5"/><circle cx="500" cy="1720" r="3" fill="#eeb23a" opacity=".45"/><circle cx="820" cy="1700" r="5" fill="#3ac644" opacity=".55"/><circle cx="960" cy="1600" r="4" fill="#30b2c6" opacity=".5"/><circle cx="430" cy="200" r="2" fill="#ffe878" opacity=".5"/><circle cx="650" cy="450" r="2" fill="#ffe878" opacity=".4"/><circle cx="200" cy="800" r="2" fill="#ffe878" opacity=".45"/><circle cx="880" cy="750" r="2" fill="#ffe878" opacity=".4"/><circle cx="550" cy="1600" r="2" fill="#ffe878" opacity=".45"/></g><ellipse cx="540" cy="860" fill="none" stroke="#d4b030" stroke-width="1.5" opacity=".12" rx="380" ry="200"/><ellipse cx="540" cy="860" fill="none" stroke="#3ac644" stroke-width=".8" opacity=".1" rx="340" ry="170"/><g filter="url(#e)"><path fill="#70ec7c" d="m400 630 70 35-70 35-70-35z"/><path fill="#3ac644" d="m400 700 70-35v70l-70 35z"/><path fill="#1e7228" d="m400 700-70-35v70l70 35z"/><path fill="#fff" d="m400 630 70 35-35 17.5-70-35z" opacity=".22"/><path fill="#ffd864" d="m540 630 70 35-70 35-70-35z"/><path fill="#d4b030" d="m540 700 70-35v70l-70 35z"/><path fill="#8c7418" d="m540 700-70-35v70l70 35z"/><path fill="#fff" d="m540 630 70 35-35 17.5-70-35z" opacity=".3"/><path fill="#ee7060" d="m680 630 70 35-70 35-70-35z"/><path fill="#da4e30" d="m680 700 70-35v70l-70 35z"/><path fill="#8c2a12" d="m680 700-70-35v70l70 35z"/><path fill="#fff" d="m680 630 70 35-35 17.5-70-35z" opacity=".22"/><path fill="#ffaa4a" d="m400 770 70 35-70 35-70-35z"/><path fill="#ee8a1c" d="m400 840 70-35v70l-70 35z"/><path fill="#9e5a06" d="m400 840-70-35v70l70 35z"/><path fill="#fff" d="m400 770 70 35-35 17.5-70-35z" opacity=".22"/><path fill="#5ccede" d="m540 770 70 35-70 35-70-35z"/><path fill="#30b2c6" d="m540 840 70-35v70l-70 35z"/><path fill="#147888" d="m540 840-70-35v70l70 35z"/><path fill="#fff" d="m540 770 70 35-35 17.5-70-35z" opacity=".22"/><path fill="#c060e0" d="m680 770 70 35-70 35-70-35z"/><path fill="#9e3ac6" d="m680 840 70-35v70l-70 35z"/><path fill="#621880" d="m680 840-70-35v70l70 35z"/><path fill="#fff" d="m680 770 70 35-35 17.5-70-35z" opacity=".22"/><path fill="#86ec72" d="m400 910 70 35-70 35-70-35z"/><path fill="#62da4e" d="m400 980 70-35v70l-70 35z"/><path fill="#369424" d="m400 980-70-35v70l70 35z"/><path fill="#fff" d="m400 910 70 35-35 17.5-70-35z" opacity=".22"/><path fill="#dce84e" d="m540 910 70 35-70 35-70-35z"/><path fill="#c6d026" d="m540 980 70-35v70l-70 35z"/><path fill="#828a14" d="m540 980-70-35v70l70 35z"/><path fill="#fff" d="m540 910 70 35-35 17.5-70-35z" opacity=".22"/><path fill="#76d49c" d="m680 910 70 35-70 35-70-35z"/><path fill="#4ebc80" d="m680 980 70-35v70l-70 35z"/><path fill="#267a50" d="m680 980-70-35v70l70 35z"/><path fill="#fff" d="m680 910 70 35-35 17.5-70-35z" opacity=".22"/></g><path stroke="#d4b030" stroke-width="2" d="M80 1095h290m340 0h290" opacity=".4"/><circle cx="395" cy="1095" r="5" fill="#d4b030" opacity=".5"/><circle cx="685" cy="1095" r="5" fill="#d4b030" opacity=".5"/><text x="540" y="1175" fill="url(#f)" filter="url(#g)" font-family="'Arial Black','Impact','Arial',sans-serif" font-size="104" font-weight="900" letter-spacing="8" text-anchor="middle">BLOCK PUZZLE</text><text x="540" y="1228" fill="#d4b030" filter="url(#h)" font-family="'Arial','Helvetica',sans-serif" font-size="26" font-weight="300" letter-spacing="16" opacity=".65" text-anchor="middle">PREMIUM</text><path stroke="#d4b030" d="M240 1258h600" opacity=".25"/><text x="540" y="1298" fill="#7ac870" font-family="'Arial','Helvetica',sans-serif" font-size="22" font-weight="300" letter-spacing="6" opacity=".6" text-anchor="middle">Place. Clear. Conquer.</text><rect width="700" height="8" x="190" y="1830" fill="rgba(255,255,255,0.08)" rx="4"/><rect width="700" height="8" x="190" y="1830" fill="url(#i)" filter="url(#j)" opacity=".92" rx="4"/><rect width="700" height="12" x="190" y="1828" fill="url(#k)" opacity=".5" rx="6"/><circle cx="890" cy="1834" r="6" fill="#ffe878" filter="url(#j)" opacity=".9"/><text x="540" y="1870" fill="#d4b030" font-family="'Arial','Helvetica',sans-serif" font-size="18" font-weight="300" letter-spacing="8" opacity=".45" text-anchor="middle">LOADING...</text><path fill="url(#l)" d="M0 0h1080v1920H0z"/><path fill="none" stroke="#d4b030" stroke-width="6" d="M0 0h1080v1920H0z" filter="url(#m)" opacity=".15"/><path fill="none" stroke="url(#f)" stroke-width="2" d="M3 3h1074v1914H3z" opacity=".4"/></svg>