<svg xmlns="http://www.w3.org/2000/svg" width="120" height="100" viewBox="0 0 120 100"><defs><linearGradient id="b" x1="0%" x2="100%" y1="0%" y2="100%"><stop offset="0%" stop-color="#9b6832"/><stop offset="50%" stop-color="#7a4a1e"/><stop offset="100%" stop-color="#5c3010"/></linearGradient><linearGradient id="d" x1="0%" x2="100%" y1="0%" y2="0%"><stop offset="0%" stop-color="#3a1e08"/><stop offset="100%" stop-color="#4a2a10"/></linearGradient><linearGradient id="e" x1="0%" x2="100%" y1="0%" y2="0%"><stop offset="0%" stop-color="#6b3e18"/><stop offset="100%" stop-color="#5a3010"/></linearGradient><filter id="c" width="110%" height="110%" x="-5%" y="-5%"><feTurbulence baseFrequency="0.02 0.5" numOctaves="3" result="grain" seed="7" type="fractalNoise"/><feColorMatrix in="grain" result="woodGrain" values="0.2 0 0 0 0 0.1 0 0 0 0 0 0 0 0 0 0 0 0 2 -0.5"/><feBlend in="SourceGraphic" in2="woodGrain" mode="multiply" result="blended"/><feComposite in="blended" in2="SourceGraphic" operator="in"/></filter><filter id="a" width="140%" height="140%" x="-15%" y="-15%"><feDropShadow dx="2" dy="4" flood-color="#1a0800" flood-opacity=".6" stdDeviation="3"/></filter></defs><g stroke="#2a1206" stroke-width=".8" filter="url(#a)"><path fill="url(#b)" d="m60 24 45.2 26L60 76 14.8 50z" filter="url(#c)"/><path fill="url(#d)" d="M14.8 50 60 76v26L14.8 76z"/><path fill="url(#e)" d="M105.2 50 60 76v26l45.2-26z"/></g><path fill="none" stroke="#3a1a08" stroke-width=".7" d="m28 52 12-4 12 2 13-4 15 2 15-4" clip-path="url(#f)" opacity=".6"/><path fill="none" stroke="#3a1a08" stroke-width=".6" d="m22 56 16-2 17 2 15-4 18 2 12-4" clip-path="url(#f)" opacity=".5"/><path fill="none" stroke="#2e1606" stroke-width=".5" d="m30 60 18-2 14 4 16-4 18 4" clip-path="url(#f)" opacity=".45"/><clipPath id="f"><path d="m60 24 45.2 26L60 76 14.8 50z"/></clipPath><path stroke="#c09060" stroke-width=".8" d="M14.8 50 60 24m0 0 45.2 26" opacity=".4"/></svg>