<svg xmlns="http://www.w3.org/2000/svg" viewBox="0 0 200 140"><defs><linearGradient id="a" x1="0%" x2="100%" y1="0%" y2="100%"><stop offset="0%" stop-color="#5e3a1a"/><stop offset="100%" stop-color="#3a1e08"/></linearGradient><linearGradient id="g" x1="0%" x2="60%" y1="0%" y2="100%"><stop offset="0%" stop-color="#fff" stop-opacity=".14"/><stop offset="50%" stop-color="#fff" stop-opacity=".04"/><stop offset="100%" stop-color="#fff" stop-opacity="0"/></linearGradient><linearGradient id="c" x1="0%" x2="100%" y1="0%" y2="100%"><stop offset="0%" stop-color="#c8904a"/><stop offset="50%" stop-color="#a06830"/><stop offset="100%" stop-color="#7a4818"/></linearGradient><linearGradient id="e" x1="0%" x2="100%" y1="0%" y2="0%"><stop offset="0%" stop-color="#4a2810"/><stop offset="100%" stop-color="#6a3c1c"/></linearGradient><linearGradient id="f" x1="0%" x2="100%" y1="0%" y2="0%"><stop offset="0%" stop-color="#8a5028"/><stop offset="100%" stop-color="#7a4020"/></linearGradient><filter id="d" width="110%" height="110%" x="-5%" y="-5%"><feTurbulence baseFrequency="0.04 0.6" numOctaves="3" result="noise" seed="5"/><feColorMatrix in="noise" result="cn" type="saturate" values=".3"/><feBlend in="SourceGraphic" in2="cn" mode="overlay" result="t"/><feComposite in="t" in2="SourceGraphic" operator="in"/></filter><filter id="b" width="150%" height="150%" x="-20%" y="-20%"><feDropShadow dx="2" dy="3" flood-color="#1a0800" flood-opacity=".6" stdDeviation="3"/></filter></defs><rect width="200" height="140" fill="url(#a)" rx="10"/><g stroke-width=".8" filter="url(#b)"><path fill="url(#c)" stroke="#3a1e08" d="m100 30 27.7 16L100 62 72.3 46z" filter="url(#d)"/><path fill="url(#e)" stroke="#2a1008" d="M72.3 46 100 62v16L72.3 62z"/><path fill="url(#f)" stroke="#4a2810" d="M127.7 46 100 62v16l27.7-16z"/></g><path stroke="#6a3010" stroke-width=".8" d="m76 50 42-6" opacity=".55"/><path stroke="#6a3010" stroke-width=".6" d="m80 56 32-6" opacity=".4"/><path stroke="#c89050" stroke-width=".5" d="m86 40 28 14" opacity=".3"/><path stroke="#3a1808" stroke-width=".7" d="m74 52 14 16" opacity=".5"/><path stroke="#3a1808" stroke-width=".5" d="m80 50 14 16" opacity=".35"/><path stroke="#6a3818" stroke-width=".7" d="m114 50 8 16" opacity=".45"/><rect width="200" height="140" fill="url(#g)" rx="10"/><text x="100" y="115" fill="#d4a060" stroke="#1a0800" stroke-width="2" font-family="Arial Black, Arial, sans-serif" font-size="14" font-weight="900" letter-spacing="2" paint-order="stroke" text-anchor="middle">BOIS</text><rect width="198" height="138" x="1" y="1" fill="none" stroke="#a06830" stroke-width="1.5" opacity=".65" rx="9.5"/></svg>