<svg xmlns="http://www.w3.org/2000/svg" width="120" height="100" viewBox="0 0 120 100"><defs><linearGradient id="d" x1="0%" x2="100%" y1="0%" y2="0%"><stop offset="0%" stop-color="#600000"/><stop offset="100%" stop-color="maroon"/></linearGradient><linearGradient id="e" x1="0%" x2="100%" y1="0%" y2="0%"><stop offset="0%" stop-color="#cc3000"/><stop offset="100%" stop-color="#a02000"/></linearGradient><filter id="c" width="110%" height="110%" x="-5%" y="-5%"><feTurbulence baseFrequency="0.08 0.06" numOctaves="4" result="lava" seed="17"/><feColorMatrix in="lava" result="lavaColor" values="1 0.3 0 0 0 0.2 0 0 0 0 0 0 0 0 0 0 0 0 3 -1"/><feBlend in="SourceGraphic" in2="lavaColor" mode="hard-light" result="blended"/><feComposite in="blended" in2="SourceGraphic" operator="in"/></filter><filter id="a" width="150%" height="150%" x="-25%" y="-25%"><feDropShadow dx="0" dy="2" flood-color="#f40" flood-opacity=".8" stdDeviation="6"/></filter><radialGradient id="b" cx="50%" cy="45%" r="55%"><stop offset="0%" stop-color="#ff9030"/><stop offset="45%" stop-color="#ff2800"/><stop offset="100%" stop-color="#280600"/></radialGradient><clipPath id="f"><path d="m60 24 45.2 26L60 76 14.8 50z"/></clipPath></defs><g stroke-width=".8" filter="url(#a)"><path fill="url(#b)" stroke="#f40" d="m60 24 45.2 26L60 76 14.8 50z" filter="url(#c)"/><path fill="url(#d)" stroke="#a20" d="M14.8 50 60 76v26L14.8 76z"/><path fill="url(#e)" stroke="#a20" d="M105.2 50 60 76v26l45.2-26z"/></g><g clip-path="url(#f)"><circle cx="48" cy="42" r="3" fill="#ff8820" opacity=".7"/><circle cx="72" cy="48" r="2" fill="#ffaa30" opacity=".6"/><circle cx="60" cy="58" r="2.5" fill="#f60" opacity=".65"/><circle cx="38" cy="54" r="1.5" fill="#f50" opacity=".5"/><circle cx="84" cy="56" r="2" fill="#ff7720" opacity=".55"/></g><path stroke="#f60" stroke-width="1.2" d="M14.8 50 60 24m0 0 45.2 26" opacity=".7"/></svg>