<svg xmlns="http://www.w3.org/2000/svg" viewBox="0 0 200 140"><defs><linearGradient id="a" x1="0%" x2="100%" y1="0%" y2="100%"><stop offset="0%" stop-color="maroon"/><stop offset="100%" stop-color="#cc3000"/></linearGradient><linearGradient id="h" x1="0%" x2="60%" y1="0%" y2="100%"><stop offset="0%" stop-color="#ff8020" stop-opacity=".22"/><stop offset="45%" stop-color="#ff8020" stop-opacity=".06"/><stop offset="100%" stop-color="#ff8020" stop-opacity="0"/></linearGradient><linearGradient id="d" x1="0%" x2="100%" y1="100%" y2="0%"><stop offset="0%" stop-color="#8b0000"/><stop offset="40%" stop-color="#c20"/><stop offset="70%" stop-color="#f50"/><stop offset="100%" stop-color="#ff8820"/></linearGradient><linearGradient id="f" x1="0%" x2="100%" y1="0%" y2="0%"><stop offset="0%" stop-color="#5a0000"/><stop offset="100%" stop-color="#881000"/></linearGradient><linearGradient id="g" x1="0%" x2="100%" y1="0%" y2="0%"><stop offset="0%" stop-color="#a20"/><stop offset="100%" stop-color="#cc4000"/></linearGradient><filter id="e" width="110%" height="110%" x="-5%" y="-5%"><feTurbulence baseFrequency=".08" numOctaves="3" result="noise" seed="2"/><feColorMatrix in="noise" result="cn" values="1 0.2 0 0 0 0 0.1 0 0 0 0 0 0 0 0 0 0 0 0.8 0"/><feBlend in="SourceGraphic" in2="cn" mode="overlay" result="t"/><feComposite in="t" in2="SourceGraphic" operator="in"/></filter><filter id="b" width="160%" height="160%" x="-30%" y="-30%"><feGaussianBlur result="blur" stdDeviation="5"/><feComposite in="SourceGraphic" in2="blur"/></filter><filter id="c" width="150%" height="150%" x="-20%" y="-20%"><feDropShadow dx="2" dy="3" flood-color="#f40" flood-opacity=".65" stdDeviation="5"/></filter></defs><rect width="200" height="140" fill="url(#a)" rx="10"/><ellipse cx="100" cy="65" fill="#f40" filter="url(#b)" opacity=".22" rx="48" ry="26"/><g stroke-width=".8" filter="url(#c)"><path fill="url(#d)" stroke="#f40" d="m100 30 27.7 16L100 62 72.3 46z" filter="url(#e)"/><path fill="url(#f)" stroke="#600" d="M72.3 46 100 62v16L72.3 62z"/><path fill="url(#g)" stroke="#a20" d="M127.7 46 100 62v16l27.7-16z"/></g><circle cx="90" cy="46" r="2.5" fill="#fd0" filter="url(#b)" opacity=".7"/><circle cx="108" cy="40" r="1.8" fill="#fc0" filter="url(#b)" opacity=".6"/><circle cx="100" cy="52" r="1.5" fill="#ffa020" filter="url(#b)" opacity=".55"/><path fill="none" stroke="#f60" stroke-width=".9" d="M78 54q10-10 22-6t22-4" opacity=".6"/><path fill="none" stroke="#ff8820" stroke-width=".6" d="M82 48q10-8 22-4" opacity=".45"/><path stroke="#ffd040" stroke-width=".8" d="m96 28-2-4" opacity=".7"/><path stroke="#ffe060" stroke-width=".7" d="m104 27 2-4" opacity=".6"/><path stroke="#ffd040" stroke-width=".6" d="m112 42 3-4" opacity=".5"/><path stroke="#ff8820" stroke-width="1.2" d="M72.3 46 100 30" opacity=".75"/><path stroke="#f60" d="m100 30 27.7 16" opacity=".6"/><rect width="200" height="140" fill="url(#h)" rx="10"/><text x="100" y="115" fill="#ff8020" stroke="#400000" stroke-width="2" font-family="Arial Black, Arial, sans-serif" font-size="14" font-weight="900" letter-spacing="2" paint-order="stroke" text-anchor="middle">FEU</text><rect width="198" height="138" x="1" y="1" fill="none" stroke="#f40" stroke-width="1.5" opacity=".75" rx="9.5"/></svg>